G04 #@! TF.GenerationSoftware,KiCad,Pcbnew,(5.1.5)-2*
G04 #@! TF.CreationDate,2019-12-08T01:27:06+01:00*
G04 #@! TF.ProjectId,tof_sensor,746f665f-7365-46e7-936f-722e6b696361,rev?*
G04 #@! TF.SameCoordinates,Original*
G04 #@! TF.FileFunction,Copper,L1,Top*
G04 #@! TF.FilePolarity,Positive*
%FSLAX46Y46*%
G04 Gerber Fmt 4.6, Leading zero omitted, Abs format (unit mm)*
G04 Created by KiCad (PCBNEW (5.1.5)-2) date 2019-12-08 01:27:06*
%MOMM*%
%LPD*%
G04 APERTURE LIST*
%ADD10C,0.300000*%
%ADD11R,2.000000X1.700000*%
%ADD12C,2.800000*%
%ADD13R,2.840000X1.130000*%
%ADD14C,4.400000*%
%ADD15C,0.700000*%
%ADD16R,1.981200X0.558800*%
%ADD17R,1.600000X2.000000*%
%ADD18C,1.500000*%
%ADD19R,1.600000X0.300000*%
%ADD20R,1.560000X0.650000*%
%ADD21R,1.700000X2.000000*%
%ADD22C,2.499360*%
%ADD23R,1.000000X3.100000*%
%ADD24R,1.000000X1.600000*%
%ADD25R,2.000000X1.600000*%
%ADD26C,0.800000*%
%ADD27C,0.250000*%
%ADD28C,0.254000*%
G04 APERTURE END LIST*
D10*
X182820714Y-100143571D02*
X183677857Y-100143571D01*
X183249285Y-101643571D02*
X183249285Y-100143571D01*
X184463571Y-100143571D02*
X184749285Y-100143571D01*
X184892142Y-100215000D01*
X185035000Y-100357857D01*
X185106428Y-100643571D01*
X185106428Y-101143571D01*
X185035000Y-101429285D01*
X184892142Y-101572142D01*
X184749285Y-101643571D01*
X184463571Y-101643571D01*
X184320714Y-101572142D01*
X184177857Y-101429285D01*
X184106428Y-101143571D01*
X184106428Y-100643571D01*
X184177857Y-100357857D01*
X184320714Y-100215000D01*
X184463571Y-100143571D01*
X185749285Y-101643571D02*
X185749285Y-100143571D01*
X186320714Y-100143571D01*
X186463571Y-100215000D01*
X186535000Y-100286428D01*
X186606428Y-100429285D01*
X186606428Y-100643571D01*
X186535000Y-100786428D01*
X186463571Y-100857857D01*
X186320714Y-100929285D01*
X185749285Y-100929285D01*
D11*
X137700000Y-88900000D03*
X141700000Y-88900000D03*
D12*
X122555000Y-79375000D03*
X122555000Y-86995000D03*
D13*
X151220000Y-101600000D03*
X151220000Y-99060000D03*
X151220000Y-96520000D03*
X160220000Y-96520000D03*
X160220000Y-99060000D03*
X160220000Y-101600000D03*
D11*
X144240000Y-82550000D03*
X140240000Y-82550000D03*
D14*
X192485000Y-101680000D03*
D15*
X194135000Y-101680000D03*
X193651726Y-102846726D03*
X192485000Y-103330000D03*
X191318274Y-102846726D03*
X190835000Y-101680000D03*
X191318274Y-100513274D03*
X192485000Y-100030000D03*
X193651726Y-100513274D03*
D14*
X116125000Y-101680000D03*
D15*
X117775000Y-101680000D03*
X117291726Y-102846726D03*
X116125000Y-103330000D03*
X114958274Y-102846726D03*
X114475000Y-101680000D03*
X114958274Y-100513274D03*
X116125000Y-100030000D03*
X117291726Y-100513274D03*
D14*
X192485000Y-65960000D03*
D15*
X194135000Y-65960000D03*
X193651726Y-67126726D03*
X192485000Y-67610000D03*
X191318274Y-67126726D03*
X190835000Y-65960000D03*
X191318274Y-64793274D03*
X192485000Y-64310000D03*
X193651726Y-64793274D03*
D14*
X116125000Y-65960000D03*
D15*
X117775000Y-65960000D03*
X117291726Y-67126726D03*
X116125000Y-67610000D03*
X114958274Y-67126726D03*
X114475000Y-65960000D03*
X114958274Y-64793274D03*
X116125000Y-64310000D03*
X117291726Y-64793274D03*
D16*
X160731200Y-73025000D03*
X160731200Y-74295000D03*
X160731200Y-75565000D03*
X160731200Y-76835000D03*
X160731200Y-78105000D03*
X160731200Y-79375000D03*
X160731200Y-80645000D03*
X160731200Y-81915000D03*
X160731200Y-83185000D03*
X160731200Y-84455000D03*
X160731200Y-85725000D03*
X160731200Y-86995000D03*
X160731200Y-88265000D03*
X160731200Y-89535000D03*
X151688800Y-89535000D03*
X151688800Y-88265000D03*
X151688800Y-86995000D03*
X151688800Y-85725000D03*
X151688800Y-84455000D03*
X151688800Y-83185000D03*
X151688800Y-81915000D03*
X151688800Y-80645000D03*
X151688800Y-79375000D03*
X151688800Y-78105000D03*
X151688800Y-76835000D03*
X151688800Y-75565000D03*
X151688800Y-74295000D03*
X151688800Y-73025000D03*
D11*
X144240000Y-78105000D03*
X140240000Y-78105000D03*
D17*
X147320000Y-84360000D03*
X147320000Y-88360000D03*
D18*
X166370000Y-93345000D03*
X170815000Y-93345000D03*
D19*
X129110000Y-68875000D03*
X129110000Y-69525000D03*
X129110000Y-70175000D03*
X129110000Y-70825000D03*
X132510000Y-70825000D03*
X132510000Y-70175000D03*
X132510000Y-69525000D03*
X132510000Y-68875000D03*
D20*
X168195000Y-68265000D03*
X168195000Y-69215000D03*
X168195000Y-70165000D03*
X170895000Y-70165000D03*
X170895000Y-68265000D03*
D12*
X181610000Y-93345000D03*
X187325000Y-93345000D03*
X132080000Y-95250000D03*
X137160000Y-95250000D03*
X173990000Y-88265000D03*
X173990000Y-82550000D03*
D11*
X142780000Y-101600000D03*
X146780000Y-101600000D03*
X142780000Y-99060000D03*
X146780000Y-99060000D03*
X142780000Y-96520000D03*
X146780000Y-96520000D03*
X140430000Y-64770000D03*
X136430000Y-64770000D03*
X125825000Y-69850000D03*
X121825000Y-69850000D03*
X169640000Y-87630000D03*
X165640000Y-87630000D03*
X169640000Y-85090000D03*
X165640000Y-85090000D03*
D21*
X142240000Y-72485000D03*
X142240000Y-68485000D03*
D22*
X162560000Y-64135000D03*
X158750000Y-64135000D03*
X154940000Y-64135000D03*
X151130000Y-64135000D03*
X147320000Y-64135000D03*
D23*
X175260000Y-70205000D03*
X187960000Y-70205000D03*
X177800000Y-70205000D03*
X185420000Y-70205000D03*
X182880000Y-70205000D03*
X180340000Y-70205000D03*
D11*
X137700000Y-86360000D03*
X141700000Y-86360000D03*
D24*
X147550000Y-72390000D03*
X144550000Y-72390000D03*
D25*
X165640000Y-82550000D03*
X169640000Y-82550000D03*
X144685000Y-69850000D03*
X148685000Y-69850000D03*
D17*
X139065000Y-73755000D03*
X139065000Y-69755000D03*
X136525000Y-73755000D03*
X136525000Y-69755000D03*
D25*
X163290000Y-70485000D03*
X159290000Y-70485000D03*
X166910000Y-66040000D03*
X170910000Y-66040000D03*
X166815000Y-72390000D03*
X170815000Y-72390000D03*
D26*
X133350000Y-80645000D03*
X130175000Y-77470000D03*
X142875000Y-64770000D03*
X128270000Y-67310000D03*
X158750000Y-83820000D03*
X167640000Y-82550000D03*
X161290000Y-70485000D03*
X136525000Y-71755000D03*
X139065000Y-71755000D03*
X147955000Y-81915000D03*
X166370000Y-69215000D03*
X168910000Y-66040000D03*
X168910000Y-72390000D03*
X163195000Y-73660000D03*
X146685000Y-69850000D03*
X168275000Y-93345000D03*
X139700000Y-88900000D03*
X123825000Y-69850000D03*
X144780000Y-96520000D03*
X144780000Y-99060000D03*
X144780000Y-101600000D03*
X182880000Y-73025000D03*
X184310000Y-85090000D03*
X182880000Y-77470000D03*
X182880000Y-80010000D03*
X148590000Y-74930000D03*
X148590000Y-78740000D03*
X132080000Y-85090000D03*
X163830000Y-74930000D03*
X153670000Y-73025000D03*
X147320000Y-86360000D03*
X139700000Y-86360000D03*
X154305000Y-78105000D03*
X177800000Y-73025000D03*
X154305000Y-76835000D03*
X173355000Y-76835000D03*
X156210000Y-69215000D03*
X134620000Y-70485000D03*
X132715000Y-66675000D03*
X158750000Y-76835000D03*
X158115000Y-79465000D03*
X131700000Y-80265000D03*
X167640000Y-85090000D03*
X158750000Y-85725000D03*
X167640000Y-87630000D03*
X157480000Y-84365000D03*
X178435000Y-77470000D03*
X135890000Y-79375000D03*
X135890000Y-85090000D03*
X178435000Y-79375000D03*
X153670000Y-100965000D03*
X151765000Y-92529999D03*
D27*
X133350000Y-80645000D02*
X130175000Y-77470000D01*
X165420000Y-68265000D02*
X168195000Y-68265000D01*
X165420000Y-68265000D02*
X165420000Y-69535000D01*
X165420000Y-69535000D02*
X166050000Y-70165000D01*
X166275000Y-72390000D02*
X166275000Y-71215000D01*
X166690000Y-70165000D02*
X166690000Y-70800000D01*
X166690000Y-70165000D02*
X168195000Y-70165000D01*
X166050000Y-70165000D02*
X166690000Y-70165000D01*
X166690000Y-70800000D02*
X166275000Y-71215000D01*
X167325000Y-68265000D02*
X148910000Y-68265000D01*
X147320000Y-64135000D02*
X147320000Y-66675000D01*
X147320000Y-66675000D02*
X148910000Y-68265000D01*
X140430000Y-64770000D02*
X142875000Y-64770000D01*
X129110000Y-68875000D02*
X129110000Y-68150000D01*
X129110000Y-68150000D02*
X128270000Y-67310000D01*
X160731200Y-84455000D02*
X159385000Y-84455000D01*
X159385000Y-84455000D02*
X158750000Y-83820000D01*
X169640000Y-82550000D02*
X167640000Y-82550000D01*
X163290000Y-70485000D02*
X161290000Y-70485000D01*
X136525000Y-73755000D02*
X136525000Y-71755000D01*
X139065000Y-73755000D02*
X139065000Y-71755000D01*
X147320000Y-84360000D02*
X147320000Y-82550000D01*
X147955000Y-81915000D02*
X151688800Y-81915000D01*
X147320000Y-82550000D02*
X147955000Y-81915000D01*
X168195000Y-69215000D02*
X166370000Y-69215000D01*
X166910000Y-66040000D02*
X168910000Y-66040000D01*
X170275000Y-72390000D02*
X168910000Y-72390000D01*
X160731200Y-74295000D02*
X162560000Y-74295000D01*
X162560000Y-74295000D02*
X163195000Y-73660000D01*
X148685000Y-69850000D02*
X146685000Y-69850000D01*
X166370000Y-93345000D02*
X168275000Y-93345000D01*
X121705000Y-69525000D02*
X121380000Y-69850000D01*
X141700000Y-88900000D02*
X139700000Y-88900000D01*
X121190000Y-69850000D02*
X123825000Y-69850000D01*
X142780000Y-96520000D02*
X144780000Y-96520000D01*
X142780000Y-99060000D02*
X144780000Y-99060000D01*
X142780000Y-101600000D02*
X144780000Y-101600000D01*
X182880000Y-69905000D02*
X182880000Y-73025000D01*
X129110000Y-69525000D02*
X125515000Y-69525000D01*
X147415000Y-88265000D02*
X147320000Y-88360000D01*
X151688800Y-88265000D02*
X147415000Y-88265000D01*
X159461200Y-70656200D02*
X159290000Y-70485000D01*
X170895000Y-66055000D02*
X170910000Y-66040000D01*
X170895000Y-68265000D02*
X170895000Y-66055000D01*
X159490600Y-73025000D02*
X160731200Y-73025000D01*
X159290000Y-72824400D02*
X159490600Y-73025000D01*
X159290000Y-70485000D02*
X159290000Y-72824400D01*
X185420000Y-69905000D02*
X185420000Y-73660000D01*
X182880000Y-76200000D02*
X182880000Y-77470000D01*
X185420000Y-73660000D02*
X182880000Y-76200000D01*
X139065000Y-69755000D02*
X136525000Y-69755000D01*
X136280000Y-69510000D02*
X136525000Y-69755000D01*
X133145000Y-69510000D02*
X136280000Y-69510000D01*
X136120000Y-70160000D02*
X136525000Y-69755000D01*
X136525000Y-69755000D02*
X136525000Y-69215000D01*
X136525000Y-69755000D02*
X136525000Y-64865000D01*
X136430000Y-64770000D02*
X136525000Y-64865000D01*
X132510000Y-68875000D02*
X132510000Y-69525000D01*
X147550000Y-72390000D02*
X148590000Y-72390000D01*
X149225000Y-73025000D02*
X151688800Y-73025000D01*
X148590000Y-72390000D02*
X149225000Y-73025000D01*
X153670000Y-73025000D02*
X151688800Y-73025000D01*
X163830000Y-74930000D02*
X173990000Y-74930000D01*
X177165000Y-67310000D02*
X176530000Y-67945000D01*
X176530000Y-67945000D02*
X176530000Y-72390000D01*
X176530000Y-72390000D02*
X173990000Y-74930000D01*
X187960000Y-69905000D02*
X187960000Y-68580000D01*
X187960000Y-68580000D02*
X186690000Y-67310000D01*
X186690000Y-67310000D02*
X177165000Y-67310000D01*
X165640000Y-82550000D02*
X163830000Y-82550000D01*
X163195000Y-83185000D02*
X160731200Y-83185000D01*
X163830000Y-82550000D02*
X163195000Y-83185000D01*
X137700000Y-86360000D02*
X137700000Y-88900000D01*
X151688800Y-85725000D02*
X149225000Y-85725000D01*
X149225000Y-85725000D02*
X148590000Y-86360000D01*
X148590000Y-86360000D02*
X147320000Y-86360000D01*
X139700000Y-86360000D02*
X141700000Y-86360000D01*
X151688800Y-78105000D02*
X154305000Y-78105000D01*
X177800000Y-69905000D02*
X177800000Y-73025000D01*
X151688800Y-76835000D02*
X154305000Y-76835000D01*
X180340000Y-73025000D02*
X180340000Y-70485000D01*
X180340000Y-73660000D02*
X180340000Y-70485000D01*
X173355000Y-76835000D02*
X177165000Y-76835000D01*
X177165000Y-76835000D02*
X180340000Y-73660000D01*
X158115000Y-80645000D02*
X160731200Y-80645000D01*
X158115000Y-80645000D02*
X156210000Y-78740000D01*
X156210000Y-78740000D02*
X156210000Y-69215000D01*
X132510000Y-70825000D02*
X134280000Y-70825000D01*
X134280000Y-70825000D02*
X134620000Y-70485000D01*
X131460000Y-70175000D02*
X132510000Y-70175000D01*
X130810000Y-69525000D02*
X131460000Y-70175000D01*
X130810000Y-68580000D02*
X130810000Y-69525000D01*
X132715000Y-66675000D02*
X130810000Y-68580000D01*
X158750000Y-76835000D02*
X160731200Y-76835000D01*
X158115000Y-79465000D02*
X158115000Y-77470000D01*
X158115000Y-77470000D02*
X157480000Y-76835000D01*
X157480000Y-76835000D02*
X157480000Y-76200000D01*
X157480000Y-76200000D02*
X158115000Y-75565000D01*
X158115000Y-75565000D02*
X160731200Y-75565000D01*
X122555000Y-79375000D02*
X130810000Y-79375000D01*
X130810000Y-79375000D02*
X131700000Y-80265000D01*
X165640000Y-85090000D02*
X163830000Y-85090000D01*
X163195000Y-85725000D02*
X160731200Y-85725000D01*
X163830000Y-85090000D02*
X163195000Y-85725000D01*
X165640000Y-85090000D02*
X167640000Y-85090000D01*
X160731200Y-85725000D02*
X158750000Y-85725000D01*
X129110000Y-70175000D02*
X127945000Y-70175000D01*
X127635000Y-70485000D02*
X127635000Y-72390000D01*
X127945000Y-70175000D02*
X127635000Y-70485000D01*
X144240000Y-80740000D02*
X144145000Y-80645000D01*
X144240000Y-83185000D02*
X144240000Y-80740000D01*
X135890000Y-80645000D02*
X144145000Y-80645000D01*
X144145000Y-80645000D02*
X151688800Y-80645000D01*
X134620000Y-79375000D02*
X135890000Y-80645000D01*
X134620000Y-92710000D02*
X132080000Y-95250000D01*
X127635000Y-72390000D02*
X134620000Y-79375000D01*
X134620000Y-79375000D02*
X134620000Y-92710000D01*
X160731200Y-86995000D02*
X163195000Y-86995000D01*
X163830000Y-87630000D02*
X165640000Y-87630000D01*
X163195000Y-86995000D02*
X163830000Y-87630000D01*
X165640000Y-87630000D02*
X167640000Y-87630000D01*
X157480000Y-84365000D02*
X157480000Y-86360000D01*
X157480000Y-86360000D02*
X158115000Y-86995000D01*
X158115000Y-86995000D02*
X160731200Y-86995000D01*
X160731200Y-78105000D02*
X177800000Y-78105000D01*
X177800000Y-78105000D02*
X178435000Y-77470000D01*
X187325000Y-86360000D02*
X187325000Y-93345000D01*
X178435000Y-77470000D02*
X187325000Y-86360000D01*
X181610000Y-91365102D02*
X181610000Y-93345000D01*
X149225000Y-79375000D02*
X151688800Y-79375000D01*
X148590000Y-80010000D02*
X149225000Y-79375000D01*
X129110000Y-70825000D02*
X129110000Y-72595000D01*
X144240000Y-78105000D02*
X144240000Y-79915000D01*
X144240000Y-79915000D02*
X144145000Y-80010000D01*
X136525000Y-80010000D02*
X144145000Y-80010000D01*
X144145000Y-80010000D02*
X148590000Y-80010000D01*
X135890000Y-79375000D02*
X136525000Y-80010000D01*
X129110000Y-72595000D02*
X135890000Y-79375000D01*
X135890000Y-85090000D02*
X135890000Y-93980000D01*
X135890000Y-93980000D02*
X137160000Y-95250000D01*
X160731200Y-79375000D02*
X163830000Y-79375000D01*
X163830000Y-79375000D02*
X178435000Y-79375000D01*
X181610000Y-82550000D02*
X181610000Y-93345000D01*
X178435000Y-79375000D02*
X181610000Y-82550000D01*
X146780000Y-96520000D02*
X151420000Y-96520000D01*
X159385000Y-88265000D02*
X160731200Y-88265000D01*
X151130000Y-96230000D02*
X151130000Y-95885000D01*
X151765000Y-95250000D02*
X152400000Y-95250000D01*
X151130000Y-95885000D02*
X151765000Y-95250000D01*
X151420000Y-96520000D02*
X151130000Y-96230000D01*
X152400000Y-95250000D02*
X159385000Y-88265000D01*
X160655000Y-89535000D02*
X160731200Y-89535000D01*
X160731200Y-90064400D02*
X160731200Y-89535000D01*
X146780000Y-99060000D02*
X151420000Y-99060000D01*
X160731200Y-91363800D02*
X160731200Y-89535000D01*
X151420000Y-99060000D02*
X153035000Y-99060000D01*
X153035000Y-99060000D02*
X160731200Y-91363800D01*
X146780000Y-101600000D02*
X151420000Y-101600000D01*
X151420000Y-101600000D02*
X153035000Y-101600000D01*
X153035000Y-101600000D02*
X153670000Y-100965000D01*
X151765000Y-89611200D02*
X151688800Y-89535000D01*
X151765000Y-92529999D02*
X151765000Y-89611200D01*
X141700000Y-72390000D02*
X142240000Y-71850000D01*
X142240000Y-71850000D02*
X142240000Y-72390000D01*
X142240000Y-72390000D02*
X144550000Y-72390000D01*
X144550000Y-69985000D02*
X144685000Y-69850000D01*
X144550000Y-72390000D02*
X144550000Y-69985000D01*
D28*
G36*
X196825001Y-87597572D02*
G01*
X196825000Y-87597582D01*
X196825001Y-106020000D01*
X111785000Y-106020000D01*
X111785000Y-101400777D01*
X113290000Y-101400777D01*
X113290000Y-101959223D01*
X113398948Y-102506939D01*
X113612656Y-103022876D01*
X113922912Y-103487207D01*
X114317793Y-103882088D01*
X114782124Y-104192344D01*
X115298061Y-104406052D01*
X115845777Y-104515000D01*
X116404223Y-104515000D01*
X116951939Y-104406052D01*
X117467876Y-104192344D01*
X117932207Y-103882088D01*
X118327088Y-103487207D01*
X118637344Y-103022876D01*
X118851052Y-102506939D01*
X118960000Y-101959223D01*
X118960000Y-101400777D01*
X118851052Y-100853061D01*
X118637344Y-100337124D01*
X118327088Y-99872793D01*
X117932207Y-99477912D01*
X117467876Y-99167656D01*
X116951939Y-98953948D01*
X116404223Y-98845000D01*
X115845777Y-98845000D01*
X115298061Y-98953948D01*
X114782124Y-99167656D01*
X114317793Y-99477912D01*
X113922912Y-99872793D01*
X113612656Y-100337124D01*
X113398948Y-100853061D01*
X113290000Y-101400777D01*
X111785000Y-101400777D01*
X111785000Y-86794570D01*
X120520000Y-86794570D01*
X120520000Y-87195430D01*
X120598204Y-87588587D01*
X120751607Y-87958934D01*
X120974313Y-88292237D01*
X121257763Y-88575687D01*
X121591066Y-88798393D01*
X121961413Y-88951796D01*
X122354570Y-89030000D01*
X122755430Y-89030000D01*
X123148587Y-88951796D01*
X123518934Y-88798393D01*
X123852237Y-88575687D01*
X124135687Y-88292237D01*
X124358393Y-87958934D01*
X124511796Y-87588587D01*
X124590000Y-87195430D01*
X124590000Y-86794570D01*
X124511796Y-86401413D01*
X124358393Y-86031066D01*
X124135687Y-85697763D01*
X123852237Y-85414313D01*
X123518934Y-85191607D01*
X123148587Y-85038204D01*
X122755430Y-84960000D01*
X122354570Y-84960000D01*
X121961413Y-85038204D01*
X121591066Y-85191607D01*
X121257763Y-85414313D01*
X120974313Y-85697763D01*
X120751607Y-86031066D01*
X120598204Y-86401413D01*
X120520000Y-86794570D01*
X111785000Y-86794570D01*
X111785000Y-79174570D01*
X120520000Y-79174570D01*
X120520000Y-79575430D01*
X120598204Y-79968587D01*
X120751607Y-80338934D01*
X120974313Y-80672237D01*
X121257763Y-80955687D01*
X121591066Y-81178393D01*
X121961413Y-81331796D01*
X122354570Y-81410000D01*
X122755430Y-81410000D01*
X123148587Y-81331796D01*
X123518934Y-81178393D01*
X123852237Y-80955687D01*
X124135687Y-80672237D01*
X124358393Y-80338934D01*
X124442865Y-80135000D01*
X130495199Y-80135000D01*
X130665000Y-80304801D01*
X130665000Y-80366939D01*
X130704774Y-80566898D01*
X130782795Y-80755256D01*
X130896063Y-80924774D01*
X131040226Y-81068937D01*
X131209744Y-81182205D01*
X131398102Y-81260226D01*
X131598061Y-81300000D01*
X131801939Y-81300000D01*
X132001898Y-81260226D01*
X132190256Y-81182205D01*
X132359774Y-81068937D01*
X132391983Y-81036728D01*
X132432795Y-81135256D01*
X132546063Y-81304774D01*
X132690226Y-81448937D01*
X132859744Y-81562205D01*
X133048102Y-81640226D01*
X133248061Y-81680000D01*
X133451939Y-81680000D01*
X133651898Y-81640226D01*
X133840256Y-81562205D01*
X133860000Y-81549012D01*
X133860001Y-92395196D01*
X132877521Y-93377677D01*
X132673587Y-93293204D01*
X132280430Y-93215000D01*
X131879570Y-93215000D01*
X131486413Y-93293204D01*
X131116066Y-93446607D01*
X130782763Y-93669313D01*
X130499313Y-93952763D01*
X130276607Y-94286066D01*
X130123204Y-94656413D01*
X130045000Y-95049570D01*
X130045000Y-95450430D01*
X130123204Y-95843587D01*
X130276607Y-96213934D01*
X130499313Y-96547237D01*
X130782763Y-96830687D01*
X131116066Y-97053393D01*
X131486413Y-97206796D01*
X131879570Y-97285000D01*
X132280430Y-97285000D01*
X132673587Y-97206796D01*
X133043934Y-97053393D01*
X133377237Y-96830687D01*
X133660687Y-96547237D01*
X133883393Y-96213934D01*
X134036796Y-95843587D01*
X134115000Y-95450430D01*
X134115000Y-95049570D01*
X134036796Y-94656413D01*
X133952323Y-94452479D01*
X135130001Y-93274802D01*
X135130001Y-93942668D01*
X135126324Y-93980000D01*
X135130001Y-94017333D01*
X135137553Y-94094003D01*
X135140998Y-94128985D01*
X135184454Y-94272246D01*
X135255026Y-94404276D01*
X135289994Y-94446884D01*
X135203204Y-94656413D01*
X135125000Y-95049570D01*
X135125000Y-95450430D01*
X135203204Y-95843587D01*
X135356607Y-96213934D01*
X135579313Y-96547237D01*
X135862763Y-96830687D01*
X136196066Y-97053393D01*
X136566413Y-97206796D01*
X136959570Y-97285000D01*
X137360430Y-97285000D01*
X137753587Y-97206796D01*
X138123934Y-97053393D01*
X138457237Y-96830687D01*
X138740687Y-96547237D01*
X138963393Y-96213934D01*
X139116796Y-95843587D01*
X139195000Y-95450430D01*
X139195000Y-95049570D01*
X139116796Y-94656413D01*
X138963393Y-94286066D01*
X138740687Y-93952763D01*
X138457237Y-93669313D01*
X138123934Y-93446607D01*
X137753587Y-93293204D01*
X137360430Y-93215000D01*
X136959570Y-93215000D01*
X136650000Y-93276577D01*
X136650000Y-90383148D01*
X136700000Y-90388072D01*
X138700000Y-90388072D01*
X138824482Y-90375812D01*
X138944180Y-90339502D01*
X139054494Y-90280537D01*
X139151185Y-90201185D01*
X139230537Y-90104494D01*
X139289502Y-89994180D01*
X139325812Y-89874482D01*
X139326683Y-89865643D01*
X139398102Y-89895226D01*
X139598061Y-89935000D01*
X139801939Y-89935000D01*
X140001898Y-89895226D01*
X140073317Y-89865643D01*
X140074188Y-89874482D01*
X140110498Y-89994180D01*
X140169463Y-90104494D01*
X140248815Y-90201185D01*
X140345506Y-90280537D01*
X140455820Y-90339502D01*
X140575518Y-90375812D01*
X140700000Y-90388072D01*
X142700000Y-90388072D01*
X142824482Y-90375812D01*
X142944180Y-90339502D01*
X143054494Y-90280537D01*
X143151185Y-90201185D01*
X143230537Y-90104494D01*
X143289502Y-89994180D01*
X143325812Y-89874482D01*
X143338072Y-89750000D01*
X143338072Y-89360000D01*
X145881928Y-89360000D01*
X145894188Y-89484482D01*
X145930498Y-89604180D01*
X145989463Y-89714494D01*
X146068815Y-89811185D01*
X146165506Y-89890537D01*
X146275820Y-89949502D01*
X146395518Y-89985812D01*
X146520000Y-89998072D01*
X147034250Y-89995000D01*
X147193000Y-89836250D01*
X147193000Y-88487000D01*
X147447000Y-88487000D01*
X147447000Y-89836250D01*
X147605750Y-89995000D01*
X148120000Y-89998072D01*
X148244482Y-89985812D01*
X148364180Y-89949502D01*
X148474494Y-89890537D01*
X148571185Y-89811185D01*
X148650537Y-89714494D01*
X148709502Y-89604180D01*
X148745812Y-89484482D01*
X148758072Y-89360000D01*
X148757623Y-89255600D01*
X150060128Y-89255600D01*
X150060128Y-89814400D01*
X150072388Y-89938882D01*
X150108698Y-90058580D01*
X150167663Y-90168894D01*
X150247015Y-90265585D01*
X150343706Y-90344937D01*
X150454020Y-90403902D01*
X150573718Y-90440212D01*
X150698200Y-90452472D01*
X151005001Y-90452472D01*
X151005000Y-91826288D01*
X150961063Y-91870225D01*
X150847795Y-92039743D01*
X150769774Y-92228101D01*
X150730000Y-92428060D01*
X150730000Y-92631938D01*
X150769774Y-92831897D01*
X150847795Y-93020255D01*
X150961063Y-93189773D01*
X151105226Y-93333936D01*
X151274744Y-93447204D01*
X151463102Y-93525225D01*
X151663061Y-93564999D01*
X151866939Y-93564999D01*
X152066898Y-93525225D01*
X152255256Y-93447204D01*
X152424774Y-93333936D01*
X152568937Y-93189773D01*
X152682205Y-93020255D01*
X152760226Y-92831897D01*
X152800000Y-92631938D01*
X152800000Y-92428060D01*
X152760226Y-92228101D01*
X152682205Y-92039743D01*
X152568937Y-91870225D01*
X152525000Y-91826288D01*
X152525000Y-90452472D01*
X152679400Y-90452472D01*
X152803882Y-90440212D01*
X152923580Y-90403902D01*
X153033894Y-90344937D01*
X153130585Y-90265585D01*
X153209937Y-90168894D01*
X153268902Y-90058580D01*
X153305212Y-89938882D01*
X153317472Y-89814400D01*
X153317472Y-89255600D01*
X153305212Y-89131118D01*
X153268902Y-89011420D01*
X153209937Y-88901106D01*
X153209115Y-88900105D01*
X153268307Y-88790010D01*
X153304908Y-88670400D01*
X153314400Y-88550750D01*
X153155650Y-88392000D01*
X151815800Y-88392000D01*
X151815800Y-88412000D01*
X151561800Y-88412000D01*
X151561800Y-88392000D01*
X150221950Y-88392000D01*
X150063200Y-88550750D01*
X150072692Y-88670400D01*
X150109293Y-88790010D01*
X150168485Y-88900105D01*
X150167663Y-88901106D01*
X150108698Y-89011420D01*
X150072388Y-89131118D01*
X150060128Y-89255600D01*
X148757623Y-89255600D01*
X148755000Y-88645750D01*
X148596250Y-88487000D01*
X147447000Y-88487000D01*
X147193000Y-88487000D01*
X146043750Y-88487000D01*
X145885000Y-88645750D01*
X145881928Y-89360000D01*
X143338072Y-89360000D01*
X143338072Y-88050000D01*
X143325812Y-87925518D01*
X143289502Y-87805820D01*
X143230537Y-87695506D01*
X143176778Y-87630000D01*
X143230537Y-87564494D01*
X143289502Y-87454180D01*
X143325812Y-87334482D01*
X143338072Y-87210000D01*
X143338072Y-85510000D01*
X143325812Y-85385518D01*
X143289502Y-85265820D01*
X143230537Y-85155506D01*
X143151185Y-85058815D01*
X143054494Y-84979463D01*
X142944180Y-84920498D01*
X142824482Y-84884188D01*
X142700000Y-84871928D01*
X140700000Y-84871928D01*
X140575518Y-84884188D01*
X140455820Y-84920498D01*
X140345506Y-84979463D01*
X140248815Y-85058815D01*
X140169463Y-85155506D01*
X140110498Y-85265820D01*
X140074188Y-85385518D01*
X140073317Y-85394357D01*
X140001898Y-85364774D01*
X139801939Y-85325000D01*
X139598061Y-85325000D01*
X139398102Y-85364774D01*
X139326683Y-85394357D01*
X139325812Y-85385518D01*
X139289502Y-85265820D01*
X139230537Y-85155506D01*
X139151185Y-85058815D01*
X139054494Y-84979463D01*
X138944180Y-84920498D01*
X138824482Y-84884188D01*
X138700000Y-84871928D01*
X136901900Y-84871928D01*
X136885226Y-84788102D01*
X136807205Y-84599744D01*
X136693937Y-84430226D01*
X136549774Y-84286063D01*
X136380256Y-84172795D01*
X136191898Y-84094774D01*
X135991939Y-84055000D01*
X135788061Y-84055000D01*
X135588102Y-84094774D01*
X135399744Y-84172795D01*
X135380000Y-84185987D01*
X135380000Y-83400000D01*
X138601928Y-83400000D01*
X138614188Y-83524482D01*
X138650498Y-83644180D01*
X138709463Y-83754494D01*
X138788815Y-83851185D01*
X138885506Y-83930537D01*
X138995820Y-83989502D01*
X139115518Y-84025812D01*
X139240000Y-84038072D01*
X139954250Y-84035000D01*
X140113000Y-83876250D01*
X140113000Y-82677000D01*
X140367000Y-82677000D01*
X140367000Y-83876250D01*
X140525750Y-84035000D01*
X141240000Y-84038072D01*
X141364482Y-84025812D01*
X141484180Y-83989502D01*
X141594494Y-83930537D01*
X141691185Y-83851185D01*
X141770537Y-83754494D01*
X141829502Y-83644180D01*
X141865812Y-83524482D01*
X141878072Y-83400000D01*
X141875000Y-82835750D01*
X141716250Y-82677000D01*
X140367000Y-82677000D01*
X140113000Y-82677000D01*
X138763750Y-82677000D01*
X138605000Y-82835750D01*
X138601928Y-83400000D01*
X135380000Y-83400000D01*
X135380000Y-81209622D01*
X135465724Y-81279974D01*
X135597753Y-81350546D01*
X135741014Y-81394003D01*
X135852667Y-81405000D01*
X135852676Y-81405000D01*
X135889999Y-81408676D01*
X135927322Y-81405000D01*
X138677662Y-81405000D01*
X138650498Y-81455820D01*
X138614188Y-81575518D01*
X138601928Y-81700000D01*
X138605000Y-82264250D01*
X138763750Y-82423000D01*
X140113000Y-82423000D01*
X140113000Y-82403000D01*
X140367000Y-82403000D01*
X140367000Y-82423000D01*
X141716250Y-82423000D01*
X141875000Y-82264250D01*
X141878072Y-81700000D01*
X141865812Y-81575518D01*
X141829502Y-81455820D01*
X141802338Y-81405000D01*
X142677662Y-81405000D01*
X142650498Y-81455820D01*
X142614188Y-81575518D01*
X142601928Y-81700000D01*
X142601928Y-83400000D01*
X142614188Y-83524482D01*
X142650498Y-83644180D01*
X142709463Y-83754494D01*
X142788815Y-83851185D01*
X142885506Y-83930537D01*
X142995820Y-83989502D01*
X143115518Y-84025812D01*
X143240000Y-84038072D01*
X145240000Y-84038072D01*
X145364482Y-84025812D01*
X145484180Y-83989502D01*
X145594494Y-83930537D01*
X145691185Y-83851185D01*
X145770537Y-83754494D01*
X145829502Y-83644180D01*
X145865812Y-83524482D01*
X145878072Y-83400000D01*
X145878072Y-81700000D01*
X145865812Y-81575518D01*
X145829502Y-81455820D01*
X145802338Y-81405000D01*
X147050987Y-81405000D01*
X147037795Y-81424744D01*
X146959774Y-81613102D01*
X146920000Y-81813061D01*
X146920000Y-81875199D01*
X146808998Y-81986201D01*
X146780000Y-82009999D01*
X146756202Y-82038997D01*
X146756201Y-82038998D01*
X146685026Y-82125724D01*
X146614454Y-82257754D01*
X146595912Y-82318882D01*
X146570998Y-82401014D01*
X146567298Y-82438580D01*
X146556324Y-82550000D01*
X146560001Y-82587332D01*
X146560001Y-82721928D01*
X146520000Y-82721928D01*
X146395518Y-82734188D01*
X146275820Y-82770498D01*
X146165506Y-82829463D01*
X146068815Y-82908815D01*
X145989463Y-83005506D01*
X145930498Y-83115820D01*
X145894188Y-83235518D01*
X145881928Y-83360000D01*
X145881928Y-85360000D01*
X145894188Y-85484482D01*
X145930498Y-85604180D01*
X145989463Y-85714494D01*
X146068815Y-85811185D01*
X146165506Y-85890537D01*
X146275820Y-85949502D01*
X146359272Y-85974817D01*
X146324774Y-86058102D01*
X146285000Y-86258061D01*
X146285000Y-86461939D01*
X146324774Y-86661898D01*
X146359272Y-86745183D01*
X146275820Y-86770498D01*
X146165506Y-86829463D01*
X146068815Y-86908815D01*
X145989463Y-87005506D01*
X145930498Y-87115820D01*
X145894188Y-87235518D01*
X145881928Y-87360000D01*
X145885000Y-88074250D01*
X146043750Y-88233000D01*
X147193000Y-88233000D01*
X147193000Y-88213000D01*
X147447000Y-88213000D01*
X147447000Y-88233000D01*
X148596250Y-88233000D01*
X148755000Y-88074250D01*
X148758072Y-87360000D01*
X148745812Y-87235518D01*
X148709502Y-87115820D01*
X148707515Y-87112103D01*
X148738986Y-87109003D01*
X148882247Y-87065546D01*
X149014276Y-86994974D01*
X149130001Y-86900001D01*
X149153803Y-86870998D01*
X149539802Y-86485000D01*
X150104579Y-86485000D01*
X150072388Y-86591118D01*
X150060128Y-86715600D01*
X150060128Y-87274400D01*
X150072388Y-87398882D01*
X150108698Y-87518580D01*
X150167663Y-87628894D01*
X150168485Y-87629895D01*
X150109293Y-87739990D01*
X150072692Y-87859600D01*
X150063200Y-87979250D01*
X150221950Y-88138000D01*
X151561800Y-88138000D01*
X151561800Y-88118000D01*
X151815800Y-88118000D01*
X151815800Y-88138000D01*
X153155650Y-88138000D01*
X153314400Y-87979250D01*
X153304908Y-87859600D01*
X153268307Y-87739990D01*
X153209115Y-87629895D01*
X153209937Y-87628894D01*
X153268902Y-87518580D01*
X153305212Y-87398882D01*
X153317472Y-87274400D01*
X153317472Y-86715600D01*
X153305212Y-86591118D01*
X153268902Y-86471420D01*
X153209937Y-86361106D01*
X153209029Y-86360000D01*
X153209937Y-86358894D01*
X153268902Y-86248580D01*
X153305212Y-86128882D01*
X153317472Y-86004400D01*
X153317472Y-85445600D01*
X153305212Y-85321118D01*
X153268902Y-85201420D01*
X153209937Y-85091106D01*
X153209029Y-85090000D01*
X153209937Y-85088894D01*
X153268902Y-84978580D01*
X153305212Y-84858882D01*
X153317472Y-84734400D01*
X153317472Y-84175600D01*
X153305212Y-84051118D01*
X153268902Y-83931420D01*
X153209937Y-83821106D01*
X153209029Y-83820000D01*
X153209937Y-83818894D01*
X153268902Y-83708580D01*
X153305212Y-83588882D01*
X153317472Y-83464400D01*
X153317472Y-82905600D01*
X153305212Y-82781118D01*
X153268902Y-82661420D01*
X153209937Y-82551106D01*
X153209029Y-82550000D01*
X153209937Y-82548894D01*
X153268902Y-82438580D01*
X153305212Y-82318882D01*
X153317472Y-82194400D01*
X153317472Y-81635600D01*
X153305212Y-81511118D01*
X153268902Y-81391420D01*
X153209937Y-81281106D01*
X153209029Y-81280000D01*
X153209937Y-81278894D01*
X153268902Y-81168580D01*
X153305212Y-81048882D01*
X153317472Y-80924400D01*
X153317472Y-80365600D01*
X153305212Y-80241118D01*
X153268902Y-80121420D01*
X153209937Y-80011106D01*
X153209029Y-80010000D01*
X153209937Y-80008894D01*
X153268902Y-79898580D01*
X153305212Y-79778882D01*
X153317472Y-79654400D01*
X153317472Y-79095600D01*
X153305212Y-78971118D01*
X153273021Y-78865000D01*
X153601289Y-78865000D01*
X153645226Y-78908937D01*
X153814744Y-79022205D01*
X154003102Y-79100226D01*
X154203061Y-79140000D01*
X154406939Y-79140000D01*
X154606898Y-79100226D01*
X154795256Y-79022205D01*
X154964774Y-78908937D01*
X155108937Y-78764774D01*
X155222205Y-78595256D01*
X155300226Y-78406898D01*
X155340000Y-78206939D01*
X155340000Y-78003061D01*
X155300226Y-77803102D01*
X155222205Y-77614744D01*
X155125490Y-77470000D01*
X155222205Y-77325256D01*
X155300226Y-77136898D01*
X155340000Y-76936939D01*
X155340000Y-76733061D01*
X155300226Y-76533102D01*
X155222205Y-76344744D01*
X155108937Y-76175226D01*
X154964774Y-76031063D01*
X154795256Y-75917795D01*
X154606898Y-75839774D01*
X154406939Y-75800000D01*
X154203061Y-75800000D01*
X154003102Y-75839774D01*
X153814744Y-75917795D01*
X153645226Y-76031063D01*
X153601289Y-76075000D01*
X153273021Y-76075000D01*
X153305212Y-75968882D01*
X153317472Y-75844400D01*
X153317472Y-75285600D01*
X153305212Y-75161118D01*
X153268902Y-75041420D01*
X153209937Y-74931106D01*
X153209029Y-74930000D01*
X153209937Y-74928894D01*
X153268902Y-74818580D01*
X153305212Y-74698882D01*
X153317472Y-74574400D01*
X153317472Y-74015600D01*
X153315794Y-73998559D01*
X153368102Y-74020226D01*
X153568061Y-74060000D01*
X153771939Y-74060000D01*
X153971898Y-74020226D01*
X154160256Y-73942205D01*
X154329774Y-73828937D01*
X154473937Y-73684774D01*
X154587205Y-73515256D01*
X154665226Y-73326898D01*
X154705000Y-73126939D01*
X154705000Y-72923061D01*
X154665226Y-72723102D01*
X154587205Y-72534744D01*
X154473937Y-72365226D01*
X154329774Y-72221063D01*
X154160256Y-72107795D01*
X153971898Y-72029774D01*
X153771939Y-71990000D01*
X153568061Y-71990000D01*
X153368102Y-72029774D01*
X153179744Y-72107795D01*
X153025734Y-72210701D01*
X152923580Y-72156098D01*
X152803882Y-72119788D01*
X152679400Y-72107528D01*
X150698200Y-72107528D01*
X150573718Y-72119788D01*
X150454020Y-72156098D01*
X150343706Y-72215063D01*
X150282857Y-72265000D01*
X149539802Y-72265000D01*
X149153803Y-71879002D01*
X149130001Y-71849999D01*
X149014276Y-71755026D01*
X148882247Y-71684454D01*
X148738986Y-71640997D01*
X148688072Y-71635982D01*
X148688072Y-71590000D01*
X148675812Y-71465518D01*
X148639502Y-71345820D01*
X148608635Y-71288072D01*
X149685000Y-71288072D01*
X149809482Y-71275812D01*
X149929180Y-71239502D01*
X150039494Y-71180537D01*
X150136185Y-71101185D01*
X150215537Y-71004494D01*
X150274502Y-70894180D01*
X150310812Y-70774482D01*
X150323072Y-70650000D01*
X150323072Y-69050000D01*
X150320610Y-69025000D01*
X155192516Y-69025000D01*
X155175000Y-69113061D01*
X155175000Y-69316939D01*
X155214774Y-69516898D01*
X155292795Y-69705256D01*
X155406063Y-69874774D01*
X155450001Y-69918712D01*
X155450000Y-78702678D01*
X155446324Y-78740000D01*
X155450000Y-78777322D01*
X155450000Y-78777332D01*
X155460997Y-78888985D01*
X155497770Y-79010212D01*
X155504454Y-79032246D01*
X155575026Y-79164276D01*
X155612104Y-79209455D01*
X155669999Y-79280001D01*
X155699003Y-79303804D01*
X157551200Y-81156002D01*
X157574999Y-81185001D01*
X157690724Y-81279974D01*
X157822753Y-81350546D01*
X157966014Y-81394003D01*
X158077667Y-81405000D01*
X158077677Y-81405000D01*
X158115000Y-81408676D01*
X158152323Y-81405000D01*
X159146979Y-81405000D01*
X159114788Y-81511118D01*
X159102528Y-81635600D01*
X159102528Y-82194400D01*
X159114788Y-82318882D01*
X159151098Y-82438580D01*
X159210063Y-82548894D01*
X159210971Y-82550000D01*
X159210063Y-82551106D01*
X159151098Y-82661420D01*
X159114788Y-82781118D01*
X159108192Y-82848092D01*
X159051898Y-82824774D01*
X158851939Y-82785000D01*
X158648061Y-82785000D01*
X158448102Y-82824774D01*
X158259744Y-82902795D01*
X158090226Y-83016063D01*
X157946063Y-83160226D01*
X157832795Y-83329744D01*
X157811188Y-83381907D01*
X157781898Y-83369774D01*
X157581939Y-83330000D01*
X157378061Y-83330000D01*
X157178102Y-83369774D01*
X156989744Y-83447795D01*
X156820226Y-83561063D01*
X156676063Y-83705226D01*
X156562795Y-83874744D01*
X156484774Y-84063102D01*
X156445000Y-84263061D01*
X156445000Y-84466939D01*
X156484774Y-84666898D01*
X156562795Y-84855256D01*
X156676063Y-85024774D01*
X156720000Y-85068711D01*
X156720001Y-86322667D01*
X156716324Y-86360000D01*
X156720001Y-86397333D01*
X156730998Y-86508986D01*
X156738870Y-86534937D01*
X156774454Y-86652246D01*
X156845026Y-86784276D01*
X156899175Y-86850256D01*
X156940000Y-86900001D01*
X156968998Y-86923799D01*
X157551200Y-87506002D01*
X157574999Y-87535001D01*
X157603997Y-87558799D01*
X157690724Y-87629974D01*
X157822753Y-87700546D01*
X157966014Y-87744003D01*
X158115000Y-87758677D01*
X158152333Y-87755000D01*
X158820198Y-87755000D01*
X152085199Y-94490000D01*
X151802333Y-94490000D01*
X151765000Y-94486323D01*
X151727667Y-94490000D01*
X151616014Y-94500997D01*
X151472753Y-94544454D01*
X151340724Y-94615026D01*
X151224999Y-94709999D01*
X151201201Y-94738997D01*
X150623271Y-95316928D01*
X149800000Y-95316928D01*
X149675518Y-95329188D01*
X149555820Y-95365498D01*
X149445506Y-95424463D01*
X149348815Y-95503815D01*
X149269463Y-95600506D01*
X149210498Y-95710820D01*
X149195579Y-95760000D01*
X148418072Y-95760000D01*
X148418072Y-95670000D01*
X148405812Y-95545518D01*
X148369502Y-95425820D01*
X148310537Y-95315506D01*
X148231185Y-95218815D01*
X148134494Y-95139463D01*
X148024180Y-95080498D01*
X147904482Y-95044188D01*
X147780000Y-95031928D01*
X145780000Y-95031928D01*
X145655518Y-95044188D01*
X145535820Y-95080498D01*
X145425506Y-95139463D01*
X145328815Y-95218815D01*
X145249463Y-95315506D01*
X145190498Y-95425820D01*
X145154188Y-95545518D01*
X145153317Y-95554357D01*
X145081898Y-95524774D01*
X144881939Y-95485000D01*
X144678061Y-95485000D01*
X144478102Y-95524774D01*
X144406683Y-95554357D01*
X144405812Y-95545518D01*
X144369502Y-95425820D01*
X144310537Y-95315506D01*
X144231185Y-95218815D01*
X144134494Y-95139463D01*
X144024180Y-95080498D01*
X143904482Y-95044188D01*
X143780000Y-95031928D01*
X141780000Y-95031928D01*
X141655518Y-95044188D01*
X141535820Y-95080498D01*
X141425506Y-95139463D01*
X141328815Y-95218815D01*
X141249463Y-95315506D01*
X141190498Y-95425820D01*
X141154188Y-95545518D01*
X141141928Y-95670000D01*
X141141928Y-97370000D01*
X141154188Y-97494482D01*
X141190498Y-97614180D01*
X141249463Y-97724494D01*
X141303222Y-97790000D01*
X141249463Y-97855506D01*
X141190498Y-97965820D01*
X141154188Y-98085518D01*
X141141928Y-98210000D01*
X141141928Y-99910000D01*
X141154188Y-100034482D01*
X141190498Y-100154180D01*
X141249463Y-100264494D01*
X141303222Y-100330000D01*
X141249463Y-100395506D01*
X141190498Y-100505820D01*
X141154188Y-100625518D01*
X141141928Y-100750000D01*
X141141928Y-102450000D01*
X141154188Y-102574482D01*
X141190498Y-102694180D01*
X141249463Y-102804494D01*
X141328815Y-102901185D01*
X141425506Y-102980537D01*
X141535820Y-103039502D01*
X141655518Y-103075812D01*
X141780000Y-103088072D01*
X143780000Y-103088072D01*
X143904482Y-103075812D01*
X144024180Y-103039502D01*
X144134494Y-102980537D01*
X144231185Y-102901185D01*
X144310537Y-102804494D01*
X144369502Y-102694180D01*
X144405812Y-102574482D01*
X144406683Y-102565643D01*
X144478102Y-102595226D01*
X144678061Y-102635000D01*
X144881939Y-102635000D01*
X145081898Y-102595226D01*
X145153317Y-102565643D01*
X145154188Y-102574482D01*
X145190498Y-102694180D01*
X145249463Y-102804494D01*
X145328815Y-102901185D01*
X145425506Y-102980537D01*
X145535820Y-103039502D01*
X145655518Y-103075812D01*
X145780000Y-103088072D01*
X147780000Y-103088072D01*
X147904482Y-103075812D01*
X148024180Y-103039502D01*
X148134494Y-102980537D01*
X148231185Y-102901185D01*
X148310537Y-102804494D01*
X148369502Y-102694180D01*
X148405812Y-102574482D01*
X148418072Y-102450000D01*
X148418072Y-102360000D01*
X149195579Y-102360000D01*
X149210498Y-102409180D01*
X149269463Y-102519494D01*
X149348815Y-102616185D01*
X149445506Y-102695537D01*
X149555820Y-102754502D01*
X149675518Y-102790812D01*
X149800000Y-102803072D01*
X152640000Y-102803072D01*
X152764482Y-102790812D01*
X152884180Y-102754502D01*
X152994494Y-102695537D01*
X153091185Y-102616185D01*
X153170537Y-102519494D01*
X153229502Y-102409180D01*
X153254219Y-102327698D01*
X153327247Y-102305546D01*
X153459276Y-102234974D01*
X153544539Y-102165000D01*
X158161928Y-102165000D01*
X158174188Y-102289482D01*
X158210498Y-102409180D01*
X158269463Y-102519494D01*
X158348815Y-102616185D01*
X158445506Y-102695537D01*
X158555820Y-102754502D01*
X158675518Y-102790812D01*
X158800000Y-102803072D01*
X159934250Y-102800000D01*
X160093000Y-102641250D01*
X160093000Y-101727000D01*
X160347000Y-101727000D01*
X160347000Y-102641250D01*
X160505750Y-102800000D01*
X161640000Y-102803072D01*
X161764482Y-102790812D01*
X161884180Y-102754502D01*
X161994494Y-102695537D01*
X162091185Y-102616185D01*
X162170537Y-102519494D01*
X162229502Y-102409180D01*
X162265812Y-102289482D01*
X162278072Y-102165000D01*
X162275000Y-101885750D01*
X162116250Y-101727000D01*
X160347000Y-101727000D01*
X160093000Y-101727000D01*
X158323750Y-101727000D01*
X158165000Y-101885750D01*
X158161928Y-102165000D01*
X153544539Y-102165000D01*
X153575001Y-102140001D01*
X153598803Y-102110998D01*
X153709801Y-102000000D01*
X153771939Y-102000000D01*
X153971898Y-101960226D01*
X154160256Y-101882205D01*
X154329774Y-101768937D01*
X154473937Y-101624774D01*
X154587205Y-101455256D01*
X154665226Y-101266898D01*
X154705000Y-101066939D01*
X154705000Y-101035000D01*
X158161928Y-101035000D01*
X158165000Y-101314250D01*
X158323750Y-101473000D01*
X160093000Y-101473000D01*
X160093000Y-100558750D01*
X160347000Y-100558750D01*
X160347000Y-101473000D01*
X162116250Y-101473000D01*
X162275000Y-101314250D01*
X162278072Y-101035000D01*
X162265812Y-100910518D01*
X162229502Y-100790820D01*
X162170537Y-100680506D01*
X162091185Y-100583815D01*
X161994494Y-100504463D01*
X161884180Y-100445498D01*
X161764482Y-100409188D01*
X161640000Y-100396928D01*
X160505750Y-100400000D01*
X160347000Y-100558750D01*
X160093000Y-100558750D01*
X159934250Y-100400000D01*
X158800000Y-100396928D01*
X158675518Y-100409188D01*
X158555820Y-100445498D01*
X158445506Y-100504463D01*
X158348815Y-100583815D01*
X158269463Y-100680506D01*
X158210498Y-100790820D01*
X158174188Y-100910518D01*
X158161928Y-101035000D01*
X154705000Y-101035000D01*
X154705000Y-100863061D01*
X154665226Y-100663102D01*
X154587205Y-100474744D01*
X154473937Y-100305226D01*
X154329774Y-100161063D01*
X154160256Y-100047795D01*
X153971898Y-99969774D01*
X153771939Y-99930000D01*
X153568061Y-99930000D01*
X153368102Y-99969774D01*
X153179744Y-100047795D01*
X153010226Y-100161063D01*
X152866063Y-100305226D01*
X152791185Y-100417288D01*
X152764482Y-100409188D01*
X152640000Y-100396928D01*
X149800000Y-100396928D01*
X149675518Y-100409188D01*
X149555820Y-100445498D01*
X149445506Y-100504463D01*
X149348815Y-100583815D01*
X149269463Y-100680506D01*
X149210498Y-100790820D01*
X149195579Y-100840000D01*
X148418072Y-100840000D01*
X148418072Y-100750000D01*
X148405812Y-100625518D01*
X148369502Y-100505820D01*
X148310537Y-100395506D01*
X148256778Y-100330000D01*
X148310537Y-100264494D01*
X148369502Y-100154180D01*
X148405812Y-100034482D01*
X148418072Y-99910000D01*
X148418072Y-99820000D01*
X149195579Y-99820000D01*
X149210498Y-99869180D01*
X149269463Y-99979494D01*
X149348815Y-100076185D01*
X149445506Y-100155537D01*
X149555820Y-100214502D01*
X149675518Y-100250812D01*
X149800000Y-100263072D01*
X152640000Y-100263072D01*
X152764482Y-100250812D01*
X152884180Y-100214502D01*
X152994494Y-100155537D01*
X153091185Y-100076185D01*
X153170537Y-99979494D01*
X153229502Y-99869180D01*
X153254219Y-99787698D01*
X153327247Y-99765546D01*
X153459276Y-99694974D01*
X153544539Y-99625000D01*
X158161928Y-99625000D01*
X158174188Y-99749482D01*
X158210498Y-99869180D01*
X158269463Y-99979494D01*
X158348815Y-100076185D01*
X158445506Y-100155537D01*
X158555820Y-100214502D01*
X158675518Y-100250812D01*
X158800000Y-100263072D01*
X159934250Y-100260000D01*
X160093000Y-100101250D01*
X160093000Y-99187000D01*
X160347000Y-99187000D01*
X160347000Y-100101250D01*
X160505750Y-100260000D01*
X161640000Y-100263072D01*
X161764482Y-100250812D01*
X161884180Y-100214502D01*
X161994494Y-100155537D01*
X162091185Y-100076185D01*
X162170537Y-99979494D01*
X162229502Y-99869180D01*
X162265812Y-99749482D01*
X162278072Y-99625000D01*
X162275000Y-99345750D01*
X162116250Y-99187000D01*
X160347000Y-99187000D01*
X160093000Y-99187000D01*
X158323750Y-99187000D01*
X158165000Y-99345750D01*
X158161928Y-99625000D01*
X153544539Y-99625000D01*
X153575001Y-99600001D01*
X153598804Y-99570997D01*
X153994801Y-99175000D01*
X181892857Y-99175000D01*
X181892857Y-102995000D01*
X187677143Y-102995000D01*
X187677143Y-101400777D01*
X189650000Y-101400777D01*
X189650000Y-101959223D01*
X189758948Y-102506939D01*
X189972656Y-103022876D01*
X190282912Y-103487207D01*
X190677793Y-103882088D01*
X191142124Y-104192344D01*
X191658061Y-104406052D01*
X192205777Y-104515000D01*
X192764223Y-104515000D01*
X193311939Y-104406052D01*
X193827876Y-104192344D01*
X194292207Y-103882088D01*
X194687088Y-103487207D01*
X194997344Y-103022876D01*
X195211052Y-102506939D01*
X195320000Y-101959223D01*
X195320000Y-101400777D01*
X195211052Y-100853061D01*
X194997344Y-100337124D01*
X194687088Y-99872793D01*
X194292207Y-99477912D01*
X193827876Y-99167656D01*
X193311939Y-98953948D01*
X192764223Y-98845000D01*
X192205777Y-98845000D01*
X191658061Y-98953948D01*
X191142124Y-99167656D01*
X190677793Y-99477912D01*
X190282912Y-99872793D01*
X189972656Y-100337124D01*
X189758948Y-100853061D01*
X189650000Y-101400777D01*
X187677143Y-101400777D01*
X187677143Y-99175000D01*
X181892857Y-99175000D01*
X153994801Y-99175000D01*
X154674801Y-98495000D01*
X158161928Y-98495000D01*
X158165000Y-98774250D01*
X158323750Y-98933000D01*
X160093000Y-98933000D01*
X160093000Y-98018750D01*
X160347000Y-98018750D01*
X160347000Y-98933000D01*
X162116250Y-98933000D01*
X162275000Y-98774250D01*
X162278072Y-98495000D01*
X162265812Y-98370518D01*
X162229502Y-98250820D01*
X162170537Y-98140506D01*
X162091185Y-98043815D01*
X161994494Y-97964463D01*
X161884180Y-97905498D01*
X161764482Y-97869188D01*
X161640000Y-97856928D01*
X160505750Y-97860000D01*
X160347000Y-98018750D01*
X160093000Y-98018750D01*
X159934250Y-97860000D01*
X158800000Y-97856928D01*
X158675518Y-97869188D01*
X158555820Y-97905498D01*
X158445506Y-97964463D01*
X158348815Y-98043815D01*
X158269463Y-98140506D01*
X158210498Y-98250820D01*
X158174188Y-98370518D01*
X158161928Y-98495000D01*
X154674801Y-98495000D01*
X156084801Y-97085000D01*
X158161928Y-97085000D01*
X158174188Y-97209482D01*
X158210498Y-97329180D01*
X158269463Y-97439494D01*
X158348815Y-97536185D01*
X158445506Y-97615537D01*
X158555820Y-97674502D01*
X158675518Y-97710812D01*
X158800000Y-97723072D01*
X159934250Y-97720000D01*
X160093000Y-97561250D01*
X160093000Y-96647000D01*
X160347000Y-96647000D01*
X160347000Y-97561250D01*
X160505750Y-97720000D01*
X161640000Y-97723072D01*
X161764482Y-97710812D01*
X161884180Y-97674502D01*
X161994494Y-97615537D01*
X162091185Y-97536185D01*
X162170537Y-97439494D01*
X162229502Y-97329180D01*
X162265812Y-97209482D01*
X162278072Y-97085000D01*
X162275000Y-96805750D01*
X162116250Y-96647000D01*
X160347000Y-96647000D01*
X160093000Y-96647000D01*
X158323750Y-96647000D01*
X158165000Y-96805750D01*
X158161928Y-97085000D01*
X156084801Y-97085000D01*
X157214801Y-95955000D01*
X158161928Y-95955000D01*
X158165000Y-96234250D01*
X158323750Y-96393000D01*
X160093000Y-96393000D01*
X160093000Y-95478750D01*
X160347000Y-95478750D01*
X160347000Y-96393000D01*
X162116250Y-96393000D01*
X162275000Y-96234250D01*
X162278072Y-95955000D01*
X162265812Y-95830518D01*
X162229502Y-95710820D01*
X162170537Y-95600506D01*
X162091185Y-95503815D01*
X161994494Y-95424463D01*
X161884180Y-95365498D01*
X161764482Y-95329188D01*
X161640000Y-95316928D01*
X160505750Y-95320000D01*
X160347000Y-95478750D01*
X160093000Y-95478750D01*
X159934250Y-95320000D01*
X158800000Y-95316928D01*
X158675518Y-95329188D01*
X158555820Y-95365498D01*
X158445506Y-95424463D01*
X158348815Y-95503815D01*
X158269463Y-95600506D01*
X158210498Y-95710820D01*
X158174188Y-95830518D01*
X158161928Y-95955000D01*
X157214801Y-95955000D01*
X159961213Y-93208589D01*
X164985000Y-93208589D01*
X164985000Y-93481411D01*
X165038225Y-93748989D01*
X165142629Y-94001043D01*
X165294201Y-94227886D01*
X165487114Y-94420799D01*
X165713957Y-94572371D01*
X165966011Y-94676775D01*
X166233589Y-94730000D01*
X166506411Y-94730000D01*
X166773989Y-94676775D01*
X167026043Y-94572371D01*
X167252886Y-94420799D01*
X167445799Y-94227886D01*
X167527909Y-94105000D01*
X167571289Y-94105000D01*
X167615226Y-94148937D01*
X167784744Y-94262205D01*
X167973102Y-94340226D01*
X168173061Y-94380000D01*
X168376939Y-94380000D01*
X168576898Y-94340226D01*
X168669199Y-94301993D01*
X170037612Y-94301993D01*
X170103137Y-94540860D01*
X170350116Y-94656760D01*
X170614960Y-94722250D01*
X170887492Y-94734812D01*
X171157238Y-94693965D01*
X171413832Y-94601277D01*
X171526863Y-94540860D01*
X171592388Y-94301993D01*
X170815000Y-93524605D01*
X170037612Y-94301993D01*
X168669199Y-94301993D01*
X168765256Y-94262205D01*
X168934774Y-94148937D01*
X169078937Y-94004774D01*
X169192205Y-93835256D01*
X169270226Y-93646898D01*
X169310000Y-93446939D01*
X169310000Y-93417492D01*
X169425188Y-93417492D01*
X169466035Y-93687238D01*
X169558723Y-93943832D01*
X169619140Y-94056863D01*
X169858007Y-94122388D01*
X170635395Y-93345000D01*
X170994605Y-93345000D01*
X171771993Y-94122388D01*
X172010860Y-94056863D01*
X172126760Y-93809884D01*
X172192250Y-93545040D01*
X172204812Y-93272508D01*
X172163965Y-93002762D01*
X172071277Y-92746168D01*
X172010860Y-92633137D01*
X171771993Y-92567612D01*
X170994605Y-93345000D01*
X170635395Y-93345000D01*
X169858007Y-92567612D01*
X169619140Y-92633137D01*
X169503240Y-92880116D01*
X169437750Y-93144960D01*
X169425188Y-93417492D01*
X169310000Y-93417492D01*
X169310000Y-93243061D01*
X169270226Y-93043102D01*
X169192205Y-92854744D01*
X169078937Y-92685226D01*
X168934774Y-92541063D01*
X168765256Y-92427795D01*
X168669200Y-92388007D01*
X170037612Y-92388007D01*
X170815000Y-93165395D01*
X171592388Y-92388007D01*
X171526863Y-92149140D01*
X171279884Y-92033240D01*
X171015040Y-91967750D01*
X170742508Y-91955188D01*
X170472762Y-91996035D01*
X170216168Y-92088723D01*
X170103137Y-92149140D01*
X170037612Y-92388007D01*
X168669200Y-92388007D01*
X168576898Y-92349774D01*
X168376939Y-92310000D01*
X168173061Y-92310000D01*
X167973102Y-92349774D01*
X167784744Y-92427795D01*
X167615226Y-92541063D01*
X167571289Y-92585000D01*
X167527909Y-92585000D01*
X167445799Y-92462114D01*
X167252886Y-92269201D01*
X167026043Y-92117629D01*
X166773989Y-92013225D01*
X166506411Y-91960000D01*
X166233589Y-91960000D01*
X165966011Y-92013225D01*
X165713957Y-92117629D01*
X165487114Y-92269201D01*
X165294201Y-92462114D01*
X165142629Y-92688957D01*
X165038225Y-92941011D01*
X164985000Y-93208589D01*
X159961213Y-93208589D01*
X161242209Y-91927594D01*
X161271201Y-91903801D01*
X161294995Y-91874808D01*
X161294999Y-91874804D01*
X161366173Y-91788077D01*
X161366174Y-91788076D01*
X161436746Y-91656047D01*
X161480203Y-91512786D01*
X161491200Y-91401133D01*
X161491200Y-91401124D01*
X161494876Y-91363801D01*
X161491200Y-91326478D01*
X161491200Y-90452472D01*
X161721800Y-90452472D01*
X161846282Y-90440212D01*
X161965980Y-90403902D01*
X162076294Y-90344937D01*
X162172985Y-90265585D01*
X162252337Y-90168894D01*
X162311302Y-90058580D01*
X162347612Y-89938882D01*
X162359872Y-89814400D01*
X162359872Y-89255600D01*
X162347612Y-89131118D01*
X162311302Y-89011420D01*
X162252337Y-88901106D01*
X162251429Y-88900000D01*
X162252337Y-88898894D01*
X162311302Y-88788580D01*
X162347612Y-88668882D01*
X162359872Y-88544400D01*
X162359872Y-87985600D01*
X162347612Y-87861118D01*
X162315421Y-87755000D01*
X162880199Y-87755000D01*
X163266200Y-88141002D01*
X163289999Y-88170001D01*
X163318997Y-88193799D01*
X163405724Y-88264974D01*
X163537753Y-88335546D01*
X163681014Y-88379003D01*
X163830000Y-88393677D01*
X163867333Y-88390000D01*
X164001928Y-88390000D01*
X164001928Y-88480000D01*
X164014188Y-88604482D01*
X164050498Y-88724180D01*
X164109463Y-88834494D01*
X164188815Y-88931185D01*
X164285506Y-89010537D01*
X164395820Y-89069502D01*
X164515518Y-89105812D01*
X164640000Y-89118072D01*
X166640000Y-89118072D01*
X166764482Y-89105812D01*
X166884180Y-89069502D01*
X166994494Y-89010537D01*
X167091185Y-88931185D01*
X167170537Y-88834494D01*
X167229502Y-88724180D01*
X167265812Y-88604482D01*
X167266683Y-88595643D01*
X167338102Y-88625226D01*
X167538061Y-88665000D01*
X167741939Y-88665000D01*
X167941898Y-88625226D01*
X168013317Y-88595643D01*
X168014188Y-88604482D01*
X168050498Y-88724180D01*
X168109463Y-88834494D01*
X168188815Y-88931185D01*
X168285506Y-89010537D01*
X168395820Y-89069502D01*
X168515518Y-89105812D01*
X168640000Y-89118072D01*
X169354250Y-89115000D01*
X169513000Y-88956250D01*
X169513000Y-87757000D01*
X169767000Y-87757000D01*
X169767000Y-88956250D01*
X169925750Y-89115000D01*
X170640000Y-89118072D01*
X170764482Y-89105812D01*
X170884180Y-89069502D01*
X170994494Y-89010537D01*
X171091185Y-88931185D01*
X171170537Y-88834494D01*
X171229502Y-88724180D01*
X171265812Y-88604482D01*
X171278072Y-88480000D01*
X171275811Y-88064570D01*
X171955000Y-88064570D01*
X171955000Y-88465430D01*
X172033204Y-88858587D01*
X172186607Y-89228934D01*
X172409313Y-89562237D01*
X172692763Y-89845687D01*
X173026066Y-90068393D01*
X173396413Y-90221796D01*
X173789570Y-90300000D01*
X174190430Y-90300000D01*
X174583587Y-90221796D01*
X174953934Y-90068393D01*
X175287237Y-89845687D01*
X175570687Y-89562237D01*
X175793393Y-89228934D01*
X175946796Y-88858587D01*
X176025000Y-88465430D01*
X176025000Y-88064570D01*
X175946796Y-87671413D01*
X175793393Y-87301066D01*
X175570687Y-86967763D01*
X175287237Y-86684313D01*
X174953934Y-86461607D01*
X174583587Y-86308204D01*
X174190430Y-86230000D01*
X173789570Y-86230000D01*
X173396413Y-86308204D01*
X173026066Y-86461607D01*
X172692763Y-86684313D01*
X172409313Y-86967763D01*
X172186607Y-87301066D01*
X172033204Y-87671413D01*
X171955000Y-88064570D01*
X171275811Y-88064570D01*
X171275000Y-87915750D01*
X171116250Y-87757000D01*
X169767000Y-87757000D01*
X169513000Y-87757000D01*
X169493000Y-87757000D01*
X169493000Y-87503000D01*
X169513000Y-87503000D01*
X169513000Y-85217000D01*
X169767000Y-85217000D01*
X169767000Y-87503000D01*
X171116250Y-87503000D01*
X171275000Y-87344250D01*
X171278072Y-86780000D01*
X171265812Y-86655518D01*
X171229502Y-86535820D01*
X171170537Y-86425506D01*
X171116778Y-86360000D01*
X171170537Y-86294494D01*
X171229502Y-86184180D01*
X171265812Y-86064482D01*
X171278072Y-85940000D01*
X171275000Y-85375750D01*
X171116250Y-85217000D01*
X169767000Y-85217000D01*
X169513000Y-85217000D01*
X169493000Y-85217000D01*
X169493000Y-84963000D01*
X169513000Y-84963000D01*
X169513000Y-84943000D01*
X169767000Y-84943000D01*
X169767000Y-84963000D01*
X171116250Y-84963000D01*
X171275000Y-84804250D01*
X171278072Y-84240000D01*
X171265812Y-84115518D01*
X171229502Y-83995820D01*
X171170537Y-83885506D01*
X171096261Y-83795000D01*
X171170537Y-83704494D01*
X171229502Y-83594180D01*
X171265812Y-83474482D01*
X171278072Y-83350000D01*
X171278072Y-82349570D01*
X171955000Y-82349570D01*
X171955000Y-82750430D01*
X172033204Y-83143587D01*
X172186607Y-83513934D01*
X172409313Y-83847237D01*
X172692763Y-84130687D01*
X173026066Y-84353393D01*
X173396413Y-84506796D01*
X173789570Y-84585000D01*
X174190430Y-84585000D01*
X174583587Y-84506796D01*
X174953934Y-84353393D01*
X175287237Y-84130687D01*
X175570687Y-83847237D01*
X175793393Y-83513934D01*
X175946796Y-83143587D01*
X176025000Y-82750430D01*
X176025000Y-82349570D01*
X175946796Y-81956413D01*
X175793393Y-81586066D01*
X175570687Y-81252763D01*
X175287237Y-80969313D01*
X174953934Y-80746607D01*
X174583587Y-80593204D01*
X174190430Y-80515000D01*
X173789570Y-80515000D01*
X173396413Y-80593204D01*
X173026066Y-80746607D01*
X172692763Y-80969313D01*
X172409313Y-81252763D01*
X172186607Y-81586066D01*
X172033204Y-81956413D01*
X171955000Y-82349570D01*
X171278072Y-82349570D01*
X171278072Y-81750000D01*
X171265812Y-81625518D01*
X171229502Y-81505820D01*
X171170537Y-81395506D01*
X171091185Y-81298815D01*
X170994494Y-81219463D01*
X170884180Y-81160498D01*
X170764482Y-81124188D01*
X170640000Y-81111928D01*
X168640000Y-81111928D01*
X168515518Y-81124188D01*
X168395820Y-81160498D01*
X168285506Y-81219463D01*
X168188815Y-81298815D01*
X168109463Y-81395506D01*
X168050498Y-81505820D01*
X168025183Y-81589272D01*
X167941898Y-81554774D01*
X167741939Y-81515000D01*
X167538061Y-81515000D01*
X167338102Y-81554774D01*
X167254817Y-81589272D01*
X167229502Y-81505820D01*
X167170537Y-81395506D01*
X167091185Y-81298815D01*
X166994494Y-81219463D01*
X166884180Y-81160498D01*
X166764482Y-81124188D01*
X166640000Y-81111928D01*
X164640000Y-81111928D01*
X164515518Y-81124188D01*
X164395820Y-81160498D01*
X164285506Y-81219463D01*
X164188815Y-81298815D01*
X164109463Y-81395506D01*
X164050498Y-81505820D01*
X164014188Y-81625518D01*
X164001928Y-81750000D01*
X164001928Y-81790000D01*
X163867333Y-81790000D01*
X163830000Y-81786323D01*
X163792667Y-81790000D01*
X163681014Y-81800997D01*
X163537753Y-81844454D01*
X163405724Y-81915026D01*
X163289999Y-82009999D01*
X163266201Y-82038997D01*
X162880199Y-82425000D01*
X162315421Y-82425000D01*
X162347612Y-82318882D01*
X162359872Y-82194400D01*
X162359872Y-81635600D01*
X162347612Y-81511118D01*
X162311302Y-81391420D01*
X162252337Y-81281106D01*
X162251429Y-81280000D01*
X162252337Y-81278894D01*
X162311302Y-81168580D01*
X162347612Y-81048882D01*
X162359872Y-80924400D01*
X162359872Y-80365600D01*
X162347612Y-80241118D01*
X162315421Y-80135000D01*
X177731289Y-80135000D01*
X177775226Y-80178937D01*
X177944744Y-80292205D01*
X178133102Y-80370226D01*
X178333061Y-80410000D01*
X178395199Y-80410000D01*
X180850000Y-82864802D01*
X180850001Y-91327762D01*
X180850000Y-91327770D01*
X180850000Y-91457135D01*
X180646066Y-91541607D01*
X180312763Y-91764313D01*
X180029313Y-92047763D01*
X179806607Y-92381066D01*
X179653204Y-92751413D01*
X179575000Y-93144570D01*
X179575000Y-93545430D01*
X179653204Y-93938587D01*
X179806607Y-94308934D01*
X180029313Y-94642237D01*
X180312763Y-94925687D01*
X180646066Y-95148393D01*
X181016413Y-95301796D01*
X181409570Y-95380000D01*
X181810430Y-95380000D01*
X182203587Y-95301796D01*
X182573934Y-95148393D01*
X182907237Y-94925687D01*
X183190687Y-94642237D01*
X183413393Y-94308934D01*
X183566796Y-93938587D01*
X183645000Y-93545430D01*
X183645000Y-93144570D01*
X183566796Y-92751413D01*
X183413393Y-92381066D01*
X183190687Y-92047763D01*
X182907237Y-91764313D01*
X182573934Y-91541607D01*
X182370000Y-91457135D01*
X182370000Y-82587322D01*
X182373676Y-82549999D01*
X182370000Y-82512676D01*
X182370000Y-82512667D01*
X182366409Y-82476211D01*
X186565000Y-86674802D01*
X186565001Y-91457134D01*
X186361066Y-91541607D01*
X186027763Y-91764313D01*
X185744313Y-92047763D01*
X185521607Y-92381066D01*
X185368204Y-92751413D01*
X185290000Y-93144570D01*
X185290000Y-93545430D01*
X185368204Y-93938587D01*
X185521607Y-94308934D01*
X185744313Y-94642237D01*
X186027763Y-94925687D01*
X186361066Y-95148393D01*
X186731413Y-95301796D01*
X187124570Y-95380000D01*
X187525430Y-95380000D01*
X187918587Y-95301796D01*
X188288934Y-95148393D01*
X188622237Y-94925687D01*
X188905687Y-94642237D01*
X189128393Y-94308934D01*
X189281796Y-93938587D01*
X189360000Y-93545430D01*
X189360000Y-93144570D01*
X189281796Y-92751413D01*
X189128393Y-92381066D01*
X188905687Y-92047763D01*
X188622237Y-91764313D01*
X188288934Y-91541607D01*
X188085000Y-91457135D01*
X188085000Y-86397333D01*
X188088677Y-86360000D01*
X188083576Y-86308204D01*
X188074003Y-86211014D01*
X188030546Y-86067753D01*
X187959974Y-85935724D01*
X187865001Y-85819999D01*
X187836003Y-85796201D01*
X179470000Y-77430199D01*
X179470000Y-77368061D01*
X179430226Y-77168102D01*
X179352205Y-76979744D01*
X179238937Y-76810226D01*
X179094774Y-76666063D01*
X178925256Y-76552795D01*
X178736898Y-76474774D01*
X178622735Y-76452066D01*
X180851004Y-74223798D01*
X180880001Y-74200001D01*
X180924307Y-74146014D01*
X180974974Y-74084277D01*
X181045546Y-73952247D01*
X181052230Y-73930212D01*
X181089003Y-73808986D01*
X181100000Y-73697333D01*
X181100000Y-73697324D01*
X181103676Y-73660001D01*
X181100000Y-73622678D01*
X181100000Y-72336046D01*
X181194494Y-72285537D01*
X181291185Y-72206185D01*
X181370537Y-72109494D01*
X181429502Y-71999180D01*
X181465812Y-71879482D01*
X181478072Y-71755000D01*
X181478072Y-68655000D01*
X181465812Y-68530518D01*
X181429502Y-68410820D01*
X181370537Y-68300506D01*
X181291185Y-68203815D01*
X181194494Y-68124463D01*
X181092603Y-68070000D01*
X182127397Y-68070000D01*
X182025506Y-68124463D01*
X181928815Y-68203815D01*
X181849463Y-68300506D01*
X181790498Y-68410820D01*
X181754188Y-68530518D01*
X181741928Y-68655000D01*
X181741928Y-71755000D01*
X181754188Y-71879482D01*
X181790498Y-71999180D01*
X181849463Y-72109494D01*
X181928815Y-72206185D01*
X182025506Y-72285537D01*
X182110383Y-72330906D01*
X182076063Y-72365226D01*
X181962795Y-72534744D01*
X181884774Y-72723102D01*
X181845000Y-72923061D01*
X181845000Y-73126939D01*
X181884774Y-73326898D01*
X181962795Y-73515256D01*
X182076063Y-73684774D01*
X182220226Y-73828937D01*
X182389744Y-73942205D01*
X182578102Y-74020226D01*
X182778061Y-74060000D01*
X182981939Y-74060000D01*
X183181898Y-74020226D01*
X183370256Y-73942205D01*
X183539774Y-73828937D01*
X183683937Y-73684774D01*
X183797205Y-73515256D01*
X183875226Y-73326898D01*
X183915000Y-73126939D01*
X183915000Y-72923061D01*
X183875226Y-72723102D01*
X183797205Y-72534744D01*
X183683937Y-72365226D01*
X183649617Y-72330906D01*
X183734494Y-72285537D01*
X183831185Y-72206185D01*
X183910537Y-72109494D01*
X183969502Y-71999180D01*
X184005812Y-71879482D01*
X184018072Y-71755000D01*
X184281928Y-71755000D01*
X184294188Y-71879482D01*
X184330498Y-71999180D01*
X184389463Y-72109494D01*
X184468815Y-72206185D01*
X184565506Y-72285537D01*
X184675820Y-72344502D01*
X184795518Y-72380812D01*
X184920000Y-72393072D01*
X185134250Y-72390000D01*
X185293000Y-72231250D01*
X185293000Y-70332000D01*
X185547000Y-70332000D01*
X185547000Y-72231250D01*
X185705750Y-72390000D01*
X185920000Y-72393072D01*
X186044482Y-72380812D01*
X186164180Y-72344502D01*
X186274494Y-72285537D01*
X186371185Y-72206185D01*
X186450537Y-72109494D01*
X186509502Y-71999180D01*
X186545812Y-71879482D01*
X186558072Y-71755000D01*
X186555000Y-70490750D01*
X186396250Y-70332000D01*
X185547000Y-70332000D01*
X185293000Y-70332000D01*
X184443750Y-70332000D01*
X184285000Y-70490750D01*
X184281928Y-71755000D01*
X184018072Y-71755000D01*
X184018072Y-68655000D01*
X184005812Y-68530518D01*
X183969502Y-68410820D01*
X183910537Y-68300506D01*
X183831185Y-68203815D01*
X183734494Y-68124463D01*
X183632603Y-68070000D01*
X184667397Y-68070000D01*
X184565506Y-68124463D01*
X184468815Y-68203815D01*
X184389463Y-68300506D01*
X184330498Y-68410820D01*
X184294188Y-68530518D01*
X184281928Y-68655000D01*
X184285000Y-69919250D01*
X184443750Y-70078000D01*
X185293000Y-70078000D01*
X185293000Y-70058000D01*
X185547000Y-70058000D01*
X185547000Y-70078000D01*
X186396250Y-70078000D01*
X186555000Y-69919250D01*
X186558072Y-68655000D01*
X186545812Y-68530518D01*
X186509502Y-68410820D01*
X186450537Y-68300506D01*
X186371185Y-68203815D01*
X186274494Y-68124463D01*
X186172603Y-68070000D01*
X186375199Y-68070000D01*
X186834544Y-68529345D01*
X186834188Y-68530518D01*
X186821928Y-68655000D01*
X186821928Y-71755000D01*
X186834188Y-71879482D01*
X186870498Y-71999180D01*
X186929463Y-72109494D01*
X187008815Y-72206185D01*
X187105506Y-72285537D01*
X187215820Y-72344502D01*
X187335518Y-72380812D01*
X187460000Y-72393072D01*
X188460000Y-72393072D01*
X188584482Y-72380812D01*
X188704180Y-72344502D01*
X188814494Y-72285537D01*
X188911185Y-72206185D01*
X188990537Y-72109494D01*
X189049502Y-71999180D01*
X189085812Y-71879482D01*
X189098072Y-71755000D01*
X189098072Y-68655000D01*
X189085812Y-68530518D01*
X189049502Y-68410820D01*
X188990537Y-68300506D01*
X188911185Y-68203815D01*
X188814494Y-68124463D01*
X188704180Y-68065498D01*
X188584482Y-68029188D01*
X188473510Y-68018259D01*
X188471003Y-68016201D01*
X187253804Y-66799003D01*
X187230001Y-66769999D01*
X187114276Y-66675026D01*
X186982247Y-66604454D01*
X186838986Y-66560997D01*
X186727333Y-66550000D01*
X186727322Y-66550000D01*
X186690000Y-66546324D01*
X186652678Y-66550000D01*
X177202333Y-66550000D01*
X177165000Y-66546323D01*
X177127667Y-66550000D01*
X177016014Y-66560997D01*
X176872753Y-66604454D01*
X176740724Y-66675026D01*
X176624999Y-66769999D01*
X176601200Y-66798998D01*
X176019002Y-67381197D01*
X175989999Y-67404999D01*
X175941784Y-67463750D01*
X175895026Y-67520724D01*
X175831808Y-67638996D01*
X175824454Y-67652754D01*
X175780997Y-67796015D01*
X175770000Y-67907668D01*
X175770000Y-67907678D01*
X175766324Y-67945000D01*
X175770000Y-67982323D01*
X175770000Y-68017913D01*
X175760000Y-68016928D01*
X174760000Y-68016928D01*
X174635518Y-68029188D01*
X174515820Y-68065498D01*
X174405506Y-68124463D01*
X174308815Y-68203815D01*
X174229463Y-68300506D01*
X174170498Y-68410820D01*
X174134188Y-68530518D01*
X174121928Y-68655000D01*
X174121928Y-71755000D01*
X174134188Y-71879482D01*
X174170498Y-71999180D01*
X174229463Y-72109494D01*
X174308815Y-72206185D01*
X174405506Y-72285537D01*
X174515820Y-72344502D01*
X174635518Y-72380812D01*
X174760000Y-72393072D01*
X175452125Y-72393072D01*
X173675199Y-74170000D01*
X164533711Y-74170000D01*
X164489774Y-74126063D01*
X164320256Y-74012795D01*
X164190771Y-73959160D01*
X164230000Y-73761939D01*
X164230000Y-73558061D01*
X164190226Y-73358102D01*
X164112205Y-73169744D01*
X163998937Y-73000226D01*
X163854774Y-72856063D01*
X163685256Y-72742795D01*
X163496898Y-72664774D01*
X163296939Y-72625000D01*
X163093061Y-72625000D01*
X162893102Y-72664774D01*
X162704744Y-72742795D01*
X162535226Y-72856063D01*
X162391063Y-73000226D01*
X162277795Y-73169744D01*
X162259635Y-73213585D01*
X162198050Y-73152000D01*
X160858200Y-73152000D01*
X160858200Y-73172000D01*
X160604200Y-73172000D01*
X160604200Y-73152000D01*
X159264350Y-73152000D01*
X159105600Y-73310750D01*
X159115092Y-73430400D01*
X159151693Y-73550010D01*
X159210885Y-73660105D01*
X159210063Y-73661106D01*
X159151098Y-73771420D01*
X159114788Y-73891118D01*
X159102528Y-74015600D01*
X159102528Y-74574400D01*
X159114788Y-74698882D01*
X159146979Y-74805000D01*
X158152333Y-74805000D01*
X158115000Y-74801323D01*
X158077667Y-74805000D01*
X157966014Y-74815997D01*
X157822753Y-74859454D01*
X157690724Y-74930026D01*
X157574999Y-75024999D01*
X157551200Y-75053998D01*
X156970000Y-75635199D01*
X156970000Y-72739250D01*
X159105600Y-72739250D01*
X159264350Y-72898000D01*
X160604200Y-72898000D01*
X160604200Y-72269350D01*
X160858200Y-72269350D01*
X160858200Y-72898000D01*
X162198050Y-72898000D01*
X162356800Y-72739250D01*
X162347308Y-72619600D01*
X162310707Y-72499990D01*
X162251475Y-72389820D01*
X162171889Y-72293321D01*
X162075005Y-72214204D01*
X161964548Y-72155507D01*
X161844762Y-72119488D01*
X161720251Y-72107530D01*
X161016950Y-72110600D01*
X160858200Y-72269350D01*
X160604200Y-72269350D01*
X160445450Y-72110600D01*
X159742149Y-72107530D01*
X159617638Y-72119488D01*
X159497852Y-72155507D01*
X159387395Y-72214204D01*
X159290511Y-72293321D01*
X159210925Y-72389820D01*
X159151693Y-72499990D01*
X159115092Y-72619600D01*
X159105600Y-72739250D01*
X156970000Y-72739250D01*
X156970000Y-71285000D01*
X157651928Y-71285000D01*
X157664188Y-71409482D01*
X157700498Y-71529180D01*
X157759463Y-71639494D01*
X157838815Y-71736185D01*
X157935506Y-71815537D01*
X158045820Y-71874502D01*
X158165518Y-71910812D01*
X158290000Y-71923072D01*
X159004250Y-71920000D01*
X159163000Y-71761250D01*
X159163000Y-70612000D01*
X157813750Y-70612000D01*
X157655000Y-70770750D01*
X157651928Y-71285000D01*
X156970000Y-71285000D01*
X156970000Y-69918711D01*
X157013937Y-69874774D01*
X157127205Y-69705256D01*
X157135595Y-69685000D01*
X157651928Y-69685000D01*
X157655000Y-70199250D01*
X157813750Y-70358000D01*
X159163000Y-70358000D01*
X159163000Y-69208750D01*
X159004250Y-69050000D01*
X158290000Y-69046928D01*
X158165518Y-69059188D01*
X158045820Y-69095498D01*
X157935506Y-69154463D01*
X157838815Y-69233815D01*
X157759463Y-69330506D01*
X157700498Y-69440820D01*
X157664188Y-69560518D01*
X157651928Y-69685000D01*
X157135595Y-69685000D01*
X157205226Y-69516898D01*
X157245000Y-69316939D01*
X157245000Y-69113061D01*
X157227484Y-69025000D01*
X164660001Y-69025000D01*
X164660001Y-69167189D01*
X164644494Y-69154463D01*
X164534180Y-69095498D01*
X164414482Y-69059188D01*
X164290000Y-69046928D01*
X162290000Y-69046928D01*
X162165518Y-69059188D01*
X162045820Y-69095498D01*
X161935506Y-69154463D01*
X161838815Y-69233815D01*
X161759463Y-69330506D01*
X161700498Y-69440820D01*
X161675183Y-69524272D01*
X161591898Y-69489774D01*
X161391939Y-69450000D01*
X161188061Y-69450000D01*
X160988102Y-69489774D01*
X160904817Y-69524272D01*
X160879502Y-69440820D01*
X160820537Y-69330506D01*
X160741185Y-69233815D01*
X160644494Y-69154463D01*
X160534180Y-69095498D01*
X160414482Y-69059188D01*
X160290000Y-69046928D01*
X159575750Y-69050000D01*
X159417000Y-69208750D01*
X159417000Y-70358000D01*
X159437000Y-70358000D01*
X159437000Y-70612000D01*
X159417000Y-70612000D01*
X159417000Y-71761250D01*
X159575750Y-71920000D01*
X160290000Y-71923072D01*
X160414482Y-71910812D01*
X160534180Y-71874502D01*
X160644494Y-71815537D01*
X160741185Y-71736185D01*
X160820537Y-71639494D01*
X160879502Y-71529180D01*
X160904817Y-71445728D01*
X160988102Y-71480226D01*
X161188061Y-71520000D01*
X161391939Y-71520000D01*
X161591898Y-71480226D01*
X161675183Y-71445728D01*
X161700498Y-71529180D01*
X161759463Y-71639494D01*
X161838815Y-71736185D01*
X161935506Y-71815537D01*
X162045820Y-71874502D01*
X162165518Y-71910812D01*
X162290000Y-71923072D01*
X164290000Y-71923072D01*
X164414482Y-71910812D01*
X164534180Y-71874502D01*
X164644494Y-71815537D01*
X164741185Y-71736185D01*
X164820537Y-71639494D01*
X164879502Y-71529180D01*
X164915812Y-71409482D01*
X164928072Y-71285000D01*
X164928072Y-70117873D01*
X165486200Y-70676002D01*
X165509999Y-70705001D01*
X165625724Y-70799974D01*
X165633002Y-70803864D01*
X165569454Y-70922754D01*
X165544204Y-71005997D01*
X165541044Y-71016414D01*
X165460506Y-71059463D01*
X165363815Y-71138815D01*
X165284463Y-71235506D01*
X165225498Y-71345820D01*
X165189188Y-71465518D01*
X165176928Y-71590000D01*
X165176928Y-73190000D01*
X165189188Y-73314482D01*
X165225498Y-73434180D01*
X165284463Y-73544494D01*
X165363815Y-73641185D01*
X165460506Y-73720537D01*
X165570820Y-73779502D01*
X165690518Y-73815812D01*
X165815000Y-73828072D01*
X167815000Y-73828072D01*
X167939482Y-73815812D01*
X168059180Y-73779502D01*
X168169494Y-73720537D01*
X168266185Y-73641185D01*
X168345537Y-73544494D01*
X168404502Y-73434180D01*
X168440421Y-73315770D01*
X168608102Y-73385226D01*
X168808061Y-73425000D01*
X169011939Y-73425000D01*
X169210719Y-73385460D01*
X169225498Y-73434180D01*
X169284463Y-73544494D01*
X169363815Y-73641185D01*
X169460506Y-73720537D01*
X169570820Y-73779502D01*
X169690518Y-73815812D01*
X169815000Y-73828072D01*
X171815000Y-73828072D01*
X171939482Y-73815812D01*
X172059180Y-73779502D01*
X172169494Y-73720537D01*
X172266185Y-73641185D01*
X172345537Y-73544494D01*
X172404502Y-73434180D01*
X172440812Y-73314482D01*
X172453072Y-73190000D01*
X172453072Y-71590000D01*
X172440812Y-71465518D01*
X172404502Y-71345820D01*
X172345537Y-71235506D01*
X172266185Y-71138815D01*
X172169494Y-71059463D01*
X172059180Y-71000498D01*
X172055333Y-70999331D01*
X172126185Y-70941185D01*
X172205537Y-70844494D01*
X172264502Y-70734180D01*
X172300812Y-70614482D01*
X172313072Y-70490000D01*
X172313072Y-69840000D01*
X172300812Y-69715518D01*
X172264502Y-69595820D01*
X172205537Y-69485506D01*
X172126185Y-69388815D01*
X172029494Y-69309463D01*
X171919180Y-69250498D01*
X171802159Y-69215000D01*
X171919180Y-69179502D01*
X172029494Y-69120537D01*
X172126185Y-69041185D01*
X172205537Y-68944494D01*
X172264502Y-68834180D01*
X172300812Y-68714482D01*
X172313072Y-68590000D01*
X172310000Y-68550750D01*
X172151250Y-68392000D01*
X171022000Y-68392000D01*
X171022000Y-68412000D01*
X170768000Y-68412000D01*
X170768000Y-68392000D01*
X170748000Y-68392000D01*
X170748000Y-68138000D01*
X170768000Y-68138000D01*
X170768000Y-67463750D01*
X171022000Y-67463750D01*
X171022000Y-68138000D01*
X172151250Y-68138000D01*
X172310000Y-67979250D01*
X172313072Y-67940000D01*
X172300812Y-67815518D01*
X172264502Y-67695820D01*
X172205537Y-67585506D01*
X172126185Y-67488815D01*
X172080972Y-67451710D01*
X172154180Y-67429502D01*
X172264494Y-67370537D01*
X172361185Y-67291185D01*
X172440537Y-67194494D01*
X172499502Y-67084180D01*
X172535812Y-66964482D01*
X172548072Y-66840000D01*
X172545000Y-66325750D01*
X172386250Y-66167000D01*
X171037000Y-66167000D01*
X171037000Y-67316250D01*
X171103250Y-67382500D01*
X171022000Y-67463750D01*
X170768000Y-67463750D01*
X170701750Y-67397500D01*
X170783000Y-67316250D01*
X170783000Y-66167000D01*
X170763000Y-66167000D01*
X170763000Y-65913000D01*
X170783000Y-65913000D01*
X170783000Y-64763750D01*
X171037000Y-64763750D01*
X171037000Y-65913000D01*
X172386250Y-65913000D01*
X172545000Y-65754250D01*
X172545438Y-65680777D01*
X189650000Y-65680777D01*
X189650000Y-66239223D01*
X189758948Y-66786939D01*
X189972656Y-67302876D01*
X190282912Y-67767207D01*
X190677793Y-68162088D01*
X191142124Y-68472344D01*
X191658061Y-68686052D01*
X192205777Y-68795000D01*
X192764223Y-68795000D01*
X193311939Y-68686052D01*
X193827876Y-68472344D01*
X194292207Y-68162088D01*
X194687088Y-67767207D01*
X194997344Y-67302876D01*
X195211052Y-66786939D01*
X195320000Y-66239223D01*
X195320000Y-65680777D01*
X195211052Y-65133061D01*
X194997344Y-64617124D01*
X194687088Y-64152793D01*
X194292207Y-63757912D01*
X193827876Y-63447656D01*
X193311939Y-63233948D01*
X192764223Y-63125000D01*
X192205777Y-63125000D01*
X191658061Y-63233948D01*
X191142124Y-63447656D01*
X190677793Y-63757912D01*
X190282912Y-64152793D01*
X189972656Y-64617124D01*
X189758948Y-65133061D01*
X189650000Y-65680777D01*
X172545438Y-65680777D01*
X172548072Y-65240000D01*
X172535812Y-65115518D01*
X172499502Y-64995820D01*
X172440537Y-64885506D01*
X172361185Y-64788815D01*
X172264494Y-64709463D01*
X172154180Y-64650498D01*
X172034482Y-64614188D01*
X171910000Y-64601928D01*
X171195750Y-64605000D01*
X171037000Y-64763750D01*
X170783000Y-64763750D01*
X170624250Y-64605000D01*
X169910000Y-64601928D01*
X169785518Y-64614188D01*
X169665820Y-64650498D01*
X169555506Y-64709463D01*
X169458815Y-64788815D01*
X169379463Y-64885506D01*
X169320498Y-64995820D01*
X169295183Y-65079272D01*
X169211898Y-65044774D01*
X169011939Y-65005000D01*
X168808061Y-65005000D01*
X168608102Y-65044774D01*
X168524817Y-65079272D01*
X168499502Y-64995820D01*
X168440537Y-64885506D01*
X168361185Y-64788815D01*
X168264494Y-64709463D01*
X168154180Y-64650498D01*
X168034482Y-64614188D01*
X167910000Y-64601928D01*
X165910000Y-64601928D01*
X165785518Y-64614188D01*
X165665820Y-64650498D01*
X165555506Y-64709463D01*
X165458815Y-64788815D01*
X165379463Y-64885506D01*
X165320498Y-64995820D01*
X165284188Y-65115518D01*
X165271928Y-65240000D01*
X165271928Y-66840000D01*
X165284188Y-66964482D01*
X165320498Y-67084180D01*
X165379463Y-67194494D01*
X165458815Y-67291185D01*
X165555506Y-67370537D01*
X165665820Y-67429502D01*
X165785518Y-67465812D01*
X165910000Y-67478072D01*
X166976905Y-67478072D01*
X166963815Y-67488815D01*
X166950532Y-67505000D01*
X165457333Y-67505000D01*
X165420000Y-67501323D01*
X165382667Y-67505000D01*
X149224802Y-67505000D01*
X148080000Y-66360199D01*
X148080000Y-65860161D01*
X148212731Y-65805182D01*
X148521413Y-65598926D01*
X148783926Y-65336413D01*
X148990182Y-65027731D01*
X149132253Y-64684741D01*
X149204680Y-64320625D01*
X149204680Y-63949375D01*
X149245320Y-63949375D01*
X149245320Y-64320625D01*
X149317747Y-64684741D01*
X149459818Y-65027731D01*
X149666074Y-65336413D01*
X149928587Y-65598926D01*
X150237269Y-65805182D01*
X150580259Y-65947253D01*
X150944375Y-66019680D01*
X151315625Y-66019680D01*
X151679741Y-65947253D01*
X152022731Y-65805182D01*
X152331413Y-65598926D01*
X152593926Y-65336413D01*
X152800182Y-65027731D01*
X152942253Y-64684741D01*
X153014680Y-64320625D01*
X153014680Y-63949375D01*
X153055320Y-63949375D01*
X153055320Y-64320625D01*
X153127747Y-64684741D01*
X153269818Y-65027731D01*
X153476074Y-65336413D01*
X153738587Y-65598926D01*
X154047269Y-65805182D01*
X154390259Y-65947253D01*
X154754375Y-66019680D01*
X155125625Y-66019680D01*
X155489741Y-65947253D01*
X155832731Y-65805182D01*
X156141413Y-65598926D01*
X156403926Y-65336413D01*
X156610182Y-65027731D01*
X156752253Y-64684741D01*
X156824680Y-64320625D01*
X156824680Y-63949375D01*
X156865320Y-63949375D01*
X156865320Y-64320625D01*
X156937747Y-64684741D01*
X157079818Y-65027731D01*
X157286074Y-65336413D01*
X157548587Y-65598926D01*
X157857269Y-65805182D01*
X158200259Y-65947253D01*
X158564375Y-66019680D01*
X158935625Y-66019680D01*
X159299741Y-65947253D01*
X159642731Y-65805182D01*
X159951413Y-65598926D01*
X160213926Y-65336413D01*
X160420182Y-65027731D01*
X160562253Y-64684741D01*
X160634680Y-64320625D01*
X160634680Y-63949375D01*
X160675320Y-63949375D01*
X160675320Y-64320625D01*
X160747747Y-64684741D01*
X160889818Y-65027731D01*
X161096074Y-65336413D01*
X161358587Y-65598926D01*
X161667269Y-65805182D01*
X162010259Y-65947253D01*
X162374375Y-66019680D01*
X162745625Y-66019680D01*
X163109741Y-65947253D01*
X163452731Y-65805182D01*
X163761413Y-65598926D01*
X164023926Y-65336413D01*
X164230182Y-65027731D01*
X164372253Y-64684741D01*
X164444680Y-64320625D01*
X164444680Y-63949375D01*
X164372253Y-63585259D01*
X164230182Y-63242269D01*
X164023926Y-62933587D01*
X163761413Y-62671074D01*
X163452731Y-62464818D01*
X163109741Y-62322747D01*
X162745625Y-62250320D01*
X162374375Y-62250320D01*
X162010259Y-62322747D01*
X161667269Y-62464818D01*
X161358587Y-62671074D01*
X161096074Y-62933587D01*
X160889818Y-63242269D01*
X160747747Y-63585259D01*
X160675320Y-63949375D01*
X160634680Y-63949375D01*
X160562253Y-63585259D01*
X160420182Y-63242269D01*
X160213926Y-62933587D01*
X159951413Y-62671074D01*
X159642731Y-62464818D01*
X159299741Y-62322747D01*
X158935625Y-62250320D01*
X158564375Y-62250320D01*
X158200259Y-62322747D01*
X157857269Y-62464818D01*
X157548587Y-62671074D01*
X157286074Y-62933587D01*
X157079818Y-63242269D01*
X156937747Y-63585259D01*
X156865320Y-63949375D01*
X156824680Y-63949375D01*
X156752253Y-63585259D01*
X156610182Y-63242269D01*
X156403926Y-62933587D01*
X156141413Y-62671074D01*
X155832731Y-62464818D01*
X155489741Y-62322747D01*
X155125625Y-62250320D01*
X154754375Y-62250320D01*
X154390259Y-62322747D01*
X154047269Y-62464818D01*
X153738587Y-62671074D01*
X153476074Y-62933587D01*
X153269818Y-63242269D01*
X153127747Y-63585259D01*
X153055320Y-63949375D01*
X153014680Y-63949375D01*
X152942253Y-63585259D01*
X152800182Y-63242269D01*
X152593926Y-62933587D01*
X152331413Y-62671074D01*
X152022731Y-62464818D01*
X151679741Y-62322747D01*
X151315625Y-62250320D01*
X150944375Y-62250320D01*
X150580259Y-62322747D01*
X150237269Y-62464818D01*
X149928587Y-62671074D01*
X149666074Y-62933587D01*
X149459818Y-63242269D01*
X149317747Y-63585259D01*
X149245320Y-63949375D01*
X149204680Y-63949375D01*
X149132253Y-63585259D01*
X148990182Y-63242269D01*
X148783926Y-62933587D01*
X148521413Y-62671074D01*
X148212731Y-62464818D01*
X147869741Y-62322747D01*
X147505625Y-62250320D01*
X147134375Y-62250320D01*
X146770259Y-62322747D01*
X146427269Y-62464818D01*
X146118587Y-62671074D01*
X145856074Y-62933587D01*
X145649818Y-63242269D01*
X145507747Y-63585259D01*
X145435320Y-63949375D01*
X145435320Y-64320625D01*
X145507747Y-64684741D01*
X145649818Y-65027731D01*
X145856074Y-65336413D01*
X146118587Y-65598926D01*
X146427269Y-65805182D01*
X146560001Y-65860161D01*
X146560001Y-66637668D01*
X146556324Y-66675000D01*
X146560001Y-66712333D01*
X146570998Y-66823986D01*
X146577957Y-66846928D01*
X146614454Y-66967246D01*
X146685026Y-67099276D01*
X146739175Y-67165256D01*
X146780000Y-67215001D01*
X146808998Y-67238799D01*
X147982126Y-68411928D01*
X147685000Y-68411928D01*
X147560518Y-68424188D01*
X147440820Y-68460498D01*
X147330506Y-68519463D01*
X147233815Y-68598815D01*
X147154463Y-68695506D01*
X147095498Y-68805820D01*
X147070183Y-68889272D01*
X146986898Y-68854774D01*
X146786939Y-68815000D01*
X146583061Y-68815000D01*
X146383102Y-68854774D01*
X146299817Y-68889272D01*
X146274502Y-68805820D01*
X146215537Y-68695506D01*
X146136185Y-68598815D01*
X146039494Y-68519463D01*
X145929180Y-68460498D01*
X145809482Y-68424188D01*
X145685000Y-68411928D01*
X143725000Y-68411928D01*
X143725000Y-68357998D01*
X143566252Y-68357998D01*
X143725000Y-68199250D01*
X143728072Y-67485000D01*
X143715812Y-67360518D01*
X143679502Y-67240820D01*
X143620537Y-67130506D01*
X143541185Y-67033815D01*
X143444494Y-66954463D01*
X143334180Y-66895498D01*
X143214482Y-66859188D01*
X143090000Y-66846928D01*
X142525750Y-66850000D01*
X142367000Y-67008750D01*
X142367000Y-68358000D01*
X142387000Y-68358000D01*
X142387000Y-68612000D01*
X142367000Y-68612000D01*
X142367000Y-69961250D01*
X142525750Y-70120000D01*
X143046928Y-70122837D01*
X143046928Y-70650000D01*
X143059188Y-70774482D01*
X143081164Y-70846928D01*
X141390000Y-70846928D01*
X141265518Y-70859188D01*
X141145820Y-70895498D01*
X141035506Y-70954463D01*
X140938815Y-71033815D01*
X140859463Y-71130506D01*
X140800498Y-71240820D01*
X140764188Y-71360518D01*
X140751928Y-71485000D01*
X140751928Y-73485000D01*
X140764188Y-73609482D01*
X140800498Y-73729180D01*
X140859463Y-73839494D01*
X140938815Y-73936185D01*
X141035506Y-74015537D01*
X141145820Y-74074502D01*
X141265518Y-74110812D01*
X141390000Y-74123072D01*
X143090000Y-74123072D01*
X143214482Y-74110812D01*
X143334180Y-74074502D01*
X143444494Y-74015537D01*
X143541185Y-73936185D01*
X143620537Y-73839494D01*
X143679502Y-73729180D01*
X143684791Y-73711744D01*
X143695506Y-73720537D01*
X143805820Y-73779502D01*
X143925518Y-73815812D01*
X144050000Y-73828072D01*
X145050000Y-73828072D01*
X145174482Y-73815812D01*
X145294180Y-73779502D01*
X145404494Y-73720537D01*
X145501185Y-73641185D01*
X145580537Y-73544494D01*
X145639502Y-73434180D01*
X145675812Y-73314482D01*
X145688072Y-73190000D01*
X145688072Y-71590000D01*
X145675812Y-71465518D01*
X145639502Y-71345820D01*
X145608635Y-71288072D01*
X145685000Y-71288072D01*
X145809482Y-71275812D01*
X145929180Y-71239502D01*
X146039494Y-71180537D01*
X146136185Y-71101185D01*
X146215537Y-71004494D01*
X146274502Y-70894180D01*
X146299817Y-70810728D01*
X146383102Y-70845226D01*
X146583061Y-70885000D01*
X146786939Y-70885000D01*
X146986898Y-70845226D01*
X147070183Y-70810728D01*
X147095498Y-70894180D01*
X147126365Y-70951928D01*
X147050000Y-70951928D01*
X146925518Y-70964188D01*
X146805820Y-71000498D01*
X146695506Y-71059463D01*
X146598815Y-71138815D01*
X146519463Y-71235506D01*
X146460498Y-71345820D01*
X146424188Y-71465518D01*
X146411928Y-71590000D01*
X146411928Y-73190000D01*
X146424188Y-73314482D01*
X146460498Y-73434180D01*
X146519463Y-73544494D01*
X146598815Y-73641185D01*
X146695506Y-73720537D01*
X146805820Y-73779502D01*
X146925518Y-73815812D01*
X147050000Y-73828072D01*
X148050000Y-73828072D01*
X148174482Y-73815812D01*
X148294180Y-73779502D01*
X148404494Y-73720537D01*
X148501185Y-73641185D01*
X148580537Y-73544494D01*
X148611592Y-73486394D01*
X148661200Y-73536002D01*
X148684999Y-73565001D01*
X148713997Y-73588799D01*
X148800724Y-73659974D01*
X148932753Y-73730546D01*
X149076014Y-73774003D01*
X149225000Y-73788677D01*
X149262333Y-73785000D01*
X150104579Y-73785000D01*
X150072388Y-73891118D01*
X150060128Y-74015600D01*
X150060128Y-74574400D01*
X150072388Y-74698882D01*
X150108698Y-74818580D01*
X150167663Y-74928894D01*
X150168571Y-74930000D01*
X150167663Y-74931106D01*
X150108698Y-75041420D01*
X150072388Y-75161118D01*
X150060128Y-75285600D01*
X150060128Y-75844400D01*
X150072388Y-75968882D01*
X150108698Y-76088580D01*
X150167663Y-76198894D01*
X150168571Y-76200000D01*
X150167663Y-76201106D01*
X150108698Y-76311420D01*
X150072388Y-76431118D01*
X150060128Y-76555600D01*
X150060128Y-77114400D01*
X150072388Y-77238882D01*
X150108698Y-77358580D01*
X150167663Y-77468894D01*
X150168571Y-77470000D01*
X150167663Y-77471106D01*
X150108698Y-77581420D01*
X150072388Y-77701118D01*
X150060128Y-77825600D01*
X150060128Y-78384400D01*
X150072388Y-78508882D01*
X150104579Y-78615000D01*
X149262333Y-78615000D01*
X149225000Y-78611323D01*
X149187667Y-78615000D01*
X149076014Y-78625997D01*
X148932753Y-78669454D01*
X148800724Y-78740026D01*
X148684999Y-78834999D01*
X148661201Y-78863997D01*
X148275199Y-79250000D01*
X145802338Y-79250000D01*
X145829502Y-79199180D01*
X145865812Y-79079482D01*
X145878072Y-78955000D01*
X145878072Y-77255000D01*
X145865812Y-77130518D01*
X145829502Y-77010820D01*
X145770537Y-76900506D01*
X145691185Y-76803815D01*
X145594494Y-76724463D01*
X145484180Y-76665498D01*
X145364482Y-76629188D01*
X145240000Y-76616928D01*
X143240000Y-76616928D01*
X143115518Y-76629188D01*
X142995820Y-76665498D01*
X142885506Y-76724463D01*
X142788815Y-76803815D01*
X142709463Y-76900506D01*
X142650498Y-77010820D01*
X142614188Y-77130518D01*
X142601928Y-77255000D01*
X142601928Y-78955000D01*
X142614188Y-79079482D01*
X142650498Y-79199180D01*
X142677662Y-79250000D01*
X141802338Y-79250000D01*
X141829502Y-79199180D01*
X141865812Y-79079482D01*
X141878072Y-78955000D01*
X141875000Y-78390750D01*
X141716250Y-78232000D01*
X140367000Y-78232000D01*
X140367000Y-78252000D01*
X140113000Y-78252000D01*
X140113000Y-78232000D01*
X138763750Y-78232000D01*
X138605000Y-78390750D01*
X138601928Y-78955000D01*
X138614188Y-79079482D01*
X138650498Y-79199180D01*
X138677662Y-79250000D01*
X136920413Y-79250000D01*
X136885226Y-79073102D01*
X136807205Y-78884744D01*
X136693937Y-78715226D01*
X136549774Y-78571063D01*
X136380256Y-78457795D01*
X136191898Y-78379774D01*
X135991939Y-78340000D01*
X135929802Y-78340000D01*
X134844802Y-77255000D01*
X138601928Y-77255000D01*
X138605000Y-77819250D01*
X138763750Y-77978000D01*
X140113000Y-77978000D01*
X140113000Y-76778750D01*
X140367000Y-76778750D01*
X140367000Y-77978000D01*
X141716250Y-77978000D01*
X141875000Y-77819250D01*
X141878072Y-77255000D01*
X141865812Y-77130518D01*
X141829502Y-77010820D01*
X141770537Y-76900506D01*
X141691185Y-76803815D01*
X141594494Y-76724463D01*
X141484180Y-76665498D01*
X141364482Y-76629188D01*
X141240000Y-76616928D01*
X140525750Y-76620000D01*
X140367000Y-76778750D01*
X140113000Y-76778750D01*
X139954250Y-76620000D01*
X139240000Y-76616928D01*
X139115518Y-76629188D01*
X138995820Y-76665498D01*
X138885506Y-76724463D01*
X138788815Y-76803815D01*
X138709463Y-76900506D01*
X138650498Y-77010820D01*
X138614188Y-77130518D01*
X138601928Y-77255000D01*
X134844802Y-77255000D01*
X129870000Y-72280199D01*
X129870000Y-71613072D01*
X129910000Y-71613072D01*
X130034482Y-71600812D01*
X130154180Y-71564502D01*
X130264494Y-71505537D01*
X130361185Y-71426185D01*
X130440537Y-71329494D01*
X130499502Y-71219180D01*
X130535812Y-71099482D01*
X130548072Y-70975000D01*
X130548072Y-70675000D01*
X130535812Y-70550518D01*
X130520488Y-70500000D01*
X130535812Y-70449482D01*
X130546918Y-70336719D01*
X130896200Y-70686002D01*
X130919999Y-70715001D01*
X131035724Y-70809974D01*
X131071928Y-70829326D01*
X131071928Y-70975000D01*
X131084188Y-71099482D01*
X131120498Y-71219180D01*
X131179463Y-71329494D01*
X131258815Y-71426185D01*
X131355506Y-71505537D01*
X131465820Y-71564502D01*
X131585518Y-71600812D01*
X131710000Y-71613072D01*
X133310000Y-71613072D01*
X133434482Y-71600812D01*
X133486607Y-71585000D01*
X134242678Y-71585000D01*
X134280000Y-71588676D01*
X134317322Y-71585000D01*
X134317333Y-71585000D01*
X134428986Y-71574003D01*
X134572247Y-71530546D01*
X134591977Y-71520000D01*
X134721939Y-71520000D01*
X134921898Y-71480226D01*
X135110256Y-71402205D01*
X135279774Y-71288937D01*
X135322539Y-71246172D01*
X135370506Y-71285537D01*
X135480820Y-71344502D01*
X135564272Y-71369817D01*
X135529774Y-71453102D01*
X135490000Y-71653061D01*
X135490000Y-71856939D01*
X135529774Y-72056898D01*
X135564272Y-72140183D01*
X135480820Y-72165498D01*
X135370506Y-72224463D01*
X135273815Y-72303815D01*
X135194463Y-72400506D01*
X135135498Y-72510820D01*
X135099188Y-72630518D01*
X135086928Y-72755000D01*
X135086928Y-74755000D01*
X135099188Y-74879482D01*
X135135498Y-74999180D01*
X135194463Y-75109494D01*
X135273815Y-75206185D01*
X135370506Y-75285537D01*
X135480820Y-75344502D01*
X135600518Y-75380812D01*
X135725000Y-75393072D01*
X137325000Y-75393072D01*
X137449482Y-75380812D01*
X137569180Y-75344502D01*
X137679494Y-75285537D01*
X137776185Y-75206185D01*
X137795000Y-75183259D01*
X137813815Y-75206185D01*
X137910506Y-75285537D01*
X138020820Y-75344502D01*
X138140518Y-75380812D01*
X138265000Y-75393072D01*
X139865000Y-75393072D01*
X139989482Y-75380812D01*
X140109180Y-75344502D01*
X140219494Y-75285537D01*
X140316185Y-75206185D01*
X140395537Y-75109494D01*
X140454502Y-74999180D01*
X140490812Y-74879482D01*
X140503072Y-74755000D01*
X140503072Y-72755000D01*
X140490812Y-72630518D01*
X140454502Y-72510820D01*
X140395537Y-72400506D01*
X140316185Y-72303815D01*
X140219494Y-72224463D01*
X140109180Y-72165498D01*
X140025728Y-72140183D01*
X140060226Y-72056898D01*
X140100000Y-71856939D01*
X140100000Y-71653061D01*
X140060226Y-71453102D01*
X140025728Y-71369817D01*
X140109180Y-71344502D01*
X140219494Y-71285537D01*
X140316185Y-71206185D01*
X140395537Y-71109494D01*
X140454502Y-70999180D01*
X140490812Y-70879482D01*
X140503072Y-70755000D01*
X140503072Y-69485000D01*
X140751928Y-69485000D01*
X140764188Y-69609482D01*
X140800498Y-69729180D01*
X140859463Y-69839494D01*
X140938815Y-69936185D01*
X141035506Y-70015537D01*
X141145820Y-70074502D01*
X141265518Y-70110812D01*
X141390000Y-70123072D01*
X141954250Y-70120000D01*
X142113000Y-69961250D01*
X142113000Y-68612000D01*
X140913750Y-68612000D01*
X140755000Y-68770750D01*
X140751928Y-69485000D01*
X140503072Y-69485000D01*
X140503072Y-68755000D01*
X140490812Y-68630518D01*
X140454502Y-68510820D01*
X140395537Y-68400506D01*
X140316185Y-68303815D01*
X140219494Y-68224463D01*
X140109180Y-68165498D01*
X139989482Y-68129188D01*
X139865000Y-68116928D01*
X138265000Y-68116928D01*
X138140518Y-68129188D01*
X138020820Y-68165498D01*
X137910506Y-68224463D01*
X137813815Y-68303815D01*
X137795000Y-68326741D01*
X137776185Y-68303815D01*
X137679494Y-68224463D01*
X137569180Y-68165498D01*
X137449482Y-68129188D01*
X137325000Y-68116928D01*
X137285000Y-68116928D01*
X137285000Y-67485000D01*
X140751928Y-67485000D01*
X140755000Y-68199250D01*
X140913750Y-68358000D01*
X142113000Y-68358000D01*
X142113000Y-67008750D01*
X141954250Y-66850000D01*
X141390000Y-66846928D01*
X141265518Y-66859188D01*
X141145820Y-66895498D01*
X141035506Y-66954463D01*
X140938815Y-67033815D01*
X140859463Y-67130506D01*
X140800498Y-67240820D01*
X140764188Y-67360518D01*
X140751928Y-67485000D01*
X137285000Y-67485000D01*
X137285000Y-66258072D01*
X137430000Y-66258072D01*
X137554482Y-66245812D01*
X137674180Y-66209502D01*
X137784494Y-66150537D01*
X137881185Y-66071185D01*
X137960537Y-65974494D01*
X138019502Y-65864180D01*
X138055812Y-65744482D01*
X138068072Y-65620000D01*
X138068072Y-63920000D01*
X138791928Y-63920000D01*
X138791928Y-65620000D01*
X138804188Y-65744482D01*
X138840498Y-65864180D01*
X138899463Y-65974494D01*
X138978815Y-66071185D01*
X139075506Y-66150537D01*
X139185820Y-66209502D01*
X139305518Y-66245812D01*
X139430000Y-66258072D01*
X141430000Y-66258072D01*
X141554482Y-66245812D01*
X141674180Y-66209502D01*
X141784494Y-66150537D01*
X141881185Y-66071185D01*
X141960537Y-65974494D01*
X142019502Y-65864180D01*
X142055812Y-65744482D01*
X142068072Y-65620000D01*
X142068072Y-65530000D01*
X142171289Y-65530000D01*
X142215226Y-65573937D01*
X142384744Y-65687205D01*
X142573102Y-65765226D01*
X142773061Y-65805000D01*
X142976939Y-65805000D01*
X143176898Y-65765226D01*
X143365256Y-65687205D01*
X143534774Y-65573937D01*
X143678937Y-65429774D01*
X143792205Y-65260256D01*
X143870226Y-65071898D01*
X143910000Y-64871939D01*
X143910000Y-64668061D01*
X143870226Y-64468102D01*
X143792205Y-64279744D01*
X143678937Y-64110226D01*
X143534774Y-63966063D01*
X143365256Y-63852795D01*
X143176898Y-63774774D01*
X142976939Y-63735000D01*
X142773061Y-63735000D01*
X142573102Y-63774774D01*
X142384744Y-63852795D01*
X142215226Y-63966063D01*
X142171289Y-64010000D01*
X142068072Y-64010000D01*
X142068072Y-63920000D01*
X142055812Y-63795518D01*
X142019502Y-63675820D01*
X141960537Y-63565506D01*
X141881185Y-63468815D01*
X141784494Y-63389463D01*
X141674180Y-63330498D01*
X141554482Y-63294188D01*
X141430000Y-63281928D01*
X139430000Y-63281928D01*
X139305518Y-63294188D01*
X139185820Y-63330498D01*
X139075506Y-63389463D01*
X138978815Y-63468815D01*
X138899463Y-63565506D01*
X138840498Y-63675820D01*
X138804188Y-63795518D01*
X138791928Y-63920000D01*
X138068072Y-63920000D01*
X138055812Y-63795518D01*
X138019502Y-63675820D01*
X137960537Y-63565506D01*
X137881185Y-63468815D01*
X137784494Y-63389463D01*
X137674180Y-63330498D01*
X137554482Y-63294188D01*
X137430000Y-63281928D01*
X135430000Y-63281928D01*
X135305518Y-63294188D01*
X135185820Y-63330498D01*
X135075506Y-63389463D01*
X134978815Y-63468815D01*
X134899463Y-63565506D01*
X134840498Y-63675820D01*
X134804188Y-63795518D01*
X134791928Y-63920000D01*
X134791928Y-65620000D01*
X134804188Y-65744482D01*
X134840498Y-65864180D01*
X134899463Y-65974494D01*
X134978815Y-66071185D01*
X135075506Y-66150537D01*
X135185820Y-66209502D01*
X135305518Y-66245812D01*
X135430000Y-66258072D01*
X135765001Y-66258072D01*
X135765000Y-68116928D01*
X135725000Y-68116928D01*
X135600518Y-68129188D01*
X135480820Y-68165498D01*
X135370506Y-68224463D01*
X135273815Y-68303815D01*
X135194463Y-68400506D01*
X135135498Y-68510820D01*
X135099188Y-68630518D01*
X135087420Y-68750000D01*
X133948072Y-68750000D01*
X133948072Y-68725000D01*
X133935812Y-68600518D01*
X133899502Y-68480820D01*
X133840537Y-68370506D01*
X133761185Y-68273815D01*
X133664494Y-68194463D01*
X133554180Y-68135498D01*
X133434482Y-68099188D01*
X133310000Y-68086928D01*
X132377874Y-68086928D01*
X132754802Y-67710000D01*
X132816939Y-67710000D01*
X133016898Y-67670226D01*
X133205256Y-67592205D01*
X133374774Y-67478937D01*
X133518937Y-67334774D01*
X133632205Y-67165256D01*
X133710226Y-66976898D01*
X133750000Y-66776939D01*
X133750000Y-66573061D01*
X133710226Y-66373102D01*
X133632205Y-66184744D01*
X133518937Y-66015226D01*
X133374774Y-65871063D01*
X133205256Y-65757795D01*
X133016898Y-65679774D01*
X132816939Y-65640000D01*
X132613061Y-65640000D01*
X132413102Y-65679774D01*
X132224744Y-65757795D01*
X132055226Y-65871063D01*
X131911063Y-66015226D01*
X131797795Y-66184744D01*
X131719774Y-66373102D01*
X131680000Y-66573061D01*
X131680000Y-66635198D01*
X130299003Y-68016196D01*
X130269999Y-68039999D01*
X130242200Y-68073873D01*
X130180208Y-68149410D01*
X130154180Y-68135498D01*
X130034482Y-68099188D01*
X129910000Y-68086928D01*
X129867465Y-68086928D01*
X129859003Y-68001014D01*
X129815546Y-67857753D01*
X129744974Y-67725724D01*
X129729619Y-67707014D01*
X129673799Y-67638996D01*
X129673795Y-67638992D01*
X129650001Y-67609999D01*
X129621008Y-67586205D01*
X129305000Y-67270198D01*
X129305000Y-67208061D01*
X129265226Y-67008102D01*
X129187205Y-66819744D01*
X129073937Y-66650226D01*
X128929774Y-66506063D01*
X128760256Y-66392795D01*
X128571898Y-66314774D01*
X128371939Y-66275000D01*
X128168061Y-66275000D01*
X127968102Y-66314774D01*
X127779744Y-66392795D01*
X127610226Y-66506063D01*
X127466063Y-66650226D01*
X127352795Y-66819744D01*
X127274774Y-67008102D01*
X127235000Y-67208061D01*
X127235000Y-67411939D01*
X127274774Y-67611898D01*
X127352795Y-67800256D01*
X127466063Y-67969774D01*
X127610226Y-68113937D01*
X127779744Y-68227205D01*
X127870037Y-68264606D01*
X127858815Y-68273815D01*
X127779463Y-68370506D01*
X127720498Y-68480820D01*
X127684188Y-68600518D01*
X127671928Y-68725000D01*
X127671928Y-69025000D01*
X127684188Y-69149482D01*
X127699409Y-69199659D01*
X127686020Y-69241642D01*
X127675000Y-69343250D01*
X127729748Y-69397998D01*
X127675000Y-69397998D01*
X127675000Y-69462705D01*
X127652753Y-69469454D01*
X127520724Y-69540026D01*
X127404999Y-69634999D01*
X127381196Y-69664003D01*
X127322201Y-69722998D01*
X127301252Y-69722998D01*
X127460000Y-69564250D01*
X127463072Y-69000000D01*
X127450812Y-68875518D01*
X127414502Y-68755820D01*
X127355537Y-68645506D01*
X127276185Y-68548815D01*
X127179494Y-68469463D01*
X127069180Y-68410498D01*
X126949482Y-68374188D01*
X126825000Y-68361928D01*
X126110750Y-68365000D01*
X125952000Y-68523750D01*
X125952000Y-69723000D01*
X125972000Y-69723000D01*
X125972000Y-69977000D01*
X125952000Y-69977000D01*
X125952000Y-71176250D01*
X126110750Y-71335000D01*
X126825000Y-71338072D01*
X126875000Y-71333148D01*
X126875001Y-72352668D01*
X126871324Y-72390000D01*
X126875001Y-72427332D01*
X126875001Y-72427333D01*
X126885998Y-72538986D01*
X126892050Y-72558937D01*
X126929454Y-72682246D01*
X127000026Y-72814276D01*
X127067361Y-72896323D01*
X127095000Y-72930001D01*
X127123998Y-72953799D01*
X133860000Y-79689802D01*
X133860000Y-79740988D01*
X133840256Y-79727795D01*
X133651898Y-79649774D01*
X133451939Y-79610000D01*
X133389802Y-79610000D01*
X131210000Y-77430199D01*
X131210000Y-77368061D01*
X131170226Y-77168102D01*
X131092205Y-76979744D01*
X130978937Y-76810226D01*
X130834774Y-76666063D01*
X130665256Y-76552795D01*
X130476898Y-76474774D01*
X130276939Y-76435000D01*
X130073061Y-76435000D01*
X129873102Y-76474774D01*
X129684744Y-76552795D01*
X129515226Y-76666063D01*
X129371063Y-76810226D01*
X129257795Y-76979744D01*
X129179774Y-77168102D01*
X129140000Y-77368061D01*
X129140000Y-77571939D01*
X129179774Y-77771898D01*
X129257795Y-77960256D01*
X129371063Y-78129774D01*
X129515226Y-78273937D01*
X129684744Y-78387205D01*
X129873102Y-78465226D01*
X130073061Y-78505000D01*
X130135199Y-78505000D01*
X130245199Y-78615000D01*
X124442865Y-78615000D01*
X124358393Y-78411066D01*
X124135687Y-78077763D01*
X123852237Y-77794313D01*
X123518934Y-77571607D01*
X123148587Y-77418204D01*
X122755430Y-77340000D01*
X122354570Y-77340000D01*
X121961413Y-77418204D01*
X121591066Y-77571607D01*
X121257763Y-77794313D01*
X120974313Y-78077763D01*
X120751607Y-78411066D01*
X120598204Y-78781413D01*
X120520000Y-79174570D01*
X111785000Y-79174570D01*
X111785000Y-69000000D01*
X120186928Y-69000000D01*
X120186928Y-70700000D01*
X120199188Y-70824482D01*
X120235498Y-70944180D01*
X120294463Y-71054494D01*
X120373815Y-71151185D01*
X120470506Y-71230537D01*
X120580820Y-71289502D01*
X120700518Y-71325812D01*
X120825000Y-71338072D01*
X122825000Y-71338072D01*
X122949482Y-71325812D01*
X123069180Y-71289502D01*
X123179494Y-71230537D01*
X123276185Y-71151185D01*
X123355537Y-71054494D01*
X123414502Y-70944180D01*
X123450812Y-70824482D01*
X123451683Y-70815643D01*
X123523102Y-70845226D01*
X123723061Y-70885000D01*
X123926939Y-70885000D01*
X124126898Y-70845226D01*
X124198317Y-70815643D01*
X124199188Y-70824482D01*
X124235498Y-70944180D01*
X124294463Y-71054494D01*
X124373815Y-71151185D01*
X124470506Y-71230537D01*
X124580820Y-71289502D01*
X124700518Y-71325812D01*
X124825000Y-71338072D01*
X125539250Y-71335000D01*
X125698000Y-71176250D01*
X125698000Y-69977000D01*
X125678000Y-69977000D01*
X125678000Y-69723000D01*
X125698000Y-69723000D01*
X125698000Y-68523750D01*
X125539250Y-68365000D01*
X124825000Y-68361928D01*
X124700518Y-68374188D01*
X124580820Y-68410498D01*
X124470506Y-68469463D01*
X124373815Y-68548815D01*
X124294463Y-68645506D01*
X124235498Y-68755820D01*
X124199188Y-68875518D01*
X124198317Y-68884357D01*
X124126898Y-68854774D01*
X123926939Y-68815000D01*
X123723061Y-68815000D01*
X123523102Y-68854774D01*
X123451683Y-68884357D01*
X123450812Y-68875518D01*
X123414502Y-68755820D01*
X123355537Y-68645506D01*
X123276185Y-68548815D01*
X123179494Y-68469463D01*
X123069180Y-68410498D01*
X122949482Y-68374188D01*
X122825000Y-68361928D01*
X120825000Y-68361928D01*
X120700518Y-68374188D01*
X120580820Y-68410498D01*
X120470506Y-68469463D01*
X120373815Y-68548815D01*
X120294463Y-68645506D01*
X120235498Y-68755820D01*
X120199188Y-68875518D01*
X120186928Y-69000000D01*
X111785000Y-69000000D01*
X111785000Y-65680777D01*
X113290000Y-65680777D01*
X113290000Y-66239223D01*
X113398948Y-66786939D01*
X113612656Y-67302876D01*
X113922912Y-67767207D01*
X114317793Y-68162088D01*
X114782124Y-68472344D01*
X115298061Y-68686052D01*
X115845777Y-68795000D01*
X116404223Y-68795000D01*
X116951939Y-68686052D01*
X117467876Y-68472344D01*
X117932207Y-68162088D01*
X118327088Y-67767207D01*
X118637344Y-67302876D01*
X118851052Y-66786939D01*
X118960000Y-66239223D01*
X118960000Y-65680777D01*
X118851052Y-65133061D01*
X118637344Y-64617124D01*
X118327088Y-64152793D01*
X117932207Y-63757912D01*
X117467876Y-63447656D01*
X116951939Y-63233948D01*
X116404223Y-63125000D01*
X115845777Y-63125000D01*
X115298061Y-63233948D01*
X114782124Y-63447656D01*
X114317793Y-63757912D01*
X113922912Y-64152793D01*
X113612656Y-64617124D01*
X113398948Y-65133061D01*
X113290000Y-65680777D01*
X111785000Y-65680777D01*
X111785000Y-61620000D01*
X196825000Y-61620000D01*
X196825001Y-87597572D01*
G37*
X196825001Y-87597572D02*
X196825000Y-87597582D01*
X196825001Y-106020000D01*
X111785000Y-106020000D01*
X111785000Y-101400777D01*
X113290000Y-101400777D01*
X113290000Y-101959223D01*
X113398948Y-102506939D01*
X113612656Y-103022876D01*
X113922912Y-103487207D01*
X114317793Y-103882088D01*
X114782124Y-104192344D01*
X115298061Y-104406052D01*
X115845777Y-104515000D01*
X116404223Y-104515000D01*
X116951939Y-104406052D01*
X117467876Y-104192344D01*
X117932207Y-103882088D01*
X118327088Y-103487207D01*
X118637344Y-103022876D01*
X118851052Y-102506939D01*
X118960000Y-101959223D01*
X118960000Y-101400777D01*
X118851052Y-100853061D01*
X118637344Y-100337124D01*
X118327088Y-99872793D01*
X117932207Y-99477912D01*
X117467876Y-99167656D01*
X116951939Y-98953948D01*
X116404223Y-98845000D01*
X115845777Y-98845000D01*
X115298061Y-98953948D01*
X114782124Y-99167656D01*
X114317793Y-99477912D01*
X113922912Y-99872793D01*
X113612656Y-100337124D01*
X113398948Y-100853061D01*
X113290000Y-101400777D01*
X111785000Y-101400777D01*
X111785000Y-86794570D01*
X120520000Y-86794570D01*
X120520000Y-87195430D01*
X120598204Y-87588587D01*
X120751607Y-87958934D01*
X120974313Y-88292237D01*
X121257763Y-88575687D01*
X121591066Y-88798393D01*
X121961413Y-88951796D01*
X122354570Y-89030000D01*
X122755430Y-89030000D01*
X123148587Y-88951796D01*
X123518934Y-88798393D01*
X123852237Y-88575687D01*
X124135687Y-88292237D01*
X124358393Y-87958934D01*
X124511796Y-87588587D01*
X124590000Y-87195430D01*
X124590000Y-86794570D01*
X124511796Y-86401413D01*
X124358393Y-86031066D01*
X124135687Y-85697763D01*
X123852237Y-85414313D01*
X123518934Y-85191607D01*
X123148587Y-85038204D01*
X122755430Y-84960000D01*
X122354570Y-84960000D01*
X121961413Y-85038204D01*
X121591066Y-85191607D01*
X121257763Y-85414313D01*
X120974313Y-85697763D01*
X120751607Y-86031066D01*
X120598204Y-86401413D01*
X120520000Y-86794570D01*
X111785000Y-86794570D01*
X111785000Y-79174570D01*
X120520000Y-79174570D01*
X120520000Y-79575430D01*
X120598204Y-79968587D01*
X120751607Y-80338934D01*
X120974313Y-80672237D01*
X121257763Y-80955687D01*
X121591066Y-81178393D01*
X121961413Y-81331796D01*
X122354570Y-81410000D01*
X122755430Y-81410000D01*
X123148587Y-81331796D01*
X123518934Y-81178393D01*
X123852237Y-80955687D01*
X124135687Y-80672237D01*
X124358393Y-80338934D01*
X124442865Y-80135000D01*
X130495199Y-80135000D01*
X130665000Y-80304801D01*
X130665000Y-80366939D01*
X130704774Y-80566898D01*
X130782795Y-80755256D01*
X130896063Y-80924774D01*
X131040226Y-81068937D01*
X131209744Y-81182205D01*
X131398102Y-81260226D01*
X131598061Y-81300000D01*
X131801939Y-81300000D01*
X132001898Y-81260226D01*
X132190256Y-81182205D01*
X132359774Y-81068937D01*
X132391983Y-81036728D01*
X132432795Y-81135256D01*
X132546063Y-81304774D01*
X132690226Y-81448937D01*
X132859744Y-81562205D01*
X133048102Y-81640226D01*
X133248061Y-81680000D01*
X133451939Y-81680000D01*
X133651898Y-81640226D01*
X133840256Y-81562205D01*
X133860000Y-81549012D01*
X133860001Y-92395196D01*
X132877521Y-93377677D01*
X132673587Y-93293204D01*
X132280430Y-93215000D01*
X131879570Y-93215000D01*
X131486413Y-93293204D01*
X131116066Y-93446607D01*
X130782763Y-93669313D01*
X130499313Y-93952763D01*
X130276607Y-94286066D01*
X130123204Y-94656413D01*
X130045000Y-95049570D01*
X130045000Y-95450430D01*
X130123204Y-95843587D01*
X130276607Y-96213934D01*
X130499313Y-96547237D01*
X130782763Y-96830687D01*
X131116066Y-97053393D01*
X131486413Y-97206796D01*
X131879570Y-97285000D01*
X132280430Y-97285000D01*
X132673587Y-97206796D01*
X133043934Y-97053393D01*
X133377237Y-96830687D01*
X133660687Y-96547237D01*
X133883393Y-96213934D01*
X134036796Y-95843587D01*
X134115000Y-95450430D01*
X134115000Y-95049570D01*
X134036796Y-94656413D01*
X133952323Y-94452479D01*
X135130001Y-93274802D01*
X135130001Y-93942668D01*
X135126324Y-93980000D01*
X135130001Y-94017333D01*
X135137553Y-94094003D01*
X135140998Y-94128985D01*
X135184454Y-94272246D01*
X135255026Y-94404276D01*
X135289994Y-94446884D01*
X135203204Y-94656413D01*
X135125000Y-95049570D01*
X135125000Y-95450430D01*
X135203204Y-95843587D01*
X135356607Y-96213934D01*
X135579313Y-96547237D01*
X135862763Y-96830687D01*
X136196066Y-97053393D01*
X136566413Y-97206796D01*
X136959570Y-97285000D01*
X137360430Y-97285000D01*
X137753587Y-97206796D01*
X138123934Y-97053393D01*
X138457237Y-96830687D01*
X138740687Y-96547237D01*
X138963393Y-96213934D01*
X139116796Y-95843587D01*
X139195000Y-95450430D01*
X139195000Y-95049570D01*
X139116796Y-94656413D01*
X138963393Y-94286066D01*
X138740687Y-93952763D01*
X138457237Y-93669313D01*
X138123934Y-93446607D01*
X137753587Y-93293204D01*
X137360430Y-93215000D01*
X136959570Y-93215000D01*
X136650000Y-93276577D01*
X136650000Y-90383148D01*
X136700000Y-90388072D01*
X138700000Y-90388072D01*
X138824482Y-90375812D01*
X138944180Y-90339502D01*
X139054494Y-90280537D01*
X139151185Y-90201185D01*
X139230537Y-90104494D01*
X139289502Y-89994180D01*
X139325812Y-89874482D01*
X139326683Y-89865643D01*
X139398102Y-89895226D01*
X139598061Y-89935000D01*
X139801939Y-89935000D01*
X140001898Y-89895226D01*
X140073317Y-89865643D01*
X140074188Y-89874482D01*
X140110498Y-89994180D01*
X140169463Y-90104494D01*
X140248815Y-90201185D01*
X140345506Y-90280537D01*
X140455820Y-90339502D01*
X140575518Y-90375812D01*
X140700000Y-90388072D01*
X142700000Y-90388072D01*
X142824482Y-90375812D01*
X142944180Y-90339502D01*
X143054494Y-90280537D01*
X143151185Y-90201185D01*
X143230537Y-90104494D01*
X143289502Y-89994180D01*
X143325812Y-89874482D01*
X143338072Y-89750000D01*
X143338072Y-89360000D01*
X145881928Y-89360000D01*
X145894188Y-89484482D01*
X145930498Y-89604180D01*
X145989463Y-89714494D01*
X146068815Y-89811185D01*
X146165506Y-89890537D01*
X146275820Y-89949502D01*
X146395518Y-89985812D01*
X146520000Y-89998072D01*
X147034250Y-89995000D01*
X147193000Y-89836250D01*
X147193000Y-88487000D01*
X147447000Y-88487000D01*
X147447000Y-89836250D01*
X147605750Y-89995000D01*
X148120000Y-89998072D01*
X148244482Y-89985812D01*
X148364180Y-89949502D01*
X148474494Y-89890537D01*
X148571185Y-89811185D01*
X148650537Y-89714494D01*
X148709502Y-89604180D01*
X148745812Y-89484482D01*
X148758072Y-89360000D01*
X148757623Y-89255600D01*
X150060128Y-89255600D01*
X150060128Y-89814400D01*
X150072388Y-89938882D01*
X150108698Y-90058580D01*
X150167663Y-90168894D01*
X150247015Y-90265585D01*
X150343706Y-90344937D01*
X150454020Y-90403902D01*
X150573718Y-90440212D01*
X150698200Y-90452472D01*
X151005001Y-90452472D01*
X151005000Y-91826288D01*
X150961063Y-91870225D01*
X150847795Y-92039743D01*
X150769774Y-92228101D01*
X150730000Y-92428060D01*
X150730000Y-92631938D01*
X150769774Y-92831897D01*
X150847795Y-93020255D01*
X150961063Y-93189773D01*
X151105226Y-93333936D01*
X151274744Y-93447204D01*
X151463102Y-93525225D01*
X151663061Y-93564999D01*
X151866939Y-93564999D01*
X152066898Y-93525225D01*
X152255256Y-93447204D01*
X152424774Y-93333936D01*
X152568937Y-93189773D01*
X152682205Y-93020255D01*
X152760226Y-92831897D01*
X152800000Y-92631938D01*
X152800000Y-92428060D01*
X152760226Y-92228101D01*
X152682205Y-92039743D01*
X152568937Y-91870225D01*
X152525000Y-91826288D01*
X152525000Y-90452472D01*
X152679400Y-90452472D01*
X152803882Y-90440212D01*
X152923580Y-90403902D01*
X153033894Y-90344937D01*
X153130585Y-90265585D01*
X153209937Y-90168894D01*
X153268902Y-90058580D01*
X153305212Y-89938882D01*
X153317472Y-89814400D01*
X153317472Y-89255600D01*
X153305212Y-89131118D01*
X153268902Y-89011420D01*
X153209937Y-88901106D01*
X153209115Y-88900105D01*
X153268307Y-88790010D01*
X153304908Y-88670400D01*
X153314400Y-88550750D01*
X153155650Y-88392000D01*
X151815800Y-88392000D01*
X151815800Y-88412000D01*
X151561800Y-88412000D01*
X151561800Y-88392000D01*
X150221950Y-88392000D01*
X150063200Y-88550750D01*
X150072692Y-88670400D01*
X150109293Y-88790010D01*
X150168485Y-88900105D01*
X150167663Y-88901106D01*
X150108698Y-89011420D01*
X150072388Y-89131118D01*
X150060128Y-89255600D01*
X148757623Y-89255600D01*
X148755000Y-88645750D01*
X148596250Y-88487000D01*
X147447000Y-88487000D01*
X147193000Y-88487000D01*
X146043750Y-88487000D01*
X145885000Y-88645750D01*
X145881928Y-89360000D01*
X143338072Y-89360000D01*
X143338072Y-88050000D01*
X143325812Y-87925518D01*
X143289502Y-87805820D01*
X143230537Y-87695506D01*
X143176778Y-87630000D01*
X143230537Y-87564494D01*
X143289502Y-87454180D01*
X143325812Y-87334482D01*
X143338072Y-87210000D01*
X143338072Y-85510000D01*
X143325812Y-85385518D01*
X143289502Y-85265820D01*
X143230537Y-85155506D01*
X143151185Y-85058815D01*
X143054494Y-84979463D01*
X142944180Y-84920498D01*
X142824482Y-84884188D01*
X142700000Y-84871928D01*
X140700000Y-84871928D01*
X140575518Y-84884188D01*
X140455820Y-84920498D01*
X140345506Y-84979463D01*
X140248815Y-85058815D01*
X140169463Y-85155506D01*
X140110498Y-85265820D01*
X140074188Y-85385518D01*
X140073317Y-85394357D01*
X140001898Y-85364774D01*
X139801939Y-85325000D01*
X139598061Y-85325000D01*
X139398102Y-85364774D01*
X139326683Y-85394357D01*
X139325812Y-85385518D01*
X139289502Y-85265820D01*
X139230537Y-85155506D01*
X139151185Y-85058815D01*
X139054494Y-84979463D01*
X138944180Y-84920498D01*
X138824482Y-84884188D01*
X138700000Y-84871928D01*
X136901900Y-84871928D01*
X136885226Y-84788102D01*
X136807205Y-84599744D01*
X136693937Y-84430226D01*
X136549774Y-84286063D01*
X136380256Y-84172795D01*
X136191898Y-84094774D01*
X135991939Y-84055000D01*
X135788061Y-84055000D01*
X135588102Y-84094774D01*
X135399744Y-84172795D01*
X135380000Y-84185987D01*
X135380000Y-83400000D01*
X138601928Y-83400000D01*
X138614188Y-83524482D01*
X138650498Y-83644180D01*
X138709463Y-83754494D01*
X138788815Y-83851185D01*
X138885506Y-83930537D01*
X138995820Y-83989502D01*
X139115518Y-84025812D01*
X139240000Y-84038072D01*
X139954250Y-84035000D01*
X140113000Y-83876250D01*
X140113000Y-82677000D01*
X140367000Y-82677000D01*
X140367000Y-83876250D01*
X140525750Y-84035000D01*
X141240000Y-84038072D01*
X141364482Y-84025812D01*
X141484180Y-83989502D01*
X141594494Y-83930537D01*
X141691185Y-83851185D01*
X141770537Y-83754494D01*
X141829502Y-83644180D01*
X141865812Y-83524482D01*
X141878072Y-83400000D01*
X141875000Y-82835750D01*
X141716250Y-82677000D01*
X140367000Y-82677000D01*
X140113000Y-82677000D01*
X138763750Y-82677000D01*
X138605000Y-82835750D01*
X138601928Y-83400000D01*
X135380000Y-83400000D01*
X135380000Y-81209622D01*
X135465724Y-81279974D01*
X135597753Y-81350546D01*
X135741014Y-81394003D01*
X135852667Y-81405000D01*
X135852676Y-81405000D01*
X135889999Y-81408676D01*
X135927322Y-81405000D01*
X138677662Y-81405000D01*
X138650498Y-81455820D01*
X138614188Y-81575518D01*
X138601928Y-81700000D01*
X138605000Y-82264250D01*
X138763750Y-82423000D01*
X140113000Y-82423000D01*
X140113000Y-82403000D01*
X140367000Y-82403000D01*
X140367000Y-82423000D01*
X141716250Y-82423000D01*
X141875000Y-82264250D01*
X141878072Y-81700000D01*
X141865812Y-81575518D01*
X141829502Y-81455820D01*
X141802338Y-81405000D01*
X142677662Y-81405000D01*
X142650498Y-81455820D01*
X142614188Y-81575518D01*
X142601928Y-81700000D01*
X142601928Y-83400000D01*
X142614188Y-83524482D01*
X142650498Y-83644180D01*
X142709463Y-83754494D01*
X142788815Y-83851185D01*
X142885506Y-83930537D01*
X142995820Y-83989502D01*
X143115518Y-84025812D01*
X143240000Y-84038072D01*
X145240000Y-84038072D01*
X145364482Y-84025812D01*
X145484180Y-83989502D01*
X145594494Y-83930537D01*
X145691185Y-83851185D01*
X145770537Y-83754494D01*
X145829502Y-83644180D01*
X145865812Y-83524482D01*
X145878072Y-83400000D01*
X145878072Y-81700000D01*
X145865812Y-81575518D01*
X145829502Y-81455820D01*
X145802338Y-81405000D01*
X147050987Y-81405000D01*
X147037795Y-81424744D01*
X146959774Y-81613102D01*
X146920000Y-81813061D01*
X146920000Y-81875199D01*
X146808998Y-81986201D01*
X146780000Y-82009999D01*
X146756202Y-82038997D01*
X146756201Y-82038998D01*
X146685026Y-82125724D01*
X146614454Y-82257754D01*
X146595912Y-82318882D01*
X146570998Y-82401014D01*
X146567298Y-82438580D01*
X146556324Y-82550000D01*
X146560001Y-82587332D01*
X146560001Y-82721928D01*
X146520000Y-82721928D01*
X146395518Y-82734188D01*
X146275820Y-82770498D01*
X146165506Y-82829463D01*
X146068815Y-82908815D01*
X145989463Y-83005506D01*
X145930498Y-83115820D01*
X145894188Y-83235518D01*
X145881928Y-83360000D01*
X145881928Y-85360000D01*
X145894188Y-85484482D01*
X145930498Y-85604180D01*
X145989463Y-85714494D01*
X146068815Y-85811185D01*
X146165506Y-85890537D01*
X146275820Y-85949502D01*
X146359272Y-85974817D01*
X146324774Y-86058102D01*
X146285000Y-86258061D01*
X146285000Y-86461939D01*
X146324774Y-86661898D01*
X146359272Y-86745183D01*
X146275820Y-86770498D01*
X146165506Y-86829463D01*
X146068815Y-86908815D01*
X145989463Y-87005506D01*
X145930498Y-87115820D01*
X145894188Y-87235518D01*
X145881928Y-87360000D01*
X145885000Y-88074250D01*
X146043750Y-88233000D01*
X147193000Y-88233000D01*
X147193000Y-88213000D01*
X147447000Y-88213000D01*
X147447000Y-88233000D01*
X148596250Y-88233000D01*
X148755000Y-88074250D01*
X148758072Y-87360000D01*
X148745812Y-87235518D01*
X148709502Y-87115820D01*
X148707515Y-87112103D01*
X148738986Y-87109003D01*
X148882247Y-87065546D01*
X149014276Y-86994974D01*
X149130001Y-86900001D01*
X149153803Y-86870998D01*
X149539802Y-86485000D01*
X150104579Y-86485000D01*
X150072388Y-86591118D01*
X150060128Y-86715600D01*
X150060128Y-87274400D01*
X150072388Y-87398882D01*
X150108698Y-87518580D01*
X150167663Y-87628894D01*
X150168485Y-87629895D01*
X150109293Y-87739990D01*
X150072692Y-87859600D01*
X150063200Y-87979250D01*
X150221950Y-88138000D01*
X151561800Y-88138000D01*
X151561800Y-88118000D01*
X151815800Y-88118000D01*
X151815800Y-88138000D01*
X153155650Y-88138000D01*
X153314400Y-87979250D01*
X153304908Y-87859600D01*
X153268307Y-87739990D01*
X153209115Y-87629895D01*
X153209937Y-87628894D01*
X153268902Y-87518580D01*
X153305212Y-87398882D01*
X153317472Y-87274400D01*
X153317472Y-86715600D01*
X153305212Y-86591118D01*
X153268902Y-86471420D01*
X153209937Y-86361106D01*
X153209029Y-86360000D01*
X153209937Y-86358894D01*
X153268902Y-86248580D01*
X153305212Y-86128882D01*
X153317472Y-86004400D01*
X153317472Y-85445600D01*
X153305212Y-85321118D01*
X153268902Y-85201420D01*
X153209937Y-85091106D01*
X153209029Y-85090000D01*
X153209937Y-85088894D01*
X153268902Y-84978580D01*
X153305212Y-84858882D01*
X153317472Y-84734400D01*
X153317472Y-84175600D01*
X153305212Y-84051118D01*
X153268902Y-83931420D01*
X153209937Y-83821106D01*
X153209029Y-83820000D01*
X153209937Y-83818894D01*
X153268902Y-83708580D01*
X153305212Y-83588882D01*
X153317472Y-83464400D01*
X153317472Y-82905600D01*
X153305212Y-82781118D01*
X153268902Y-82661420D01*
X153209937Y-82551106D01*
X153209029Y-82550000D01*
X153209937Y-82548894D01*
X153268902Y-82438580D01*
X153305212Y-82318882D01*
X153317472Y-82194400D01*
X153317472Y-81635600D01*
X153305212Y-81511118D01*
X153268902Y-81391420D01*
X153209937Y-81281106D01*
X153209029Y-81280000D01*
X153209937Y-81278894D01*
X153268902Y-81168580D01*
X153305212Y-81048882D01*
X153317472Y-80924400D01*
X153317472Y-80365600D01*
X153305212Y-80241118D01*
X153268902Y-80121420D01*
X153209937Y-80011106D01*
X153209029Y-80010000D01*
X153209937Y-80008894D01*
X153268902Y-79898580D01*
X153305212Y-79778882D01*
X153317472Y-79654400D01*
X153317472Y-79095600D01*
X153305212Y-78971118D01*
X153273021Y-78865000D01*
X153601289Y-78865000D01*
X153645226Y-78908937D01*
X153814744Y-79022205D01*
X154003102Y-79100226D01*
X154203061Y-79140000D01*
X154406939Y-79140000D01*
X154606898Y-79100226D01*
X154795256Y-79022205D01*
X154964774Y-78908937D01*
X155108937Y-78764774D01*
X155222205Y-78595256D01*
X155300226Y-78406898D01*
X155340000Y-78206939D01*
X155340000Y-78003061D01*
X155300226Y-77803102D01*
X155222205Y-77614744D01*
X155125490Y-77470000D01*
X155222205Y-77325256D01*
X155300226Y-77136898D01*
X155340000Y-76936939D01*
X155340000Y-76733061D01*
X155300226Y-76533102D01*
X155222205Y-76344744D01*
X155108937Y-76175226D01*
X154964774Y-76031063D01*
X154795256Y-75917795D01*
X154606898Y-75839774D01*
X154406939Y-75800000D01*
X154203061Y-75800000D01*
X154003102Y-75839774D01*
X153814744Y-75917795D01*
X153645226Y-76031063D01*
X153601289Y-76075000D01*
X153273021Y-76075000D01*
X153305212Y-75968882D01*
X153317472Y-75844400D01*
X153317472Y-75285600D01*
X153305212Y-75161118D01*
X153268902Y-75041420D01*
X153209937Y-74931106D01*
X153209029Y-74930000D01*
X153209937Y-74928894D01*
X153268902Y-74818580D01*
X153305212Y-74698882D01*
X153317472Y-74574400D01*
X153317472Y-74015600D01*
X153315794Y-73998559D01*
X153368102Y-74020226D01*
X153568061Y-74060000D01*
X153771939Y-74060000D01*
X153971898Y-74020226D01*
X154160256Y-73942205D01*
X154329774Y-73828937D01*
X154473937Y-73684774D01*
X154587205Y-73515256D01*
X154665226Y-73326898D01*
X154705000Y-73126939D01*
X154705000Y-72923061D01*
X154665226Y-72723102D01*
X154587205Y-72534744D01*
X154473937Y-72365226D01*
X154329774Y-72221063D01*
X154160256Y-72107795D01*
X153971898Y-72029774D01*
X153771939Y-71990000D01*
X153568061Y-71990000D01*
X153368102Y-72029774D01*
X153179744Y-72107795D01*
X153025734Y-72210701D01*
X152923580Y-72156098D01*
X152803882Y-72119788D01*
X152679400Y-72107528D01*
X150698200Y-72107528D01*
X150573718Y-72119788D01*
X150454020Y-72156098D01*
X150343706Y-72215063D01*
X150282857Y-72265000D01*
X149539802Y-72265000D01*
X149153803Y-71879002D01*
X149130001Y-71849999D01*
X149014276Y-71755026D01*
X148882247Y-71684454D01*
X148738986Y-71640997D01*
X148688072Y-71635982D01*
X148688072Y-71590000D01*
X148675812Y-71465518D01*
X148639502Y-71345820D01*
X148608635Y-71288072D01*
X149685000Y-71288072D01*
X149809482Y-71275812D01*
X149929180Y-71239502D01*
X150039494Y-71180537D01*
X150136185Y-71101185D01*
X150215537Y-71004494D01*
X150274502Y-70894180D01*
X150310812Y-70774482D01*
X150323072Y-70650000D01*
X150323072Y-69050000D01*
X150320610Y-69025000D01*
X155192516Y-69025000D01*
X155175000Y-69113061D01*
X155175000Y-69316939D01*
X155214774Y-69516898D01*
X155292795Y-69705256D01*
X155406063Y-69874774D01*
X155450001Y-69918712D01*
X155450000Y-78702678D01*
X155446324Y-78740000D01*
X155450000Y-78777322D01*
X155450000Y-78777332D01*
X155460997Y-78888985D01*
X155497770Y-79010212D01*
X155504454Y-79032246D01*
X155575026Y-79164276D01*
X155612104Y-79209455D01*
X155669999Y-79280001D01*
X155699003Y-79303804D01*
X157551200Y-81156002D01*
X157574999Y-81185001D01*
X157690724Y-81279974D01*
X157822753Y-81350546D01*
X157966014Y-81394003D01*
X158077667Y-81405000D01*
X158077677Y-81405000D01*
X158115000Y-81408676D01*
X158152323Y-81405000D01*
X159146979Y-81405000D01*
X159114788Y-81511118D01*
X159102528Y-81635600D01*
X159102528Y-82194400D01*
X159114788Y-82318882D01*
X159151098Y-82438580D01*
X159210063Y-82548894D01*
X159210971Y-82550000D01*
X159210063Y-82551106D01*
X159151098Y-82661420D01*
X159114788Y-82781118D01*
X159108192Y-82848092D01*
X159051898Y-82824774D01*
X158851939Y-82785000D01*
X158648061Y-82785000D01*
X158448102Y-82824774D01*
X158259744Y-82902795D01*
X158090226Y-83016063D01*
X157946063Y-83160226D01*
X157832795Y-83329744D01*
X157811188Y-83381907D01*
X157781898Y-83369774D01*
X157581939Y-83330000D01*
X157378061Y-83330000D01*
X157178102Y-83369774D01*
X156989744Y-83447795D01*
X156820226Y-83561063D01*
X156676063Y-83705226D01*
X156562795Y-83874744D01*
X156484774Y-84063102D01*
X156445000Y-84263061D01*
X156445000Y-84466939D01*
X156484774Y-84666898D01*
X156562795Y-84855256D01*
X156676063Y-85024774D01*
X156720000Y-85068711D01*
X156720001Y-86322667D01*
X156716324Y-86360000D01*
X156720001Y-86397333D01*
X156730998Y-86508986D01*
X156738870Y-86534937D01*
X156774454Y-86652246D01*
X156845026Y-86784276D01*
X156899175Y-86850256D01*
X156940000Y-86900001D01*
X156968998Y-86923799D01*
X157551200Y-87506002D01*
X157574999Y-87535001D01*
X157603997Y-87558799D01*
X157690724Y-87629974D01*
X157822753Y-87700546D01*
X157966014Y-87744003D01*
X158115000Y-87758677D01*
X158152333Y-87755000D01*
X158820198Y-87755000D01*
X152085199Y-94490000D01*
X151802333Y-94490000D01*
X151765000Y-94486323D01*
X151727667Y-94490000D01*
X151616014Y-94500997D01*
X151472753Y-94544454D01*
X151340724Y-94615026D01*
X151224999Y-94709999D01*
X151201201Y-94738997D01*
X150623271Y-95316928D01*
X149800000Y-95316928D01*
X149675518Y-95329188D01*
X149555820Y-95365498D01*
X149445506Y-95424463D01*
X149348815Y-95503815D01*
X149269463Y-95600506D01*
X149210498Y-95710820D01*
X149195579Y-95760000D01*
X148418072Y-95760000D01*
X148418072Y-95670000D01*
X148405812Y-95545518D01*
X148369502Y-95425820D01*
X148310537Y-95315506D01*
X148231185Y-95218815D01*
X148134494Y-95139463D01*
X148024180Y-95080498D01*
X147904482Y-95044188D01*
X147780000Y-95031928D01*
X145780000Y-95031928D01*
X145655518Y-95044188D01*
X145535820Y-95080498D01*
X145425506Y-95139463D01*
X145328815Y-95218815D01*
X145249463Y-95315506D01*
X145190498Y-95425820D01*
X145154188Y-95545518D01*
X145153317Y-95554357D01*
X145081898Y-95524774D01*
X144881939Y-95485000D01*
X144678061Y-95485000D01*
X144478102Y-95524774D01*
X144406683Y-95554357D01*
X144405812Y-95545518D01*
X144369502Y-95425820D01*
X144310537Y-95315506D01*
X144231185Y-95218815D01*
X144134494Y-95139463D01*
X144024180Y-95080498D01*
X143904482Y-95044188D01*
X143780000Y-95031928D01*
X141780000Y-95031928D01*
X141655518Y-95044188D01*
X141535820Y-95080498D01*
X141425506Y-95139463D01*
X141328815Y-95218815D01*
X141249463Y-95315506D01*
X141190498Y-95425820D01*
X141154188Y-95545518D01*
X141141928Y-95670000D01*
X141141928Y-97370000D01*
X141154188Y-97494482D01*
X141190498Y-97614180D01*
X141249463Y-97724494D01*
X141303222Y-97790000D01*
X141249463Y-97855506D01*
X141190498Y-97965820D01*
X141154188Y-98085518D01*
X141141928Y-98210000D01*
X141141928Y-99910000D01*
X141154188Y-100034482D01*
X141190498Y-100154180D01*
X141249463Y-100264494D01*
X141303222Y-100330000D01*
X141249463Y-100395506D01*
X141190498Y-100505820D01*
X141154188Y-100625518D01*
X141141928Y-100750000D01*
X141141928Y-102450000D01*
X141154188Y-102574482D01*
X141190498Y-102694180D01*
X141249463Y-102804494D01*
X141328815Y-102901185D01*
X141425506Y-102980537D01*
X141535820Y-103039502D01*
X141655518Y-103075812D01*
X141780000Y-103088072D01*
X143780000Y-103088072D01*
X143904482Y-103075812D01*
X144024180Y-103039502D01*
X144134494Y-102980537D01*
X144231185Y-102901185D01*
X144310537Y-102804494D01*
X144369502Y-102694180D01*
X144405812Y-102574482D01*
X144406683Y-102565643D01*
X144478102Y-102595226D01*
X144678061Y-102635000D01*
X144881939Y-102635000D01*
X145081898Y-102595226D01*
X145153317Y-102565643D01*
X145154188Y-102574482D01*
X145190498Y-102694180D01*
X145249463Y-102804494D01*
X145328815Y-102901185D01*
X145425506Y-102980537D01*
X145535820Y-103039502D01*
X145655518Y-103075812D01*
X145780000Y-103088072D01*
X147780000Y-103088072D01*
X147904482Y-103075812D01*
X148024180Y-103039502D01*
X148134494Y-102980537D01*
X148231185Y-102901185D01*
X148310537Y-102804494D01*
X148369502Y-102694180D01*
X148405812Y-102574482D01*
X148418072Y-102450000D01*
X148418072Y-102360000D01*
X149195579Y-102360000D01*
X149210498Y-102409180D01*
X149269463Y-102519494D01*
X149348815Y-102616185D01*
X149445506Y-102695537D01*
X149555820Y-102754502D01*
X149675518Y-102790812D01*
X149800000Y-102803072D01*
X152640000Y-102803072D01*
X152764482Y-102790812D01*
X152884180Y-102754502D01*
X152994494Y-102695537D01*
X153091185Y-102616185D01*
X153170537Y-102519494D01*
X153229502Y-102409180D01*
X153254219Y-102327698D01*
X153327247Y-102305546D01*
X153459276Y-102234974D01*
X153544539Y-102165000D01*
X158161928Y-102165000D01*
X158174188Y-102289482D01*
X158210498Y-102409180D01*
X158269463Y-102519494D01*
X158348815Y-102616185D01*
X158445506Y-102695537D01*
X158555820Y-102754502D01*
X158675518Y-102790812D01*
X158800000Y-102803072D01*
X159934250Y-102800000D01*
X160093000Y-102641250D01*
X160093000Y-101727000D01*
X160347000Y-101727000D01*
X160347000Y-102641250D01*
X160505750Y-102800000D01*
X161640000Y-102803072D01*
X161764482Y-102790812D01*
X161884180Y-102754502D01*
X161994494Y-102695537D01*
X162091185Y-102616185D01*
X162170537Y-102519494D01*
X162229502Y-102409180D01*
X162265812Y-102289482D01*
X162278072Y-102165000D01*
X162275000Y-101885750D01*
X162116250Y-101727000D01*
X160347000Y-101727000D01*
X160093000Y-101727000D01*
X158323750Y-101727000D01*
X158165000Y-101885750D01*
X158161928Y-102165000D01*
X153544539Y-102165000D01*
X153575001Y-102140001D01*
X153598803Y-102110998D01*
X153709801Y-102000000D01*
X153771939Y-102000000D01*
X153971898Y-101960226D01*
X154160256Y-101882205D01*
X154329774Y-101768937D01*
X154473937Y-101624774D01*
X154587205Y-101455256D01*
X154665226Y-101266898D01*
X154705000Y-101066939D01*
X154705000Y-101035000D01*
X158161928Y-101035000D01*
X158165000Y-101314250D01*
X158323750Y-101473000D01*
X160093000Y-101473000D01*
X160093000Y-100558750D01*
X160347000Y-100558750D01*
X160347000Y-101473000D01*
X162116250Y-101473000D01*
X162275000Y-101314250D01*
X162278072Y-101035000D01*
X162265812Y-100910518D01*
X162229502Y-100790820D01*
X162170537Y-100680506D01*
X162091185Y-100583815D01*
X161994494Y-100504463D01*
X161884180Y-100445498D01*
X161764482Y-100409188D01*
X161640000Y-100396928D01*
X160505750Y-100400000D01*
X160347000Y-100558750D01*
X160093000Y-100558750D01*
X159934250Y-100400000D01*
X158800000Y-100396928D01*
X158675518Y-100409188D01*
X158555820Y-100445498D01*
X158445506Y-100504463D01*
X158348815Y-100583815D01*
X158269463Y-100680506D01*
X158210498Y-100790820D01*
X158174188Y-100910518D01*
X158161928Y-101035000D01*
X154705000Y-101035000D01*
X154705000Y-100863061D01*
X154665226Y-100663102D01*
X154587205Y-100474744D01*
X154473937Y-100305226D01*
X154329774Y-100161063D01*
X154160256Y-100047795D01*
X153971898Y-99969774D01*
X153771939Y-99930000D01*
X153568061Y-99930000D01*
X153368102Y-99969774D01*
X153179744Y-100047795D01*
X153010226Y-100161063D01*
X152866063Y-100305226D01*
X152791185Y-100417288D01*
X152764482Y-100409188D01*
X152640000Y-100396928D01*
X149800000Y-100396928D01*
X149675518Y-100409188D01*
X149555820Y-100445498D01*
X149445506Y-100504463D01*
X149348815Y-100583815D01*
X149269463Y-100680506D01*
X149210498Y-100790820D01*
X149195579Y-100840000D01*
X148418072Y-100840000D01*
X148418072Y-100750000D01*
X148405812Y-100625518D01*
X148369502Y-100505820D01*
X148310537Y-100395506D01*
X148256778Y-100330000D01*
X148310537Y-100264494D01*
X148369502Y-100154180D01*
X148405812Y-100034482D01*
X148418072Y-99910000D01*
X148418072Y-99820000D01*
X149195579Y-99820000D01*
X149210498Y-99869180D01*
X149269463Y-99979494D01*
X149348815Y-100076185D01*
X149445506Y-100155537D01*
X149555820Y-100214502D01*
X149675518Y-100250812D01*
X149800000Y-100263072D01*
X152640000Y-100263072D01*
X152764482Y-100250812D01*
X152884180Y-100214502D01*
X152994494Y-100155537D01*
X153091185Y-100076185D01*
X153170537Y-99979494D01*
X153229502Y-99869180D01*
X153254219Y-99787698D01*
X153327247Y-99765546D01*
X153459276Y-99694974D01*
X153544539Y-99625000D01*
X158161928Y-99625000D01*
X158174188Y-99749482D01*
X158210498Y-99869180D01*
X158269463Y-99979494D01*
X158348815Y-100076185D01*
X158445506Y-100155537D01*
X158555820Y-100214502D01*
X158675518Y-100250812D01*
X158800000Y-100263072D01*
X159934250Y-100260000D01*
X160093000Y-100101250D01*
X160093000Y-99187000D01*
X160347000Y-99187000D01*
X160347000Y-100101250D01*
X160505750Y-100260000D01*
X161640000Y-100263072D01*
X161764482Y-100250812D01*
X161884180Y-100214502D01*
X161994494Y-100155537D01*
X162091185Y-100076185D01*
X162170537Y-99979494D01*
X162229502Y-99869180D01*
X162265812Y-99749482D01*
X162278072Y-99625000D01*
X162275000Y-99345750D01*
X162116250Y-99187000D01*
X160347000Y-99187000D01*
X160093000Y-99187000D01*
X158323750Y-99187000D01*
X158165000Y-99345750D01*
X158161928Y-99625000D01*
X153544539Y-99625000D01*
X153575001Y-99600001D01*
X153598804Y-99570997D01*
X153994801Y-99175000D01*
X181892857Y-99175000D01*
X181892857Y-102995000D01*
X187677143Y-102995000D01*
X187677143Y-101400777D01*
X189650000Y-101400777D01*
X189650000Y-101959223D01*
X189758948Y-102506939D01*
X189972656Y-103022876D01*
X190282912Y-103487207D01*
X190677793Y-103882088D01*
X191142124Y-104192344D01*
X191658061Y-104406052D01*
X192205777Y-104515000D01*
X192764223Y-104515000D01*
X193311939Y-104406052D01*
X193827876Y-104192344D01*
X194292207Y-103882088D01*
X194687088Y-103487207D01*
X194997344Y-103022876D01*
X195211052Y-102506939D01*
X195320000Y-101959223D01*
X195320000Y-101400777D01*
X195211052Y-100853061D01*
X194997344Y-100337124D01*
X194687088Y-99872793D01*
X194292207Y-99477912D01*
X193827876Y-99167656D01*
X193311939Y-98953948D01*
X192764223Y-98845000D01*
X192205777Y-98845000D01*
X191658061Y-98953948D01*
X191142124Y-99167656D01*
X190677793Y-99477912D01*
X190282912Y-99872793D01*
X189972656Y-100337124D01*
X189758948Y-100853061D01*
X189650000Y-101400777D01*
X187677143Y-101400777D01*
X187677143Y-99175000D01*
X181892857Y-99175000D01*
X153994801Y-99175000D01*
X154674801Y-98495000D01*
X158161928Y-98495000D01*
X158165000Y-98774250D01*
X158323750Y-98933000D01*
X160093000Y-98933000D01*
X160093000Y-98018750D01*
X160347000Y-98018750D01*
X160347000Y-98933000D01*
X162116250Y-98933000D01*
X162275000Y-98774250D01*
X162278072Y-98495000D01*
X162265812Y-98370518D01*
X162229502Y-98250820D01*
X162170537Y-98140506D01*
X162091185Y-98043815D01*
X161994494Y-97964463D01*
X161884180Y-97905498D01*
X161764482Y-97869188D01*
X161640000Y-97856928D01*
X160505750Y-97860000D01*
X160347000Y-98018750D01*
X160093000Y-98018750D01*
X159934250Y-97860000D01*
X158800000Y-97856928D01*
X158675518Y-97869188D01*
X158555820Y-97905498D01*
X158445506Y-97964463D01*
X158348815Y-98043815D01*
X158269463Y-98140506D01*
X158210498Y-98250820D01*
X158174188Y-98370518D01*
X158161928Y-98495000D01*
X154674801Y-98495000D01*
X156084801Y-97085000D01*
X158161928Y-97085000D01*
X158174188Y-97209482D01*
X158210498Y-97329180D01*
X158269463Y-97439494D01*
X158348815Y-97536185D01*
X158445506Y-97615537D01*
X158555820Y-97674502D01*
X158675518Y-97710812D01*
X158800000Y-97723072D01*
X159934250Y-97720000D01*
X160093000Y-97561250D01*
X160093000Y-96647000D01*
X160347000Y-96647000D01*
X160347000Y-97561250D01*
X160505750Y-97720000D01*
X161640000Y-97723072D01*
X161764482Y-97710812D01*
X161884180Y-97674502D01*
X161994494Y-97615537D01*
X162091185Y-97536185D01*
X162170537Y-97439494D01*
X162229502Y-97329180D01*
X162265812Y-97209482D01*
X162278072Y-97085000D01*
X162275000Y-96805750D01*
X162116250Y-96647000D01*
X160347000Y-96647000D01*
X160093000Y-96647000D01*
X158323750Y-96647000D01*
X158165000Y-96805750D01*
X158161928Y-97085000D01*
X156084801Y-97085000D01*
X157214801Y-95955000D01*
X158161928Y-95955000D01*
X158165000Y-96234250D01*
X158323750Y-96393000D01*
X160093000Y-96393000D01*
X160093000Y-95478750D01*
X160347000Y-95478750D01*
X160347000Y-96393000D01*
X162116250Y-96393000D01*
X162275000Y-96234250D01*
X162278072Y-95955000D01*
X162265812Y-95830518D01*
X162229502Y-95710820D01*
X162170537Y-95600506D01*
X162091185Y-95503815D01*
X161994494Y-95424463D01*
X161884180Y-95365498D01*
X161764482Y-95329188D01*
X161640000Y-95316928D01*
X160505750Y-95320000D01*
X160347000Y-95478750D01*
X160093000Y-95478750D01*
X159934250Y-95320000D01*
X158800000Y-95316928D01*
X158675518Y-95329188D01*
X158555820Y-95365498D01*
X158445506Y-95424463D01*
X158348815Y-95503815D01*
X158269463Y-95600506D01*
X158210498Y-95710820D01*
X158174188Y-95830518D01*
X158161928Y-95955000D01*
X157214801Y-95955000D01*
X159961213Y-93208589D01*
X164985000Y-93208589D01*
X164985000Y-93481411D01*
X165038225Y-93748989D01*
X165142629Y-94001043D01*
X165294201Y-94227886D01*
X165487114Y-94420799D01*
X165713957Y-94572371D01*
X165966011Y-94676775D01*
X166233589Y-94730000D01*
X166506411Y-94730000D01*
X166773989Y-94676775D01*
X167026043Y-94572371D01*
X167252886Y-94420799D01*
X167445799Y-94227886D01*
X167527909Y-94105000D01*
X167571289Y-94105000D01*
X167615226Y-94148937D01*
X167784744Y-94262205D01*
X167973102Y-94340226D01*
X168173061Y-94380000D01*
X168376939Y-94380000D01*
X168576898Y-94340226D01*
X168669199Y-94301993D01*
X170037612Y-94301993D01*
X170103137Y-94540860D01*
X170350116Y-94656760D01*
X170614960Y-94722250D01*
X170887492Y-94734812D01*
X171157238Y-94693965D01*
X171413832Y-94601277D01*
X171526863Y-94540860D01*
X171592388Y-94301993D01*
X170815000Y-93524605D01*
X170037612Y-94301993D01*
X168669199Y-94301993D01*
X168765256Y-94262205D01*
X168934774Y-94148937D01*
X169078937Y-94004774D01*
X169192205Y-93835256D01*
X169270226Y-93646898D01*
X169310000Y-93446939D01*
X169310000Y-93417492D01*
X169425188Y-93417492D01*
X169466035Y-93687238D01*
X169558723Y-93943832D01*
X169619140Y-94056863D01*
X169858007Y-94122388D01*
X170635395Y-93345000D01*
X170994605Y-93345000D01*
X171771993Y-94122388D01*
X172010860Y-94056863D01*
X172126760Y-93809884D01*
X172192250Y-93545040D01*
X172204812Y-93272508D01*
X172163965Y-93002762D01*
X172071277Y-92746168D01*
X172010860Y-92633137D01*
X171771993Y-92567612D01*
X170994605Y-93345000D01*
X170635395Y-93345000D01*
X169858007Y-92567612D01*
X169619140Y-92633137D01*
X169503240Y-92880116D01*
X169437750Y-93144960D01*
X169425188Y-93417492D01*
X169310000Y-93417492D01*
X169310000Y-93243061D01*
X169270226Y-93043102D01*
X169192205Y-92854744D01*
X169078937Y-92685226D01*
X168934774Y-92541063D01*
X168765256Y-92427795D01*
X168669200Y-92388007D01*
X170037612Y-92388007D01*
X170815000Y-93165395D01*
X171592388Y-92388007D01*
X171526863Y-92149140D01*
X171279884Y-92033240D01*
X171015040Y-91967750D01*
X170742508Y-91955188D01*
X170472762Y-91996035D01*
X170216168Y-92088723D01*
X170103137Y-92149140D01*
X170037612Y-92388007D01*
X168669200Y-92388007D01*
X168576898Y-92349774D01*
X168376939Y-92310000D01*
X168173061Y-92310000D01*
X167973102Y-92349774D01*
X167784744Y-92427795D01*
X167615226Y-92541063D01*
X167571289Y-92585000D01*
X167527909Y-92585000D01*
X167445799Y-92462114D01*
X167252886Y-92269201D01*
X167026043Y-92117629D01*
X166773989Y-92013225D01*
X166506411Y-91960000D01*
X166233589Y-91960000D01*
X165966011Y-92013225D01*
X165713957Y-92117629D01*
X165487114Y-92269201D01*
X165294201Y-92462114D01*
X165142629Y-92688957D01*
X165038225Y-92941011D01*
X164985000Y-93208589D01*
X159961213Y-93208589D01*
X161242209Y-91927594D01*
X161271201Y-91903801D01*
X161294995Y-91874808D01*
X161294999Y-91874804D01*
X161366173Y-91788077D01*
X161366174Y-91788076D01*
X161436746Y-91656047D01*
X161480203Y-91512786D01*
X161491200Y-91401133D01*
X161491200Y-91401124D01*
X161494876Y-91363801D01*
X161491200Y-91326478D01*
X161491200Y-90452472D01*
X161721800Y-90452472D01*
X161846282Y-90440212D01*
X161965980Y-90403902D01*
X162076294Y-90344937D01*
X162172985Y-90265585D01*
X162252337Y-90168894D01*
X162311302Y-90058580D01*
X162347612Y-89938882D01*
X162359872Y-89814400D01*
X162359872Y-89255600D01*
X162347612Y-89131118D01*
X162311302Y-89011420D01*
X162252337Y-88901106D01*
X162251429Y-88900000D01*
X162252337Y-88898894D01*
X162311302Y-88788580D01*
X162347612Y-88668882D01*
X162359872Y-88544400D01*
X162359872Y-87985600D01*
X162347612Y-87861118D01*
X162315421Y-87755000D01*
X162880199Y-87755000D01*
X163266200Y-88141002D01*
X163289999Y-88170001D01*
X163318997Y-88193799D01*
X163405724Y-88264974D01*
X163537753Y-88335546D01*
X163681014Y-88379003D01*
X163830000Y-88393677D01*
X163867333Y-88390000D01*
X164001928Y-88390000D01*
X164001928Y-88480000D01*
X164014188Y-88604482D01*
X164050498Y-88724180D01*
X164109463Y-88834494D01*
X164188815Y-88931185D01*
X164285506Y-89010537D01*
X164395820Y-89069502D01*
X164515518Y-89105812D01*
X164640000Y-89118072D01*
X166640000Y-89118072D01*
X166764482Y-89105812D01*
X166884180Y-89069502D01*
X166994494Y-89010537D01*
X167091185Y-88931185D01*
X167170537Y-88834494D01*
X167229502Y-88724180D01*
X167265812Y-88604482D01*
X167266683Y-88595643D01*
X167338102Y-88625226D01*
X167538061Y-88665000D01*
X167741939Y-88665000D01*
X167941898Y-88625226D01*
X168013317Y-88595643D01*
X168014188Y-88604482D01*
X168050498Y-88724180D01*
X168109463Y-88834494D01*
X168188815Y-88931185D01*
X168285506Y-89010537D01*
X168395820Y-89069502D01*
X168515518Y-89105812D01*
X168640000Y-89118072D01*
X169354250Y-89115000D01*
X169513000Y-88956250D01*
X169513000Y-87757000D01*
X169767000Y-87757000D01*
X169767000Y-88956250D01*
X169925750Y-89115000D01*
X170640000Y-89118072D01*
X170764482Y-89105812D01*
X170884180Y-89069502D01*
X170994494Y-89010537D01*
X171091185Y-88931185D01*
X171170537Y-88834494D01*
X171229502Y-88724180D01*
X171265812Y-88604482D01*
X171278072Y-88480000D01*
X171275811Y-88064570D01*
X171955000Y-88064570D01*
X171955000Y-88465430D01*
X172033204Y-88858587D01*
X172186607Y-89228934D01*
X172409313Y-89562237D01*
X172692763Y-89845687D01*
X173026066Y-90068393D01*
X173396413Y-90221796D01*
X173789570Y-90300000D01*
X174190430Y-90300000D01*
X174583587Y-90221796D01*
X174953934Y-90068393D01*
X175287237Y-89845687D01*
X175570687Y-89562237D01*
X175793393Y-89228934D01*
X175946796Y-88858587D01*
X176025000Y-88465430D01*
X176025000Y-88064570D01*
X175946796Y-87671413D01*
X175793393Y-87301066D01*
X175570687Y-86967763D01*
X175287237Y-86684313D01*
X174953934Y-86461607D01*
X174583587Y-86308204D01*
X174190430Y-86230000D01*
X173789570Y-86230000D01*
X173396413Y-86308204D01*
X173026066Y-86461607D01*
X172692763Y-86684313D01*
X172409313Y-86967763D01*
X172186607Y-87301066D01*
X172033204Y-87671413D01*
X171955000Y-88064570D01*
X171275811Y-88064570D01*
X171275000Y-87915750D01*
X171116250Y-87757000D01*
X169767000Y-87757000D01*
X169513000Y-87757000D01*
X169493000Y-87757000D01*
X169493000Y-87503000D01*
X169513000Y-87503000D01*
X169513000Y-85217000D01*
X169767000Y-85217000D01*
X169767000Y-87503000D01*
X171116250Y-87503000D01*
X171275000Y-87344250D01*
X171278072Y-86780000D01*
X171265812Y-86655518D01*
X171229502Y-86535820D01*
X171170537Y-86425506D01*
X171116778Y-86360000D01*
X171170537Y-86294494D01*
X171229502Y-86184180D01*
X171265812Y-86064482D01*
X171278072Y-85940000D01*
X171275000Y-85375750D01*
X171116250Y-85217000D01*
X169767000Y-85217000D01*
X169513000Y-85217000D01*
X169493000Y-85217000D01*
X169493000Y-84963000D01*
X169513000Y-84963000D01*
X169513000Y-84943000D01*
X169767000Y-84943000D01*
X169767000Y-84963000D01*
X171116250Y-84963000D01*
X171275000Y-84804250D01*
X171278072Y-84240000D01*
X171265812Y-84115518D01*
X171229502Y-83995820D01*
X171170537Y-83885506D01*
X171096261Y-83795000D01*
X171170537Y-83704494D01*
X171229502Y-83594180D01*
X171265812Y-83474482D01*
X171278072Y-83350000D01*
X171278072Y-82349570D01*
X171955000Y-82349570D01*
X171955000Y-82750430D01*
X172033204Y-83143587D01*
X172186607Y-83513934D01*
X172409313Y-83847237D01*
X172692763Y-84130687D01*
X173026066Y-84353393D01*
X173396413Y-84506796D01*
X173789570Y-84585000D01*
X174190430Y-84585000D01*
X174583587Y-84506796D01*
X174953934Y-84353393D01*
X175287237Y-84130687D01*
X175570687Y-83847237D01*
X175793393Y-83513934D01*
X175946796Y-83143587D01*
X176025000Y-82750430D01*
X176025000Y-82349570D01*
X175946796Y-81956413D01*
X175793393Y-81586066D01*
X175570687Y-81252763D01*
X175287237Y-80969313D01*
X174953934Y-80746607D01*
X174583587Y-80593204D01*
X174190430Y-80515000D01*
X173789570Y-80515000D01*
X173396413Y-80593204D01*
X173026066Y-80746607D01*
X172692763Y-80969313D01*
X172409313Y-81252763D01*
X172186607Y-81586066D01*
X172033204Y-81956413D01*
X171955000Y-82349570D01*
X171278072Y-82349570D01*
X171278072Y-81750000D01*
X171265812Y-81625518D01*
X171229502Y-81505820D01*
X171170537Y-81395506D01*
X171091185Y-81298815D01*
X170994494Y-81219463D01*
X170884180Y-81160498D01*
X170764482Y-81124188D01*
X170640000Y-81111928D01*
X168640000Y-81111928D01*
X168515518Y-81124188D01*
X168395820Y-81160498D01*
X168285506Y-81219463D01*
X168188815Y-81298815D01*
X168109463Y-81395506D01*
X168050498Y-81505820D01*
X168025183Y-81589272D01*
X167941898Y-81554774D01*
X167741939Y-81515000D01*
X167538061Y-81515000D01*
X167338102Y-81554774D01*
X167254817Y-81589272D01*
X167229502Y-81505820D01*
X167170537Y-81395506D01*
X167091185Y-81298815D01*
X166994494Y-81219463D01*
X166884180Y-81160498D01*
X166764482Y-81124188D01*
X166640000Y-81111928D01*
X164640000Y-81111928D01*
X164515518Y-81124188D01*
X164395820Y-81160498D01*
X164285506Y-81219463D01*
X164188815Y-81298815D01*
X164109463Y-81395506D01*
X164050498Y-81505820D01*
X164014188Y-81625518D01*
X164001928Y-81750000D01*
X164001928Y-81790000D01*
X163867333Y-81790000D01*
X163830000Y-81786323D01*
X163792667Y-81790000D01*
X163681014Y-81800997D01*
X163537753Y-81844454D01*
X163405724Y-81915026D01*
X163289999Y-82009999D01*
X163266201Y-82038997D01*
X162880199Y-82425000D01*
X162315421Y-82425000D01*
X162347612Y-82318882D01*
X162359872Y-82194400D01*
X162359872Y-81635600D01*
X162347612Y-81511118D01*
X162311302Y-81391420D01*
X162252337Y-81281106D01*
X162251429Y-81280000D01*
X162252337Y-81278894D01*
X162311302Y-81168580D01*
X162347612Y-81048882D01*
X162359872Y-80924400D01*
X162359872Y-80365600D01*
X162347612Y-80241118D01*
X162315421Y-80135000D01*
X177731289Y-80135000D01*
X177775226Y-80178937D01*
X177944744Y-80292205D01*
X178133102Y-80370226D01*
X178333061Y-80410000D01*
X178395199Y-80410000D01*
X180850000Y-82864802D01*
X180850001Y-91327762D01*
X180850000Y-91327770D01*
X180850000Y-91457135D01*
X180646066Y-91541607D01*
X180312763Y-91764313D01*
X180029313Y-92047763D01*
X179806607Y-92381066D01*
X179653204Y-92751413D01*
X179575000Y-93144570D01*
X179575000Y-93545430D01*
X179653204Y-93938587D01*
X179806607Y-94308934D01*
X180029313Y-94642237D01*
X180312763Y-94925687D01*
X180646066Y-95148393D01*
X181016413Y-95301796D01*
X181409570Y-95380000D01*
X181810430Y-95380000D01*
X182203587Y-95301796D01*
X182573934Y-95148393D01*
X182907237Y-94925687D01*
X183190687Y-94642237D01*
X183413393Y-94308934D01*
X183566796Y-93938587D01*
X183645000Y-93545430D01*
X183645000Y-93144570D01*
X183566796Y-92751413D01*
X183413393Y-92381066D01*
X183190687Y-92047763D01*
X182907237Y-91764313D01*
X182573934Y-91541607D01*
X182370000Y-91457135D01*
X182370000Y-82587322D01*
X182373676Y-82549999D01*
X182370000Y-82512676D01*
X182370000Y-82512667D01*
X182366409Y-82476211D01*
X186565000Y-86674802D01*
X186565001Y-91457134D01*
X186361066Y-91541607D01*
X186027763Y-91764313D01*
X185744313Y-92047763D01*
X185521607Y-92381066D01*
X185368204Y-92751413D01*
X185290000Y-93144570D01*
X185290000Y-93545430D01*
X185368204Y-93938587D01*
X185521607Y-94308934D01*
X185744313Y-94642237D01*
X186027763Y-94925687D01*
X186361066Y-95148393D01*
X186731413Y-95301796D01*
X187124570Y-95380000D01*
X187525430Y-95380000D01*
X187918587Y-95301796D01*
X188288934Y-95148393D01*
X188622237Y-94925687D01*
X188905687Y-94642237D01*
X189128393Y-94308934D01*
X189281796Y-93938587D01*
X189360000Y-93545430D01*
X189360000Y-93144570D01*
X189281796Y-92751413D01*
X189128393Y-92381066D01*
X188905687Y-92047763D01*
X188622237Y-91764313D01*
X188288934Y-91541607D01*
X188085000Y-91457135D01*
X188085000Y-86397333D01*
X188088677Y-86360000D01*
X188083576Y-86308204D01*
X188074003Y-86211014D01*
X188030546Y-86067753D01*
X187959974Y-85935724D01*
X187865001Y-85819999D01*
X187836003Y-85796201D01*
X179470000Y-77430199D01*
X179470000Y-77368061D01*
X179430226Y-77168102D01*
X179352205Y-76979744D01*
X179238937Y-76810226D01*
X179094774Y-76666063D01*
X178925256Y-76552795D01*
X178736898Y-76474774D01*
X178622735Y-76452066D01*
X180851004Y-74223798D01*
X180880001Y-74200001D01*
X180924307Y-74146014D01*
X180974974Y-74084277D01*
X181045546Y-73952247D01*
X181052230Y-73930212D01*
X181089003Y-73808986D01*
X181100000Y-73697333D01*
X181100000Y-73697324D01*
X181103676Y-73660001D01*
X181100000Y-73622678D01*
X181100000Y-72336046D01*
X181194494Y-72285537D01*
X181291185Y-72206185D01*
X181370537Y-72109494D01*
X181429502Y-71999180D01*
X181465812Y-71879482D01*
X181478072Y-71755000D01*
X181478072Y-68655000D01*
X181465812Y-68530518D01*
X181429502Y-68410820D01*
X181370537Y-68300506D01*
X181291185Y-68203815D01*
X181194494Y-68124463D01*
X181092603Y-68070000D01*
X182127397Y-68070000D01*
X182025506Y-68124463D01*
X181928815Y-68203815D01*
X181849463Y-68300506D01*
X181790498Y-68410820D01*
X181754188Y-68530518D01*
X181741928Y-68655000D01*
X181741928Y-71755000D01*
X181754188Y-71879482D01*
X181790498Y-71999180D01*
X181849463Y-72109494D01*
X181928815Y-72206185D01*
X182025506Y-72285537D01*
X182110383Y-72330906D01*
X182076063Y-72365226D01*
X181962795Y-72534744D01*
X181884774Y-72723102D01*
X181845000Y-72923061D01*
X181845000Y-73126939D01*
X181884774Y-73326898D01*
X181962795Y-73515256D01*
X182076063Y-73684774D01*
X182220226Y-73828937D01*
X182389744Y-73942205D01*
X182578102Y-74020226D01*
X182778061Y-74060000D01*
X182981939Y-74060000D01*
X183181898Y-74020226D01*
X183370256Y-73942205D01*
X183539774Y-73828937D01*
X183683937Y-73684774D01*
X183797205Y-73515256D01*
X183875226Y-73326898D01*
X183915000Y-73126939D01*
X183915000Y-72923061D01*
X183875226Y-72723102D01*
X183797205Y-72534744D01*
X183683937Y-72365226D01*
X183649617Y-72330906D01*
X183734494Y-72285537D01*
X183831185Y-72206185D01*
X183910537Y-72109494D01*
X183969502Y-71999180D01*
X184005812Y-71879482D01*
X184018072Y-71755000D01*
X184281928Y-71755000D01*
X184294188Y-71879482D01*
X184330498Y-71999180D01*
X184389463Y-72109494D01*
X184468815Y-72206185D01*
X184565506Y-72285537D01*
X184675820Y-72344502D01*
X184795518Y-72380812D01*
X184920000Y-72393072D01*
X185134250Y-72390000D01*
X185293000Y-72231250D01*
X185293000Y-70332000D01*
X185547000Y-70332000D01*
X185547000Y-72231250D01*
X185705750Y-72390000D01*
X185920000Y-72393072D01*
X186044482Y-72380812D01*
X186164180Y-72344502D01*
X186274494Y-72285537D01*
X186371185Y-72206185D01*
X186450537Y-72109494D01*
X186509502Y-71999180D01*
X186545812Y-71879482D01*
X186558072Y-71755000D01*
X186555000Y-70490750D01*
X186396250Y-70332000D01*
X185547000Y-70332000D01*
X185293000Y-70332000D01*
X184443750Y-70332000D01*
X184285000Y-70490750D01*
X184281928Y-71755000D01*
X184018072Y-71755000D01*
X184018072Y-68655000D01*
X184005812Y-68530518D01*
X183969502Y-68410820D01*
X183910537Y-68300506D01*
X183831185Y-68203815D01*
X183734494Y-68124463D01*
X183632603Y-68070000D01*
X184667397Y-68070000D01*
X184565506Y-68124463D01*
X184468815Y-68203815D01*
X184389463Y-68300506D01*
X184330498Y-68410820D01*
X184294188Y-68530518D01*
X184281928Y-68655000D01*
X184285000Y-69919250D01*
X184443750Y-70078000D01*
X185293000Y-70078000D01*
X185293000Y-70058000D01*
X185547000Y-70058000D01*
X185547000Y-70078000D01*
X186396250Y-70078000D01*
X186555000Y-69919250D01*
X186558072Y-68655000D01*
X186545812Y-68530518D01*
X186509502Y-68410820D01*
X186450537Y-68300506D01*
X186371185Y-68203815D01*
X186274494Y-68124463D01*
X186172603Y-68070000D01*
X186375199Y-68070000D01*
X186834544Y-68529345D01*
X186834188Y-68530518D01*
X186821928Y-68655000D01*
X186821928Y-71755000D01*
X186834188Y-71879482D01*
X186870498Y-71999180D01*
X186929463Y-72109494D01*
X187008815Y-72206185D01*
X187105506Y-72285537D01*
X187215820Y-72344502D01*
X187335518Y-72380812D01*
X187460000Y-72393072D01*
X188460000Y-72393072D01*
X188584482Y-72380812D01*
X188704180Y-72344502D01*
X188814494Y-72285537D01*
X188911185Y-72206185D01*
X188990537Y-72109494D01*
X189049502Y-71999180D01*
X189085812Y-71879482D01*
X189098072Y-71755000D01*
X189098072Y-68655000D01*
X189085812Y-68530518D01*
X189049502Y-68410820D01*
X188990537Y-68300506D01*
X188911185Y-68203815D01*
X188814494Y-68124463D01*
X188704180Y-68065498D01*
X188584482Y-68029188D01*
X188473510Y-68018259D01*
X188471003Y-68016201D01*
X187253804Y-66799003D01*
X187230001Y-66769999D01*
X187114276Y-66675026D01*
X186982247Y-66604454D01*
X186838986Y-66560997D01*
X186727333Y-66550000D01*
X186727322Y-66550000D01*
X186690000Y-66546324D01*
X186652678Y-66550000D01*
X177202333Y-66550000D01*
X177165000Y-66546323D01*
X177127667Y-66550000D01*
X177016014Y-66560997D01*
X176872753Y-66604454D01*
X176740724Y-66675026D01*
X176624999Y-66769999D01*
X176601200Y-66798998D01*
X176019002Y-67381197D01*
X175989999Y-67404999D01*
X175941784Y-67463750D01*
X175895026Y-67520724D01*
X175831808Y-67638996D01*
X175824454Y-67652754D01*
X175780997Y-67796015D01*
X175770000Y-67907668D01*
X175770000Y-67907678D01*
X175766324Y-67945000D01*
X175770000Y-67982323D01*
X175770000Y-68017913D01*
X175760000Y-68016928D01*
X174760000Y-68016928D01*
X174635518Y-68029188D01*
X174515820Y-68065498D01*
X174405506Y-68124463D01*
X174308815Y-68203815D01*
X174229463Y-68300506D01*
X174170498Y-68410820D01*
X174134188Y-68530518D01*
X174121928Y-68655000D01*
X174121928Y-71755000D01*
X174134188Y-71879482D01*
X174170498Y-71999180D01*
X174229463Y-72109494D01*
X174308815Y-72206185D01*
X174405506Y-72285537D01*
X174515820Y-72344502D01*
X174635518Y-72380812D01*
X174760000Y-72393072D01*
X175452125Y-72393072D01*
X173675199Y-74170000D01*
X164533711Y-74170000D01*
X164489774Y-74126063D01*
X164320256Y-74012795D01*
X164190771Y-73959160D01*
X164230000Y-73761939D01*
X164230000Y-73558061D01*
X164190226Y-73358102D01*
X164112205Y-73169744D01*
X163998937Y-73000226D01*
X163854774Y-72856063D01*
X163685256Y-72742795D01*
X163496898Y-72664774D01*
X163296939Y-72625000D01*
X163093061Y-72625000D01*
X162893102Y-72664774D01*
X162704744Y-72742795D01*
X162535226Y-72856063D01*
X162391063Y-73000226D01*
X162277795Y-73169744D01*
X162259635Y-73213585D01*
X162198050Y-73152000D01*
X160858200Y-73152000D01*
X160858200Y-73172000D01*
X160604200Y-73172000D01*
X160604200Y-73152000D01*
X159264350Y-73152000D01*
X159105600Y-73310750D01*
X159115092Y-73430400D01*
X159151693Y-73550010D01*
X159210885Y-73660105D01*
X159210063Y-73661106D01*
X159151098Y-73771420D01*
X159114788Y-73891118D01*
X159102528Y-74015600D01*
X159102528Y-74574400D01*
X159114788Y-74698882D01*
X159146979Y-74805000D01*
X158152333Y-74805000D01*
X158115000Y-74801323D01*
X158077667Y-74805000D01*
X157966014Y-74815997D01*
X157822753Y-74859454D01*
X157690724Y-74930026D01*
X157574999Y-75024999D01*
X157551200Y-75053998D01*
X156970000Y-75635199D01*
X156970000Y-72739250D01*
X159105600Y-72739250D01*
X159264350Y-72898000D01*
X160604200Y-72898000D01*
X160604200Y-72269350D01*
X160858200Y-72269350D01*
X160858200Y-72898000D01*
X162198050Y-72898000D01*
X162356800Y-72739250D01*
X162347308Y-72619600D01*
X162310707Y-72499990D01*
X162251475Y-72389820D01*
X162171889Y-72293321D01*
X162075005Y-72214204D01*
X161964548Y-72155507D01*
X161844762Y-72119488D01*
X161720251Y-72107530D01*
X161016950Y-72110600D01*
X160858200Y-72269350D01*
X160604200Y-72269350D01*
X160445450Y-72110600D01*
X159742149Y-72107530D01*
X159617638Y-72119488D01*
X159497852Y-72155507D01*
X159387395Y-72214204D01*
X159290511Y-72293321D01*
X159210925Y-72389820D01*
X159151693Y-72499990D01*
X159115092Y-72619600D01*
X159105600Y-72739250D01*
X156970000Y-72739250D01*
X156970000Y-71285000D01*
X157651928Y-71285000D01*
X157664188Y-71409482D01*
X157700498Y-71529180D01*
X157759463Y-71639494D01*
X157838815Y-71736185D01*
X157935506Y-71815537D01*
X158045820Y-71874502D01*
X158165518Y-71910812D01*
X158290000Y-71923072D01*
X159004250Y-71920000D01*
X159163000Y-71761250D01*
X159163000Y-70612000D01*
X157813750Y-70612000D01*
X157655000Y-70770750D01*
X157651928Y-71285000D01*
X156970000Y-71285000D01*
X156970000Y-69918711D01*
X157013937Y-69874774D01*
X157127205Y-69705256D01*
X157135595Y-69685000D01*
X157651928Y-69685000D01*
X157655000Y-70199250D01*
X157813750Y-70358000D01*
X159163000Y-70358000D01*
X159163000Y-69208750D01*
X159004250Y-69050000D01*
X158290000Y-69046928D01*
X158165518Y-69059188D01*
X158045820Y-69095498D01*
X157935506Y-69154463D01*
X157838815Y-69233815D01*
X157759463Y-69330506D01*
X157700498Y-69440820D01*
X157664188Y-69560518D01*
X157651928Y-69685000D01*
X157135595Y-69685000D01*
X157205226Y-69516898D01*
X157245000Y-69316939D01*
X157245000Y-69113061D01*
X157227484Y-69025000D01*
X164660001Y-69025000D01*
X164660001Y-69167189D01*
X164644494Y-69154463D01*
X164534180Y-69095498D01*
X164414482Y-69059188D01*
X164290000Y-69046928D01*
X162290000Y-69046928D01*
X162165518Y-69059188D01*
X162045820Y-69095498D01*
X161935506Y-69154463D01*
X161838815Y-69233815D01*
X161759463Y-69330506D01*
X161700498Y-69440820D01*
X161675183Y-69524272D01*
X161591898Y-69489774D01*
X161391939Y-69450000D01*
X161188061Y-69450000D01*
X160988102Y-69489774D01*
X160904817Y-69524272D01*
X160879502Y-69440820D01*
X160820537Y-69330506D01*
X160741185Y-69233815D01*
X160644494Y-69154463D01*
X160534180Y-69095498D01*
X160414482Y-69059188D01*
X160290000Y-69046928D01*
X159575750Y-69050000D01*
X159417000Y-69208750D01*
X159417000Y-70358000D01*
X159437000Y-70358000D01*
X159437000Y-70612000D01*
X159417000Y-70612000D01*
X159417000Y-71761250D01*
X159575750Y-71920000D01*
X160290000Y-71923072D01*
X160414482Y-71910812D01*
X160534180Y-71874502D01*
X160644494Y-71815537D01*
X160741185Y-71736185D01*
X160820537Y-71639494D01*
X160879502Y-71529180D01*
X160904817Y-71445728D01*
X160988102Y-71480226D01*
X161188061Y-71520000D01*
X161391939Y-71520000D01*
X161591898Y-71480226D01*
X161675183Y-71445728D01*
X161700498Y-71529180D01*
X161759463Y-71639494D01*
X161838815Y-71736185D01*
X161935506Y-71815537D01*
X162045820Y-71874502D01*
X162165518Y-71910812D01*
X162290000Y-71923072D01*
X164290000Y-71923072D01*
X164414482Y-71910812D01*
X164534180Y-71874502D01*
X164644494Y-71815537D01*
X164741185Y-71736185D01*
X164820537Y-71639494D01*
X164879502Y-71529180D01*
X164915812Y-71409482D01*
X164928072Y-71285000D01*
X164928072Y-70117873D01*
X165486200Y-70676002D01*
X165509999Y-70705001D01*
X165625724Y-70799974D01*
X165633002Y-70803864D01*
X165569454Y-70922754D01*
X165544204Y-71005997D01*
X165541044Y-71016414D01*
X165460506Y-71059463D01*
X165363815Y-71138815D01*
X165284463Y-71235506D01*
X165225498Y-71345820D01*
X165189188Y-71465518D01*
X165176928Y-71590000D01*
X165176928Y-73190000D01*
X165189188Y-73314482D01*
X165225498Y-73434180D01*
X165284463Y-73544494D01*
X165363815Y-73641185D01*
X165460506Y-73720537D01*
X165570820Y-73779502D01*
X165690518Y-73815812D01*
X165815000Y-73828072D01*
X167815000Y-73828072D01*
X167939482Y-73815812D01*
X168059180Y-73779502D01*
X168169494Y-73720537D01*
X168266185Y-73641185D01*
X168345537Y-73544494D01*
X168404502Y-73434180D01*
X168440421Y-73315770D01*
X168608102Y-73385226D01*
X168808061Y-73425000D01*
X169011939Y-73425000D01*
X169210719Y-73385460D01*
X169225498Y-73434180D01*
X169284463Y-73544494D01*
X169363815Y-73641185D01*
X169460506Y-73720537D01*
X169570820Y-73779502D01*
X169690518Y-73815812D01*
X169815000Y-73828072D01*
X171815000Y-73828072D01*
X171939482Y-73815812D01*
X172059180Y-73779502D01*
X172169494Y-73720537D01*
X172266185Y-73641185D01*
X172345537Y-73544494D01*
X172404502Y-73434180D01*
X172440812Y-73314482D01*
X172453072Y-73190000D01*
X172453072Y-71590000D01*
X172440812Y-71465518D01*
X172404502Y-71345820D01*
X172345537Y-71235506D01*
X172266185Y-71138815D01*
X172169494Y-71059463D01*
X172059180Y-71000498D01*
X172055333Y-70999331D01*
X172126185Y-70941185D01*
X172205537Y-70844494D01*
X172264502Y-70734180D01*
X172300812Y-70614482D01*
X172313072Y-70490000D01*
X172313072Y-69840000D01*
X172300812Y-69715518D01*
X172264502Y-69595820D01*
X172205537Y-69485506D01*
X172126185Y-69388815D01*
X172029494Y-69309463D01*
X171919180Y-69250498D01*
X171802159Y-69215000D01*
X171919180Y-69179502D01*
X172029494Y-69120537D01*
X172126185Y-69041185D01*
X172205537Y-68944494D01*
X172264502Y-68834180D01*
X172300812Y-68714482D01*
X172313072Y-68590000D01*
X172310000Y-68550750D01*
X172151250Y-68392000D01*
X171022000Y-68392000D01*
X171022000Y-68412000D01*
X170768000Y-68412000D01*
X170768000Y-68392000D01*
X170748000Y-68392000D01*
X170748000Y-68138000D01*
X170768000Y-68138000D01*
X170768000Y-67463750D01*
X171022000Y-67463750D01*
X171022000Y-68138000D01*
X172151250Y-68138000D01*
X172310000Y-67979250D01*
X172313072Y-67940000D01*
X172300812Y-67815518D01*
X172264502Y-67695820D01*
X172205537Y-67585506D01*
X172126185Y-67488815D01*
X172080972Y-67451710D01*
X172154180Y-67429502D01*
X172264494Y-67370537D01*
X172361185Y-67291185D01*
X172440537Y-67194494D01*
X172499502Y-67084180D01*
X172535812Y-66964482D01*
X172548072Y-66840000D01*
X172545000Y-66325750D01*
X172386250Y-66167000D01*
X171037000Y-66167000D01*
X171037000Y-67316250D01*
X171103250Y-67382500D01*
X171022000Y-67463750D01*
X170768000Y-67463750D01*
X170701750Y-67397500D01*
X170783000Y-67316250D01*
X170783000Y-66167000D01*
X170763000Y-66167000D01*
X170763000Y-65913000D01*
X170783000Y-65913000D01*
X170783000Y-64763750D01*
X171037000Y-64763750D01*
X171037000Y-65913000D01*
X172386250Y-65913000D01*
X172545000Y-65754250D01*
X172545438Y-65680777D01*
X189650000Y-65680777D01*
X189650000Y-66239223D01*
X189758948Y-66786939D01*
X189972656Y-67302876D01*
X190282912Y-67767207D01*
X190677793Y-68162088D01*
X191142124Y-68472344D01*
X191658061Y-68686052D01*
X192205777Y-68795000D01*
X192764223Y-68795000D01*
X193311939Y-68686052D01*
X193827876Y-68472344D01*
X194292207Y-68162088D01*
X194687088Y-67767207D01*
X194997344Y-67302876D01*
X195211052Y-66786939D01*
X195320000Y-66239223D01*
X195320000Y-65680777D01*
X195211052Y-65133061D01*
X194997344Y-64617124D01*
X194687088Y-64152793D01*
X194292207Y-63757912D01*
X193827876Y-63447656D01*
X193311939Y-63233948D01*
X192764223Y-63125000D01*
X192205777Y-63125000D01*
X191658061Y-63233948D01*
X191142124Y-63447656D01*
X190677793Y-63757912D01*
X190282912Y-64152793D01*
X189972656Y-64617124D01*
X189758948Y-65133061D01*
X189650000Y-65680777D01*
X172545438Y-65680777D01*
X172548072Y-65240000D01*
X172535812Y-65115518D01*
X172499502Y-64995820D01*
X172440537Y-64885506D01*
X172361185Y-64788815D01*
X172264494Y-64709463D01*
X172154180Y-64650498D01*
X172034482Y-64614188D01*
X171910000Y-64601928D01*
X171195750Y-64605000D01*
X171037000Y-64763750D01*
X170783000Y-64763750D01*
X170624250Y-64605000D01*
X169910000Y-64601928D01*
X169785518Y-64614188D01*
X169665820Y-64650498D01*
X169555506Y-64709463D01*
X169458815Y-64788815D01*
X169379463Y-64885506D01*
X169320498Y-64995820D01*
X169295183Y-65079272D01*
X169211898Y-65044774D01*
X169011939Y-65005000D01*
X168808061Y-65005000D01*
X168608102Y-65044774D01*
X168524817Y-65079272D01*
X168499502Y-64995820D01*
X168440537Y-64885506D01*
X168361185Y-64788815D01*
X168264494Y-64709463D01*
X168154180Y-64650498D01*
X168034482Y-64614188D01*
X167910000Y-64601928D01*
X165910000Y-64601928D01*
X165785518Y-64614188D01*
X165665820Y-64650498D01*
X165555506Y-64709463D01*
X165458815Y-64788815D01*
X165379463Y-64885506D01*
X165320498Y-64995820D01*
X165284188Y-65115518D01*
X165271928Y-65240000D01*
X165271928Y-66840000D01*
X165284188Y-66964482D01*
X165320498Y-67084180D01*
X165379463Y-67194494D01*
X165458815Y-67291185D01*
X165555506Y-67370537D01*
X165665820Y-67429502D01*
X165785518Y-67465812D01*
X165910000Y-67478072D01*
X166976905Y-67478072D01*
X166963815Y-67488815D01*
X166950532Y-67505000D01*
X165457333Y-67505000D01*
X165420000Y-67501323D01*
X165382667Y-67505000D01*
X149224802Y-67505000D01*
X148080000Y-66360199D01*
X148080000Y-65860161D01*
X148212731Y-65805182D01*
X148521413Y-65598926D01*
X148783926Y-65336413D01*
X148990182Y-65027731D01*
X149132253Y-64684741D01*
X149204680Y-64320625D01*
X149204680Y-63949375D01*
X149245320Y-63949375D01*
X149245320Y-64320625D01*
X149317747Y-64684741D01*
X149459818Y-65027731D01*
X149666074Y-65336413D01*
X149928587Y-65598926D01*
X150237269Y-65805182D01*
X150580259Y-65947253D01*
X150944375Y-66019680D01*
X151315625Y-66019680D01*
X151679741Y-65947253D01*
X152022731Y-65805182D01*
X152331413Y-65598926D01*
X152593926Y-65336413D01*
X152800182Y-65027731D01*
X152942253Y-64684741D01*
X153014680Y-64320625D01*
X153014680Y-63949375D01*
X153055320Y-63949375D01*
X153055320Y-64320625D01*
X153127747Y-64684741D01*
X153269818Y-65027731D01*
X153476074Y-65336413D01*
X153738587Y-65598926D01*
X154047269Y-65805182D01*
X154390259Y-65947253D01*
X154754375Y-66019680D01*
X155125625Y-66019680D01*
X155489741Y-65947253D01*
X155832731Y-65805182D01*
X156141413Y-65598926D01*
X156403926Y-65336413D01*
X156610182Y-65027731D01*
X156752253Y-64684741D01*
X156824680Y-64320625D01*
X156824680Y-63949375D01*
X156865320Y-63949375D01*
X156865320Y-64320625D01*
X156937747Y-64684741D01*
X157079818Y-65027731D01*
X157286074Y-65336413D01*
X157548587Y-65598926D01*
X157857269Y-65805182D01*
X158200259Y-65947253D01*
X158564375Y-66019680D01*
X158935625Y-66019680D01*
X159299741Y-65947253D01*
X159642731Y-65805182D01*
X159951413Y-65598926D01*
X160213926Y-65336413D01*
X160420182Y-65027731D01*
X160562253Y-64684741D01*
X160634680Y-64320625D01*
X160634680Y-63949375D01*
X160675320Y-63949375D01*
X160675320Y-64320625D01*
X160747747Y-64684741D01*
X160889818Y-65027731D01*
X161096074Y-65336413D01*
X161358587Y-65598926D01*
X161667269Y-65805182D01*
X162010259Y-65947253D01*
X162374375Y-66019680D01*
X162745625Y-66019680D01*
X163109741Y-65947253D01*
X163452731Y-65805182D01*
X163761413Y-65598926D01*
X164023926Y-65336413D01*
X164230182Y-65027731D01*
X164372253Y-64684741D01*
X164444680Y-64320625D01*
X164444680Y-63949375D01*
X164372253Y-63585259D01*
X164230182Y-63242269D01*
X164023926Y-62933587D01*
X163761413Y-62671074D01*
X163452731Y-62464818D01*
X163109741Y-62322747D01*
X162745625Y-62250320D01*
X162374375Y-62250320D01*
X162010259Y-62322747D01*
X161667269Y-62464818D01*
X161358587Y-62671074D01*
X161096074Y-62933587D01*
X160889818Y-63242269D01*
X160747747Y-63585259D01*
X160675320Y-63949375D01*
X160634680Y-63949375D01*
X160562253Y-63585259D01*
X160420182Y-63242269D01*
X160213926Y-62933587D01*
X159951413Y-62671074D01*
X159642731Y-62464818D01*
X159299741Y-62322747D01*
X158935625Y-62250320D01*
X158564375Y-62250320D01*
X158200259Y-62322747D01*
X157857269Y-62464818D01*
X157548587Y-62671074D01*
X157286074Y-62933587D01*
X157079818Y-63242269D01*
X156937747Y-63585259D01*
X156865320Y-63949375D01*
X156824680Y-63949375D01*
X156752253Y-63585259D01*
X156610182Y-63242269D01*
X156403926Y-62933587D01*
X156141413Y-62671074D01*
X155832731Y-62464818D01*
X155489741Y-62322747D01*
X155125625Y-62250320D01*
X154754375Y-62250320D01*
X154390259Y-62322747D01*
X154047269Y-62464818D01*
X153738587Y-62671074D01*
X153476074Y-62933587D01*
X153269818Y-63242269D01*
X153127747Y-63585259D01*
X153055320Y-63949375D01*
X153014680Y-63949375D01*
X152942253Y-63585259D01*
X152800182Y-63242269D01*
X152593926Y-62933587D01*
X152331413Y-62671074D01*
X152022731Y-62464818D01*
X151679741Y-62322747D01*
X151315625Y-62250320D01*
X150944375Y-62250320D01*
X150580259Y-62322747D01*
X150237269Y-62464818D01*
X149928587Y-62671074D01*
X149666074Y-62933587D01*
X149459818Y-63242269D01*
X149317747Y-63585259D01*
X149245320Y-63949375D01*
X149204680Y-63949375D01*
X149132253Y-63585259D01*
X148990182Y-63242269D01*
X148783926Y-62933587D01*
X148521413Y-62671074D01*
X148212731Y-62464818D01*
X147869741Y-62322747D01*
X147505625Y-62250320D01*
X147134375Y-62250320D01*
X146770259Y-62322747D01*
X146427269Y-62464818D01*
X146118587Y-62671074D01*
X145856074Y-62933587D01*
X145649818Y-63242269D01*
X145507747Y-63585259D01*
X145435320Y-63949375D01*
X145435320Y-64320625D01*
X145507747Y-64684741D01*
X145649818Y-65027731D01*
X145856074Y-65336413D01*
X146118587Y-65598926D01*
X146427269Y-65805182D01*
X146560001Y-65860161D01*
X146560001Y-66637668D01*
X146556324Y-66675000D01*
X146560001Y-66712333D01*
X146570998Y-66823986D01*
X146577957Y-66846928D01*
X146614454Y-66967246D01*
X146685026Y-67099276D01*
X146739175Y-67165256D01*
X146780000Y-67215001D01*
X146808998Y-67238799D01*
X147982126Y-68411928D01*
X147685000Y-68411928D01*
X147560518Y-68424188D01*
X147440820Y-68460498D01*
X147330506Y-68519463D01*
X147233815Y-68598815D01*
X147154463Y-68695506D01*
X147095498Y-68805820D01*
X147070183Y-68889272D01*
X146986898Y-68854774D01*
X146786939Y-68815000D01*
X146583061Y-68815000D01*
X146383102Y-68854774D01*
X146299817Y-68889272D01*
X146274502Y-68805820D01*
X146215537Y-68695506D01*
X146136185Y-68598815D01*
X146039494Y-68519463D01*
X145929180Y-68460498D01*
X145809482Y-68424188D01*
X145685000Y-68411928D01*
X143725000Y-68411928D01*
X143725000Y-68357998D01*
X143566252Y-68357998D01*
X143725000Y-68199250D01*
X143728072Y-67485000D01*
X143715812Y-67360518D01*
X143679502Y-67240820D01*
X143620537Y-67130506D01*
X143541185Y-67033815D01*
X143444494Y-66954463D01*
X143334180Y-66895498D01*
X143214482Y-66859188D01*
X143090000Y-66846928D01*
X142525750Y-66850000D01*
X142367000Y-67008750D01*
X142367000Y-68358000D01*
X142387000Y-68358000D01*
X142387000Y-68612000D01*
X142367000Y-68612000D01*
X142367000Y-69961250D01*
X142525750Y-70120000D01*
X143046928Y-70122837D01*
X143046928Y-70650000D01*
X143059188Y-70774482D01*
X143081164Y-70846928D01*
X141390000Y-70846928D01*
X141265518Y-70859188D01*
X141145820Y-70895498D01*
X141035506Y-70954463D01*
X140938815Y-71033815D01*
X140859463Y-71130506D01*
X140800498Y-71240820D01*
X140764188Y-71360518D01*
X140751928Y-71485000D01*
X140751928Y-73485000D01*
X140764188Y-73609482D01*
X140800498Y-73729180D01*
X140859463Y-73839494D01*
X140938815Y-73936185D01*
X141035506Y-74015537D01*
X141145820Y-74074502D01*
X141265518Y-74110812D01*
X141390000Y-74123072D01*
X143090000Y-74123072D01*
X143214482Y-74110812D01*
X143334180Y-74074502D01*
X143444494Y-74015537D01*
X143541185Y-73936185D01*
X143620537Y-73839494D01*
X143679502Y-73729180D01*
X143684791Y-73711744D01*
X143695506Y-73720537D01*
X143805820Y-73779502D01*
X143925518Y-73815812D01*
X144050000Y-73828072D01*
X145050000Y-73828072D01*
X145174482Y-73815812D01*
X145294180Y-73779502D01*
X145404494Y-73720537D01*
X145501185Y-73641185D01*
X145580537Y-73544494D01*
X145639502Y-73434180D01*
X145675812Y-73314482D01*
X145688072Y-73190000D01*
X145688072Y-71590000D01*
X145675812Y-71465518D01*
X145639502Y-71345820D01*
X145608635Y-71288072D01*
X145685000Y-71288072D01*
X145809482Y-71275812D01*
X145929180Y-71239502D01*
X146039494Y-71180537D01*
X146136185Y-71101185D01*
X146215537Y-71004494D01*
X146274502Y-70894180D01*
X146299817Y-70810728D01*
X146383102Y-70845226D01*
X146583061Y-70885000D01*
X146786939Y-70885000D01*
X146986898Y-70845226D01*
X147070183Y-70810728D01*
X147095498Y-70894180D01*
X147126365Y-70951928D01*
X147050000Y-70951928D01*
X146925518Y-70964188D01*
X146805820Y-71000498D01*
X146695506Y-71059463D01*
X146598815Y-71138815D01*
X146519463Y-71235506D01*
X146460498Y-71345820D01*
X146424188Y-71465518D01*
X146411928Y-71590000D01*
X146411928Y-73190000D01*
X146424188Y-73314482D01*
X146460498Y-73434180D01*
X146519463Y-73544494D01*
X146598815Y-73641185D01*
X146695506Y-73720537D01*
X146805820Y-73779502D01*
X146925518Y-73815812D01*
X147050000Y-73828072D01*
X148050000Y-73828072D01*
X148174482Y-73815812D01*
X148294180Y-73779502D01*
X148404494Y-73720537D01*
X148501185Y-73641185D01*
X148580537Y-73544494D01*
X148611592Y-73486394D01*
X148661200Y-73536002D01*
X148684999Y-73565001D01*
X148713997Y-73588799D01*
X148800724Y-73659974D01*
X148932753Y-73730546D01*
X149076014Y-73774003D01*
X149225000Y-73788677D01*
X149262333Y-73785000D01*
X150104579Y-73785000D01*
X150072388Y-73891118D01*
X150060128Y-74015600D01*
X150060128Y-74574400D01*
X150072388Y-74698882D01*
X150108698Y-74818580D01*
X150167663Y-74928894D01*
X150168571Y-74930000D01*
X150167663Y-74931106D01*
X150108698Y-75041420D01*
X150072388Y-75161118D01*
X150060128Y-75285600D01*
X150060128Y-75844400D01*
X150072388Y-75968882D01*
X150108698Y-76088580D01*
X150167663Y-76198894D01*
X150168571Y-76200000D01*
X150167663Y-76201106D01*
X150108698Y-76311420D01*
X150072388Y-76431118D01*
X150060128Y-76555600D01*
X150060128Y-77114400D01*
X150072388Y-77238882D01*
X150108698Y-77358580D01*
X150167663Y-77468894D01*
X150168571Y-77470000D01*
X150167663Y-77471106D01*
X150108698Y-77581420D01*
X150072388Y-77701118D01*
X150060128Y-77825600D01*
X150060128Y-78384400D01*
X150072388Y-78508882D01*
X150104579Y-78615000D01*
X149262333Y-78615000D01*
X149225000Y-78611323D01*
X149187667Y-78615000D01*
X149076014Y-78625997D01*
X148932753Y-78669454D01*
X148800724Y-78740026D01*
X148684999Y-78834999D01*
X148661201Y-78863997D01*
X148275199Y-79250000D01*
X145802338Y-79250000D01*
X145829502Y-79199180D01*
X145865812Y-79079482D01*
X145878072Y-78955000D01*
X145878072Y-77255000D01*
X145865812Y-77130518D01*
X145829502Y-77010820D01*
X145770537Y-76900506D01*
X145691185Y-76803815D01*
X145594494Y-76724463D01*
X145484180Y-76665498D01*
X145364482Y-76629188D01*
X145240000Y-76616928D01*
X143240000Y-76616928D01*
X143115518Y-76629188D01*
X142995820Y-76665498D01*
X142885506Y-76724463D01*
X142788815Y-76803815D01*
X142709463Y-76900506D01*
X142650498Y-77010820D01*
X142614188Y-77130518D01*
X142601928Y-77255000D01*
X142601928Y-78955000D01*
X142614188Y-79079482D01*
X142650498Y-79199180D01*
X142677662Y-79250000D01*
X141802338Y-79250000D01*
X141829502Y-79199180D01*
X141865812Y-79079482D01*
X141878072Y-78955000D01*
X141875000Y-78390750D01*
X141716250Y-78232000D01*
X140367000Y-78232000D01*
X140367000Y-78252000D01*
X140113000Y-78252000D01*
X140113000Y-78232000D01*
X138763750Y-78232000D01*
X138605000Y-78390750D01*
X138601928Y-78955000D01*
X138614188Y-79079482D01*
X138650498Y-79199180D01*
X138677662Y-79250000D01*
X136920413Y-79250000D01*
X136885226Y-79073102D01*
X136807205Y-78884744D01*
X136693937Y-78715226D01*
X136549774Y-78571063D01*
X136380256Y-78457795D01*
X136191898Y-78379774D01*
X135991939Y-78340000D01*
X135929802Y-78340000D01*
X134844802Y-77255000D01*
X138601928Y-77255000D01*
X138605000Y-77819250D01*
X138763750Y-77978000D01*
X140113000Y-77978000D01*
X140113000Y-76778750D01*
X140367000Y-76778750D01*
X140367000Y-77978000D01*
X141716250Y-77978000D01*
X141875000Y-77819250D01*
X141878072Y-77255000D01*
X141865812Y-77130518D01*
X141829502Y-77010820D01*
X141770537Y-76900506D01*
X141691185Y-76803815D01*
X141594494Y-76724463D01*
X141484180Y-76665498D01*
X141364482Y-76629188D01*
X141240000Y-76616928D01*
X140525750Y-76620000D01*
X140367000Y-76778750D01*
X140113000Y-76778750D01*
X139954250Y-76620000D01*
X139240000Y-76616928D01*
X139115518Y-76629188D01*
X138995820Y-76665498D01*
X138885506Y-76724463D01*
X138788815Y-76803815D01*
X138709463Y-76900506D01*
X138650498Y-77010820D01*
X138614188Y-77130518D01*
X138601928Y-77255000D01*
X134844802Y-77255000D01*
X129870000Y-72280199D01*
X129870000Y-71613072D01*
X129910000Y-71613072D01*
X130034482Y-71600812D01*
X130154180Y-71564502D01*
X130264494Y-71505537D01*
X130361185Y-71426185D01*
X130440537Y-71329494D01*
X130499502Y-71219180D01*
X130535812Y-71099482D01*
X130548072Y-70975000D01*
X130548072Y-70675000D01*
X130535812Y-70550518D01*
X130520488Y-70500000D01*
X130535812Y-70449482D01*
X130546918Y-70336719D01*
X130896200Y-70686002D01*
X130919999Y-70715001D01*
X131035724Y-70809974D01*
X131071928Y-70829326D01*
X131071928Y-70975000D01*
X131084188Y-71099482D01*
X131120498Y-71219180D01*
X131179463Y-71329494D01*
X131258815Y-71426185D01*
X131355506Y-71505537D01*
X131465820Y-71564502D01*
X131585518Y-71600812D01*
X131710000Y-71613072D01*
X133310000Y-71613072D01*
X133434482Y-71600812D01*
X133486607Y-71585000D01*
X134242678Y-71585000D01*
X134280000Y-71588676D01*
X134317322Y-71585000D01*
X134317333Y-71585000D01*
X134428986Y-71574003D01*
X134572247Y-71530546D01*
X134591977Y-71520000D01*
X134721939Y-71520000D01*
X134921898Y-71480226D01*
X135110256Y-71402205D01*
X135279774Y-71288937D01*
X135322539Y-71246172D01*
X135370506Y-71285537D01*
X135480820Y-71344502D01*
X135564272Y-71369817D01*
X135529774Y-71453102D01*
X135490000Y-71653061D01*
X135490000Y-71856939D01*
X135529774Y-72056898D01*
X135564272Y-72140183D01*
X135480820Y-72165498D01*
X135370506Y-72224463D01*
X135273815Y-72303815D01*
X135194463Y-72400506D01*
X135135498Y-72510820D01*
X135099188Y-72630518D01*
X135086928Y-72755000D01*
X135086928Y-74755000D01*
X135099188Y-74879482D01*
X135135498Y-74999180D01*
X135194463Y-75109494D01*
X135273815Y-75206185D01*
X135370506Y-75285537D01*
X135480820Y-75344502D01*
X135600518Y-75380812D01*
X135725000Y-75393072D01*
X137325000Y-75393072D01*
X137449482Y-75380812D01*
X137569180Y-75344502D01*
X137679494Y-75285537D01*
X137776185Y-75206185D01*
X137795000Y-75183259D01*
X137813815Y-75206185D01*
X137910506Y-75285537D01*
X138020820Y-75344502D01*
X138140518Y-75380812D01*
X138265000Y-75393072D01*
X139865000Y-75393072D01*
X139989482Y-75380812D01*
X140109180Y-75344502D01*
X140219494Y-75285537D01*
X140316185Y-75206185D01*
X140395537Y-75109494D01*
X140454502Y-74999180D01*
X140490812Y-74879482D01*
X140503072Y-74755000D01*
X140503072Y-72755000D01*
X140490812Y-72630518D01*
X140454502Y-72510820D01*
X140395537Y-72400506D01*
X140316185Y-72303815D01*
X140219494Y-72224463D01*
X140109180Y-72165498D01*
X140025728Y-72140183D01*
X140060226Y-72056898D01*
X140100000Y-71856939D01*
X140100000Y-71653061D01*
X140060226Y-71453102D01*
X140025728Y-71369817D01*
X140109180Y-71344502D01*
X140219494Y-71285537D01*
X140316185Y-71206185D01*
X140395537Y-71109494D01*
X140454502Y-70999180D01*
X140490812Y-70879482D01*
X140503072Y-70755000D01*
X140503072Y-69485000D01*
X140751928Y-69485000D01*
X140764188Y-69609482D01*
X140800498Y-69729180D01*
X140859463Y-69839494D01*
X140938815Y-69936185D01*
X141035506Y-70015537D01*
X141145820Y-70074502D01*
X141265518Y-70110812D01*
X141390000Y-70123072D01*
X141954250Y-70120000D01*
X142113000Y-69961250D01*
X142113000Y-68612000D01*
X140913750Y-68612000D01*
X140755000Y-68770750D01*
X140751928Y-69485000D01*
X140503072Y-69485000D01*
X140503072Y-68755000D01*
X140490812Y-68630518D01*
X140454502Y-68510820D01*
X140395537Y-68400506D01*
X140316185Y-68303815D01*
X140219494Y-68224463D01*
X140109180Y-68165498D01*
X139989482Y-68129188D01*
X139865000Y-68116928D01*
X138265000Y-68116928D01*
X138140518Y-68129188D01*
X138020820Y-68165498D01*
X137910506Y-68224463D01*
X137813815Y-68303815D01*
X137795000Y-68326741D01*
X137776185Y-68303815D01*
X137679494Y-68224463D01*
X137569180Y-68165498D01*
X137449482Y-68129188D01*
X137325000Y-68116928D01*
X137285000Y-68116928D01*
X137285000Y-67485000D01*
X140751928Y-67485000D01*
X140755000Y-68199250D01*
X140913750Y-68358000D01*
X142113000Y-68358000D01*
X142113000Y-67008750D01*
X141954250Y-66850000D01*
X141390000Y-66846928D01*
X141265518Y-66859188D01*
X141145820Y-66895498D01*
X141035506Y-66954463D01*
X140938815Y-67033815D01*
X140859463Y-67130506D01*
X140800498Y-67240820D01*
X140764188Y-67360518D01*
X140751928Y-67485000D01*
X137285000Y-67485000D01*
X137285000Y-66258072D01*
X137430000Y-66258072D01*
X137554482Y-66245812D01*
X137674180Y-66209502D01*
X137784494Y-66150537D01*
X137881185Y-66071185D01*
X137960537Y-65974494D01*
X138019502Y-65864180D01*
X138055812Y-65744482D01*
X138068072Y-65620000D01*
X138068072Y-63920000D01*
X138791928Y-63920000D01*
X138791928Y-65620000D01*
X138804188Y-65744482D01*
X138840498Y-65864180D01*
X138899463Y-65974494D01*
X138978815Y-66071185D01*
X139075506Y-66150537D01*
X139185820Y-66209502D01*
X139305518Y-66245812D01*
X139430000Y-66258072D01*
X141430000Y-66258072D01*
X141554482Y-66245812D01*
X141674180Y-66209502D01*
X141784494Y-66150537D01*
X141881185Y-66071185D01*
X141960537Y-65974494D01*
X142019502Y-65864180D01*
X142055812Y-65744482D01*
X142068072Y-65620000D01*
X142068072Y-65530000D01*
X142171289Y-65530000D01*
X142215226Y-65573937D01*
X142384744Y-65687205D01*
X142573102Y-65765226D01*
X142773061Y-65805000D01*
X142976939Y-65805000D01*
X143176898Y-65765226D01*
X143365256Y-65687205D01*
X143534774Y-65573937D01*
X143678937Y-65429774D01*
X143792205Y-65260256D01*
X143870226Y-65071898D01*
X143910000Y-64871939D01*
X143910000Y-64668061D01*
X143870226Y-64468102D01*
X143792205Y-64279744D01*
X143678937Y-64110226D01*
X143534774Y-63966063D01*
X143365256Y-63852795D01*
X143176898Y-63774774D01*
X142976939Y-63735000D01*
X142773061Y-63735000D01*
X142573102Y-63774774D01*
X142384744Y-63852795D01*
X142215226Y-63966063D01*
X142171289Y-64010000D01*
X142068072Y-64010000D01*
X142068072Y-63920000D01*
X142055812Y-63795518D01*
X142019502Y-63675820D01*
X141960537Y-63565506D01*
X141881185Y-63468815D01*
X141784494Y-63389463D01*
X141674180Y-63330498D01*
X141554482Y-63294188D01*
X141430000Y-63281928D01*
X139430000Y-63281928D01*
X139305518Y-63294188D01*
X139185820Y-63330498D01*
X139075506Y-63389463D01*
X138978815Y-63468815D01*
X138899463Y-63565506D01*
X138840498Y-63675820D01*
X138804188Y-63795518D01*
X138791928Y-63920000D01*
X138068072Y-63920000D01*
X138055812Y-63795518D01*
X138019502Y-63675820D01*
X137960537Y-63565506D01*
X137881185Y-63468815D01*
X137784494Y-63389463D01*
X137674180Y-63330498D01*
X137554482Y-63294188D01*
X137430000Y-63281928D01*
X135430000Y-63281928D01*
X135305518Y-63294188D01*
X135185820Y-63330498D01*
X135075506Y-63389463D01*
X134978815Y-63468815D01*
X134899463Y-63565506D01*
X134840498Y-63675820D01*
X134804188Y-63795518D01*
X134791928Y-63920000D01*
X134791928Y-65620000D01*
X134804188Y-65744482D01*
X134840498Y-65864180D01*
X134899463Y-65974494D01*
X134978815Y-66071185D01*
X135075506Y-66150537D01*
X135185820Y-66209502D01*
X135305518Y-66245812D01*
X135430000Y-66258072D01*
X135765001Y-66258072D01*
X135765000Y-68116928D01*
X135725000Y-68116928D01*
X135600518Y-68129188D01*
X135480820Y-68165498D01*
X135370506Y-68224463D01*
X135273815Y-68303815D01*
X135194463Y-68400506D01*
X135135498Y-68510820D01*
X135099188Y-68630518D01*
X135087420Y-68750000D01*
X133948072Y-68750000D01*
X133948072Y-68725000D01*
X133935812Y-68600518D01*
X133899502Y-68480820D01*
X133840537Y-68370506D01*
X133761185Y-68273815D01*
X133664494Y-68194463D01*
X133554180Y-68135498D01*
X133434482Y-68099188D01*
X133310000Y-68086928D01*
X132377874Y-68086928D01*
X132754802Y-67710000D01*
X132816939Y-67710000D01*
X133016898Y-67670226D01*
X133205256Y-67592205D01*
X133374774Y-67478937D01*
X133518937Y-67334774D01*
X133632205Y-67165256D01*
X133710226Y-66976898D01*
X133750000Y-66776939D01*
X133750000Y-66573061D01*
X133710226Y-66373102D01*
X133632205Y-66184744D01*
X133518937Y-66015226D01*
X133374774Y-65871063D01*
X133205256Y-65757795D01*
X133016898Y-65679774D01*
X132816939Y-65640000D01*
X132613061Y-65640000D01*
X132413102Y-65679774D01*
X132224744Y-65757795D01*
X132055226Y-65871063D01*
X131911063Y-66015226D01*
X131797795Y-66184744D01*
X131719774Y-66373102D01*
X131680000Y-66573061D01*
X131680000Y-66635198D01*
X130299003Y-68016196D01*
X130269999Y-68039999D01*
X130242200Y-68073873D01*
X130180208Y-68149410D01*
X130154180Y-68135498D01*
X130034482Y-68099188D01*
X129910000Y-68086928D01*
X129867465Y-68086928D01*
X129859003Y-68001014D01*
X129815546Y-67857753D01*
X129744974Y-67725724D01*
X129729619Y-67707014D01*
X129673799Y-67638996D01*
X129673795Y-67638992D01*
X129650001Y-67609999D01*
X129621008Y-67586205D01*
X129305000Y-67270198D01*
X129305000Y-67208061D01*
X129265226Y-67008102D01*
X129187205Y-66819744D01*
X129073937Y-66650226D01*
X128929774Y-66506063D01*
X128760256Y-66392795D01*
X128571898Y-66314774D01*
X128371939Y-66275000D01*
X128168061Y-66275000D01*
X127968102Y-66314774D01*
X127779744Y-66392795D01*
X127610226Y-66506063D01*
X127466063Y-66650226D01*
X127352795Y-66819744D01*
X127274774Y-67008102D01*
X127235000Y-67208061D01*
X127235000Y-67411939D01*
X127274774Y-67611898D01*
X127352795Y-67800256D01*
X127466063Y-67969774D01*
X127610226Y-68113937D01*
X127779744Y-68227205D01*
X127870037Y-68264606D01*
X127858815Y-68273815D01*
X127779463Y-68370506D01*
X127720498Y-68480820D01*
X127684188Y-68600518D01*
X127671928Y-68725000D01*
X127671928Y-69025000D01*
X127684188Y-69149482D01*
X127699409Y-69199659D01*
X127686020Y-69241642D01*
X127675000Y-69343250D01*
X127729748Y-69397998D01*
X127675000Y-69397998D01*
X127675000Y-69462705D01*
X127652753Y-69469454D01*
X127520724Y-69540026D01*
X127404999Y-69634999D01*
X127381196Y-69664003D01*
X127322201Y-69722998D01*
X127301252Y-69722998D01*
X127460000Y-69564250D01*
X127463072Y-69000000D01*
X127450812Y-68875518D01*
X127414502Y-68755820D01*
X127355537Y-68645506D01*
X127276185Y-68548815D01*
X127179494Y-68469463D01*
X127069180Y-68410498D01*
X126949482Y-68374188D01*
X126825000Y-68361928D01*
X126110750Y-68365000D01*
X125952000Y-68523750D01*
X125952000Y-69723000D01*
X125972000Y-69723000D01*
X125972000Y-69977000D01*
X125952000Y-69977000D01*
X125952000Y-71176250D01*
X126110750Y-71335000D01*
X126825000Y-71338072D01*
X126875000Y-71333148D01*
X126875001Y-72352668D01*
X126871324Y-72390000D01*
X126875001Y-72427332D01*
X126875001Y-72427333D01*
X126885998Y-72538986D01*
X126892050Y-72558937D01*
X126929454Y-72682246D01*
X127000026Y-72814276D01*
X127067361Y-72896323D01*
X127095000Y-72930001D01*
X127123998Y-72953799D01*
X133860000Y-79689802D01*
X133860000Y-79740988D01*
X133840256Y-79727795D01*
X133651898Y-79649774D01*
X133451939Y-79610000D01*
X133389802Y-79610000D01*
X131210000Y-77430199D01*
X131210000Y-77368061D01*
X131170226Y-77168102D01*
X131092205Y-76979744D01*
X130978937Y-76810226D01*
X130834774Y-76666063D01*
X130665256Y-76552795D01*
X130476898Y-76474774D01*
X130276939Y-76435000D01*
X130073061Y-76435000D01*
X129873102Y-76474774D01*
X129684744Y-76552795D01*
X129515226Y-76666063D01*
X129371063Y-76810226D01*
X129257795Y-76979744D01*
X129179774Y-77168102D01*
X129140000Y-77368061D01*
X129140000Y-77571939D01*
X129179774Y-77771898D01*
X129257795Y-77960256D01*
X129371063Y-78129774D01*
X129515226Y-78273937D01*
X129684744Y-78387205D01*
X129873102Y-78465226D01*
X130073061Y-78505000D01*
X130135199Y-78505000D01*
X130245199Y-78615000D01*
X124442865Y-78615000D01*
X124358393Y-78411066D01*
X124135687Y-78077763D01*
X123852237Y-77794313D01*
X123518934Y-77571607D01*
X123148587Y-77418204D01*
X122755430Y-77340000D01*
X122354570Y-77340000D01*
X121961413Y-77418204D01*
X121591066Y-77571607D01*
X121257763Y-77794313D01*
X120974313Y-78077763D01*
X120751607Y-78411066D01*
X120598204Y-78781413D01*
X120520000Y-79174570D01*
X111785000Y-79174570D01*
X111785000Y-69000000D01*
X120186928Y-69000000D01*
X120186928Y-70700000D01*
X120199188Y-70824482D01*
X120235498Y-70944180D01*
X120294463Y-71054494D01*
X120373815Y-71151185D01*
X120470506Y-71230537D01*
X120580820Y-71289502D01*
X120700518Y-71325812D01*
X120825000Y-71338072D01*
X122825000Y-71338072D01*
X122949482Y-71325812D01*
X123069180Y-71289502D01*
X123179494Y-71230537D01*
X123276185Y-71151185D01*
X123355537Y-71054494D01*
X123414502Y-70944180D01*
X123450812Y-70824482D01*
X123451683Y-70815643D01*
X123523102Y-70845226D01*
X123723061Y-70885000D01*
X123926939Y-70885000D01*
X124126898Y-70845226D01*
X124198317Y-70815643D01*
X124199188Y-70824482D01*
X124235498Y-70944180D01*
X124294463Y-71054494D01*
X124373815Y-71151185D01*
X124470506Y-71230537D01*
X124580820Y-71289502D01*
X124700518Y-71325812D01*
X124825000Y-71338072D01*
X125539250Y-71335000D01*
X125698000Y-71176250D01*
X125698000Y-69977000D01*
X125678000Y-69977000D01*
X125678000Y-69723000D01*
X125698000Y-69723000D01*
X125698000Y-68523750D01*
X125539250Y-68365000D01*
X124825000Y-68361928D01*
X124700518Y-68374188D01*
X124580820Y-68410498D01*
X124470506Y-68469463D01*
X124373815Y-68548815D01*
X124294463Y-68645506D01*
X124235498Y-68755820D01*
X124199188Y-68875518D01*
X124198317Y-68884357D01*
X124126898Y-68854774D01*
X123926939Y-68815000D01*
X123723061Y-68815000D01*
X123523102Y-68854774D01*
X123451683Y-68884357D01*
X123450812Y-68875518D01*
X123414502Y-68755820D01*
X123355537Y-68645506D01*
X123276185Y-68548815D01*
X123179494Y-68469463D01*
X123069180Y-68410498D01*
X122949482Y-68374188D01*
X122825000Y-68361928D01*
X120825000Y-68361928D01*
X120700518Y-68374188D01*
X120580820Y-68410498D01*
X120470506Y-68469463D01*
X120373815Y-68548815D01*
X120294463Y-68645506D01*
X120235498Y-68755820D01*
X120199188Y-68875518D01*
X120186928Y-69000000D01*
X111785000Y-69000000D01*
X111785000Y-65680777D01*
X113290000Y-65680777D01*
X113290000Y-66239223D01*
X113398948Y-66786939D01*
X113612656Y-67302876D01*
X113922912Y-67767207D01*
X114317793Y-68162088D01*
X114782124Y-68472344D01*
X115298061Y-68686052D01*
X115845777Y-68795000D01*
X116404223Y-68795000D01*
X116951939Y-68686052D01*
X117467876Y-68472344D01*
X117932207Y-68162088D01*
X118327088Y-67767207D01*
X118637344Y-67302876D01*
X118851052Y-66786939D01*
X118960000Y-66239223D01*
X118960000Y-65680777D01*
X118851052Y-65133061D01*
X118637344Y-64617124D01*
X118327088Y-64152793D01*
X117932207Y-63757912D01*
X117467876Y-63447656D01*
X116951939Y-63233948D01*
X116404223Y-63125000D01*
X115845777Y-63125000D01*
X115298061Y-63233948D01*
X114782124Y-63447656D01*
X114317793Y-63757912D01*
X113922912Y-64152793D01*
X113612656Y-64617124D01*
X113398948Y-65133061D01*
X113290000Y-65680777D01*
X111785000Y-65680777D01*
X111785000Y-61620000D01*
X196825000Y-61620000D01*
X196825001Y-87597572D01*
M02*
