G04 #@! TF.GenerationSoftware,KiCad,Pcbnew,(5.1.5)-2*
G04 #@! TF.CreationDate,2019-12-08T01:27:06+01:00*
G04 #@! TF.ProjectId,tof_sensor,746f665f-7365-46e7-936f-722e6b696361,rev?*
G04 #@! TF.SameCoordinates,Original*
G04 #@! TF.FileFunction,Legend,Top*
G04 #@! TF.FilePolarity,Positive*
%FSLAX46Y46*%
G04 Gerber Fmt 4.6, Leading zero omitted, Abs format (unit mm)*
G04 Created by KiCad (PCBNEW (5.1.5)-2) date 2019-12-08 01:27:06*
%MOMM*%
%LPD*%
G04 APERTURE LIST*
%ADD10C,0.300000*%
%ADD11C,0.120000*%
%ADD12C,0.150000*%
%ADD13C,0.250000*%
%ADD14C,0.100000*%
%ADD15C,0.152400*%
G04 APERTURE END LIST*
D10*
X183741428Y-104818571D02*
X183241428Y-104104285D01*
X182884285Y-104818571D02*
X182884285Y-103318571D01*
X183455714Y-103318571D01*
X183598571Y-103390000D01*
X183670000Y-103461428D01*
X183741428Y-103604285D01*
X183741428Y-103818571D01*
X183670000Y-103961428D01*
X183598571Y-104032857D01*
X183455714Y-104104285D01*
X182884285Y-104104285D01*
X184384285Y-104818571D02*
X184384285Y-103818571D01*
X184384285Y-103318571D02*
X184312857Y-103390000D01*
X184384285Y-103461428D01*
X184455714Y-103390000D01*
X184384285Y-103318571D01*
X184384285Y-103461428D01*
X185741428Y-103818571D02*
X185741428Y-105032857D01*
X185670000Y-105175714D01*
X185598571Y-105247142D01*
X185455714Y-105318571D01*
X185241428Y-105318571D01*
X185098571Y-105247142D01*
X185741428Y-104747142D02*
X185598571Y-104818571D01*
X185312857Y-104818571D01*
X185170000Y-104747142D01*
X185098571Y-104675714D01*
X185027142Y-104532857D01*
X185027142Y-104104285D01*
X185098571Y-103961428D01*
X185170000Y-103890000D01*
X185312857Y-103818571D01*
X185598571Y-103818571D01*
X185741428Y-103890000D01*
X186455714Y-104818571D02*
X186455714Y-103318571D01*
X187098571Y-104818571D02*
X187098571Y-104032857D01*
X187027142Y-103890000D01*
X186884285Y-103818571D01*
X186670000Y-103818571D01*
X186527142Y-103890000D01*
X186455714Y-103961428D01*
X187598571Y-103818571D02*
X188170000Y-103818571D01*
X187812857Y-103318571D02*
X187812857Y-104604285D01*
X187884285Y-104747142D01*
X188027142Y-104818571D01*
X188170000Y-104818571D01*
X121519285Y-104818571D02*
X120805000Y-104818571D01*
X120805000Y-103318571D01*
X122590714Y-104747142D02*
X122447857Y-104818571D01*
X122162142Y-104818571D01*
X122019285Y-104747142D01*
X121947857Y-104604285D01*
X121947857Y-104032857D01*
X122019285Y-103890000D01*
X122162142Y-103818571D01*
X122447857Y-103818571D01*
X122590714Y-103890000D01*
X122662142Y-104032857D01*
X122662142Y-104175714D01*
X121947857Y-104318571D01*
X123090714Y-103818571D02*
X123662142Y-103818571D01*
X123305000Y-104818571D02*
X123305000Y-103532857D01*
X123376428Y-103390000D01*
X123519285Y-103318571D01*
X123662142Y-103318571D01*
X123947857Y-103818571D02*
X124519285Y-103818571D01*
X124162142Y-103318571D02*
X124162142Y-104604285D01*
X124233571Y-104747142D01*
X124376428Y-104818571D01*
X124519285Y-104818571D01*
D11*
X163195000Y-102870000D02*
X179070000Y-102870000D01*
D12*
X175006190Y-103592380D02*
X175339523Y-104592380D01*
X175672857Y-103592380D01*
X176530000Y-104592380D02*
X175958571Y-104592380D01*
X176244285Y-104592380D02*
X176244285Y-103592380D01*
X176149047Y-103735238D01*
X176053809Y-103830476D01*
X175958571Y-103878095D01*
X176958571Y-104497142D02*
X177006190Y-104544761D01*
X176958571Y-104592380D01*
X176910952Y-104544761D01*
X176958571Y-104497142D01*
X176958571Y-104592380D01*
X177625238Y-103592380D02*
X177720476Y-103592380D01*
X177815714Y-103640000D01*
X177863333Y-103687619D01*
X177910952Y-103782857D01*
X177958571Y-103973333D01*
X177958571Y-104211428D01*
X177910952Y-104401904D01*
X177863333Y-104497142D01*
X177815714Y-104544761D01*
X177720476Y-104592380D01*
X177625238Y-104592380D01*
X177530000Y-104544761D01*
X177482380Y-104497142D01*
X177434761Y-104401904D01*
X177387142Y-104211428D01*
X177387142Y-103973333D01*
X177434761Y-103782857D01*
X177482380Y-103687619D01*
X177530000Y-103640000D01*
X177625238Y-103592380D01*
X164385952Y-104592380D02*
X163814523Y-104592380D01*
X164100238Y-104592380D02*
X164100238Y-103592380D01*
X164005000Y-103735238D01*
X163909761Y-103830476D01*
X163814523Y-103878095D01*
X164766904Y-103687619D02*
X164814523Y-103640000D01*
X164909761Y-103592380D01*
X165147857Y-103592380D01*
X165243095Y-103640000D01*
X165290714Y-103687619D01*
X165338333Y-103782857D01*
X165338333Y-103878095D01*
X165290714Y-104020952D01*
X164719285Y-104592380D01*
X165338333Y-104592380D01*
X166481190Y-103544761D02*
X165624047Y-104830476D01*
X166766904Y-103687619D02*
X166814523Y-103640000D01*
X166909761Y-103592380D01*
X167147857Y-103592380D01*
X167243095Y-103640000D01*
X167290714Y-103687619D01*
X167338333Y-103782857D01*
X167338333Y-103878095D01*
X167290714Y-104020952D01*
X166719285Y-104592380D01*
X167338333Y-104592380D01*
X167957380Y-103592380D02*
X168052619Y-103592380D01*
X168147857Y-103640000D01*
X168195476Y-103687619D01*
X168243095Y-103782857D01*
X168290714Y-103973333D01*
X168290714Y-104211428D01*
X168243095Y-104401904D01*
X168195476Y-104497142D01*
X168147857Y-104544761D01*
X168052619Y-104592380D01*
X167957380Y-104592380D01*
X167862142Y-104544761D01*
X167814523Y-104497142D01*
X167766904Y-104401904D01*
X167719285Y-104211428D01*
X167719285Y-103973333D01*
X167766904Y-103782857D01*
X167814523Y-103687619D01*
X167862142Y-103640000D01*
X167957380Y-103592380D01*
X169243095Y-104592380D02*
X168671666Y-104592380D01*
X168957380Y-104592380D02*
X168957380Y-103592380D01*
X168862142Y-103735238D01*
X168766904Y-103830476D01*
X168671666Y-103878095D01*
X169719285Y-104592380D02*
X169909761Y-104592380D01*
X170005000Y-104544761D01*
X170052619Y-104497142D01*
X170147857Y-104354285D01*
X170195476Y-104163809D01*
X170195476Y-103782857D01*
X170147857Y-103687619D01*
X170100238Y-103640000D01*
X170005000Y-103592380D01*
X169814523Y-103592380D01*
X169719285Y-103640000D01*
X169671666Y-103687619D01*
X169624047Y-103782857D01*
X169624047Y-104020952D01*
X169671666Y-104116190D01*
X169719285Y-104163809D01*
X169814523Y-104211428D01*
X170005000Y-104211428D01*
X170100238Y-104163809D01*
X170147857Y-104116190D01*
X170195476Y-104020952D01*
X164306904Y-101528571D02*
X163973571Y-101528571D01*
X163973571Y-102052380D02*
X163973571Y-101052380D01*
X164449761Y-101052380D01*
X164830714Y-102052380D02*
X164830714Y-101385714D01*
X164830714Y-101576190D02*
X164878333Y-101480952D01*
X164925952Y-101433333D01*
X165021190Y-101385714D01*
X165116428Y-101385714D01*
X165878333Y-101385714D02*
X165878333Y-102052380D01*
X165449761Y-101385714D02*
X165449761Y-101909523D01*
X165497380Y-102004761D01*
X165592619Y-102052380D01*
X165735476Y-102052380D01*
X165830714Y-102004761D01*
X165878333Y-101957142D01*
X166306904Y-102004761D02*
X166402142Y-102052380D01*
X166592619Y-102052380D01*
X166687857Y-102004761D01*
X166735476Y-101909523D01*
X166735476Y-101861904D01*
X166687857Y-101766666D01*
X166592619Y-101719047D01*
X166449761Y-101719047D01*
X166354523Y-101671428D01*
X166306904Y-101576190D01*
X166306904Y-101528571D01*
X166354523Y-101433333D01*
X166449761Y-101385714D01*
X166592619Y-101385714D01*
X166687857Y-101433333D01*
X167021190Y-101385714D02*
X167402142Y-101385714D01*
X167164047Y-101052380D02*
X167164047Y-101909523D01*
X167211666Y-102004761D01*
X167306904Y-102052380D01*
X167402142Y-102052380D01*
X167735476Y-102052380D02*
X167735476Y-101385714D01*
X167735476Y-101576190D02*
X167783095Y-101480952D01*
X167830714Y-101433333D01*
X167925952Y-101385714D01*
X168021190Y-101385714D01*
X168783095Y-102052380D02*
X168783095Y-101528571D01*
X168735476Y-101433333D01*
X168640238Y-101385714D01*
X168449761Y-101385714D01*
X168354523Y-101433333D01*
X168783095Y-102004761D02*
X168687857Y-102052380D01*
X168449761Y-102052380D01*
X168354523Y-102004761D01*
X168306904Y-101909523D01*
X168306904Y-101814285D01*
X168354523Y-101719047D01*
X168449761Y-101671428D01*
X168687857Y-101671428D01*
X168783095Y-101623809D01*
X169116428Y-101385714D02*
X169497380Y-101385714D01*
X169259285Y-101052380D02*
X169259285Y-101909523D01*
X169306904Y-102004761D01*
X169402142Y-102052380D01*
X169497380Y-102052380D01*
X169830714Y-102052380D02*
X169830714Y-101385714D01*
X169830714Y-101052380D02*
X169783095Y-101100000D01*
X169830714Y-101147619D01*
X169878333Y-101100000D01*
X169830714Y-101052380D01*
X169830714Y-101147619D01*
X170306904Y-101385714D02*
X170306904Y-102052380D01*
X170306904Y-101480952D02*
X170354523Y-101433333D01*
X170449761Y-101385714D01*
X170592619Y-101385714D01*
X170687857Y-101433333D01*
X170735476Y-101528571D01*
X170735476Y-102052380D01*
X171640238Y-101385714D02*
X171640238Y-102195238D01*
X171592619Y-102290476D01*
X171545000Y-102338095D01*
X171449761Y-102385714D01*
X171306904Y-102385714D01*
X171211666Y-102338095D01*
X171640238Y-102004761D02*
X171545000Y-102052380D01*
X171354523Y-102052380D01*
X171259285Y-102004761D01*
X171211666Y-101957142D01*
X171164047Y-101861904D01*
X171164047Y-101576190D01*
X171211666Y-101480952D01*
X171259285Y-101433333D01*
X171354523Y-101385714D01*
X171545000Y-101385714D01*
X171640238Y-101433333D01*
X173211666Y-101528571D02*
X173354523Y-101576190D01*
X173402142Y-101623809D01*
X173449761Y-101719047D01*
X173449761Y-101861904D01*
X173402142Y-101957142D01*
X173354523Y-102004761D01*
X173259285Y-102052380D01*
X172878333Y-102052380D01*
X172878333Y-101052380D01*
X173211666Y-101052380D01*
X173306904Y-101100000D01*
X173354523Y-101147619D01*
X173402142Y-101242857D01*
X173402142Y-101338095D01*
X173354523Y-101433333D01*
X173306904Y-101480952D01*
X173211666Y-101528571D01*
X172878333Y-101528571D01*
X174021190Y-102052380D02*
X173925952Y-102004761D01*
X173878333Y-101957142D01*
X173830714Y-101861904D01*
X173830714Y-101576190D01*
X173878333Y-101480952D01*
X173925952Y-101433333D01*
X174021190Y-101385714D01*
X174164047Y-101385714D01*
X174259285Y-101433333D01*
X174306904Y-101480952D01*
X174354523Y-101576190D01*
X174354523Y-101861904D01*
X174306904Y-101957142D01*
X174259285Y-102004761D01*
X174164047Y-102052380D01*
X174021190Y-102052380D01*
X174687857Y-102052380D02*
X175211666Y-101385714D01*
X174687857Y-101385714D02*
X175211666Y-102052380D01*
D11*
X163195000Y-100330000D02*
X179070000Y-100330000D01*
D12*
X164022738Y-97052380D02*
X164594166Y-97052380D01*
X164308452Y-98052380D02*
X164308452Y-97052380D01*
X164927500Y-98052380D02*
X164927500Y-97385714D01*
X164927500Y-97052380D02*
X164879880Y-97100000D01*
X164927500Y-97147619D01*
X164975119Y-97100000D01*
X164927500Y-97052380D01*
X164927500Y-97147619D01*
X165403690Y-98052380D02*
X165403690Y-97385714D01*
X165403690Y-97480952D02*
X165451309Y-97433333D01*
X165546547Y-97385714D01*
X165689404Y-97385714D01*
X165784642Y-97433333D01*
X165832261Y-97528571D01*
X165832261Y-98052380D01*
X165832261Y-97528571D02*
X165879880Y-97433333D01*
X165975119Y-97385714D01*
X166117976Y-97385714D01*
X166213214Y-97433333D01*
X166260833Y-97528571D01*
X166260833Y-98052380D01*
X167117976Y-98004761D02*
X167022738Y-98052380D01*
X166832261Y-98052380D01*
X166737023Y-98004761D01*
X166689404Y-97909523D01*
X166689404Y-97528571D01*
X166737023Y-97433333D01*
X166832261Y-97385714D01*
X167022738Y-97385714D01*
X167117976Y-97433333D01*
X167165595Y-97528571D01*
X167165595Y-97623809D01*
X166689404Y-97719047D01*
X168546547Y-97052380D02*
X168737023Y-97052380D01*
X168832261Y-97100000D01*
X168927500Y-97195238D01*
X168975119Y-97385714D01*
X168975119Y-97719047D01*
X168927500Y-97909523D01*
X168832261Y-98004761D01*
X168737023Y-98052380D01*
X168546547Y-98052380D01*
X168451309Y-98004761D01*
X168356071Y-97909523D01*
X168308452Y-97719047D01*
X168308452Y-97385714D01*
X168356071Y-97195238D01*
X168451309Y-97100000D01*
X168546547Y-97052380D01*
X169260833Y-97385714D02*
X169641785Y-97385714D01*
X169403690Y-98052380D02*
X169403690Y-97195238D01*
X169451309Y-97100000D01*
X169546547Y-97052380D01*
X169641785Y-97052380D01*
X171070357Y-97528571D02*
X170737023Y-97528571D01*
X170737023Y-98052380D02*
X170737023Y-97052380D01*
X171213214Y-97052380D01*
X171737023Y-98052380D02*
X171641785Y-98004761D01*
X171594166Y-97909523D01*
X171594166Y-97052380D01*
X172117976Y-98052380D02*
X172117976Y-97385714D01*
X172117976Y-97052380D02*
X172070357Y-97100000D01*
X172117976Y-97147619D01*
X172165595Y-97100000D01*
X172117976Y-97052380D01*
X172117976Y-97147619D01*
X173022738Y-97385714D02*
X173022738Y-98195238D01*
X172975119Y-98290476D01*
X172927500Y-98338095D01*
X172832261Y-98385714D01*
X172689404Y-98385714D01*
X172594166Y-98338095D01*
X173022738Y-98004761D02*
X172927500Y-98052380D01*
X172737023Y-98052380D01*
X172641785Y-98004761D01*
X172594166Y-97957142D01*
X172546547Y-97861904D01*
X172546547Y-97576190D01*
X172594166Y-97480952D01*
X172641785Y-97433333D01*
X172737023Y-97385714D01*
X172927500Y-97385714D01*
X173022738Y-97433333D01*
X173498928Y-98052380D02*
X173498928Y-97052380D01*
X173927500Y-98052380D02*
X173927500Y-97528571D01*
X173879880Y-97433333D01*
X173784642Y-97385714D01*
X173641785Y-97385714D01*
X173546547Y-97433333D01*
X173498928Y-97480952D01*
X174260833Y-97385714D02*
X174641785Y-97385714D01*
X174403690Y-97052380D02*
X174403690Y-97909523D01*
X174451309Y-98004761D01*
X174546547Y-98052380D01*
X174641785Y-98052380D01*
X164594166Y-99702380D02*
X164594166Y-98702380D01*
X164594166Y-99654761D02*
X164498928Y-99702380D01*
X164308452Y-99702380D01*
X164213214Y-99654761D01*
X164165595Y-99607142D01*
X164117976Y-99511904D01*
X164117976Y-99226190D01*
X164165595Y-99130952D01*
X164213214Y-99083333D01*
X164308452Y-99035714D01*
X164498928Y-99035714D01*
X164594166Y-99083333D01*
X165070357Y-99702380D02*
X165070357Y-99035714D01*
X165070357Y-98702380D02*
X165022738Y-98750000D01*
X165070357Y-98797619D01*
X165117976Y-98750000D01*
X165070357Y-98702380D01*
X165070357Y-98797619D01*
X165498928Y-99654761D02*
X165594166Y-99702380D01*
X165784642Y-99702380D01*
X165879880Y-99654761D01*
X165927500Y-99559523D01*
X165927500Y-99511904D01*
X165879880Y-99416666D01*
X165784642Y-99369047D01*
X165641785Y-99369047D01*
X165546547Y-99321428D01*
X165498928Y-99226190D01*
X165498928Y-99178571D01*
X165546547Y-99083333D01*
X165641785Y-99035714D01*
X165784642Y-99035714D01*
X165879880Y-99083333D01*
X166213214Y-99035714D02*
X166594166Y-99035714D01*
X166356071Y-98702380D02*
X166356071Y-99559523D01*
X166403690Y-99654761D01*
X166498928Y-99702380D01*
X166594166Y-99702380D01*
X167356071Y-99702380D02*
X167356071Y-99178571D01*
X167308452Y-99083333D01*
X167213214Y-99035714D01*
X167022738Y-99035714D01*
X166927500Y-99083333D01*
X167356071Y-99654761D02*
X167260833Y-99702380D01*
X167022738Y-99702380D01*
X166927500Y-99654761D01*
X166879880Y-99559523D01*
X166879880Y-99464285D01*
X166927500Y-99369047D01*
X167022738Y-99321428D01*
X167260833Y-99321428D01*
X167356071Y-99273809D01*
X167832261Y-99035714D02*
X167832261Y-99702380D01*
X167832261Y-99130952D02*
X167879880Y-99083333D01*
X167975119Y-99035714D01*
X168117976Y-99035714D01*
X168213214Y-99083333D01*
X168260833Y-99178571D01*
X168260833Y-99702380D01*
X169165595Y-99654761D02*
X169070357Y-99702380D01*
X168879880Y-99702380D01*
X168784642Y-99654761D01*
X168737023Y-99607142D01*
X168689404Y-99511904D01*
X168689404Y-99226190D01*
X168737023Y-99130952D01*
X168784642Y-99083333D01*
X168879880Y-99035714D01*
X169070357Y-99035714D01*
X169165595Y-99083333D01*
X169975119Y-99654761D02*
X169879880Y-99702380D01*
X169689404Y-99702380D01*
X169594166Y-99654761D01*
X169546547Y-99559523D01*
X169546547Y-99178571D01*
X169594166Y-99083333D01*
X169689404Y-99035714D01*
X169879880Y-99035714D01*
X169975119Y-99083333D01*
X170022738Y-99178571D01*
X170022738Y-99273809D01*
X169546547Y-99369047D01*
X171165595Y-99654761D02*
X171260833Y-99702380D01*
X171451309Y-99702380D01*
X171546547Y-99654761D01*
X171594166Y-99559523D01*
X171594166Y-99511904D01*
X171546547Y-99416666D01*
X171451309Y-99369047D01*
X171308452Y-99369047D01*
X171213214Y-99321428D01*
X171165595Y-99226190D01*
X171165595Y-99178571D01*
X171213214Y-99083333D01*
X171308452Y-99035714D01*
X171451309Y-99035714D01*
X171546547Y-99083333D01*
X172403690Y-99654761D02*
X172308452Y-99702380D01*
X172117976Y-99702380D01*
X172022738Y-99654761D01*
X171975119Y-99559523D01*
X171975119Y-99178571D01*
X172022738Y-99083333D01*
X172117976Y-99035714D01*
X172308452Y-99035714D01*
X172403690Y-99083333D01*
X172451309Y-99178571D01*
X172451309Y-99273809D01*
X171975119Y-99369047D01*
X172879880Y-99035714D02*
X172879880Y-99702380D01*
X172879880Y-99130952D02*
X172927500Y-99083333D01*
X173022738Y-99035714D01*
X173165595Y-99035714D01*
X173260833Y-99083333D01*
X173308452Y-99178571D01*
X173308452Y-99702380D01*
X173737023Y-99654761D02*
X173832261Y-99702380D01*
X174022738Y-99702380D01*
X174117976Y-99654761D01*
X174165595Y-99559523D01*
X174165595Y-99511904D01*
X174117976Y-99416666D01*
X174022738Y-99369047D01*
X173879880Y-99369047D01*
X173784642Y-99321428D01*
X173737023Y-99226190D01*
X173737023Y-99178571D01*
X173784642Y-99083333D01*
X173879880Y-99035714D01*
X174022738Y-99035714D01*
X174117976Y-99083333D01*
X174737023Y-99702380D02*
X174641785Y-99654761D01*
X174594166Y-99607142D01*
X174546547Y-99511904D01*
X174546547Y-99226190D01*
X174594166Y-99130952D01*
X174641785Y-99083333D01*
X174737023Y-99035714D01*
X174879880Y-99035714D01*
X174975119Y-99083333D01*
X175022738Y-99130952D01*
X175070357Y-99226190D01*
X175070357Y-99511904D01*
X175022738Y-99607142D01*
X174975119Y-99654761D01*
X174879880Y-99702380D01*
X174737023Y-99702380D01*
X175498928Y-99702380D02*
X175498928Y-99035714D01*
X175498928Y-99226190D02*
X175546547Y-99130952D01*
X175594166Y-99083333D01*
X175689404Y-99035714D01*
X175784642Y-99035714D01*
D11*
X163195000Y-105410000D02*
X163195000Y-96520000D01*
X179070000Y-105410000D02*
X163195000Y-105410000D01*
X179070000Y-96520000D02*
X179070000Y-105410000D01*
X163195000Y-96520000D02*
X179070000Y-96520000D01*
D13*
X120864523Y-83002380D02*
X120864523Y-82002380D01*
X121340714Y-83002380D02*
X121340714Y-82002380D01*
X121912142Y-83002380D01*
X121912142Y-82002380D01*
X122245476Y-82002380D02*
X122816904Y-82002380D01*
X122531190Y-83002380D02*
X122531190Y-82002380D01*
X122912142Y-83097619D02*
X123674047Y-83097619D01*
X124388333Y-83002380D02*
X123912142Y-83002380D01*
X123912142Y-82002380D01*
X119531190Y-89622380D02*
X120197857Y-90622380D01*
X120197857Y-89622380D02*
X119531190Y-90622380D01*
X120531190Y-90574761D02*
X120674047Y-90622380D01*
X120912142Y-90622380D01*
X121007380Y-90574761D01*
X121055000Y-90527142D01*
X121102619Y-90431904D01*
X121102619Y-90336666D01*
X121055000Y-90241428D01*
X121007380Y-90193809D01*
X120912142Y-90146190D01*
X120721666Y-90098571D01*
X120626428Y-90050952D01*
X120578809Y-90003333D01*
X120531190Y-89908095D01*
X120531190Y-89812857D01*
X120578809Y-89717619D01*
X120626428Y-89670000D01*
X120721666Y-89622380D01*
X120959761Y-89622380D01*
X121102619Y-89670000D01*
X121531190Y-90622380D02*
X121531190Y-89622380D01*
X121531190Y-90098571D02*
X122102619Y-90098571D01*
X122102619Y-90622380D02*
X122102619Y-89622380D01*
X122578809Y-89622380D02*
X122578809Y-90431904D01*
X122626428Y-90527142D01*
X122674047Y-90574761D01*
X122769285Y-90622380D01*
X122959761Y-90622380D01*
X123055000Y-90574761D01*
X123102619Y-90527142D01*
X123150238Y-90431904D01*
X123150238Y-89622380D01*
X123483571Y-89622380D02*
X124055000Y-89622380D01*
X123769285Y-90622380D02*
X123769285Y-89622380D01*
X124150238Y-90717619D02*
X124912142Y-90717619D01*
X125626428Y-90622380D02*
X125150238Y-90622380D01*
X125150238Y-89622380D01*
D10*
X135131428Y-99130714D02*
X135302857Y-99187857D01*
X135588571Y-99187857D01*
X135702857Y-99130714D01*
X135760000Y-99073571D01*
X135817142Y-98959285D01*
X135817142Y-98845000D01*
X135760000Y-98730714D01*
X135702857Y-98673571D01*
X135588571Y-98616428D01*
X135360000Y-98559285D01*
X135245714Y-98502142D01*
X135188571Y-98445000D01*
X135131428Y-98330714D01*
X135131428Y-98216428D01*
X135188571Y-98102142D01*
X135245714Y-98045000D01*
X135360000Y-97987857D01*
X135645714Y-97987857D01*
X135817142Y-98045000D01*
X136331428Y-99187857D02*
X136331428Y-97987857D01*
X136617142Y-97987857D01*
X136788571Y-98045000D01*
X136902857Y-98159285D01*
X136960000Y-98273571D01*
X137017142Y-98502142D01*
X137017142Y-98673571D01*
X136960000Y-98902142D01*
X136902857Y-99016428D01*
X136788571Y-99130714D01*
X136617142Y-99187857D01*
X136331428Y-99187857D01*
X137474285Y-98845000D02*
X138045714Y-98845000D01*
X137360000Y-99187857D02*
X137760000Y-97987857D01*
X138160000Y-99187857D01*
X138502857Y-98102142D02*
X138560000Y-98045000D01*
X138674285Y-97987857D01*
X138960000Y-97987857D01*
X139074285Y-98045000D01*
X139131428Y-98102142D01*
X139188571Y-98216428D01*
X139188571Y-98330714D01*
X139131428Y-98502142D01*
X138445714Y-99187857D01*
X139188571Y-99187857D01*
X135445714Y-100202142D02*
X135502857Y-100145000D01*
X135617142Y-100087857D01*
X135902857Y-100087857D01*
X136017142Y-100145000D01*
X136074285Y-100202142D01*
X136131428Y-100316428D01*
X136131428Y-100430714D01*
X136074285Y-100602142D01*
X135388571Y-101287857D01*
X136131428Y-101287857D01*
X136645714Y-101173571D02*
X136702857Y-101230714D01*
X136645714Y-101287857D01*
X136588571Y-101230714D01*
X136645714Y-101173571D01*
X136645714Y-101287857D01*
X137388571Y-100602142D02*
X137274285Y-100545000D01*
X137217142Y-100487857D01*
X137160000Y-100373571D01*
X137160000Y-100316428D01*
X137217142Y-100202142D01*
X137274285Y-100145000D01*
X137388571Y-100087857D01*
X137617142Y-100087857D01*
X137731428Y-100145000D01*
X137788571Y-100202142D01*
X137845714Y-100316428D01*
X137845714Y-100373571D01*
X137788571Y-100487857D01*
X137731428Y-100545000D01*
X137617142Y-100602142D01*
X137388571Y-100602142D01*
X137274285Y-100659285D01*
X137217142Y-100716428D01*
X137160000Y-100830714D01*
X137160000Y-101059285D01*
X137217142Y-101173571D01*
X137274285Y-101230714D01*
X137388571Y-101287857D01*
X137617142Y-101287857D01*
X137731428Y-101230714D01*
X137788571Y-101173571D01*
X137845714Y-101059285D01*
X137845714Y-100830714D01*
X137788571Y-100716428D01*
X137731428Y-100659285D01*
X137617142Y-100602142D01*
X138188571Y-100087857D02*
X138588571Y-101287857D01*
X138988571Y-100087857D01*
X130080000Y-99130714D02*
X130251428Y-99187857D01*
X130537142Y-99187857D01*
X130651428Y-99130714D01*
X130708571Y-99073571D01*
X130765714Y-98959285D01*
X130765714Y-98845000D01*
X130708571Y-98730714D01*
X130651428Y-98673571D01*
X130537142Y-98616428D01*
X130308571Y-98559285D01*
X130194285Y-98502142D01*
X130137142Y-98445000D01*
X130080000Y-98330714D01*
X130080000Y-98216428D01*
X130137142Y-98102142D01*
X130194285Y-98045000D01*
X130308571Y-97987857D01*
X130594285Y-97987857D01*
X130765714Y-98045000D01*
X131965714Y-99073571D02*
X131908571Y-99130714D01*
X131737142Y-99187857D01*
X131622857Y-99187857D01*
X131451428Y-99130714D01*
X131337142Y-99016428D01*
X131280000Y-98902142D01*
X131222857Y-98673571D01*
X131222857Y-98502142D01*
X131280000Y-98273571D01*
X131337142Y-98159285D01*
X131451428Y-98045000D01*
X131622857Y-97987857D01*
X131737142Y-97987857D01*
X131908571Y-98045000D01*
X131965714Y-98102142D01*
X133051428Y-99187857D02*
X132480000Y-99187857D01*
X132480000Y-97987857D01*
X133394285Y-98102142D02*
X133451428Y-98045000D01*
X133565714Y-97987857D01*
X133851428Y-97987857D01*
X133965714Y-98045000D01*
X134022857Y-98102142D01*
X134080000Y-98216428D01*
X134080000Y-98330714D01*
X134022857Y-98502142D01*
X133337142Y-99187857D01*
X134080000Y-99187857D01*
X130365714Y-100202142D02*
X130422857Y-100145000D01*
X130537142Y-100087857D01*
X130822857Y-100087857D01*
X130937142Y-100145000D01*
X130994285Y-100202142D01*
X131051428Y-100316428D01*
X131051428Y-100430714D01*
X130994285Y-100602142D01*
X130308571Y-101287857D01*
X131051428Y-101287857D01*
X131565714Y-101173571D02*
X131622857Y-101230714D01*
X131565714Y-101287857D01*
X131508571Y-101230714D01*
X131565714Y-101173571D01*
X131565714Y-101287857D01*
X132308571Y-100602142D02*
X132194285Y-100545000D01*
X132137142Y-100487857D01*
X132080000Y-100373571D01*
X132080000Y-100316428D01*
X132137142Y-100202142D01*
X132194285Y-100145000D01*
X132308571Y-100087857D01*
X132537142Y-100087857D01*
X132651428Y-100145000D01*
X132708571Y-100202142D01*
X132765714Y-100316428D01*
X132765714Y-100373571D01*
X132708571Y-100487857D01*
X132651428Y-100545000D01*
X132537142Y-100602142D01*
X132308571Y-100602142D01*
X132194285Y-100659285D01*
X132137142Y-100716428D01*
X132080000Y-100830714D01*
X132080000Y-101059285D01*
X132137142Y-101173571D01*
X132194285Y-101230714D01*
X132308571Y-101287857D01*
X132537142Y-101287857D01*
X132651428Y-101230714D01*
X132708571Y-101173571D01*
X132765714Y-101059285D01*
X132765714Y-100830714D01*
X132708571Y-100716428D01*
X132651428Y-100659285D01*
X132537142Y-100602142D01*
X133108571Y-100087857D02*
X133508571Y-101287857D01*
X133908571Y-100087857D01*
X161645714Y-66075000D02*
X161531428Y-66017857D01*
X161360000Y-66017857D01*
X161188571Y-66075000D01*
X161074285Y-66189285D01*
X161017142Y-66303571D01*
X160960000Y-66532142D01*
X160960000Y-66703571D01*
X161017142Y-66932142D01*
X161074285Y-67046428D01*
X161188571Y-67160714D01*
X161360000Y-67217857D01*
X161474285Y-67217857D01*
X161645714Y-67160714D01*
X161702857Y-67103571D01*
X161702857Y-66703571D01*
X161474285Y-66703571D01*
X162217142Y-67217857D02*
X162217142Y-66017857D01*
X162902857Y-67217857D01*
X162902857Y-66017857D01*
X163474285Y-67217857D02*
X163474285Y-66017857D01*
X163760000Y-66017857D01*
X163931428Y-66075000D01*
X164045714Y-66189285D01*
X164102857Y-66303571D01*
X164160000Y-66532142D01*
X164160000Y-66703571D01*
X164102857Y-66932142D01*
X164045714Y-67046428D01*
X163931428Y-67160714D01*
X163760000Y-67217857D01*
X163474285Y-67217857D01*
X157664285Y-67217857D02*
X157664285Y-66017857D01*
X158235714Y-67217857D02*
X158235714Y-66017857D01*
X158921428Y-67217857D01*
X158921428Y-66017857D01*
X159321428Y-66017857D02*
X160007142Y-66017857D01*
X159664285Y-67217857D02*
X159664285Y-66017857D01*
X153482857Y-67160714D02*
X153654285Y-67217857D01*
X153940000Y-67217857D01*
X154054285Y-67160714D01*
X154111428Y-67103571D01*
X154168571Y-66989285D01*
X154168571Y-66875000D01*
X154111428Y-66760714D01*
X154054285Y-66703571D01*
X153940000Y-66646428D01*
X153711428Y-66589285D01*
X153597142Y-66532142D01*
X153540000Y-66475000D01*
X153482857Y-66360714D01*
X153482857Y-66246428D01*
X153540000Y-66132142D01*
X153597142Y-66075000D01*
X153711428Y-66017857D01*
X153997142Y-66017857D01*
X154168571Y-66075000D01*
X154682857Y-67217857D02*
X154682857Y-66017857D01*
X154968571Y-66017857D01*
X155140000Y-66075000D01*
X155254285Y-66189285D01*
X155311428Y-66303571D01*
X155368571Y-66532142D01*
X155368571Y-66703571D01*
X155311428Y-66932142D01*
X155254285Y-67046428D01*
X155140000Y-67160714D01*
X154968571Y-67217857D01*
X154682857Y-67217857D01*
X155825714Y-66875000D02*
X156397142Y-66875000D01*
X155711428Y-67217857D02*
X156111428Y-66017857D01*
X156511428Y-67217857D01*
X149701428Y-67160714D02*
X149872857Y-67217857D01*
X150158571Y-67217857D01*
X150272857Y-67160714D01*
X150330000Y-67103571D01*
X150387142Y-66989285D01*
X150387142Y-66875000D01*
X150330000Y-66760714D01*
X150272857Y-66703571D01*
X150158571Y-66646428D01*
X149930000Y-66589285D01*
X149815714Y-66532142D01*
X149758571Y-66475000D01*
X149701428Y-66360714D01*
X149701428Y-66246428D01*
X149758571Y-66132142D01*
X149815714Y-66075000D01*
X149930000Y-66017857D01*
X150215714Y-66017857D01*
X150387142Y-66075000D01*
X151587142Y-67103571D02*
X151530000Y-67160714D01*
X151358571Y-67217857D01*
X151244285Y-67217857D01*
X151072857Y-67160714D01*
X150958571Y-67046428D01*
X150901428Y-66932142D01*
X150844285Y-66703571D01*
X150844285Y-66532142D01*
X150901428Y-66303571D01*
X150958571Y-66189285D01*
X151072857Y-66075000D01*
X151244285Y-66017857D01*
X151358571Y-66017857D01*
X151530000Y-66075000D01*
X151587142Y-66132142D01*
X152672857Y-67217857D02*
X152101428Y-67217857D01*
X152101428Y-66017857D01*
X145720000Y-66017857D02*
X146120000Y-67217857D01*
X146520000Y-66017857D01*
X147605714Y-67103571D02*
X147548571Y-67160714D01*
X147377142Y-67217857D01*
X147262857Y-67217857D01*
X147091428Y-67160714D01*
X146977142Y-67046428D01*
X146920000Y-66932142D01*
X146862857Y-66703571D01*
X146862857Y-66532142D01*
X146920000Y-66303571D01*
X146977142Y-66189285D01*
X147091428Y-66075000D01*
X147262857Y-66017857D01*
X147377142Y-66017857D01*
X147548571Y-66075000D01*
X147605714Y-66132142D01*
X148805714Y-67103571D02*
X148748571Y-67160714D01*
X148577142Y-67217857D01*
X148462857Y-67217857D01*
X148291428Y-67160714D01*
X148177142Y-67046428D01*
X148120000Y-66932142D01*
X148062857Y-66703571D01*
X148062857Y-66532142D01*
X148120000Y-66303571D01*
X148177142Y-66189285D01*
X148291428Y-66075000D01*
X148462857Y-66017857D01*
X148577142Y-66017857D01*
X148748571Y-66075000D01*
X148805714Y-66132142D01*
D13*
X184205952Y-95972380D02*
X184872619Y-96972380D01*
X184872619Y-95972380D02*
X184205952Y-96972380D01*
X185205952Y-96924761D02*
X185348809Y-96972380D01*
X185586904Y-96972380D01*
X185682142Y-96924761D01*
X185729761Y-96877142D01*
X185777380Y-96781904D01*
X185777380Y-96686666D01*
X185729761Y-96591428D01*
X185682142Y-96543809D01*
X185586904Y-96496190D01*
X185396428Y-96448571D01*
X185301190Y-96400952D01*
X185253571Y-96353333D01*
X185205952Y-96258095D01*
X185205952Y-96162857D01*
X185253571Y-96067619D01*
X185301190Y-96020000D01*
X185396428Y-95972380D01*
X185634523Y-95972380D01*
X185777380Y-96020000D01*
X186205952Y-96972380D02*
X186205952Y-95972380D01*
X186205952Y-96448571D02*
X186777380Y-96448571D01*
X186777380Y-96972380D02*
X186777380Y-95972380D01*
X187253571Y-95972380D02*
X187253571Y-96781904D01*
X187301190Y-96877142D01*
X187348809Y-96924761D01*
X187444047Y-96972380D01*
X187634523Y-96972380D01*
X187729761Y-96924761D01*
X187777380Y-96877142D01*
X187825000Y-96781904D01*
X187825000Y-95972380D01*
X188158333Y-95972380D02*
X188729761Y-95972380D01*
X188444047Y-96972380D02*
X188444047Y-95972380D01*
X188825000Y-97067619D02*
X189586904Y-97067619D01*
X190396428Y-96972380D02*
X190063095Y-96496190D01*
X189825000Y-96972380D02*
X189825000Y-95972380D01*
X190205952Y-95972380D01*
X190301190Y-96020000D01*
X190348809Y-96067619D01*
X190396428Y-96162857D01*
X190396428Y-96305714D01*
X190348809Y-96400952D01*
X190301190Y-96448571D01*
X190205952Y-96496190D01*
X189825000Y-96496190D01*
X179824285Y-96972380D02*
X179824285Y-95972380D01*
X180300476Y-96972380D02*
X180300476Y-95972380D01*
X180871904Y-96972380D01*
X180871904Y-95972380D01*
X181205238Y-95972380D02*
X181776666Y-95972380D01*
X181490952Y-96972380D02*
X181490952Y-95972380D01*
X181871904Y-97067619D02*
X182633809Y-97067619D01*
X183443333Y-96972380D02*
X183110000Y-96496190D01*
X182871904Y-96972380D02*
X182871904Y-95972380D01*
X183252857Y-95972380D01*
X183348095Y-96020000D01*
X183395714Y-96067619D01*
X183443333Y-96162857D01*
X183443333Y-96305714D01*
X183395714Y-96400952D01*
X183348095Y-96448571D01*
X183252857Y-96496190D01*
X182871904Y-96496190D01*
D10*
X176570000Y-89507142D02*
X176784285Y-89578571D01*
X177141428Y-89578571D01*
X177284285Y-89507142D01*
X177355714Y-89435714D01*
X177427142Y-89292857D01*
X177427142Y-89150000D01*
X177355714Y-89007142D01*
X177284285Y-88935714D01*
X177141428Y-88864285D01*
X176855714Y-88792857D01*
X176712857Y-88721428D01*
X176641428Y-88650000D01*
X176570000Y-88507142D01*
X176570000Y-88364285D01*
X176641428Y-88221428D01*
X176712857Y-88150000D01*
X176855714Y-88078571D01*
X177212857Y-88078571D01*
X177427142Y-88150000D01*
X178927142Y-89435714D02*
X178855714Y-89507142D01*
X178641428Y-89578571D01*
X178498571Y-89578571D01*
X178284285Y-89507142D01*
X178141428Y-89364285D01*
X178070000Y-89221428D01*
X177998571Y-88935714D01*
X177998571Y-88721428D01*
X178070000Y-88435714D01*
X178141428Y-88292857D01*
X178284285Y-88150000D01*
X178498571Y-88078571D01*
X178641428Y-88078571D01*
X178855714Y-88150000D01*
X178927142Y-88221428D01*
X180284285Y-89578571D02*
X179570000Y-89578571D01*
X179570000Y-88078571D01*
X181570000Y-89578571D02*
X180712857Y-89578571D01*
X181141428Y-89578571D02*
X181141428Y-88078571D01*
X180998571Y-88292857D01*
X180855714Y-88435714D01*
X180712857Y-88507142D01*
X176534285Y-81887142D02*
X176748571Y-81958571D01*
X177105714Y-81958571D01*
X177248571Y-81887142D01*
X177320000Y-81815714D01*
X177391428Y-81672857D01*
X177391428Y-81530000D01*
X177320000Y-81387142D01*
X177248571Y-81315714D01*
X177105714Y-81244285D01*
X176820000Y-81172857D01*
X176677142Y-81101428D01*
X176605714Y-81030000D01*
X176534285Y-80887142D01*
X176534285Y-80744285D01*
X176605714Y-80601428D01*
X176677142Y-80530000D01*
X176820000Y-80458571D01*
X177177142Y-80458571D01*
X177391428Y-80530000D01*
X178034285Y-81958571D02*
X178034285Y-80458571D01*
X178391428Y-80458571D01*
X178605714Y-80530000D01*
X178748571Y-80672857D01*
X178820000Y-80815714D01*
X178891428Y-81101428D01*
X178891428Y-81315714D01*
X178820000Y-81601428D01*
X178748571Y-81744285D01*
X178605714Y-81887142D01*
X178391428Y-81958571D01*
X178034285Y-81958571D01*
X179462857Y-81530000D02*
X180177142Y-81530000D01*
X179320000Y-81958571D02*
X179820000Y-80458571D01*
X180320000Y-81958571D01*
X181605714Y-81958571D02*
X180748571Y-81958571D01*
X181177142Y-81958571D02*
X181177142Y-80458571D01*
X181034285Y-80672857D01*
X180891428Y-80815714D01*
X180748571Y-80887142D01*
X172482142Y-92666428D02*
X172553571Y-92595000D01*
X172696428Y-92523571D01*
X173053571Y-92523571D01*
X173196428Y-92595000D01*
X173267857Y-92666428D01*
X173339285Y-92809285D01*
X173339285Y-92952142D01*
X173267857Y-93166428D01*
X172410714Y-94023571D01*
X173339285Y-94023571D01*
X173982142Y-93880714D02*
X174053571Y-93952142D01*
X173982142Y-94023571D01*
X173910714Y-93952142D01*
X173982142Y-93880714D01*
X173982142Y-94023571D01*
X174910714Y-93166428D02*
X174767857Y-93095000D01*
X174696428Y-93023571D01*
X174625000Y-92880714D01*
X174625000Y-92809285D01*
X174696428Y-92666428D01*
X174767857Y-92595000D01*
X174910714Y-92523571D01*
X175196428Y-92523571D01*
X175339285Y-92595000D01*
X175410714Y-92666428D01*
X175482142Y-92809285D01*
X175482142Y-92880714D01*
X175410714Y-93023571D01*
X175339285Y-93095000D01*
X175196428Y-93166428D01*
X174910714Y-93166428D01*
X174767857Y-93237857D01*
X174696428Y-93309285D01*
X174625000Y-93452142D01*
X174625000Y-93737857D01*
X174696428Y-93880714D01*
X174767857Y-93952142D01*
X174910714Y-94023571D01*
X175196428Y-94023571D01*
X175339285Y-93952142D01*
X175410714Y-93880714D01*
X175482142Y-93737857D01*
X175482142Y-93452142D01*
X175410714Y-93309285D01*
X175339285Y-93237857D01*
X175196428Y-93166428D01*
X175910714Y-92523571D02*
X176410714Y-94023571D01*
X176910714Y-92523571D01*
X161417142Y-92595000D02*
X161274285Y-92523571D01*
X161060000Y-92523571D01*
X160845714Y-92595000D01*
X160702857Y-92737857D01*
X160631428Y-92880714D01*
X160560000Y-93166428D01*
X160560000Y-93380714D01*
X160631428Y-93666428D01*
X160702857Y-93809285D01*
X160845714Y-93952142D01*
X161060000Y-94023571D01*
X161202857Y-94023571D01*
X161417142Y-93952142D01*
X161488571Y-93880714D01*
X161488571Y-93380714D01*
X161202857Y-93380714D01*
X162131428Y-94023571D02*
X162131428Y-92523571D01*
X162988571Y-94023571D01*
X162988571Y-92523571D01*
X163702857Y-94023571D02*
X163702857Y-92523571D01*
X164060000Y-92523571D01*
X164274285Y-92595000D01*
X164417142Y-92737857D01*
X164488571Y-92880714D01*
X164560000Y-93166428D01*
X164560000Y-93380714D01*
X164488571Y-93666428D01*
X164417142Y-93809285D01*
X164274285Y-93952142D01*
X164060000Y-94023571D01*
X163702857Y-94023571D01*
D11*
X140700000Y-89970000D02*
X138700000Y-89970000D01*
X138700000Y-87830000D02*
X140700000Y-87830000D01*
D14*
X127505000Y-83385000D02*
X129505000Y-83385000D01*
X128505000Y-86560000D02*
X128505000Y-82885000D01*
X128905000Y-83385000D02*
G75*
G03X128905000Y-83385000I-400000J0D01*
G01*
X177505000Y-83385000D02*
X179505000Y-83385000D01*
X178505000Y-86560000D02*
X178505000Y-82885000D01*
X178905000Y-83385000D02*
G75*
G03X178905000Y-83385000I-400000J0D01*
G01*
D12*
X124305000Y-79375000D02*
G75*
G03X124305000Y-79375000I-1750000J0D01*
G01*
X124305000Y-86995000D02*
G75*
G03X124305000Y-86995000I-1750000J0D01*
G01*
D11*
X141240000Y-81480000D02*
X143240000Y-81480000D01*
X143240000Y-83620000D02*
X141240000Y-83620000D01*
D15*
X160083500Y-72199500D02*
X152336500Y-72199500D01*
X152336500Y-90360500D02*
X160083500Y-90360500D01*
D11*
X141240000Y-77035000D02*
X143240000Y-77035000D01*
X143240000Y-79175000D02*
X141240000Y-79175000D01*
X148340000Y-87360000D02*
X148340000Y-85360000D01*
X146300000Y-85360000D02*
X146300000Y-87360000D01*
X132310000Y-71350000D02*
X129310000Y-71350000D01*
X132310000Y-68350000D02*
X128310000Y-68350000D01*
X168645000Y-70825000D02*
X170445000Y-70825000D01*
X170445000Y-67605000D02*
X167995000Y-67605000D01*
D12*
X183360000Y-93345000D02*
G75*
G03X183360000Y-93345000I-1750000J0D01*
G01*
X189075000Y-93345000D02*
G75*
G03X189075000Y-93345000I-1750000J0D01*
G01*
X133830000Y-95250000D02*
G75*
G03X133830000Y-95250000I-1750000J0D01*
G01*
X138910000Y-95250000D02*
G75*
G03X138910000Y-95250000I-1750000J0D01*
G01*
X175740000Y-88265000D02*
G75*
G03X175740000Y-88265000I-1750000J0D01*
G01*
X175740000Y-82550000D02*
G75*
G03X175740000Y-82550000I-1750000J0D01*
G01*
D11*
X145780000Y-102670000D02*
X143780000Y-102670000D01*
X143780000Y-100530000D02*
X145780000Y-100530000D01*
X145780000Y-100130000D02*
X143780000Y-100130000D01*
X143780000Y-97990000D02*
X145780000Y-97990000D01*
X145780000Y-97590000D02*
X143780000Y-97590000D01*
X143780000Y-95450000D02*
X145780000Y-95450000D01*
X137430000Y-63700000D02*
X139430000Y-63700000D01*
X139430000Y-65840000D02*
X137430000Y-65840000D01*
X122825000Y-68780000D02*
X124825000Y-68780000D01*
X124825000Y-70920000D02*
X122825000Y-70920000D01*
X166640000Y-86560000D02*
X168640000Y-86560000D01*
X168640000Y-88700000D02*
X166640000Y-88700000D01*
X166640000Y-84020000D02*
X168640000Y-84020000D01*
X168640000Y-86160000D02*
X166640000Y-86160000D01*
X143310000Y-69485000D02*
X143310000Y-71485000D01*
X141170000Y-71485000D02*
X141170000Y-69485000D01*
D12*
X173990000Y-65705000D02*
X173990000Y-60855000D01*
X189230000Y-71755000D02*
X173990000Y-71755000D01*
X189230000Y-71755000D02*
X189230000Y-65705000D01*
X173990000Y-65705000D02*
X189230000Y-65705000D01*
G36*
X189230000Y-65705000D02*
G01*
X173990000Y-65705000D01*
X173990000Y-60855000D01*
X189230000Y-60855000D01*
X189230000Y-65705000D01*
G37*
X189230000Y-65705000D02*
X173990000Y-65705000D01*
X173990000Y-60855000D01*
X189230000Y-60855000D01*
X189230000Y-65705000D01*
X189230000Y-65705000D02*
X189230000Y-60855000D01*
X173990000Y-71755000D02*
X173990000Y-65705000D01*
X189230000Y-60855000D02*
X173990000Y-60855000D01*
D11*
X136600000Y-85410000D02*
X136600000Y-87310000D01*
X136600000Y-87310000D02*
X141300000Y-87310000D01*
X136600000Y-85410000D02*
X141300000Y-85410000D01*
X148250000Y-73450000D02*
X148250000Y-71330000D01*
X145050000Y-73450000D02*
X148250000Y-73450000D01*
X148250000Y-71330000D02*
X145050000Y-71330000D01*
X168640000Y-81530000D02*
X166640000Y-81530000D01*
X166640000Y-83570000D02*
X168640000Y-83570000D01*
X147685000Y-68830000D02*
X145685000Y-68830000D01*
X145685000Y-70870000D02*
X147685000Y-70870000D01*
X138045000Y-70755000D02*
X138045000Y-72755000D01*
X140085000Y-72755000D02*
X140085000Y-70755000D01*
X135505000Y-70755000D02*
X135505000Y-72755000D01*
X137545000Y-72755000D02*
X137545000Y-70755000D01*
X160290000Y-71505000D02*
X162290000Y-71505000D01*
X162290000Y-69465000D02*
X160290000Y-69465000D01*
X169910000Y-65020000D02*
X167910000Y-65020000D01*
X167910000Y-67060000D02*
X169910000Y-67060000D01*
X169815000Y-71370000D02*
X167815000Y-71370000D01*
X167815000Y-73410000D02*
X169815000Y-73410000D01*
D12*
X139057142Y-91257380D02*
X138723809Y-90781190D01*
X138485714Y-91257380D02*
X138485714Y-90257380D01*
X138866666Y-90257380D01*
X138961904Y-90305000D01*
X139009523Y-90352619D01*
X139057142Y-90447857D01*
X139057142Y-90590714D01*
X139009523Y-90685952D01*
X138961904Y-90733571D01*
X138866666Y-90781190D01*
X138485714Y-90781190D01*
X140009523Y-91257380D02*
X139438095Y-91257380D01*
X139723809Y-91257380D02*
X139723809Y-90257380D01*
X139628571Y-90400238D01*
X139533333Y-90495476D01*
X139438095Y-90543095D01*
X140914285Y-90257380D02*
X140438095Y-90257380D01*
X140390476Y-90733571D01*
X140438095Y-90685952D01*
X140533333Y-90638333D01*
X140771428Y-90638333D01*
X140866666Y-90685952D01*
X140914285Y-90733571D01*
X140961904Y-90828809D01*
X140961904Y-91066904D01*
X140914285Y-91162142D01*
X140866666Y-91209761D01*
X140771428Y-91257380D01*
X140533333Y-91257380D01*
X140438095Y-91209761D01*
X140390476Y-91162142D01*
X117483095Y-78827380D02*
X118054523Y-78827380D01*
X117768809Y-79827380D02*
X117768809Y-78827380D01*
X118387857Y-79827380D02*
X118387857Y-78827380D01*
X118768809Y-78827380D01*
X118864047Y-78875000D01*
X118911666Y-78922619D01*
X118959285Y-79017857D01*
X118959285Y-79160714D01*
X118911666Y-79255952D01*
X118864047Y-79303571D01*
X118768809Y-79351190D01*
X118387857Y-79351190D01*
X119435476Y-79827380D02*
X119625952Y-79827380D01*
X119721190Y-79779761D01*
X119768809Y-79732142D01*
X119864047Y-79589285D01*
X119911666Y-79398809D01*
X119911666Y-79017857D01*
X119864047Y-78922619D01*
X119816428Y-78875000D01*
X119721190Y-78827380D01*
X119530714Y-78827380D01*
X119435476Y-78875000D01*
X119387857Y-78922619D01*
X119340238Y-79017857D01*
X119340238Y-79255952D01*
X119387857Y-79351190D01*
X119435476Y-79398809D01*
X119530714Y-79446428D01*
X119721190Y-79446428D01*
X119816428Y-79398809D01*
X119864047Y-79351190D01*
X119911666Y-79255952D01*
X116371904Y-86447380D02*
X116943333Y-86447380D01*
X116657619Y-87447380D02*
X116657619Y-86447380D01*
X117276666Y-87447380D02*
X117276666Y-86447380D01*
X117657619Y-86447380D01*
X117752857Y-86495000D01*
X117800476Y-86542619D01*
X117848095Y-86637857D01*
X117848095Y-86780714D01*
X117800476Y-86875952D01*
X117752857Y-86923571D01*
X117657619Y-86971190D01*
X117276666Y-86971190D01*
X118800476Y-87447380D02*
X118229047Y-87447380D01*
X118514761Y-87447380D02*
X118514761Y-86447380D01*
X118419523Y-86590238D01*
X118324285Y-86685476D01*
X118229047Y-86733095D01*
X119419523Y-86447380D02*
X119514761Y-86447380D01*
X119610000Y-86495000D01*
X119657619Y-86542619D01*
X119705238Y-86637857D01*
X119752857Y-86828333D01*
X119752857Y-87066428D01*
X119705238Y-87256904D01*
X119657619Y-87352142D01*
X119610000Y-87399761D01*
X119514761Y-87447380D01*
X119419523Y-87447380D01*
X119324285Y-87399761D01*
X119276666Y-87352142D01*
X119229047Y-87256904D01*
X119181428Y-87066428D01*
X119181428Y-86828333D01*
X119229047Y-86637857D01*
X119276666Y-86542619D01*
X119324285Y-86495000D01*
X119419523Y-86447380D01*
X154241666Y-103909761D02*
X154384523Y-103957380D01*
X154622619Y-103957380D01*
X154717857Y-103909761D01*
X154765476Y-103862142D01*
X154813095Y-103766904D01*
X154813095Y-103671666D01*
X154765476Y-103576428D01*
X154717857Y-103528809D01*
X154622619Y-103481190D01*
X154432142Y-103433571D01*
X154336904Y-103385952D01*
X154289285Y-103338333D01*
X154241666Y-103243095D01*
X154241666Y-103147857D01*
X154289285Y-103052619D01*
X154336904Y-103005000D01*
X154432142Y-102957380D01*
X154670238Y-102957380D01*
X154813095Y-103005000D01*
X155146428Y-102957380D02*
X155384523Y-103957380D01*
X155575000Y-103243095D01*
X155765476Y-103957380D01*
X156003571Y-102957380D01*
X156908333Y-103957380D02*
X156336904Y-103957380D01*
X156622619Y-103957380D02*
X156622619Y-102957380D01*
X156527380Y-103100238D01*
X156432142Y-103195476D01*
X156336904Y-103243095D01*
X137628333Y-83002380D02*
X137295000Y-82526190D01*
X137056904Y-83002380D02*
X137056904Y-82002380D01*
X137437857Y-82002380D01*
X137533095Y-82050000D01*
X137580714Y-82097619D01*
X137628333Y-82192857D01*
X137628333Y-82335714D01*
X137580714Y-82430952D01*
X137533095Y-82478571D01*
X137437857Y-82526190D01*
X137056904Y-82526190D01*
X138533095Y-82002380D02*
X138056904Y-82002380D01*
X138009285Y-82478571D01*
X138056904Y-82430952D01*
X138152142Y-82383333D01*
X138390238Y-82383333D01*
X138485476Y-82430952D01*
X138533095Y-82478571D01*
X138580714Y-82573809D01*
X138580714Y-82811904D01*
X138533095Y-82907142D01*
X138485476Y-82954761D01*
X138390238Y-83002380D01*
X138152142Y-83002380D01*
X138056904Y-82954761D01*
X138009285Y-82907142D01*
X155448095Y-70572380D02*
X155448095Y-71381904D01*
X155495714Y-71477142D01*
X155543333Y-71524761D01*
X155638571Y-71572380D01*
X155829047Y-71572380D01*
X155924285Y-71524761D01*
X155971904Y-71477142D01*
X156019523Y-71381904D01*
X156019523Y-70572380D01*
X156448095Y-70667619D02*
X156495714Y-70620000D01*
X156590952Y-70572380D01*
X156829047Y-70572380D01*
X156924285Y-70620000D01*
X156971904Y-70667619D01*
X157019523Y-70762857D01*
X157019523Y-70858095D01*
X156971904Y-71000952D01*
X156400476Y-71572380D01*
X157019523Y-71572380D01*
X150138571Y-91892380D02*
X150138571Y-90892380D01*
X150519523Y-90892380D01*
X150614761Y-90940000D01*
X150662380Y-90987619D01*
X150710000Y-91082857D01*
X150710000Y-91225714D01*
X150662380Y-91320952D01*
X150614761Y-91368571D01*
X150519523Y-91416190D01*
X150138571Y-91416190D01*
X151138571Y-91892380D02*
X151138571Y-90892380D01*
X152186190Y-91797142D02*
X152138571Y-91844761D01*
X151995714Y-91892380D01*
X151900476Y-91892380D01*
X151757619Y-91844761D01*
X151662380Y-91749523D01*
X151614761Y-91654285D01*
X151567142Y-91463809D01*
X151567142Y-91320952D01*
X151614761Y-91130476D01*
X151662380Y-91035238D01*
X151757619Y-90940000D01*
X151900476Y-90892380D01*
X151995714Y-90892380D01*
X152138571Y-90940000D01*
X152186190Y-90987619D01*
X152567142Y-90987619D02*
X152614761Y-90940000D01*
X152710000Y-90892380D01*
X152948095Y-90892380D01*
X153043333Y-90940000D01*
X153090952Y-90987619D01*
X153138571Y-91082857D01*
X153138571Y-91178095D01*
X153090952Y-91320952D01*
X152519523Y-91892380D01*
X153138571Y-91892380D01*
X153995714Y-91225714D02*
X153995714Y-91892380D01*
X153757619Y-90844761D02*
X153519523Y-91559047D01*
X154138571Y-91559047D01*
X154852857Y-91368571D02*
X154519523Y-91368571D01*
X154519523Y-91892380D02*
X154519523Y-90892380D01*
X154995714Y-90892380D01*
X155662380Y-90892380D02*
X155662380Y-91606666D01*
X155614761Y-91749523D01*
X155519523Y-91844761D01*
X155376666Y-91892380D01*
X155281428Y-91892380D01*
X156567142Y-90892380D02*
X156376666Y-90892380D01*
X156281428Y-90940000D01*
X156233809Y-90987619D01*
X156138571Y-91130476D01*
X156090952Y-91320952D01*
X156090952Y-91701904D01*
X156138571Y-91797142D01*
X156186190Y-91844761D01*
X156281428Y-91892380D01*
X156471904Y-91892380D01*
X156567142Y-91844761D01*
X156614761Y-91797142D01*
X156662380Y-91701904D01*
X156662380Y-91463809D01*
X156614761Y-91368571D01*
X156567142Y-91320952D01*
X156471904Y-91273333D01*
X156281428Y-91273333D01*
X156186190Y-91320952D01*
X156138571Y-91368571D01*
X156090952Y-91463809D01*
X157519523Y-91225714D02*
X157519523Y-91892380D01*
X157281428Y-90844761D02*
X157043333Y-91559047D01*
X157662380Y-91559047D01*
X158567142Y-90940000D02*
X158471904Y-90892380D01*
X158329047Y-90892380D01*
X158186190Y-90940000D01*
X158090952Y-91035238D01*
X158043333Y-91130476D01*
X157995714Y-91320952D01*
X157995714Y-91463809D01*
X158043333Y-91654285D01*
X158090952Y-91749523D01*
X158186190Y-91844761D01*
X158329047Y-91892380D01*
X158424285Y-91892380D01*
X158567142Y-91844761D01*
X158614761Y-91797142D01*
X158614761Y-91463809D01*
X158424285Y-91463809D01*
X158995714Y-91606666D02*
X159471904Y-91606666D01*
X158900476Y-91892380D02*
X159233809Y-90892380D01*
X159567142Y-91892380D01*
X160090952Y-90892380D02*
X160186190Y-90892380D01*
X160281428Y-90940000D01*
X160329047Y-90987619D01*
X160376666Y-91082857D01*
X160424285Y-91273333D01*
X160424285Y-91511428D01*
X160376666Y-91701904D01*
X160329047Y-91797142D01*
X160281428Y-91844761D01*
X160186190Y-91892380D01*
X160090952Y-91892380D01*
X159995714Y-91844761D01*
X159948095Y-91797142D01*
X159900476Y-91701904D01*
X159852857Y-91511428D01*
X159852857Y-91273333D01*
X159900476Y-91082857D01*
X159948095Y-90987619D01*
X159995714Y-90940000D01*
X160090952Y-90892380D01*
X161043333Y-90892380D02*
X161138571Y-90892380D01*
X161233809Y-90940000D01*
X161281428Y-90987619D01*
X161329047Y-91082857D01*
X161376666Y-91273333D01*
X161376666Y-91511428D01*
X161329047Y-91701904D01*
X161281428Y-91797142D01*
X161233809Y-91844761D01*
X161138571Y-91892380D01*
X161043333Y-91892380D01*
X160948095Y-91844761D01*
X160900476Y-91797142D01*
X160852857Y-91701904D01*
X160805238Y-91511428D01*
X160805238Y-91273333D01*
X160852857Y-91082857D01*
X160900476Y-90987619D01*
X160948095Y-90940000D01*
X161043333Y-90892380D01*
X161757619Y-90987619D02*
X161805238Y-90940000D01*
X161900476Y-90892380D01*
X162138571Y-90892380D01*
X162233809Y-90940000D01*
X162281428Y-90987619D01*
X162329047Y-91082857D01*
X162329047Y-91178095D01*
X162281428Y-91320952D01*
X161710000Y-91892380D01*
X162329047Y-91892380D01*
X137628333Y-78557380D02*
X137295000Y-78081190D01*
X137056904Y-78557380D02*
X137056904Y-77557380D01*
X137437857Y-77557380D01*
X137533095Y-77605000D01*
X137580714Y-77652619D01*
X137628333Y-77747857D01*
X137628333Y-77890714D01*
X137580714Y-77985952D01*
X137533095Y-78033571D01*
X137437857Y-78081190D01*
X137056904Y-78081190D01*
X138199761Y-77985952D02*
X138104523Y-77938333D01*
X138056904Y-77890714D01*
X138009285Y-77795476D01*
X138009285Y-77747857D01*
X138056904Y-77652619D01*
X138104523Y-77605000D01*
X138199761Y-77557380D01*
X138390238Y-77557380D01*
X138485476Y-77605000D01*
X138533095Y-77652619D01*
X138580714Y-77747857D01*
X138580714Y-77795476D01*
X138533095Y-77890714D01*
X138485476Y-77938333D01*
X138390238Y-77985952D01*
X138199761Y-77985952D01*
X138104523Y-78033571D01*
X138056904Y-78081190D01*
X138009285Y-78176428D01*
X138009285Y-78366904D01*
X138056904Y-78462142D01*
X138104523Y-78509761D01*
X138199761Y-78557380D01*
X138390238Y-78557380D01*
X138485476Y-78509761D01*
X138533095Y-78462142D01*
X138580714Y-78366904D01*
X138580714Y-78176428D01*
X138533095Y-78081190D01*
X138485476Y-78033571D01*
X138390238Y-77985952D01*
X147677142Y-92082857D02*
X147724761Y-92130476D01*
X147772380Y-92273333D01*
X147772380Y-92368571D01*
X147724761Y-92511428D01*
X147629523Y-92606666D01*
X147534285Y-92654285D01*
X147343809Y-92701904D01*
X147200952Y-92701904D01*
X147010476Y-92654285D01*
X146915238Y-92606666D01*
X146820000Y-92511428D01*
X146772380Y-92368571D01*
X146772380Y-92273333D01*
X146820000Y-92130476D01*
X146867619Y-92082857D01*
X147772380Y-91130476D02*
X147772380Y-91701904D01*
X147772380Y-91416190D02*
X146772380Y-91416190D01*
X146915238Y-91511428D01*
X147010476Y-91606666D01*
X147058095Y-91701904D01*
X147772380Y-90178095D02*
X147772380Y-90749523D01*
X147772380Y-90463809D02*
X146772380Y-90463809D01*
X146915238Y-90559047D01*
X147010476Y-90654285D01*
X147058095Y-90749523D01*
X165108095Y-94702380D02*
X165679523Y-94702380D01*
X165393809Y-95702380D02*
X165393809Y-94702380D01*
X166012857Y-95702380D02*
X166012857Y-94702380D01*
X166393809Y-94702380D01*
X166489047Y-94750000D01*
X166536666Y-94797619D01*
X166584285Y-94892857D01*
X166584285Y-95035714D01*
X166536666Y-95130952D01*
X166489047Y-95178571D01*
X166393809Y-95226190D01*
X166012857Y-95226190D01*
X167155714Y-95130952D02*
X167060476Y-95083333D01*
X167012857Y-95035714D01*
X166965238Y-94940476D01*
X166965238Y-94892857D01*
X167012857Y-94797619D01*
X167060476Y-94750000D01*
X167155714Y-94702380D01*
X167346190Y-94702380D01*
X167441428Y-94750000D01*
X167489047Y-94797619D01*
X167536666Y-94892857D01*
X167536666Y-94940476D01*
X167489047Y-95035714D01*
X167441428Y-95083333D01*
X167346190Y-95130952D01*
X167155714Y-95130952D01*
X167060476Y-95178571D01*
X167012857Y-95226190D01*
X166965238Y-95321428D01*
X166965238Y-95511904D01*
X167012857Y-95607142D01*
X167060476Y-95654761D01*
X167155714Y-95702380D01*
X167346190Y-95702380D01*
X167441428Y-95654761D01*
X167489047Y-95607142D01*
X167536666Y-95511904D01*
X167536666Y-95321428D01*
X167489047Y-95226190D01*
X167441428Y-95178571D01*
X167346190Y-95130952D01*
X169553095Y-94702380D02*
X170124523Y-94702380D01*
X169838809Y-95702380D02*
X169838809Y-94702380D01*
X170457857Y-95702380D02*
X170457857Y-94702380D01*
X170838809Y-94702380D01*
X170934047Y-94750000D01*
X170981666Y-94797619D01*
X171029285Y-94892857D01*
X171029285Y-95035714D01*
X170981666Y-95130952D01*
X170934047Y-95178571D01*
X170838809Y-95226190D01*
X170457857Y-95226190D01*
X171981666Y-95702380D02*
X171410238Y-95702380D01*
X171695952Y-95702380D02*
X171695952Y-94702380D01*
X171600714Y-94845238D01*
X171505476Y-94940476D01*
X171410238Y-94988095D01*
X130048095Y-66902380D02*
X130048095Y-67711904D01*
X130095714Y-67807142D01*
X130143333Y-67854761D01*
X130238571Y-67902380D01*
X130429047Y-67902380D01*
X130524285Y-67854761D01*
X130571904Y-67807142D01*
X130619523Y-67711904D01*
X130619523Y-66902380D01*
X131571904Y-66902380D02*
X131095714Y-66902380D01*
X131048095Y-67378571D01*
X131095714Y-67330952D01*
X131190952Y-67283333D01*
X131429047Y-67283333D01*
X131524285Y-67330952D01*
X131571904Y-67378571D01*
X131619523Y-67473809D01*
X131619523Y-67711904D01*
X131571904Y-67807142D01*
X131524285Y-67854761D01*
X131429047Y-67902380D01*
X131190952Y-67902380D01*
X131095714Y-67854761D01*
X131048095Y-67807142D01*
X164973095Y-67397380D02*
X164973095Y-68206904D01*
X165020714Y-68302142D01*
X165068333Y-68349761D01*
X165163571Y-68397380D01*
X165354047Y-68397380D01*
X165449285Y-68349761D01*
X165496904Y-68302142D01*
X165544523Y-68206904D01*
X165544523Y-67397380D01*
X166544523Y-68397380D02*
X165973095Y-68397380D01*
X166258809Y-68397380D02*
X166258809Y-67397380D01*
X166163571Y-67540238D01*
X166068333Y-67635476D01*
X165973095Y-67683095D01*
X179871904Y-90257380D02*
X180443333Y-90257380D01*
X180157619Y-91257380D02*
X180157619Y-90257380D01*
X180776666Y-91257380D02*
X180776666Y-90257380D01*
X181157619Y-90257380D01*
X181252857Y-90305000D01*
X181300476Y-90352619D01*
X181348095Y-90447857D01*
X181348095Y-90590714D01*
X181300476Y-90685952D01*
X181252857Y-90733571D01*
X181157619Y-90781190D01*
X180776666Y-90781190D01*
X182300476Y-91257380D02*
X181729047Y-91257380D01*
X182014761Y-91257380D02*
X182014761Y-90257380D01*
X181919523Y-90400238D01*
X181824285Y-90495476D01*
X181729047Y-90543095D01*
X182681428Y-90352619D02*
X182729047Y-90305000D01*
X182824285Y-90257380D01*
X183062380Y-90257380D01*
X183157619Y-90305000D01*
X183205238Y-90352619D01*
X183252857Y-90447857D01*
X183252857Y-90543095D01*
X183205238Y-90685952D01*
X182633809Y-91257380D01*
X183252857Y-91257380D01*
X185586904Y-90257380D02*
X186158333Y-90257380D01*
X185872619Y-91257380D02*
X185872619Y-90257380D01*
X186491666Y-91257380D02*
X186491666Y-90257380D01*
X186872619Y-90257380D01*
X186967857Y-90305000D01*
X187015476Y-90352619D01*
X187063095Y-90447857D01*
X187063095Y-90590714D01*
X187015476Y-90685952D01*
X186967857Y-90733571D01*
X186872619Y-90781190D01*
X186491666Y-90781190D01*
X188015476Y-91257380D02*
X187444047Y-91257380D01*
X187729761Y-91257380D02*
X187729761Y-90257380D01*
X187634523Y-90400238D01*
X187539285Y-90495476D01*
X187444047Y-90543095D01*
X188967857Y-91257380D02*
X188396428Y-91257380D01*
X188682142Y-91257380D02*
X188682142Y-90257380D01*
X188586904Y-90400238D01*
X188491666Y-90495476D01*
X188396428Y-90543095D01*
X130818095Y-92162380D02*
X131389523Y-92162380D01*
X131103809Y-93162380D02*
X131103809Y-92162380D01*
X131722857Y-93162380D02*
X131722857Y-92162380D01*
X132103809Y-92162380D01*
X132199047Y-92210000D01*
X132246666Y-92257619D01*
X132294285Y-92352857D01*
X132294285Y-92495714D01*
X132246666Y-92590952D01*
X132199047Y-92638571D01*
X132103809Y-92686190D01*
X131722857Y-92686190D01*
X133199047Y-92162380D02*
X132722857Y-92162380D01*
X132675238Y-92638571D01*
X132722857Y-92590952D01*
X132818095Y-92543333D01*
X133056190Y-92543333D01*
X133151428Y-92590952D01*
X133199047Y-92638571D01*
X133246666Y-92733809D01*
X133246666Y-92971904D01*
X133199047Y-93067142D01*
X133151428Y-93114761D01*
X133056190Y-93162380D01*
X132818095Y-93162380D01*
X132722857Y-93114761D01*
X132675238Y-93067142D01*
X135898095Y-92162380D02*
X136469523Y-92162380D01*
X136183809Y-93162380D02*
X136183809Y-92162380D01*
X136802857Y-93162380D02*
X136802857Y-92162380D01*
X137183809Y-92162380D01*
X137279047Y-92210000D01*
X137326666Y-92257619D01*
X137374285Y-92352857D01*
X137374285Y-92495714D01*
X137326666Y-92590952D01*
X137279047Y-92638571D01*
X137183809Y-92686190D01*
X136802857Y-92686190D01*
X138231428Y-92495714D02*
X138231428Y-93162380D01*
X137993333Y-92114761D02*
X137755238Y-92829047D01*
X138374285Y-92829047D01*
X172728095Y-90257380D02*
X173299523Y-90257380D01*
X173013809Y-91257380D02*
X173013809Y-90257380D01*
X173632857Y-91257380D02*
X173632857Y-90257380D01*
X174013809Y-90257380D01*
X174109047Y-90305000D01*
X174156666Y-90352619D01*
X174204285Y-90447857D01*
X174204285Y-90590714D01*
X174156666Y-90685952D01*
X174109047Y-90733571D01*
X174013809Y-90781190D01*
X173632857Y-90781190D01*
X174537619Y-90257380D02*
X175156666Y-90257380D01*
X174823333Y-90638333D01*
X174966190Y-90638333D01*
X175061428Y-90685952D01*
X175109047Y-90733571D01*
X175156666Y-90828809D01*
X175156666Y-91066904D01*
X175109047Y-91162142D01*
X175061428Y-91209761D01*
X174966190Y-91257380D01*
X174680476Y-91257380D01*
X174585238Y-91209761D01*
X174537619Y-91162142D01*
X172728095Y-79252380D02*
X173299523Y-79252380D01*
X173013809Y-80252380D02*
X173013809Y-79252380D01*
X173632857Y-80252380D02*
X173632857Y-79252380D01*
X174013809Y-79252380D01*
X174109047Y-79300000D01*
X174156666Y-79347619D01*
X174204285Y-79442857D01*
X174204285Y-79585714D01*
X174156666Y-79680952D01*
X174109047Y-79728571D01*
X174013809Y-79776190D01*
X173632857Y-79776190D01*
X174585238Y-79347619D02*
X174632857Y-79300000D01*
X174728095Y-79252380D01*
X174966190Y-79252380D01*
X175061428Y-79300000D01*
X175109047Y-79347619D01*
X175156666Y-79442857D01*
X175156666Y-79538095D01*
X175109047Y-79680952D01*
X174537619Y-80252380D01*
X175156666Y-80252380D01*
X141422380Y-102877857D02*
X140946190Y-103211190D01*
X141422380Y-103449285D02*
X140422380Y-103449285D01*
X140422380Y-103068333D01*
X140470000Y-102973095D01*
X140517619Y-102925476D01*
X140612857Y-102877857D01*
X140755714Y-102877857D01*
X140850952Y-102925476D01*
X140898571Y-102973095D01*
X140946190Y-103068333D01*
X140946190Y-103449285D01*
X141422380Y-101925476D02*
X141422380Y-102496904D01*
X141422380Y-102211190D02*
X140422380Y-102211190D01*
X140565238Y-102306428D01*
X140660476Y-102401666D01*
X140708095Y-102496904D01*
X140755714Y-101068333D02*
X141422380Y-101068333D01*
X140374761Y-101306428D02*
X141089047Y-101544523D01*
X141089047Y-100925476D01*
X141422380Y-99702857D02*
X140946190Y-100036190D01*
X141422380Y-100274285D02*
X140422380Y-100274285D01*
X140422380Y-99893333D01*
X140470000Y-99798095D01*
X140517619Y-99750476D01*
X140612857Y-99702857D01*
X140755714Y-99702857D01*
X140850952Y-99750476D01*
X140898571Y-99798095D01*
X140946190Y-99893333D01*
X140946190Y-100274285D01*
X141422380Y-98750476D02*
X141422380Y-99321904D01*
X141422380Y-99036190D02*
X140422380Y-99036190D01*
X140565238Y-99131428D01*
X140660476Y-99226666D01*
X140708095Y-99321904D01*
X140422380Y-98417142D02*
X140422380Y-97798095D01*
X140803333Y-98131428D01*
X140803333Y-97988571D01*
X140850952Y-97893333D01*
X140898571Y-97845714D01*
X140993809Y-97798095D01*
X141231904Y-97798095D01*
X141327142Y-97845714D01*
X141374761Y-97893333D01*
X141422380Y-97988571D01*
X141422380Y-98274285D01*
X141374761Y-98369523D01*
X141327142Y-98417142D01*
X141422380Y-96527857D02*
X140946190Y-96861190D01*
X141422380Y-97099285D02*
X140422380Y-97099285D01*
X140422380Y-96718333D01*
X140470000Y-96623095D01*
X140517619Y-96575476D01*
X140612857Y-96527857D01*
X140755714Y-96527857D01*
X140850952Y-96575476D01*
X140898571Y-96623095D01*
X140946190Y-96718333D01*
X140946190Y-97099285D01*
X141422380Y-95575476D02*
X141422380Y-96146904D01*
X141422380Y-95861190D02*
X140422380Y-95861190D01*
X140565238Y-95956428D01*
X140660476Y-96051666D01*
X140708095Y-96146904D01*
X140517619Y-95194523D02*
X140470000Y-95146904D01*
X140422380Y-95051666D01*
X140422380Y-94813571D01*
X140470000Y-94718333D01*
X140517619Y-94670714D01*
X140612857Y-94623095D01*
X140708095Y-94623095D01*
X140850952Y-94670714D01*
X141422380Y-95242142D01*
X141422380Y-94623095D01*
X132707142Y-65222380D02*
X132373809Y-64746190D01*
X132135714Y-65222380D02*
X132135714Y-64222380D01*
X132516666Y-64222380D01*
X132611904Y-64270000D01*
X132659523Y-64317619D01*
X132707142Y-64412857D01*
X132707142Y-64555714D01*
X132659523Y-64650952D01*
X132611904Y-64698571D01*
X132516666Y-64746190D01*
X132135714Y-64746190D01*
X133659523Y-65222380D02*
X133088095Y-65222380D01*
X133373809Y-65222380D02*
X133373809Y-64222380D01*
X133278571Y-64365238D01*
X133183333Y-64460476D01*
X133088095Y-64508095D01*
X134611904Y-65222380D02*
X134040476Y-65222380D01*
X134326190Y-65222380D02*
X134326190Y-64222380D01*
X134230952Y-64365238D01*
X134135714Y-64460476D01*
X134040476Y-64508095D01*
X123182142Y-72152380D02*
X122848809Y-71676190D01*
X122610714Y-72152380D02*
X122610714Y-71152380D01*
X122991666Y-71152380D01*
X123086904Y-71200000D01*
X123134523Y-71247619D01*
X123182142Y-71342857D01*
X123182142Y-71485714D01*
X123134523Y-71580952D01*
X123086904Y-71628571D01*
X122991666Y-71676190D01*
X122610714Y-71676190D01*
X124134523Y-72152380D02*
X123563095Y-72152380D01*
X123848809Y-72152380D02*
X123848809Y-71152380D01*
X123753571Y-71295238D01*
X123658333Y-71390476D01*
X123563095Y-71438095D01*
X124753571Y-71152380D02*
X124848809Y-71152380D01*
X124944047Y-71200000D01*
X124991666Y-71247619D01*
X125039285Y-71342857D01*
X125086904Y-71533333D01*
X125086904Y-71771428D01*
X125039285Y-71961904D01*
X124991666Y-72057142D01*
X124944047Y-72104761D01*
X124848809Y-72152380D01*
X124753571Y-72152380D01*
X124658333Y-72104761D01*
X124610714Y-72057142D01*
X124563095Y-71961904D01*
X124515476Y-71771428D01*
X124515476Y-71533333D01*
X124563095Y-71342857D01*
X124610714Y-71247619D01*
X124658333Y-71200000D01*
X124753571Y-71152380D01*
X167473333Y-89987380D02*
X167140000Y-89511190D01*
X166901904Y-89987380D02*
X166901904Y-88987380D01*
X167282857Y-88987380D01*
X167378095Y-89035000D01*
X167425714Y-89082619D01*
X167473333Y-89177857D01*
X167473333Y-89320714D01*
X167425714Y-89415952D01*
X167378095Y-89463571D01*
X167282857Y-89511190D01*
X166901904Y-89511190D01*
X168330476Y-88987380D02*
X168140000Y-88987380D01*
X168044761Y-89035000D01*
X167997142Y-89082619D01*
X167901904Y-89225476D01*
X167854285Y-89415952D01*
X167854285Y-89796904D01*
X167901904Y-89892142D01*
X167949523Y-89939761D01*
X168044761Y-89987380D01*
X168235238Y-89987380D01*
X168330476Y-89939761D01*
X168378095Y-89892142D01*
X168425714Y-89796904D01*
X168425714Y-89558809D01*
X168378095Y-89463571D01*
X168330476Y-89415952D01*
X168235238Y-89368333D01*
X168044761Y-89368333D01*
X167949523Y-89415952D01*
X167901904Y-89463571D01*
X167854285Y-89558809D01*
X171918333Y-85542380D02*
X171585000Y-85066190D01*
X171346904Y-85542380D02*
X171346904Y-84542380D01*
X171727857Y-84542380D01*
X171823095Y-84590000D01*
X171870714Y-84637619D01*
X171918333Y-84732857D01*
X171918333Y-84875714D01*
X171870714Y-84970952D01*
X171823095Y-85018571D01*
X171727857Y-85066190D01*
X171346904Y-85066190D01*
X172775476Y-84875714D02*
X172775476Y-85542380D01*
X172537380Y-84494761D02*
X172299285Y-85209047D01*
X172918333Y-85209047D01*
X142692380Y-75096666D02*
X142216190Y-75430000D01*
X142692380Y-75668095D02*
X141692380Y-75668095D01*
X141692380Y-75287142D01*
X141740000Y-75191904D01*
X141787619Y-75144285D01*
X141882857Y-75096666D01*
X142025714Y-75096666D01*
X142120952Y-75144285D01*
X142168571Y-75191904D01*
X142216190Y-75287142D01*
X142216190Y-75668095D01*
X142692380Y-74144285D02*
X142692380Y-74715714D01*
X142692380Y-74430000D02*
X141692380Y-74430000D01*
X141835238Y-74525238D01*
X141930476Y-74620476D01*
X141978095Y-74715714D01*
X144446666Y-63587380D02*
X144446666Y-64301666D01*
X144399047Y-64444523D01*
X144303809Y-64539761D01*
X144160952Y-64587380D01*
X144065714Y-64587380D01*
X144875238Y-63682619D02*
X144922857Y-63635000D01*
X145018095Y-63587380D01*
X145256190Y-63587380D01*
X145351428Y-63635000D01*
X145399047Y-63682619D01*
X145446666Y-63777857D01*
X145446666Y-63873095D01*
X145399047Y-64015952D01*
X144827619Y-64587380D01*
X145446666Y-64587380D01*
X188261666Y-72477380D02*
X188261666Y-73191666D01*
X188214047Y-73334523D01*
X188118809Y-73429761D01*
X187975952Y-73477380D01*
X187880714Y-73477380D01*
X189261666Y-73477380D02*
X188690238Y-73477380D01*
X188975952Y-73477380D02*
X188975952Y-72477380D01*
X188880714Y-72620238D01*
X188785476Y-72715476D01*
X188690238Y-72763095D01*
X138961904Y-84962380D02*
X138961904Y-83962380D01*
X139200000Y-83962380D01*
X139342857Y-84010000D01*
X139438095Y-84105238D01*
X139485714Y-84200476D01*
X139533333Y-84390952D01*
X139533333Y-84533809D01*
X139485714Y-84724285D01*
X139438095Y-84819523D01*
X139342857Y-84914761D01*
X139200000Y-84962380D01*
X138961904Y-84962380D01*
X139914285Y-84057619D02*
X139961904Y-84010000D01*
X140057142Y-83962380D01*
X140295238Y-83962380D01*
X140390476Y-84010000D01*
X140438095Y-84057619D01*
X140485714Y-84152857D01*
X140485714Y-84248095D01*
X140438095Y-84390952D01*
X139866666Y-84962380D01*
X140485714Y-84962380D01*
X145311904Y-74747380D02*
X145311904Y-73747380D01*
X145550000Y-73747380D01*
X145692857Y-73795000D01*
X145788095Y-73890238D01*
X145835714Y-73985476D01*
X145883333Y-74175952D01*
X145883333Y-74318809D01*
X145835714Y-74509285D01*
X145788095Y-74604523D01*
X145692857Y-74699761D01*
X145550000Y-74747380D01*
X145311904Y-74747380D01*
X146835714Y-74747380D02*
X146264285Y-74747380D01*
X146550000Y-74747380D02*
X146550000Y-73747380D01*
X146454761Y-73890238D01*
X146359523Y-73985476D01*
X146264285Y-74033095D01*
X167277023Y-81002142D02*
X167229404Y-81049761D01*
X167086547Y-81097380D01*
X166991309Y-81097380D01*
X166848452Y-81049761D01*
X166753214Y-80954523D01*
X166705595Y-80859285D01*
X166657976Y-80668809D01*
X166657976Y-80525952D01*
X166705595Y-80335476D01*
X166753214Y-80240238D01*
X166848452Y-80145000D01*
X166991309Y-80097380D01*
X167086547Y-80097380D01*
X167229404Y-80145000D01*
X167277023Y-80192619D01*
X168229404Y-81097380D02*
X167657976Y-81097380D01*
X167943690Y-81097380D02*
X167943690Y-80097380D01*
X167848452Y-80240238D01*
X167753214Y-80335476D01*
X167657976Y-80383095D01*
X168610357Y-80192619D02*
X168657976Y-80145000D01*
X168753214Y-80097380D01*
X168991309Y-80097380D01*
X169086547Y-80145000D01*
X169134166Y-80192619D01*
X169181785Y-80287857D01*
X169181785Y-80383095D01*
X169134166Y-80525952D01*
X168562738Y-81097380D01*
X169181785Y-81097380D01*
X151122142Y-70207142D02*
X151074523Y-70254761D01*
X150931666Y-70302380D01*
X150836428Y-70302380D01*
X150693571Y-70254761D01*
X150598333Y-70159523D01*
X150550714Y-70064285D01*
X150503095Y-69873809D01*
X150503095Y-69730952D01*
X150550714Y-69540476D01*
X150598333Y-69445238D01*
X150693571Y-69350000D01*
X150836428Y-69302380D01*
X150931666Y-69302380D01*
X151074523Y-69350000D01*
X151122142Y-69397619D01*
X152074523Y-70302380D02*
X151503095Y-70302380D01*
X151788809Y-70302380D02*
X151788809Y-69302380D01*
X151693571Y-69445238D01*
X151598333Y-69540476D01*
X151503095Y-69588095D01*
X152693571Y-69302380D02*
X152788809Y-69302380D01*
X152884047Y-69350000D01*
X152931666Y-69397619D01*
X152979285Y-69492857D01*
X153026904Y-69683333D01*
X153026904Y-69921428D01*
X152979285Y-70111904D01*
X152931666Y-70207142D01*
X152884047Y-70254761D01*
X152788809Y-70302380D01*
X152693571Y-70302380D01*
X152598333Y-70254761D01*
X152550714Y-70207142D01*
X152503095Y-70111904D01*
X152455476Y-69921428D01*
X152455476Y-69683333D01*
X152503095Y-69492857D01*
X152550714Y-69397619D01*
X152598333Y-69350000D01*
X152693571Y-69302380D01*
X139422142Y-67476666D02*
X139469761Y-67524285D01*
X139517380Y-67667142D01*
X139517380Y-67762380D01*
X139469761Y-67905238D01*
X139374523Y-68000476D01*
X139279285Y-68048095D01*
X139088809Y-68095714D01*
X138945952Y-68095714D01*
X138755476Y-68048095D01*
X138660238Y-68000476D01*
X138565000Y-67905238D01*
X138517380Y-67762380D01*
X138517380Y-67667142D01*
X138565000Y-67524285D01*
X138612619Y-67476666D01*
X138945952Y-66905238D02*
X138898333Y-67000476D01*
X138850714Y-67048095D01*
X138755476Y-67095714D01*
X138707857Y-67095714D01*
X138612619Y-67048095D01*
X138565000Y-67000476D01*
X138517380Y-66905238D01*
X138517380Y-66714761D01*
X138565000Y-66619523D01*
X138612619Y-66571904D01*
X138707857Y-66524285D01*
X138755476Y-66524285D01*
X138850714Y-66571904D01*
X138898333Y-66619523D01*
X138945952Y-66714761D01*
X138945952Y-66905238D01*
X138993571Y-67000476D01*
X139041190Y-67048095D01*
X139136428Y-67095714D01*
X139326904Y-67095714D01*
X139422142Y-67048095D01*
X139469761Y-67000476D01*
X139517380Y-66905238D01*
X139517380Y-66714761D01*
X139469761Y-66619523D01*
X139422142Y-66571904D01*
X139326904Y-66524285D01*
X139136428Y-66524285D01*
X139041190Y-66571904D01*
X138993571Y-66619523D01*
X138945952Y-66714761D01*
X136882142Y-67476666D02*
X136929761Y-67524285D01*
X136977380Y-67667142D01*
X136977380Y-67762380D01*
X136929761Y-67905238D01*
X136834523Y-68000476D01*
X136739285Y-68048095D01*
X136548809Y-68095714D01*
X136405952Y-68095714D01*
X136215476Y-68048095D01*
X136120238Y-68000476D01*
X136025000Y-67905238D01*
X135977380Y-67762380D01*
X135977380Y-67667142D01*
X136025000Y-67524285D01*
X136072619Y-67476666D01*
X135977380Y-67143333D02*
X135977380Y-66476666D01*
X136977380Y-66905238D01*
X161123333Y-68937142D02*
X161075714Y-68984761D01*
X160932857Y-69032380D01*
X160837619Y-69032380D01*
X160694761Y-68984761D01*
X160599523Y-68889523D01*
X160551904Y-68794285D01*
X160504285Y-68603809D01*
X160504285Y-68460952D01*
X160551904Y-68270476D01*
X160599523Y-68175238D01*
X160694761Y-68080000D01*
X160837619Y-68032380D01*
X160932857Y-68032380D01*
X161075714Y-68080000D01*
X161123333Y-68127619D01*
X161456666Y-68032380D02*
X162075714Y-68032380D01*
X161742380Y-68413333D01*
X161885238Y-68413333D01*
X161980476Y-68460952D01*
X162028095Y-68508571D01*
X162075714Y-68603809D01*
X162075714Y-68841904D01*
X162028095Y-68937142D01*
X161980476Y-68984761D01*
X161885238Y-69032380D01*
X161599523Y-69032380D01*
X161504285Y-68984761D01*
X161456666Y-68937142D01*
X168743333Y-64647142D02*
X168695714Y-64694761D01*
X168552857Y-64742380D01*
X168457619Y-64742380D01*
X168314761Y-64694761D01*
X168219523Y-64599523D01*
X168171904Y-64504285D01*
X168124285Y-64313809D01*
X168124285Y-64170952D01*
X168171904Y-63980476D01*
X168219523Y-63885238D01*
X168314761Y-63790000D01*
X168457619Y-63742380D01*
X168552857Y-63742380D01*
X168695714Y-63790000D01*
X168743333Y-63837619D01*
X169124285Y-63837619D02*
X169171904Y-63790000D01*
X169267142Y-63742380D01*
X169505238Y-63742380D01*
X169600476Y-63790000D01*
X169648095Y-63837619D01*
X169695714Y-63932857D01*
X169695714Y-64028095D01*
X169648095Y-64170952D01*
X169076666Y-64742380D01*
X169695714Y-64742380D01*
X168648333Y-74652142D02*
X168600714Y-74699761D01*
X168457857Y-74747380D01*
X168362619Y-74747380D01*
X168219761Y-74699761D01*
X168124523Y-74604523D01*
X168076904Y-74509285D01*
X168029285Y-74318809D01*
X168029285Y-74175952D01*
X168076904Y-73985476D01*
X168124523Y-73890238D01*
X168219761Y-73795000D01*
X168362619Y-73747380D01*
X168457857Y-73747380D01*
X168600714Y-73795000D01*
X168648333Y-73842619D01*
X169600714Y-74747380D02*
X169029285Y-74747380D01*
X169315000Y-74747380D02*
X169315000Y-73747380D01*
X169219761Y-73890238D01*
X169124523Y-73985476D01*
X169029285Y-74033095D01*
M02*
