G04 #@! TF.GenerationSoftware,KiCad,Pcbnew,(5.1.5)-2*
G04 #@! TF.CreationDate,2019-12-08T01:27:06+01:00*
G04 #@! TF.ProjectId,tof_sensor,746f665f-7365-46e7-936f-722e6b696361,rev?*
G04 #@! TF.SameCoordinates,Original*
G04 #@! TF.FileFunction,Soldermask,Bot*
G04 #@! TF.FilePolarity,Negative*
%FSLAX46Y46*%
G04 Gerber Fmt 4.6, Leading zero omitted, Abs format (unit mm)*
G04 Created by KiCad (PCBNEW (5.1.5)-2) date 2019-12-08 01:27:06*
%MOMM*%
%LPD*%
G04 APERTURE LIST*
%ADD10C,0.100000*%
G04 APERTURE END LIST*
D10*
G36*
X192760880Y-99439776D02*
G01*
X193141593Y-99515504D01*
X193551249Y-99685189D01*
X193919929Y-99931534D01*
X194233466Y-100245071D01*
X194479811Y-100613751D01*
X194649496Y-101023407D01*
X194736000Y-101458296D01*
X194736000Y-101901704D01*
X194649496Y-102336593D01*
X194479811Y-102746249D01*
X194233466Y-103114929D01*
X193919929Y-103428466D01*
X193551249Y-103674811D01*
X193141593Y-103844496D01*
X192760880Y-103920224D01*
X192706705Y-103931000D01*
X192263295Y-103931000D01*
X192209120Y-103920224D01*
X191828407Y-103844496D01*
X191418751Y-103674811D01*
X191050071Y-103428466D01*
X190736534Y-103114929D01*
X190490189Y-102746249D01*
X190320504Y-102336593D01*
X190234000Y-101901704D01*
X190234000Y-101458296D01*
X190320504Y-101023407D01*
X190490189Y-100613751D01*
X190736534Y-100245071D01*
X191050071Y-99931534D01*
X191418751Y-99685189D01*
X191828407Y-99515504D01*
X192209120Y-99439776D01*
X192263295Y-99429000D01*
X192706705Y-99429000D01*
X192760880Y-99439776D01*
G37*
G36*
X116400880Y-99439776D02*
G01*
X116781593Y-99515504D01*
X117191249Y-99685189D01*
X117559929Y-99931534D01*
X117873466Y-100245071D01*
X118119811Y-100613751D01*
X118289496Y-101023407D01*
X118376000Y-101458296D01*
X118376000Y-101901704D01*
X118289496Y-102336593D01*
X118119811Y-102746249D01*
X117873466Y-103114929D01*
X117559929Y-103428466D01*
X117191249Y-103674811D01*
X116781593Y-103844496D01*
X116400880Y-103920224D01*
X116346705Y-103931000D01*
X115903295Y-103931000D01*
X115849120Y-103920224D01*
X115468407Y-103844496D01*
X115058751Y-103674811D01*
X114690071Y-103428466D01*
X114376534Y-103114929D01*
X114130189Y-102746249D01*
X113960504Y-102336593D01*
X113874000Y-101901704D01*
X113874000Y-101458296D01*
X113960504Y-101023407D01*
X114130189Y-100613751D01*
X114376534Y-100245071D01*
X114690071Y-99931534D01*
X115058751Y-99685189D01*
X115468407Y-99515504D01*
X115849120Y-99439776D01*
X115903295Y-99429000D01*
X116346705Y-99429000D01*
X116400880Y-99439776D01*
G37*
G36*
X137583241Y-93854760D02*
G01*
X137847305Y-93964139D01*
X138084958Y-94122934D01*
X138287066Y-94325042D01*
X138445861Y-94562695D01*
X138555240Y-94826759D01*
X138611000Y-95107088D01*
X138611000Y-95392912D01*
X138555240Y-95673241D01*
X138445861Y-95937305D01*
X138287066Y-96174958D01*
X138084958Y-96377066D01*
X137847305Y-96535861D01*
X137583241Y-96645240D01*
X137302912Y-96701000D01*
X137017088Y-96701000D01*
X136736759Y-96645240D01*
X136472695Y-96535861D01*
X136235042Y-96377066D01*
X136032934Y-96174958D01*
X135874139Y-95937305D01*
X135764760Y-95673241D01*
X135709000Y-95392912D01*
X135709000Y-95107088D01*
X135764760Y-94826759D01*
X135874139Y-94562695D01*
X136032934Y-94325042D01*
X136235042Y-94122934D01*
X136472695Y-93964139D01*
X136736759Y-93854760D01*
X137017088Y-93799000D01*
X137302912Y-93799000D01*
X137583241Y-93854760D01*
G37*
G36*
X132503241Y-93854760D02*
G01*
X132767305Y-93964139D01*
X133004958Y-94122934D01*
X133207066Y-94325042D01*
X133365861Y-94562695D01*
X133475240Y-94826759D01*
X133531000Y-95107088D01*
X133531000Y-95392912D01*
X133475240Y-95673241D01*
X133365861Y-95937305D01*
X133207066Y-96174958D01*
X133004958Y-96377066D01*
X132767305Y-96535861D01*
X132503241Y-96645240D01*
X132222912Y-96701000D01*
X131937088Y-96701000D01*
X131656759Y-96645240D01*
X131392695Y-96535861D01*
X131155042Y-96377066D01*
X130952934Y-96174958D01*
X130794139Y-95937305D01*
X130684760Y-95673241D01*
X130629000Y-95392912D01*
X130629000Y-95107088D01*
X130684760Y-94826759D01*
X130794139Y-94562695D01*
X130952934Y-94325042D01*
X131155042Y-94122934D01*
X131392695Y-93964139D01*
X131656759Y-93854760D01*
X131937088Y-93799000D01*
X132222912Y-93799000D01*
X132503241Y-93854760D01*
G37*
G36*
X182033241Y-91949760D02*
G01*
X182297305Y-92059139D01*
X182534958Y-92217934D01*
X182737066Y-92420042D01*
X182895861Y-92657695D01*
X183005240Y-92921759D01*
X183061000Y-93202088D01*
X183061000Y-93487912D01*
X183005240Y-93768241D01*
X182895861Y-94032305D01*
X182737066Y-94269958D01*
X182534958Y-94472066D01*
X182297305Y-94630861D01*
X182033241Y-94740240D01*
X181752912Y-94796000D01*
X181467088Y-94796000D01*
X181186759Y-94740240D01*
X180922695Y-94630861D01*
X180685042Y-94472066D01*
X180482934Y-94269958D01*
X180324139Y-94032305D01*
X180214760Y-93768241D01*
X180159000Y-93487912D01*
X180159000Y-93202088D01*
X180214760Y-92921759D01*
X180324139Y-92657695D01*
X180482934Y-92420042D01*
X180685042Y-92217934D01*
X180922695Y-92059139D01*
X181186759Y-91949760D01*
X181467088Y-91894000D01*
X181752912Y-91894000D01*
X182033241Y-91949760D01*
G37*
G36*
X187748241Y-91949760D02*
G01*
X188012305Y-92059139D01*
X188249958Y-92217934D01*
X188452066Y-92420042D01*
X188610861Y-92657695D01*
X188720240Y-92921759D01*
X188776000Y-93202088D01*
X188776000Y-93487912D01*
X188720240Y-93768241D01*
X188610861Y-94032305D01*
X188452066Y-94269958D01*
X188249958Y-94472066D01*
X188012305Y-94630861D01*
X187748241Y-94740240D01*
X187467912Y-94796000D01*
X187182088Y-94796000D01*
X186901759Y-94740240D01*
X186637695Y-94630861D01*
X186400042Y-94472066D01*
X186197934Y-94269958D01*
X186039139Y-94032305D01*
X185929760Y-93768241D01*
X185874000Y-93487912D01*
X185874000Y-93202088D01*
X185929760Y-92921759D01*
X186039139Y-92657695D01*
X186197934Y-92420042D01*
X186400042Y-92217934D01*
X186637695Y-92059139D01*
X186901759Y-91949760D01*
X187182088Y-91894000D01*
X187467912Y-91894000D01*
X187748241Y-91949760D01*
G37*
G36*
X174413241Y-86869760D02*
G01*
X174677305Y-86979139D01*
X174914958Y-87137934D01*
X175117066Y-87340042D01*
X175275861Y-87577695D01*
X175385240Y-87841759D01*
X175441000Y-88122088D01*
X175441000Y-88407912D01*
X175385240Y-88688241D01*
X175275861Y-88952305D01*
X175117066Y-89189958D01*
X174914958Y-89392066D01*
X174677305Y-89550861D01*
X174413241Y-89660240D01*
X174132912Y-89716000D01*
X173847088Y-89716000D01*
X173566759Y-89660240D01*
X173302695Y-89550861D01*
X173065042Y-89392066D01*
X172862934Y-89189958D01*
X172704139Y-88952305D01*
X172594760Y-88688241D01*
X172539000Y-88407912D01*
X172539000Y-88122088D01*
X172594760Y-87841759D01*
X172704139Y-87577695D01*
X172862934Y-87340042D01*
X173065042Y-87137934D01*
X173302695Y-86979139D01*
X173566759Y-86869760D01*
X173847088Y-86814000D01*
X174132912Y-86814000D01*
X174413241Y-86869760D01*
G37*
G36*
X122978241Y-85599760D02*
G01*
X123242305Y-85709139D01*
X123479958Y-85867934D01*
X123682066Y-86070042D01*
X123840861Y-86307695D01*
X123950240Y-86571759D01*
X124006000Y-86852088D01*
X124006000Y-87137912D01*
X123950240Y-87418241D01*
X123840861Y-87682305D01*
X123682066Y-87919958D01*
X123479958Y-88122066D01*
X123242305Y-88280861D01*
X122978241Y-88390240D01*
X122697912Y-88446000D01*
X122412088Y-88446000D01*
X122131759Y-88390240D01*
X121867695Y-88280861D01*
X121630042Y-88122066D01*
X121427934Y-87919958D01*
X121269139Y-87682305D01*
X121159760Y-87418241D01*
X121104000Y-87137912D01*
X121104000Y-86852088D01*
X121159760Y-86571759D01*
X121269139Y-86307695D01*
X121427934Y-86070042D01*
X121630042Y-85867934D01*
X121867695Y-85709139D01*
X122131759Y-85599760D01*
X122412088Y-85544000D01*
X122697912Y-85544000D01*
X122978241Y-85599760D01*
G37*
G36*
X185161000Y-88141000D02*
G01*
X183459000Y-88141000D01*
X183459000Y-86039000D01*
X185161000Y-86039000D01*
X185161000Y-88141000D01*
G37*
G36*
X182621000Y-88141000D02*
G01*
X180919000Y-88141000D01*
X180919000Y-86039000D01*
X182621000Y-86039000D01*
X182621000Y-88141000D01*
G37*
G36*
X132931000Y-88141000D02*
G01*
X131229000Y-88141000D01*
X131229000Y-86039000D01*
X132931000Y-86039000D01*
X132931000Y-88141000D01*
G37*
G36*
X135471000Y-88141000D02*
G01*
X133769000Y-88141000D01*
X133769000Y-86039000D01*
X135471000Y-86039000D01*
X135471000Y-88141000D01*
G37*
G36*
X129606000Y-85886555D02*
G01*
X129592528Y-85897611D01*
X129576983Y-85916553D01*
X129565432Y-85938164D01*
X129558319Y-85961613D01*
X129555917Y-85985999D01*
X129558319Y-86010385D01*
X129565432Y-86033834D01*
X129584289Y-86065296D01*
X129597610Y-86081528D01*
X129602348Y-86090392D01*
X129605263Y-86100001D01*
X129606852Y-86116140D01*
X129606852Y-86603860D01*
X129605263Y-86619999D01*
X129602348Y-86629608D01*
X129597610Y-86638472D01*
X129591237Y-86646237D01*
X129583472Y-86652610D01*
X129574608Y-86657348D01*
X129564999Y-86660263D01*
X129548860Y-86661852D01*
X129452795Y-86661852D01*
X129428409Y-86664254D01*
X129404960Y-86671367D01*
X129383349Y-86682918D01*
X129364407Y-86698463D01*
X129355643Y-86709142D01*
X129355418Y-86708957D01*
X129341237Y-86726237D01*
X129333472Y-86732610D01*
X129324608Y-86737348D01*
X129314999Y-86740263D01*
X129298860Y-86741852D01*
X129061140Y-86741852D01*
X129045001Y-86740263D01*
X129035392Y-86737348D01*
X129026528Y-86732610D01*
X129018763Y-86726237D01*
X129006197Y-86710925D01*
X129003369Y-86706693D01*
X128986040Y-86689368D01*
X128965665Y-86675755D01*
X128943026Y-86666380D01*
X128906749Y-86661000D01*
X127404000Y-86661000D01*
X127404000Y-83585999D01*
X128006000Y-83585999D01*
X128006000Y-85934001D01*
X128008402Y-85958387D01*
X128015515Y-85981836D01*
X128027066Y-86003447D01*
X128042611Y-86022389D01*
X128061553Y-86037934D01*
X128083164Y-86049485D01*
X128106613Y-86056598D01*
X128130999Y-86059000D01*
X128879001Y-86059000D01*
X128903387Y-86056598D01*
X128926836Y-86049485D01*
X128948447Y-86037934D01*
X128967389Y-86022389D01*
X128982934Y-86003447D01*
X128994485Y-85981836D01*
X129001598Y-85958387D01*
X129004000Y-85934001D01*
X129004000Y-83585999D01*
X129001598Y-83561613D01*
X128994485Y-83538164D01*
X128982934Y-83516553D01*
X128967389Y-83497611D01*
X128948447Y-83482066D01*
X128926836Y-83470515D01*
X128903387Y-83463402D01*
X128879001Y-83461000D01*
X128130999Y-83461000D01*
X128106613Y-83463402D01*
X128083164Y-83470515D01*
X128061553Y-83482066D01*
X128042611Y-83497611D01*
X128027066Y-83516553D01*
X128015515Y-83538164D01*
X128008402Y-83561613D01*
X128006000Y-83585999D01*
X127404000Y-83585999D01*
X127404000Y-82859000D01*
X129606000Y-82859000D01*
X129606000Y-85886555D01*
G37*
G36*
X179606000Y-85886555D02*
G01*
X179592528Y-85897611D01*
X179576983Y-85916553D01*
X179565432Y-85938164D01*
X179558319Y-85961613D01*
X179555917Y-85985999D01*
X179558319Y-86010385D01*
X179565432Y-86033834D01*
X179584289Y-86065296D01*
X179597610Y-86081528D01*
X179602348Y-86090392D01*
X179605263Y-86100001D01*
X179606852Y-86116140D01*
X179606852Y-86603860D01*
X179605263Y-86619999D01*
X179602348Y-86629608D01*
X179597610Y-86638472D01*
X179591237Y-86646237D01*
X179583472Y-86652610D01*
X179574608Y-86657348D01*
X179564999Y-86660263D01*
X179548860Y-86661852D01*
X179452795Y-86661852D01*
X179428409Y-86664254D01*
X179404960Y-86671367D01*
X179383349Y-86682918D01*
X179364407Y-86698463D01*
X179355643Y-86709142D01*
X179355418Y-86708957D01*
X179341237Y-86726237D01*
X179333472Y-86732610D01*
X179324608Y-86737348D01*
X179314999Y-86740263D01*
X179298860Y-86741852D01*
X179061140Y-86741852D01*
X179045001Y-86740263D01*
X179035392Y-86737348D01*
X179026528Y-86732610D01*
X179018763Y-86726237D01*
X179006197Y-86710925D01*
X179003369Y-86706693D01*
X178986040Y-86689368D01*
X178965665Y-86675755D01*
X178943026Y-86666380D01*
X178906749Y-86661000D01*
X177404000Y-86661000D01*
X177404000Y-83585999D01*
X178006000Y-83585999D01*
X178006000Y-85934001D01*
X178008402Y-85958387D01*
X178015515Y-85981836D01*
X178027066Y-86003447D01*
X178042611Y-86022389D01*
X178061553Y-86037934D01*
X178083164Y-86049485D01*
X178106613Y-86056598D01*
X178130999Y-86059000D01*
X178879001Y-86059000D01*
X178903387Y-86056598D01*
X178926836Y-86049485D01*
X178948447Y-86037934D01*
X178967389Y-86022389D01*
X178982934Y-86003447D01*
X178994485Y-85981836D01*
X179001598Y-85958387D01*
X179004000Y-85934001D01*
X179004000Y-83585999D01*
X179001598Y-83561613D01*
X178994485Y-83538164D01*
X178982934Y-83516553D01*
X178967389Y-83497611D01*
X178948447Y-83482066D01*
X178926836Y-83470515D01*
X178903387Y-83463402D01*
X178879001Y-83461000D01*
X178130999Y-83461000D01*
X178106613Y-83463402D01*
X178083164Y-83470515D01*
X178061553Y-83482066D01*
X178042611Y-83497611D01*
X178027066Y-83516553D01*
X178015515Y-83538164D01*
X178008402Y-83561613D01*
X178006000Y-83585999D01*
X177404000Y-83585999D01*
X177404000Y-82859000D01*
X179606000Y-82859000D01*
X179606000Y-85886555D01*
G37*
G36*
X132931000Y-84141000D02*
G01*
X131229000Y-84141000D01*
X131229000Y-82039000D01*
X132931000Y-82039000D01*
X132931000Y-84141000D01*
G37*
G36*
X135471000Y-84141000D02*
G01*
X133769000Y-84141000D01*
X133769000Y-82039000D01*
X135471000Y-82039000D01*
X135471000Y-84141000D01*
G37*
G36*
X185161000Y-84141000D02*
G01*
X183459000Y-84141000D01*
X183459000Y-82039000D01*
X185161000Y-82039000D01*
X185161000Y-84141000D01*
G37*
G36*
X182621000Y-84141000D02*
G01*
X180919000Y-84141000D01*
X180919000Y-82039000D01*
X182621000Y-82039000D01*
X182621000Y-84141000D01*
G37*
G36*
X174413241Y-81154760D02*
G01*
X174677305Y-81264139D01*
X174914958Y-81422934D01*
X175117066Y-81625042D01*
X175275861Y-81862695D01*
X175385240Y-82126759D01*
X175441000Y-82407088D01*
X175441000Y-82692912D01*
X175385240Y-82973241D01*
X175275861Y-83237305D01*
X175117066Y-83474958D01*
X174914958Y-83677066D01*
X174677305Y-83835861D01*
X174413241Y-83945240D01*
X174132912Y-84001000D01*
X173847088Y-84001000D01*
X173566759Y-83945240D01*
X173302695Y-83835861D01*
X173065042Y-83677066D01*
X172862934Y-83474958D01*
X172704139Y-83237305D01*
X172594760Y-82973241D01*
X172539000Y-82692912D01*
X172539000Y-82407088D01*
X172594760Y-82126759D01*
X172704139Y-81862695D01*
X172862934Y-81625042D01*
X173065042Y-81422934D01*
X173302695Y-81264139D01*
X173566759Y-81154760D01*
X173847088Y-81099000D01*
X174132912Y-81099000D01*
X174413241Y-81154760D01*
G37*
G36*
X185931000Y-80911000D02*
G01*
X183829000Y-80911000D01*
X183829000Y-79109000D01*
X185931000Y-79109000D01*
X185931000Y-80911000D01*
G37*
G36*
X181931000Y-80911000D02*
G01*
X179829000Y-80911000D01*
X179829000Y-79109000D01*
X181931000Y-79109000D01*
X181931000Y-80911000D01*
G37*
G36*
X122978241Y-77979760D02*
G01*
X123242305Y-78089139D01*
X123479958Y-78247934D01*
X123682066Y-78450042D01*
X123840861Y-78687695D01*
X123950240Y-78951759D01*
X124006000Y-79232088D01*
X124006000Y-79517912D01*
X123950240Y-79798241D01*
X123840861Y-80062305D01*
X123682066Y-80299958D01*
X123479958Y-80502066D01*
X123242305Y-80660861D01*
X122978241Y-80770240D01*
X122697912Y-80826000D01*
X122412088Y-80826000D01*
X122131759Y-80770240D01*
X121867695Y-80660861D01*
X121630042Y-80502066D01*
X121427934Y-80299958D01*
X121269139Y-80062305D01*
X121159760Y-79798241D01*
X121104000Y-79517912D01*
X121104000Y-79232088D01*
X121159760Y-78951759D01*
X121269139Y-78687695D01*
X121427934Y-78450042D01*
X121630042Y-78247934D01*
X121867695Y-78089139D01*
X122131759Y-77979760D01*
X122412088Y-77924000D01*
X122697912Y-77924000D01*
X122978241Y-77979760D01*
G37*
G36*
X147196000Y-79641000D02*
G01*
X145094000Y-79641000D01*
X145094000Y-77839000D01*
X147196000Y-77839000D01*
X147196000Y-79641000D01*
G37*
G36*
X143196000Y-79641000D02*
G01*
X141094000Y-79641000D01*
X141094000Y-77839000D01*
X143196000Y-77839000D01*
X143196000Y-79641000D01*
G37*
G36*
X181931000Y-78371000D02*
G01*
X179829000Y-78371000D01*
X179829000Y-76569000D01*
X181931000Y-76569000D01*
X181931000Y-78371000D01*
G37*
G36*
X185931000Y-78371000D02*
G01*
X183829000Y-78371000D01*
X183829000Y-76569000D01*
X185931000Y-76569000D01*
X185931000Y-78371000D01*
G37*
G36*
X143196000Y-75831000D02*
G01*
X141094000Y-75831000D01*
X141094000Y-74029000D01*
X143196000Y-74029000D01*
X143196000Y-75831000D01*
G37*
G36*
X147196000Y-75831000D02*
G01*
X145094000Y-75831000D01*
X145094000Y-74029000D01*
X147196000Y-74029000D01*
X147196000Y-75831000D01*
G37*
G36*
X192760880Y-63719776D02*
G01*
X193141593Y-63795504D01*
X193551249Y-63965189D01*
X193919929Y-64211534D01*
X194233466Y-64525071D01*
X194479811Y-64893751D01*
X194649496Y-65303407D01*
X194736000Y-65738296D01*
X194736000Y-66181704D01*
X194649496Y-66616593D01*
X194479811Y-67026249D01*
X194233466Y-67394929D01*
X193919929Y-67708466D01*
X193551249Y-67954811D01*
X193141593Y-68124496D01*
X192760880Y-68200224D01*
X192706705Y-68211000D01*
X192263295Y-68211000D01*
X192209120Y-68200224D01*
X191828407Y-68124496D01*
X191418751Y-67954811D01*
X191050071Y-67708466D01*
X190736534Y-67394929D01*
X190490189Y-67026249D01*
X190320504Y-66616593D01*
X190234000Y-66181704D01*
X190234000Y-65738296D01*
X190320504Y-65303407D01*
X190490189Y-64893751D01*
X190736534Y-64525071D01*
X191050071Y-64211534D01*
X191418751Y-63965189D01*
X191828407Y-63795504D01*
X192209120Y-63719776D01*
X192263295Y-63709000D01*
X192706705Y-63709000D01*
X192760880Y-63719776D01*
G37*
G36*
X116400880Y-63719776D02*
G01*
X116781593Y-63795504D01*
X117191249Y-63965189D01*
X117559929Y-64211534D01*
X117873466Y-64525071D01*
X118119811Y-64893751D01*
X118289496Y-65303407D01*
X118376000Y-65738296D01*
X118376000Y-66181704D01*
X118289496Y-66616593D01*
X118119811Y-67026249D01*
X117873466Y-67394929D01*
X117559929Y-67708466D01*
X117191249Y-67954811D01*
X116781593Y-68124496D01*
X116400880Y-68200224D01*
X116346705Y-68211000D01*
X115903295Y-68211000D01*
X115849120Y-68200224D01*
X115468407Y-68124496D01*
X115058751Y-67954811D01*
X114690071Y-67708466D01*
X114376534Y-67394929D01*
X114130189Y-67026249D01*
X113960504Y-66616593D01*
X113874000Y-66181704D01*
X113874000Y-65738296D01*
X113960504Y-65303407D01*
X114130189Y-64893751D01*
X114376534Y-64525071D01*
X114690071Y-64211534D01*
X115058751Y-63965189D01*
X115468407Y-63795504D01*
X115849120Y-63719776D01*
X115903295Y-63709000D01*
X116346705Y-63709000D01*
X116400880Y-63719776D01*
G37*
G36*
X162939393Y-62884304D02*
G01*
X163176101Y-62982352D01*
X163176103Y-62982353D01*
X163389135Y-63124696D01*
X163570304Y-63305865D01*
X163712647Y-63518897D01*
X163712648Y-63518899D01*
X163810696Y-63755607D01*
X163860680Y-64006893D01*
X163860680Y-64263107D01*
X163810696Y-64514393D01*
X163735641Y-64695590D01*
X163712647Y-64751103D01*
X163570304Y-64964135D01*
X163389135Y-65145304D01*
X163176103Y-65287647D01*
X163176102Y-65287648D01*
X163176101Y-65287648D01*
X162939393Y-65385696D01*
X162688107Y-65435680D01*
X162431893Y-65435680D01*
X162180607Y-65385696D01*
X161943899Y-65287648D01*
X161943898Y-65287648D01*
X161943897Y-65287647D01*
X161730865Y-65145304D01*
X161549696Y-64964135D01*
X161407353Y-64751103D01*
X161384359Y-64695590D01*
X161309304Y-64514393D01*
X161259320Y-64263107D01*
X161259320Y-64006893D01*
X161309304Y-63755607D01*
X161407352Y-63518899D01*
X161407353Y-63518897D01*
X161549696Y-63305865D01*
X161730865Y-63124696D01*
X161943897Y-62982353D01*
X161943899Y-62982352D01*
X162180607Y-62884304D01*
X162431893Y-62834320D01*
X162688107Y-62834320D01*
X162939393Y-62884304D01*
G37*
G36*
X159129393Y-62884304D02*
G01*
X159366101Y-62982352D01*
X159366103Y-62982353D01*
X159579135Y-63124696D01*
X159760304Y-63305865D01*
X159902647Y-63518897D01*
X159902648Y-63518899D01*
X160000696Y-63755607D01*
X160050680Y-64006893D01*
X160050680Y-64263107D01*
X160000696Y-64514393D01*
X159925641Y-64695590D01*
X159902647Y-64751103D01*
X159760304Y-64964135D01*
X159579135Y-65145304D01*
X159366103Y-65287647D01*
X159366102Y-65287648D01*
X159366101Y-65287648D01*
X159129393Y-65385696D01*
X158878107Y-65435680D01*
X158621893Y-65435680D01*
X158370607Y-65385696D01*
X158133899Y-65287648D01*
X158133898Y-65287648D01*
X158133897Y-65287647D01*
X157920865Y-65145304D01*
X157739696Y-64964135D01*
X157597353Y-64751103D01*
X157574359Y-64695590D01*
X157499304Y-64514393D01*
X157449320Y-64263107D01*
X157449320Y-64006893D01*
X157499304Y-63755607D01*
X157597352Y-63518899D01*
X157597353Y-63518897D01*
X157739696Y-63305865D01*
X157920865Y-63124696D01*
X158133897Y-62982353D01*
X158133899Y-62982352D01*
X158370607Y-62884304D01*
X158621893Y-62834320D01*
X158878107Y-62834320D01*
X159129393Y-62884304D01*
G37*
G36*
X155319393Y-62884304D02*
G01*
X155556101Y-62982352D01*
X155556103Y-62982353D01*
X155769135Y-63124696D01*
X155950304Y-63305865D01*
X156092647Y-63518897D01*
X156092648Y-63518899D01*
X156190696Y-63755607D01*
X156240680Y-64006893D01*
X156240680Y-64263107D01*
X156190696Y-64514393D01*
X156115641Y-64695590D01*
X156092647Y-64751103D01*
X155950304Y-64964135D01*
X155769135Y-65145304D01*
X155556103Y-65287647D01*
X155556102Y-65287648D01*
X155556101Y-65287648D01*
X155319393Y-65385696D01*
X155068107Y-65435680D01*
X154811893Y-65435680D01*
X154560607Y-65385696D01*
X154323899Y-65287648D01*
X154323898Y-65287648D01*
X154323897Y-65287647D01*
X154110865Y-65145304D01*
X153929696Y-64964135D01*
X153787353Y-64751103D01*
X153764359Y-64695590D01*
X153689304Y-64514393D01*
X153639320Y-64263107D01*
X153639320Y-64006893D01*
X153689304Y-63755607D01*
X153787352Y-63518899D01*
X153787353Y-63518897D01*
X153929696Y-63305865D01*
X154110865Y-63124696D01*
X154323897Y-62982353D01*
X154323899Y-62982352D01*
X154560607Y-62884304D01*
X154811893Y-62834320D01*
X155068107Y-62834320D01*
X155319393Y-62884304D01*
G37*
G36*
X151509393Y-62884304D02*
G01*
X151746101Y-62982352D01*
X151746103Y-62982353D01*
X151959135Y-63124696D01*
X152140304Y-63305865D01*
X152282647Y-63518897D01*
X152282648Y-63518899D01*
X152380696Y-63755607D01*
X152430680Y-64006893D01*
X152430680Y-64263107D01*
X152380696Y-64514393D01*
X152305641Y-64695590D01*
X152282647Y-64751103D01*
X152140304Y-64964135D01*
X151959135Y-65145304D01*
X151746103Y-65287647D01*
X151746102Y-65287648D01*
X151746101Y-65287648D01*
X151509393Y-65385696D01*
X151258107Y-65435680D01*
X151001893Y-65435680D01*
X150750607Y-65385696D01*
X150513899Y-65287648D01*
X150513898Y-65287648D01*
X150513897Y-65287647D01*
X150300865Y-65145304D01*
X150119696Y-64964135D01*
X149977353Y-64751103D01*
X149954359Y-64695590D01*
X149879304Y-64514393D01*
X149829320Y-64263107D01*
X149829320Y-64006893D01*
X149879304Y-63755607D01*
X149977352Y-63518899D01*
X149977353Y-63518897D01*
X150119696Y-63305865D01*
X150300865Y-63124696D01*
X150513897Y-62982353D01*
X150513899Y-62982352D01*
X150750607Y-62884304D01*
X151001893Y-62834320D01*
X151258107Y-62834320D01*
X151509393Y-62884304D01*
G37*
G36*
X147699393Y-62884304D02*
G01*
X147936101Y-62982352D01*
X147936103Y-62982353D01*
X148149135Y-63124696D01*
X148330304Y-63305865D01*
X148472647Y-63518897D01*
X148472648Y-63518899D01*
X148570696Y-63755607D01*
X148620680Y-64006893D01*
X148620680Y-64263107D01*
X148570696Y-64514393D01*
X148495641Y-64695590D01*
X148472647Y-64751103D01*
X148330304Y-64964135D01*
X148149135Y-65145304D01*
X147936103Y-65287647D01*
X147936102Y-65287648D01*
X147936101Y-65287648D01*
X147699393Y-65385696D01*
X147448107Y-65435680D01*
X147191893Y-65435680D01*
X146940607Y-65385696D01*
X146703899Y-65287648D01*
X146703898Y-65287648D01*
X146703897Y-65287647D01*
X146490865Y-65145304D01*
X146309696Y-64964135D01*
X146167353Y-64751103D01*
X146144359Y-64695590D01*
X146069304Y-64514393D01*
X146019320Y-64263107D01*
X146019320Y-64006893D01*
X146069304Y-63755607D01*
X146167352Y-63518899D01*
X146167353Y-63518897D01*
X146309696Y-63305865D01*
X146490865Y-63124696D01*
X146703897Y-62982353D01*
X146703899Y-62982352D01*
X146940607Y-62884304D01*
X147191893Y-62834320D01*
X147448107Y-62834320D01*
X147699393Y-62884304D01*
G37*
M02*
