M48
; DRILL file {KiCad (5.1.5)-2} date 07/12/2019 01:03:44
; FORMAT={-:-/ absolute / metric / decimal}
; #@! TF.CreationDate,2019-12-07T01:03:44+01:00
; #@! TF.GenerationSoftware,Kicad,Pcbnew,(5.1.5)-2
; #@! TF.FileFunction,Plated,1,2,PTH
FMAT,2
METRIC
T1C0.400
T2C1.001
T3C1.600
T4C2.200
%
G90
G05
T1
X113.03Y-69.85
X114.3Y-85.09
X114.3Y-87.63
X114.3Y-90.17
X118.11Y-67.31
X120.015Y-78.74
X120.65Y-69.85
X121.92Y-72.39
X121.92Y-74.93
X121.92Y-81.28
X123.19Y-80.645
X125.73Y-71.12
X126.27Y-87.09
X128.27Y-71.12
X132.08Y-74.93
X134.62Y-81.915
X134.62Y-85.815
X139.065Y-76.835
X146.685Y-69.85
X147.955Y-81.915
X149.225Y-93.98
X149.86Y-89.535
X153.67Y-73.025
X154.305Y-76.835
X154.305Y-78.105
X156.21Y-69.215
X157.48Y-84.365
X158.115Y-79.465
X158.75Y-76.835
X158.75Y-83.82
X158.75Y-85.725
X162.56Y-70.485
X163.195Y-73.66
X163.83Y-74.93
X167.64Y-82.55
X167.64Y-85.09
X167.64Y-87.63
X168.275Y-69.215
X170.815Y-66.04
X170.815Y-72.39
X175.895Y-66.675
X182.245Y-76.835
X183.515Y-78.83
X184.785Y-73.025
X185.42Y-80.645
X187.325Y-73.025
X188.595Y-68.035
X189.865Y-81.915
X192.405Y-76.835
X194.31Y-85.09
X195.2Y-64.77
X195.683Y-63.603
X195.683Y-65.937
X196.85Y-63.12
X196.85Y-66.42
X198.017Y-63.603
X198.017Y-65.937
X198.5Y-64.77
X195.2Y-102.87
X195.683Y-101.703
X195.683Y-104.037
X196.85Y-101.22
X196.85Y-104.52
X198.017Y-101.703
X198.017Y-104.037
X198.5Y-102.87
X110.11Y-102.87
X110.593Y-101.703
X110.593Y-104.037
X111.76Y-101.22
X111.76Y-104.52
X112.927Y-101.703
X112.927Y-104.037
X113.41Y-102.87
X110.11Y-64.77
X110.593Y-63.603
X110.593Y-65.937
X111.76Y-63.12
X111.76Y-66.42
X112.927Y-63.603
X112.927Y-65.937
X113.41Y-64.77
T2
X147.32Y-64.135
X151.13Y-64.135
X154.94Y-64.135
X158.75Y-64.135
X162.56Y-64.135
T3
X177.165Y-82.55
X187.325Y-93.345
X118.745Y-95.885
X112.395Y-95.885
X181.61Y-93.345
X177.165Y-88.265
X116.84Y-76.835
X111.125Y-76.835
T4
X111.76Y-64.77
X196.85Y-64.77
X196.85Y-102.87
X111.76Y-102.87
T0
M30
