G04 #@! TF.GenerationSoftware,KiCad,Pcbnew,(5.1.5)-2*
G04 #@! TF.CreationDate,2019-12-07T01:04:22+01:00*
G04 #@! TF.ProjectId,tof_sensor,746f665f-7365-46e7-936f-722e6b696361,rev?*
G04 #@! TF.SameCoordinates,Original*
G04 #@! TF.FileFunction,Soldermask,Top*
G04 #@! TF.FilePolarity,Negative*
%FSLAX46Y46*%
G04 Gerber Fmt 4.6, Leading zero omitted, Abs format (unit mm)*
G04 Created by KiCad (PCBNEW (5.1.5)-2) date 2019-12-07 01:04:22*
%MOMM*%
%LPD*%
G04 APERTURE LIST*
%ADD10C,0.100000*%
G04 APERTURE END LIST*
D10*
G36*
X197125880Y-100629776D02*
G01*
X197506593Y-100705504D01*
X197916249Y-100875189D01*
X198284929Y-101121534D01*
X198598466Y-101435071D01*
X198844811Y-101803751D01*
X199014496Y-102213407D01*
X199101000Y-102648296D01*
X199101000Y-103091704D01*
X199014496Y-103526593D01*
X198844811Y-103936249D01*
X198598466Y-104304929D01*
X198284929Y-104618466D01*
X197916249Y-104864811D01*
X197506593Y-105034496D01*
X197125880Y-105110224D01*
X197071705Y-105121000D01*
X196628295Y-105121000D01*
X196574120Y-105110224D01*
X196193407Y-105034496D01*
X195783751Y-104864811D01*
X195415071Y-104618466D01*
X195101534Y-104304929D01*
X194855189Y-103936249D01*
X194685504Y-103526593D01*
X194599000Y-103091704D01*
X194599000Y-102648296D01*
X194685504Y-102213407D01*
X194855189Y-101803751D01*
X195101534Y-101435071D01*
X195415071Y-101121534D01*
X195783751Y-100875189D01*
X196193407Y-100705504D01*
X196574120Y-100629776D01*
X196628295Y-100619000D01*
X197071705Y-100619000D01*
X197125880Y-100629776D01*
G37*
G36*
X112035880Y-100629776D02*
G01*
X112416593Y-100705504D01*
X112826249Y-100875189D01*
X113194929Y-101121534D01*
X113508466Y-101435071D01*
X113754811Y-101803751D01*
X113924496Y-102213407D01*
X114011000Y-102648296D01*
X114011000Y-103091704D01*
X113924496Y-103526593D01*
X113754811Y-103936249D01*
X113508466Y-104304929D01*
X113194929Y-104618466D01*
X112826249Y-104864811D01*
X112416593Y-105034496D01*
X112035880Y-105110224D01*
X111981705Y-105121000D01*
X111538295Y-105121000D01*
X111484120Y-105110224D01*
X111103407Y-105034496D01*
X110693751Y-104864811D01*
X110325071Y-104618466D01*
X110011534Y-104304929D01*
X109765189Y-103936249D01*
X109595504Y-103526593D01*
X109509000Y-103091704D01*
X109509000Y-102648296D01*
X109595504Y-102213407D01*
X109765189Y-101803751D01*
X110011534Y-101435071D01*
X110325071Y-101121534D01*
X110693751Y-100875189D01*
X111103407Y-100705504D01*
X111484120Y-100629776D01*
X111538295Y-100619000D01*
X111981705Y-100619000D01*
X112035880Y-100629776D01*
G37*
G36*
X112818241Y-94489760D02*
G01*
X113082305Y-94599139D01*
X113319958Y-94757934D01*
X113522066Y-94960042D01*
X113680861Y-95197695D01*
X113790240Y-95461759D01*
X113846000Y-95742088D01*
X113846000Y-96027912D01*
X113790240Y-96308241D01*
X113680861Y-96572305D01*
X113522066Y-96809958D01*
X113319958Y-97012066D01*
X113082305Y-97170861D01*
X112818241Y-97280240D01*
X112537912Y-97336000D01*
X112252088Y-97336000D01*
X111971759Y-97280240D01*
X111707695Y-97170861D01*
X111470042Y-97012066D01*
X111267934Y-96809958D01*
X111109139Y-96572305D01*
X110999760Y-96308241D01*
X110944000Y-96027912D01*
X110944000Y-95742088D01*
X110999760Y-95461759D01*
X111109139Y-95197695D01*
X111267934Y-94960042D01*
X111470042Y-94757934D01*
X111707695Y-94599139D01*
X111971759Y-94489760D01*
X112252088Y-94434000D01*
X112537912Y-94434000D01*
X112818241Y-94489760D01*
G37*
G36*
X119168241Y-94489760D02*
G01*
X119432305Y-94599139D01*
X119669958Y-94757934D01*
X119872066Y-94960042D01*
X120030861Y-95197695D01*
X120140240Y-95461759D01*
X120196000Y-95742088D01*
X120196000Y-96027912D01*
X120140240Y-96308241D01*
X120030861Y-96572305D01*
X119872066Y-96809958D01*
X119669958Y-97012066D01*
X119432305Y-97170861D01*
X119168241Y-97280240D01*
X118887912Y-97336000D01*
X118602088Y-97336000D01*
X118321759Y-97280240D01*
X118057695Y-97170861D01*
X117820042Y-97012066D01*
X117617934Y-96809958D01*
X117459139Y-96572305D01*
X117349760Y-96308241D01*
X117294000Y-96027912D01*
X117294000Y-95742088D01*
X117349760Y-95461759D01*
X117459139Y-95197695D01*
X117617934Y-94960042D01*
X117820042Y-94757934D01*
X118057695Y-94599139D01*
X118321759Y-94489760D01*
X118602088Y-94434000D01*
X118887912Y-94434000D01*
X119168241Y-94489760D01*
G37*
G36*
X182033241Y-91949760D02*
G01*
X182297305Y-92059139D01*
X182534958Y-92217934D01*
X182737066Y-92420042D01*
X182895861Y-92657695D01*
X183005240Y-92921759D01*
X183061000Y-93202088D01*
X183061000Y-93487912D01*
X183005240Y-93768241D01*
X182895861Y-94032305D01*
X182737066Y-94269958D01*
X182534958Y-94472066D01*
X182297305Y-94630861D01*
X182033241Y-94740240D01*
X181752912Y-94796000D01*
X181467088Y-94796000D01*
X181186759Y-94740240D01*
X180922695Y-94630861D01*
X180685042Y-94472066D01*
X180482934Y-94269958D01*
X180324139Y-94032305D01*
X180214760Y-93768241D01*
X180159000Y-93487912D01*
X180159000Y-93202088D01*
X180214760Y-92921759D01*
X180324139Y-92657695D01*
X180482934Y-92420042D01*
X180685042Y-92217934D01*
X180922695Y-92059139D01*
X181186759Y-91949760D01*
X181467088Y-91894000D01*
X181752912Y-91894000D01*
X182033241Y-91949760D01*
G37*
G36*
X187748241Y-91949760D02*
G01*
X188012305Y-92059139D01*
X188249958Y-92217934D01*
X188452066Y-92420042D01*
X188610861Y-92657695D01*
X188720240Y-92921759D01*
X188776000Y-93202088D01*
X188776000Y-93487912D01*
X188720240Y-93768241D01*
X188610861Y-94032305D01*
X188452066Y-94269958D01*
X188249958Y-94472066D01*
X188012305Y-94630861D01*
X187748241Y-94740240D01*
X187467912Y-94796000D01*
X187182088Y-94796000D01*
X186901759Y-94740240D01*
X186637695Y-94630861D01*
X186400042Y-94472066D01*
X186197934Y-94269958D01*
X186039139Y-94032305D01*
X185929760Y-93768241D01*
X185874000Y-93487912D01*
X185874000Y-93202088D01*
X185929760Y-92921759D01*
X186039139Y-92657695D01*
X186197934Y-92420042D01*
X186400042Y-92217934D01*
X186637695Y-92059139D01*
X186901759Y-91949760D01*
X187182088Y-91894000D01*
X187467912Y-91894000D01*
X187748241Y-91949760D01*
G37*
G36*
X117351000Y-91071000D02*
G01*
X115249000Y-91071000D01*
X115249000Y-89269000D01*
X117351000Y-89269000D01*
X117351000Y-91071000D01*
G37*
G36*
X113351000Y-91071000D02*
G01*
X111249000Y-91071000D01*
X111249000Y-89269000D01*
X113351000Y-89269000D01*
X113351000Y-91071000D01*
G37*
G36*
X122211000Y-90786000D02*
G01*
X119269000Y-90786000D01*
X119269000Y-89554000D01*
X122211000Y-89554000D01*
X122211000Y-90786000D01*
G37*
G36*
X131211000Y-90786000D02*
G01*
X128269000Y-90786000D01*
X128269000Y-89554000D01*
X131211000Y-89554000D01*
X131211000Y-90786000D01*
G37*
G36*
X161772800Y-89865400D02*
G01*
X159689600Y-89865400D01*
X159689600Y-89204600D01*
X161772800Y-89204600D01*
X161772800Y-89865400D01*
G37*
G36*
X152730400Y-89865400D02*
G01*
X150647200Y-89865400D01*
X150647200Y-89204600D01*
X152730400Y-89204600D01*
X152730400Y-89865400D01*
G37*
G36*
X177588241Y-86869760D02*
G01*
X177852305Y-86979139D01*
X178089958Y-87137934D01*
X178292066Y-87340042D01*
X178450861Y-87577695D01*
X178560240Y-87841759D01*
X178616000Y-88122088D01*
X178616000Y-88407912D01*
X178560240Y-88688241D01*
X178450861Y-88952305D01*
X178292066Y-89189958D01*
X178089958Y-89392066D01*
X177852305Y-89550861D01*
X177588241Y-89660240D01*
X177307912Y-89716000D01*
X177022088Y-89716000D01*
X176741759Y-89660240D01*
X176477695Y-89550861D01*
X176240042Y-89392066D01*
X176037934Y-89189958D01*
X175879139Y-88952305D01*
X175769760Y-88688241D01*
X175714000Y-88407912D01*
X175714000Y-88122088D01*
X175769760Y-87841759D01*
X175879139Y-87577695D01*
X176037934Y-87340042D01*
X176240042Y-87137934D01*
X176477695Y-86979139D01*
X176741759Y-86869760D01*
X177022088Y-86814000D01*
X177307912Y-86814000D01*
X177588241Y-86869760D01*
G37*
G36*
X148171000Y-89411000D02*
G01*
X146469000Y-89411000D01*
X146469000Y-87309000D01*
X148171000Y-87309000D01*
X148171000Y-89411000D01*
G37*
G36*
X135521000Y-88776000D02*
G01*
X133719000Y-88776000D01*
X133719000Y-86674000D01*
X135521000Y-86674000D01*
X135521000Y-88776000D01*
G37*
G36*
X152730400Y-88595400D02*
G01*
X150647200Y-88595400D01*
X150647200Y-87934600D01*
X152730400Y-87934600D01*
X152730400Y-88595400D01*
G37*
G36*
X161772800Y-88595400D02*
G01*
X159689600Y-88595400D01*
X159689600Y-87934600D01*
X161772800Y-87934600D01*
X161772800Y-88595400D01*
G37*
G36*
X113351000Y-88531000D02*
G01*
X111249000Y-88531000D01*
X111249000Y-86729000D01*
X113351000Y-86729000D01*
X113351000Y-88531000D01*
G37*
G36*
X142751000Y-88531000D02*
G01*
X140649000Y-88531000D01*
X140649000Y-86729000D01*
X142751000Y-86729000D01*
X142751000Y-88531000D01*
G37*
G36*
X138751000Y-88531000D02*
G01*
X136649000Y-88531000D01*
X136649000Y-86729000D01*
X138751000Y-86729000D01*
X138751000Y-88531000D01*
G37*
G36*
X166691000Y-88531000D02*
G01*
X164589000Y-88531000D01*
X164589000Y-86729000D01*
X166691000Y-86729000D01*
X166691000Y-88531000D01*
G37*
G36*
X170691000Y-88531000D02*
G01*
X168589000Y-88531000D01*
X168589000Y-86729000D01*
X170691000Y-86729000D01*
X170691000Y-88531000D01*
G37*
G36*
X117351000Y-88531000D02*
G01*
X115249000Y-88531000D01*
X115249000Y-86729000D01*
X117351000Y-86729000D01*
X117351000Y-88531000D01*
G37*
G36*
X131211000Y-88246000D02*
G01*
X128269000Y-88246000D01*
X128269000Y-87014000D01*
X131211000Y-87014000D01*
X131211000Y-88246000D01*
G37*
G36*
X122211000Y-88246000D02*
G01*
X119269000Y-88246000D01*
X119269000Y-87014000D01*
X122211000Y-87014000D01*
X122211000Y-88246000D01*
G37*
G36*
X161772800Y-87325400D02*
G01*
X159689600Y-87325400D01*
X159689600Y-86664600D01*
X161772800Y-86664600D01*
X161772800Y-87325400D01*
G37*
G36*
X152730400Y-87325400D02*
G01*
X150647200Y-87325400D01*
X150647200Y-86664600D01*
X152730400Y-86664600D01*
X152730400Y-87325400D01*
G37*
G36*
X161772800Y-86055400D02*
G01*
X159689600Y-86055400D01*
X159689600Y-85394600D01*
X161772800Y-85394600D01*
X161772800Y-86055400D01*
G37*
G36*
X152730400Y-86055400D02*
G01*
X150647200Y-86055400D01*
X150647200Y-85394600D01*
X152730400Y-85394600D01*
X152730400Y-86055400D01*
G37*
G36*
X166691000Y-85991000D02*
G01*
X164589000Y-85991000D01*
X164589000Y-84189000D01*
X166691000Y-84189000D01*
X166691000Y-85991000D01*
G37*
G36*
X113351000Y-85991000D02*
G01*
X111249000Y-85991000D01*
X111249000Y-84189000D01*
X113351000Y-84189000D01*
X113351000Y-85991000D01*
G37*
G36*
X170691000Y-85991000D02*
G01*
X168589000Y-85991000D01*
X168589000Y-84189000D01*
X170691000Y-84189000D01*
X170691000Y-85991000D01*
G37*
G36*
X117351000Y-85991000D02*
G01*
X115249000Y-85991000D01*
X115249000Y-84189000D01*
X117351000Y-84189000D01*
X117351000Y-85991000D01*
G37*
G36*
X131211000Y-85706000D02*
G01*
X128269000Y-85706000D01*
X128269000Y-84474000D01*
X131211000Y-84474000D01*
X131211000Y-85706000D01*
G37*
G36*
X122211000Y-85706000D02*
G01*
X119269000Y-85706000D01*
X119269000Y-84474000D01*
X122211000Y-84474000D01*
X122211000Y-85706000D01*
G37*
G36*
X148171000Y-85411000D02*
G01*
X146469000Y-85411000D01*
X146469000Y-83309000D01*
X148171000Y-83309000D01*
X148171000Y-85411000D01*
G37*
G36*
X152730400Y-84785400D02*
G01*
X150647200Y-84785400D01*
X150647200Y-84124600D01*
X152730400Y-84124600D01*
X152730400Y-84785400D01*
G37*
G36*
X161772800Y-84785400D02*
G01*
X159689600Y-84785400D01*
X159689600Y-84124600D01*
X161772800Y-84124600D01*
X161772800Y-84785400D01*
G37*
G36*
X135521000Y-84776000D02*
G01*
X133719000Y-84776000D01*
X133719000Y-82674000D01*
X135521000Y-82674000D01*
X135521000Y-84776000D01*
G37*
G36*
X145291000Y-84086000D02*
G01*
X143189000Y-84086000D01*
X143189000Y-82284000D01*
X145291000Y-82284000D01*
X145291000Y-84086000D01*
G37*
G36*
X141291000Y-84086000D02*
G01*
X139189000Y-84086000D01*
X139189000Y-82284000D01*
X141291000Y-82284000D01*
X141291000Y-84086000D01*
G37*
G36*
X177588241Y-81154760D02*
G01*
X177852305Y-81264139D01*
X178089958Y-81422934D01*
X178292066Y-81625042D01*
X178450861Y-81862695D01*
X178560240Y-82126759D01*
X178616000Y-82407088D01*
X178616000Y-82692912D01*
X178560240Y-82973241D01*
X178450861Y-83237305D01*
X178292066Y-83474958D01*
X178089958Y-83677066D01*
X177852305Y-83835861D01*
X177588241Y-83945240D01*
X177307912Y-84001000D01*
X177022088Y-84001000D01*
X176741759Y-83945240D01*
X176477695Y-83835861D01*
X176240042Y-83677066D01*
X176037934Y-83474958D01*
X175879139Y-83237305D01*
X175769760Y-82973241D01*
X175714000Y-82692912D01*
X175714000Y-82407088D01*
X175769760Y-82126759D01*
X175879139Y-81862695D01*
X176037934Y-81625042D01*
X176240042Y-81422934D01*
X176477695Y-81264139D01*
X176741759Y-81154760D01*
X177022088Y-81099000D01*
X177307912Y-81099000D01*
X177588241Y-81154760D01*
G37*
G36*
X161772800Y-83515400D02*
G01*
X159689600Y-83515400D01*
X159689600Y-82854600D01*
X161772800Y-82854600D01*
X161772800Y-83515400D01*
G37*
G36*
X152730400Y-83515400D02*
G01*
X150647200Y-83515400D01*
X150647200Y-82854600D01*
X152730400Y-82854600D01*
X152730400Y-83515400D01*
G37*
G36*
X197361000Y-83451000D02*
G01*
X195259000Y-83451000D01*
X195259000Y-81649000D01*
X197361000Y-81649000D01*
X197361000Y-83451000D01*
G37*
G36*
X193361000Y-83451000D02*
G01*
X191259000Y-83451000D01*
X191259000Y-81649000D01*
X193361000Y-81649000D01*
X193361000Y-83451000D01*
G37*
G36*
X166691000Y-83401000D02*
G01*
X164589000Y-83401000D01*
X164589000Y-81699000D01*
X166691000Y-81699000D01*
X166691000Y-83401000D01*
G37*
G36*
X170691000Y-83401000D02*
G01*
X168589000Y-83401000D01*
X168589000Y-81699000D01*
X170691000Y-81699000D01*
X170691000Y-83401000D01*
G37*
G36*
X161772800Y-82245400D02*
G01*
X159689600Y-82245400D01*
X159689600Y-81584600D01*
X161772800Y-81584600D01*
X161772800Y-82245400D01*
G37*
G36*
X152730400Y-82245400D02*
G01*
X150647200Y-82245400D01*
X150647200Y-81584600D01*
X152730400Y-81584600D01*
X152730400Y-82245400D01*
G37*
G36*
X141291000Y-81546000D02*
G01*
X139189000Y-81546000D01*
X139189000Y-79744000D01*
X141291000Y-79744000D01*
X141291000Y-81546000D01*
G37*
G36*
X145291000Y-81546000D02*
G01*
X143189000Y-81546000D01*
X143189000Y-79744000D01*
X145291000Y-79744000D01*
X145291000Y-81546000D01*
G37*
G36*
X184471000Y-81546000D02*
G01*
X182369000Y-81546000D01*
X182369000Y-79744000D01*
X184471000Y-79744000D01*
X184471000Y-81546000D01*
G37*
G36*
X188471000Y-81546000D02*
G01*
X186369000Y-81546000D01*
X186369000Y-79744000D01*
X188471000Y-79744000D01*
X188471000Y-81546000D01*
G37*
G36*
X161772800Y-80975400D02*
G01*
X159689600Y-80975400D01*
X159689600Y-80314600D01*
X161772800Y-80314600D01*
X161772800Y-80975400D01*
G37*
G36*
X152730400Y-80975400D02*
G01*
X150647200Y-80975400D01*
X150647200Y-80314600D01*
X152730400Y-80314600D01*
X152730400Y-80975400D01*
G37*
G36*
X161772800Y-79705400D02*
G01*
X159689600Y-79705400D01*
X159689600Y-79044600D01*
X161772800Y-79044600D01*
X161772800Y-79705400D01*
G37*
G36*
X152730400Y-79705400D02*
G01*
X150647200Y-79705400D01*
X150647200Y-79044600D01*
X152730400Y-79044600D01*
X152730400Y-79705400D01*
G37*
G36*
X161772800Y-78435400D02*
G01*
X159689600Y-78435400D01*
X159689600Y-77774600D01*
X161772800Y-77774600D01*
X161772800Y-78435400D01*
G37*
G36*
X152730400Y-78435400D02*
G01*
X150647200Y-78435400D01*
X150647200Y-77774600D01*
X152730400Y-77774600D01*
X152730400Y-78435400D01*
G37*
G36*
X117263241Y-75439760D02*
G01*
X117527305Y-75549139D01*
X117764958Y-75707934D01*
X117967066Y-75910042D01*
X118125861Y-76147695D01*
X118235240Y-76411759D01*
X118291000Y-76692088D01*
X118291000Y-76977912D01*
X118235240Y-77258241D01*
X118125861Y-77522305D01*
X117967066Y-77759958D01*
X117764958Y-77962066D01*
X117527305Y-78120861D01*
X117263241Y-78230240D01*
X116982912Y-78286000D01*
X116697088Y-78286000D01*
X116416759Y-78230240D01*
X116152695Y-78120861D01*
X115915042Y-77962066D01*
X115712934Y-77759958D01*
X115554139Y-77522305D01*
X115444760Y-77258241D01*
X115389000Y-76977912D01*
X115389000Y-76692088D01*
X115444760Y-76411759D01*
X115554139Y-76147695D01*
X115712934Y-75910042D01*
X115915042Y-75707934D01*
X116152695Y-75549139D01*
X116416759Y-75439760D01*
X116697088Y-75384000D01*
X116982912Y-75384000D01*
X117263241Y-75439760D01*
G37*
G36*
X111548241Y-75439760D02*
G01*
X111812305Y-75549139D01*
X112049958Y-75707934D01*
X112252066Y-75910042D01*
X112410861Y-76147695D01*
X112520240Y-76411759D01*
X112576000Y-76692088D01*
X112576000Y-76977912D01*
X112520240Y-77258241D01*
X112410861Y-77522305D01*
X112252066Y-77759958D01*
X112049958Y-77962066D01*
X111812305Y-78120861D01*
X111548241Y-78230240D01*
X111267912Y-78286000D01*
X110982088Y-78286000D01*
X110701759Y-78230240D01*
X110437695Y-78120861D01*
X110200042Y-77962066D01*
X109997934Y-77759958D01*
X109839139Y-77522305D01*
X109729760Y-77258241D01*
X109674000Y-76977912D01*
X109674000Y-76692088D01*
X109729760Y-76411759D01*
X109839139Y-76147695D01*
X109997934Y-75910042D01*
X110200042Y-75707934D01*
X110437695Y-75549139D01*
X110701759Y-75439760D01*
X110982088Y-75384000D01*
X111267912Y-75384000D01*
X111548241Y-75439760D01*
G37*
G36*
X195178642Y-76064781D02*
G01*
X195324414Y-76125162D01*
X195324416Y-76125163D01*
X195455608Y-76212822D01*
X195567178Y-76324392D01*
X195625554Y-76411759D01*
X195654838Y-76455586D01*
X195715219Y-76601358D01*
X195746000Y-76756107D01*
X195746000Y-76913893D01*
X195715219Y-77068642D01*
X195675140Y-77165400D01*
X195654837Y-77214416D01*
X195567178Y-77345608D01*
X195455608Y-77457178D01*
X195324416Y-77544837D01*
X195324415Y-77544838D01*
X195324414Y-77544838D01*
X195178642Y-77605219D01*
X195023893Y-77636000D01*
X194866107Y-77636000D01*
X194711358Y-77605219D01*
X194565586Y-77544838D01*
X194565585Y-77544838D01*
X194565584Y-77544837D01*
X194434392Y-77457178D01*
X194322822Y-77345608D01*
X194235163Y-77214416D01*
X194214860Y-77165400D01*
X194174781Y-77068642D01*
X194144000Y-76913893D01*
X194144000Y-76756107D01*
X194174781Y-76601358D01*
X194235162Y-76455586D01*
X194264446Y-76411759D01*
X194322822Y-76324392D01*
X194434392Y-76212822D01*
X194565584Y-76125163D01*
X194565586Y-76125162D01*
X194711358Y-76064781D01*
X194866107Y-76034000D01*
X195023893Y-76034000D01*
X195178642Y-76064781D01*
G37*
G36*
X190733642Y-76064781D02*
G01*
X190879414Y-76125162D01*
X190879416Y-76125163D01*
X191010608Y-76212822D01*
X191122178Y-76324392D01*
X191180554Y-76411759D01*
X191209838Y-76455586D01*
X191270219Y-76601358D01*
X191301000Y-76756107D01*
X191301000Y-76913893D01*
X191270219Y-77068642D01*
X191230140Y-77165400D01*
X191209837Y-77214416D01*
X191122178Y-77345608D01*
X191010608Y-77457178D01*
X190879416Y-77544837D01*
X190879415Y-77544838D01*
X190879414Y-77544838D01*
X190733642Y-77605219D01*
X190578893Y-77636000D01*
X190421107Y-77636000D01*
X190266358Y-77605219D01*
X190120586Y-77544838D01*
X190120585Y-77544838D01*
X190120584Y-77544837D01*
X189989392Y-77457178D01*
X189877822Y-77345608D01*
X189790163Y-77214416D01*
X189769860Y-77165400D01*
X189729781Y-77068642D01*
X189699000Y-76913893D01*
X189699000Y-76756107D01*
X189729781Y-76601358D01*
X189790162Y-76455586D01*
X189819446Y-76411759D01*
X189877822Y-76324392D01*
X189989392Y-76212822D01*
X190120584Y-76125163D01*
X190120586Y-76125162D01*
X190266358Y-76064781D01*
X190421107Y-76034000D01*
X190578893Y-76034000D01*
X190733642Y-76064781D01*
G37*
G36*
X161772800Y-77165400D02*
G01*
X159689600Y-77165400D01*
X159689600Y-76504600D01*
X161772800Y-76504600D01*
X161772800Y-77165400D01*
G37*
G36*
X152730400Y-77165400D02*
G01*
X150647200Y-77165400D01*
X150647200Y-76504600D01*
X152730400Y-76504600D01*
X152730400Y-77165400D01*
G37*
G36*
X143141000Y-76711000D02*
G01*
X141339000Y-76711000D01*
X141339000Y-74609000D01*
X143141000Y-74609000D01*
X143141000Y-76711000D01*
G37*
G36*
X161772800Y-75895400D02*
G01*
X159689600Y-75895400D01*
X159689600Y-75234600D01*
X161772800Y-75234600D01*
X161772800Y-75895400D01*
G37*
G36*
X152730400Y-75895400D02*
G01*
X150647200Y-75895400D01*
X150647200Y-75234600D01*
X152730400Y-75234600D01*
X152730400Y-75895400D01*
G37*
G36*
X134886000Y-74806000D02*
G01*
X133084000Y-74806000D01*
X133084000Y-72704000D01*
X134886000Y-72704000D01*
X134886000Y-74806000D01*
G37*
G36*
X138061000Y-74806000D02*
G01*
X136259000Y-74806000D01*
X136259000Y-72704000D01*
X138061000Y-72704000D01*
X138061000Y-74806000D01*
G37*
G36*
X152730400Y-74625400D02*
G01*
X150647200Y-74625400D01*
X150647200Y-73964600D01*
X152730400Y-73964600D01*
X152730400Y-74625400D01*
G37*
G36*
X161772800Y-74625400D02*
G01*
X159689600Y-74625400D01*
X159689600Y-73964600D01*
X161772800Y-73964600D01*
X161772800Y-74625400D01*
G37*
G36*
X129121000Y-74171000D02*
G01*
X127419000Y-74171000D01*
X127419000Y-72069000D01*
X129121000Y-72069000D01*
X129121000Y-74171000D01*
G37*
G36*
X126581000Y-74171000D02*
G01*
X124879000Y-74171000D01*
X124879000Y-72069000D01*
X126581000Y-72069000D01*
X126581000Y-74171000D01*
G37*
G36*
X152730400Y-73355400D02*
G01*
X150647200Y-73355400D01*
X150647200Y-72694600D01*
X152730400Y-72694600D01*
X152730400Y-73355400D01*
G37*
G36*
X161772800Y-73355400D02*
G01*
X159689600Y-73355400D01*
X159689600Y-72694600D01*
X161772800Y-72694600D01*
X161772800Y-73355400D01*
G37*
G36*
X169771000Y-73241000D02*
G01*
X167669000Y-73241000D01*
X167669000Y-71539000D01*
X169771000Y-71539000D01*
X169771000Y-73241000D01*
G37*
G36*
X145101000Y-73241000D02*
G01*
X143999000Y-73241000D01*
X143999000Y-71539000D01*
X145101000Y-71539000D01*
X145101000Y-73241000D01*
G37*
G36*
X148101000Y-73241000D02*
G01*
X146999000Y-73241000D01*
X146999000Y-71539000D01*
X148101000Y-71539000D01*
X148101000Y-73241000D01*
G37*
G36*
X173771000Y-73241000D02*
G01*
X171669000Y-73241000D01*
X171669000Y-71539000D01*
X173771000Y-71539000D01*
X173771000Y-73241000D01*
G37*
G36*
X143141000Y-72711000D02*
G01*
X141339000Y-72711000D01*
X141339000Y-70609000D01*
X143141000Y-70609000D01*
X143141000Y-72711000D01*
G37*
G36*
X185336000Y-71806000D02*
G01*
X184234000Y-71806000D01*
X184234000Y-68604000D01*
X185336000Y-68604000D01*
X185336000Y-71806000D01*
G37*
G36*
X187876000Y-71806000D02*
G01*
X186774000Y-71806000D01*
X186774000Y-68604000D01*
X187876000Y-68604000D01*
X187876000Y-71806000D01*
G37*
G36*
X190416000Y-71806000D02*
G01*
X189314000Y-71806000D01*
X189314000Y-68604000D01*
X190416000Y-68604000D01*
X190416000Y-71806000D01*
G37*
G36*
X192956000Y-71806000D02*
G01*
X191854000Y-71806000D01*
X191854000Y-68604000D01*
X192956000Y-68604000D01*
X192956000Y-71806000D01*
G37*
G36*
X180256000Y-71806000D02*
G01*
X179154000Y-71806000D01*
X179154000Y-68604000D01*
X180256000Y-68604000D01*
X180256000Y-71806000D01*
G37*
G36*
X182796000Y-71806000D02*
G01*
X181694000Y-71806000D01*
X181694000Y-68604000D01*
X182796000Y-68604000D01*
X182796000Y-71806000D01*
G37*
G36*
X161611000Y-71336000D02*
G01*
X159509000Y-71336000D01*
X159509000Y-69634000D01*
X161611000Y-69634000D01*
X161611000Y-71336000D01*
G37*
G36*
X165611000Y-71336000D02*
G01*
X163509000Y-71336000D01*
X163509000Y-69634000D01*
X165611000Y-69634000D01*
X165611000Y-71336000D01*
G37*
G36*
X119801000Y-71026000D02*
G01*
X118099000Y-71026000D01*
X118099000Y-68674000D01*
X119801000Y-68674000D01*
X119801000Y-71026000D01*
G37*
G36*
X123201000Y-71026000D02*
G01*
X121499000Y-71026000D01*
X121499000Y-68674000D01*
X123201000Y-68674000D01*
X123201000Y-71026000D01*
G37*
G36*
X134886000Y-70806000D02*
G01*
X133084000Y-70806000D01*
X133084000Y-68704000D01*
X134886000Y-68704000D01*
X134886000Y-70806000D01*
G37*
G36*
X138061000Y-70806000D02*
G01*
X136259000Y-70806000D01*
X136259000Y-68704000D01*
X138061000Y-68704000D01*
X138061000Y-70806000D01*
G37*
G36*
X116081000Y-70751000D02*
G01*
X113979000Y-70751000D01*
X113979000Y-68949000D01*
X116081000Y-68949000D01*
X116081000Y-70751000D01*
G37*
G36*
X112081000Y-70751000D02*
G01*
X109979000Y-70751000D01*
X109979000Y-68949000D01*
X112081000Y-68949000D01*
X112081000Y-70751000D01*
G37*
G36*
X145736000Y-70701000D02*
G01*
X143634000Y-70701000D01*
X143634000Y-68999000D01*
X145736000Y-68999000D01*
X145736000Y-70701000D01*
G37*
G36*
X149736000Y-70701000D02*
G01*
X147634000Y-70701000D01*
X147634000Y-68999000D01*
X149736000Y-68999000D01*
X149736000Y-70701000D01*
G37*
G36*
X173631000Y-70541000D02*
G01*
X171969000Y-70541000D01*
X171969000Y-69789000D01*
X173631000Y-69789000D01*
X173631000Y-70541000D01*
G37*
G36*
X170931000Y-70541000D02*
G01*
X169269000Y-70541000D01*
X169269000Y-67889000D01*
X170931000Y-67889000D01*
X170931000Y-70541000D01*
G37*
G36*
X126581000Y-70171000D02*
G01*
X124879000Y-70171000D01*
X124879000Y-68069000D01*
X126581000Y-68069000D01*
X126581000Y-70171000D01*
G37*
G36*
X129121000Y-70171000D02*
G01*
X127419000Y-70171000D01*
X127419000Y-68069000D01*
X129121000Y-68069000D01*
X129121000Y-70171000D01*
G37*
G36*
X173631000Y-68641000D02*
G01*
X171969000Y-68641000D01*
X171969000Y-67889000D01*
X173631000Y-67889000D01*
X173631000Y-68641000D01*
G37*
G36*
X112035880Y-62529776D02*
G01*
X112416593Y-62605504D01*
X112826249Y-62775189D01*
X113194929Y-63021534D01*
X113508466Y-63335071D01*
X113754811Y-63703751D01*
X113924496Y-64113407D01*
X114011000Y-64548296D01*
X114011000Y-64991704D01*
X113924496Y-65426593D01*
X113754811Y-65836249D01*
X113508466Y-66204929D01*
X113194929Y-66518466D01*
X112826249Y-66764811D01*
X112416593Y-66934496D01*
X112035880Y-67010224D01*
X111981705Y-67021000D01*
X111538295Y-67021000D01*
X111484120Y-67010224D01*
X111103407Y-66934496D01*
X110693751Y-66764811D01*
X110325071Y-66518466D01*
X110011534Y-66204929D01*
X109765189Y-65836249D01*
X109595504Y-65426593D01*
X109509000Y-64991704D01*
X109509000Y-64548296D01*
X109595504Y-64113407D01*
X109765189Y-63703751D01*
X110011534Y-63335071D01*
X110325071Y-63021534D01*
X110693751Y-62775189D01*
X111103407Y-62605504D01*
X111484120Y-62529776D01*
X111538295Y-62519000D01*
X111981705Y-62519000D01*
X112035880Y-62529776D01*
G37*
G36*
X197125880Y-62529776D02*
G01*
X197506593Y-62605504D01*
X197916249Y-62775189D01*
X198284929Y-63021534D01*
X198598466Y-63335071D01*
X198844811Y-63703751D01*
X199014496Y-64113407D01*
X199101000Y-64548296D01*
X199101000Y-64991704D01*
X199014496Y-65426593D01*
X198844811Y-65836249D01*
X198598466Y-66204929D01*
X198284929Y-66518466D01*
X197916249Y-66764811D01*
X197506593Y-66934496D01*
X197125880Y-67010224D01*
X197071705Y-67021000D01*
X196628295Y-67021000D01*
X196574120Y-67010224D01*
X196193407Y-66934496D01*
X195783751Y-66764811D01*
X195415071Y-66518466D01*
X195101534Y-66204929D01*
X194855189Y-65836249D01*
X194685504Y-65426593D01*
X194599000Y-64991704D01*
X194599000Y-64548296D01*
X194685504Y-64113407D01*
X194855189Y-63703751D01*
X195101534Y-63335071D01*
X195415071Y-63021534D01*
X195783751Y-62775189D01*
X196193407Y-62605504D01*
X196574120Y-62529776D01*
X196628295Y-62519000D01*
X197071705Y-62519000D01*
X197125880Y-62529776D01*
G37*
G36*
X169866000Y-66891000D02*
G01*
X167764000Y-66891000D01*
X167764000Y-65189000D01*
X169866000Y-65189000D01*
X169866000Y-66891000D01*
G37*
G36*
X173866000Y-66891000D02*
G01*
X171764000Y-66891000D01*
X171764000Y-65189000D01*
X173866000Y-65189000D01*
X173866000Y-66891000D01*
G37*
G36*
X127321000Y-65671000D02*
G01*
X125219000Y-65671000D01*
X125219000Y-63869000D01*
X127321000Y-63869000D01*
X127321000Y-65671000D01*
G37*
G36*
X131321000Y-65671000D02*
G01*
X129219000Y-65671000D01*
X129219000Y-63869000D01*
X131321000Y-63869000D01*
X131321000Y-65671000D01*
G37*
G36*
X155319393Y-62884304D02*
G01*
X155556101Y-62982352D01*
X155556103Y-62982353D01*
X155769135Y-63124696D01*
X155950304Y-63305865D01*
X156092647Y-63518897D01*
X156092648Y-63518899D01*
X156190696Y-63755607D01*
X156240680Y-64006893D01*
X156240680Y-64263107D01*
X156190696Y-64514393D01*
X156133269Y-64653033D01*
X156092647Y-64751103D01*
X155950304Y-64964135D01*
X155769135Y-65145304D01*
X155556103Y-65287647D01*
X155556102Y-65287648D01*
X155556101Y-65287648D01*
X155319393Y-65385696D01*
X155068107Y-65435680D01*
X154811893Y-65435680D01*
X154560607Y-65385696D01*
X154323899Y-65287648D01*
X154323898Y-65287648D01*
X154323897Y-65287647D01*
X154110865Y-65145304D01*
X153929696Y-64964135D01*
X153787353Y-64751103D01*
X153746731Y-64653033D01*
X153689304Y-64514393D01*
X153639320Y-64263107D01*
X153639320Y-64006893D01*
X153689304Y-63755607D01*
X153787352Y-63518899D01*
X153787353Y-63518897D01*
X153929696Y-63305865D01*
X154110865Y-63124696D01*
X154323897Y-62982353D01*
X154323899Y-62982352D01*
X154560607Y-62884304D01*
X154811893Y-62834320D01*
X155068107Y-62834320D01*
X155319393Y-62884304D01*
G37*
G36*
X147699393Y-62884304D02*
G01*
X147936101Y-62982352D01*
X147936103Y-62982353D01*
X148149135Y-63124696D01*
X148330304Y-63305865D01*
X148472647Y-63518897D01*
X148472648Y-63518899D01*
X148570696Y-63755607D01*
X148620680Y-64006893D01*
X148620680Y-64263107D01*
X148570696Y-64514393D01*
X148513269Y-64653033D01*
X148472647Y-64751103D01*
X148330304Y-64964135D01*
X148149135Y-65145304D01*
X147936103Y-65287647D01*
X147936102Y-65287648D01*
X147936101Y-65287648D01*
X147699393Y-65385696D01*
X147448107Y-65435680D01*
X147191893Y-65435680D01*
X146940607Y-65385696D01*
X146703899Y-65287648D01*
X146703898Y-65287648D01*
X146703897Y-65287647D01*
X146490865Y-65145304D01*
X146309696Y-64964135D01*
X146167353Y-64751103D01*
X146126731Y-64653033D01*
X146069304Y-64514393D01*
X146019320Y-64263107D01*
X146019320Y-64006893D01*
X146069304Y-63755607D01*
X146167352Y-63518899D01*
X146167353Y-63518897D01*
X146309696Y-63305865D01*
X146490865Y-63124696D01*
X146703897Y-62982353D01*
X146703899Y-62982352D01*
X146940607Y-62884304D01*
X147191893Y-62834320D01*
X147448107Y-62834320D01*
X147699393Y-62884304D01*
G37*
G36*
X162939393Y-62884304D02*
G01*
X163176101Y-62982352D01*
X163176103Y-62982353D01*
X163389135Y-63124696D01*
X163570304Y-63305865D01*
X163712647Y-63518897D01*
X163712648Y-63518899D01*
X163810696Y-63755607D01*
X163860680Y-64006893D01*
X163860680Y-64263107D01*
X163810696Y-64514393D01*
X163753269Y-64653033D01*
X163712647Y-64751103D01*
X163570304Y-64964135D01*
X163389135Y-65145304D01*
X163176103Y-65287647D01*
X163176102Y-65287648D01*
X163176101Y-65287648D01*
X162939393Y-65385696D01*
X162688107Y-65435680D01*
X162431893Y-65435680D01*
X162180607Y-65385696D01*
X161943899Y-65287648D01*
X161943898Y-65287648D01*
X161943897Y-65287647D01*
X161730865Y-65145304D01*
X161549696Y-64964135D01*
X161407353Y-64751103D01*
X161366731Y-64653033D01*
X161309304Y-64514393D01*
X161259320Y-64263107D01*
X161259320Y-64006893D01*
X161309304Y-63755607D01*
X161407352Y-63518899D01*
X161407353Y-63518897D01*
X161549696Y-63305865D01*
X161730865Y-63124696D01*
X161943897Y-62982353D01*
X161943899Y-62982352D01*
X162180607Y-62884304D01*
X162431893Y-62834320D01*
X162688107Y-62834320D01*
X162939393Y-62884304D01*
G37*
G36*
X159129393Y-62884304D02*
G01*
X159366101Y-62982352D01*
X159366103Y-62982353D01*
X159579135Y-63124696D01*
X159760304Y-63305865D01*
X159902647Y-63518897D01*
X159902648Y-63518899D01*
X160000696Y-63755607D01*
X160050680Y-64006893D01*
X160050680Y-64263107D01*
X160000696Y-64514393D01*
X159943269Y-64653033D01*
X159902647Y-64751103D01*
X159760304Y-64964135D01*
X159579135Y-65145304D01*
X159366103Y-65287647D01*
X159366102Y-65287648D01*
X159366101Y-65287648D01*
X159129393Y-65385696D01*
X158878107Y-65435680D01*
X158621893Y-65435680D01*
X158370607Y-65385696D01*
X158133899Y-65287648D01*
X158133898Y-65287648D01*
X158133897Y-65287647D01*
X157920865Y-65145304D01*
X157739696Y-64964135D01*
X157597353Y-64751103D01*
X157556731Y-64653033D01*
X157499304Y-64514393D01*
X157449320Y-64263107D01*
X157449320Y-64006893D01*
X157499304Y-63755607D01*
X157597352Y-63518899D01*
X157597353Y-63518897D01*
X157739696Y-63305865D01*
X157920865Y-63124696D01*
X158133897Y-62982353D01*
X158133899Y-62982352D01*
X158370607Y-62884304D01*
X158621893Y-62834320D01*
X158878107Y-62834320D01*
X159129393Y-62884304D01*
G37*
G36*
X151509393Y-62884304D02*
G01*
X151746101Y-62982352D01*
X151746103Y-62982353D01*
X151959135Y-63124696D01*
X152140304Y-63305865D01*
X152282647Y-63518897D01*
X152282648Y-63518899D01*
X152380696Y-63755607D01*
X152430680Y-64006893D01*
X152430680Y-64263107D01*
X152380696Y-64514393D01*
X152323269Y-64653033D01*
X152282647Y-64751103D01*
X152140304Y-64964135D01*
X151959135Y-65145304D01*
X151746103Y-65287647D01*
X151746102Y-65287648D01*
X151746101Y-65287648D01*
X151509393Y-65385696D01*
X151258107Y-65435680D01*
X151001893Y-65435680D01*
X150750607Y-65385696D01*
X150513899Y-65287648D01*
X150513898Y-65287648D01*
X150513897Y-65287647D01*
X150300865Y-65145304D01*
X150119696Y-64964135D01*
X149977353Y-64751103D01*
X149936731Y-64653033D01*
X149879304Y-64514393D01*
X149829320Y-64263107D01*
X149829320Y-64006893D01*
X149879304Y-63755607D01*
X149977352Y-63518899D01*
X149977353Y-63518897D01*
X150119696Y-63305865D01*
X150300865Y-63124696D01*
X150513897Y-62982353D01*
X150513899Y-62982352D01*
X150750607Y-62884304D01*
X151001893Y-62834320D01*
X151258107Y-62834320D01*
X151509393Y-62884304D01*
G37*
M02*
