%FSLAX45Y45*%
G04 Gerber Fmt 4.5, Leading zero omitted, Abs format (unit mm)*
G04 Created by KiCad (PCBNEW (5.1.5)-2) date 2019-12-14 03:40:01*
%MOMM*%
%LPD*%
G04 APERTURE LIST*
%TA.AperFunction,Profile*%
%ADD10C,0.050000*%
%TD*%
%ADD11C,0.200000*%
%ADD12C,0.300000*%
G04 APERTURE END LIST*
D10*
X19558000Y-6096000D02*
G75*
G02X19748500Y-6286500I0J-190500D01*
G01*
X19748500Y-10477500D02*
G75*
G02X19558000Y-10668000I-190500J0D01*
G01*
X11303000Y-10668000D02*
G75*
G02X11112500Y-10477500I0J190500D01*
G01*
X11112500Y-6286500D02*
G75*
G02X11303000Y-6096000I190500J0D01*
G01*
X11303000Y-6096000D02*
X19558000Y-6096000D01*
X11112500Y-10477500D02*
X11112500Y-6286500D01*
X19748500Y-8763000D02*
X19748500Y-10477500D01*
X19558000Y-10668000D02*
X11303000Y-10668000D01*
X19748500Y-6286500D02*
X19748500Y-8763000D01*
D11*
D12*
X11396428Y-11136214D02*
X11396428Y-10836214D01*
X11467857Y-10836214D01*
X11510714Y-10850500D01*
X11539286Y-10879072D01*
X11553571Y-10907643D01*
X11567857Y-10964786D01*
X11567857Y-11007643D01*
X11553571Y-11064786D01*
X11539286Y-11093357D01*
X11510714Y-11121929D01*
X11467857Y-11136214D01*
X11396428Y-11136214D01*
X11696428Y-11136214D02*
X11696428Y-10936214D01*
X11696428Y-10993357D02*
X11710714Y-10964786D01*
X11725000Y-10950500D01*
X11753571Y-10936214D01*
X11782143Y-10936214D01*
X11882143Y-11136214D02*
X11882143Y-10936214D01*
X11882143Y-10836214D02*
X11867857Y-10850500D01*
X11882143Y-10864786D01*
X11896428Y-10850500D01*
X11882143Y-10836214D01*
X11882143Y-10864786D01*
X12067857Y-11136214D02*
X12039286Y-11121929D01*
X12025000Y-11093357D01*
X12025000Y-10836214D01*
X12225000Y-11136214D02*
X12196428Y-11121929D01*
X12182143Y-11093357D01*
X12182143Y-10836214D01*
X12567857Y-11136214D02*
X12567857Y-10836214D01*
X12667857Y-11050500D01*
X12767857Y-10836214D01*
X12767857Y-11136214D01*
X13039286Y-11136214D02*
X13039286Y-10979072D01*
X13025000Y-10950500D01*
X12996428Y-10936214D01*
X12939286Y-10936214D01*
X12910714Y-10950500D01*
X13039286Y-11121929D02*
X13010714Y-11136214D01*
X12939286Y-11136214D01*
X12910714Y-11121929D01*
X12896428Y-11093357D01*
X12896428Y-11064786D01*
X12910714Y-11036214D01*
X12939286Y-11021929D01*
X13010714Y-11021929D01*
X13039286Y-11007643D01*
X13182143Y-10936214D02*
X13182143Y-11236214D01*
X13182143Y-10950500D02*
X13210714Y-10936214D01*
X13267857Y-10936214D01*
X13296428Y-10950500D01*
X13310714Y-10964786D01*
X13325000Y-10993357D01*
X13325000Y-11079072D01*
X13310714Y-11107643D01*
X13296428Y-11121929D01*
X13267857Y-11136214D01*
X13210714Y-11136214D01*
X13182143Y-11121929D01*
X13453571Y-11107643D02*
X13467857Y-11121929D01*
X13453571Y-11136214D01*
X13439286Y-11121929D01*
X13453571Y-11107643D01*
X13453571Y-11136214D01*
X13453571Y-10950500D02*
X13467857Y-10964786D01*
X13453571Y-10979072D01*
X13439286Y-10964786D01*
X13453571Y-10950500D01*
X13453571Y-10979072D01*
M02*
