M48
; DRILL file {KiCad (5.1.5)-2} date 14/12/2019 03:40:00
; FORMAT={-:-/ absolute / metric / decimal}
; #@! TF.CreationDate,2019-12-14T03:40:00+01:00
; #@! TF.GenerationSoftware,Kicad,Pcbnew,(5.1.5)-2
; #@! TF.FileFunction,Plated,1,2,PTH
FMAT,2
METRIC
T1C0.400
T2C1.001
T3C1.600
T4C2.200
%
G90
G05
T1
X117.475Y-78.74
X118.745Y-71.12
X118.745Y-76.2
X126.365Y-67.945
X128.27Y-67.31
X128.27Y-76.2
X129.032Y-64.008
X130.175Y-77.47
X131.7Y-80.265
X132.08Y-85.09
X132.715Y-66.675
X133.35Y-74.93
X133.35Y-80.645
X134.62Y-70.485
X135.89Y-79.375
X135.89Y-85.09
X136.525Y-71.755
X136.652Y-78.232
X139.065Y-71.755
X139.7Y-86.36
X139.7Y-88.9
X142.875Y-64.77
X144.78Y-96.52
X144.78Y-99.06
X144.78Y-101.6
X146.685Y-69.85
X147.32Y-86.36
X147.955Y-81.915
X148.59Y-74.93
X148.59Y-78.74
X151.765Y-92.53
X153.67Y-73.025
X153.67Y-100.965
X154.305Y-76.835
X154.305Y-78.105
X157.48Y-80.645
X157.48Y-84.365
X158.115Y-79.465
X158.75Y-76.835
X158.75Y-83.82
X158.75Y-85.725
X161.29Y-70.485
X163.195Y-73.66
X163.83Y-74.93
X166.37Y-69.215
X167.64Y-82.55
X167.64Y-85.09
X167.64Y-87.63
X168.275Y-93.345
X168.91Y-66.04
X168.91Y-72.39
X173.355Y-76.835
X177.8Y-73.025
X178.435Y-77.47
X178.435Y-79.375
X182.88Y-73.025
X182.88Y-77.47
X182.88Y-80.01
X184.31Y-85.09
X190.835Y-65.96
X191.318Y-64.793
X191.318Y-67.127
X192.485Y-64.31
X192.485Y-67.61
X193.652Y-64.793
X193.652Y-67.127
X194.135Y-65.96
X114.475Y-101.68
X114.958Y-100.513
X114.958Y-102.847
X116.125Y-100.03
X116.125Y-103.33
X117.292Y-100.513
X117.292Y-102.847
X117.775Y-101.68
X190.835Y-101.68
X191.318Y-100.513
X191.318Y-102.847
X192.485Y-100.03
X192.485Y-103.33
X193.652Y-100.513
X193.652Y-102.847
X194.135Y-101.68
X114.475Y-65.96
X114.958Y-64.793
X114.958Y-67.127
X116.125Y-64.31
X116.125Y-67.61
X117.292Y-64.793
X117.292Y-67.127
X117.775Y-65.96
T2
X147.32Y-64.135
X151.13Y-64.135
X154.94Y-64.135
X158.75Y-64.135
X162.56Y-64.135
T3
X181.61Y-93.345
X132.08Y-95.25
X122.555Y-80.01
X122.555Y-86.995
X173.99Y-82.55
X137.16Y-95.25
X187.325Y-93.345
X173.99Y-88.265
T4
X192.485Y-65.96
X116.125Y-101.68
X192.485Y-101.68
X116.125Y-65.96
T0
M30
